<svg xmlns="http://www.w3.org/2000/svg" viewBox="0 0 1081.4 130.3"><defs><style>.cls-1{fill:#92c8f4}.cls-2{fill:#fff}</style></defs><title>Asset 3</title><g id="Layer_2" data-name="Layer 2"><g id="Layer_1-2" data-name="Layer 1"><path class="cls-1" d="M102.44 28.9h-34.5v100.05H39.5V28.9H5V6.35h97.44zm57.64-22.55q13 0 22.26 3.07a42.75 42.75 0 0 1 15.32 8.46 33 33 0 0 1 8.88 12.71 43.08 43.08 0 0 1 2.86 15.82 46.52 46.52 0 0 1-2.95 16.83 33.77 33.77 0 0 1-9 13.13 42.43 42.43 0 0 1-15.36 8.54 70.39 70.39 0 0 1-22 3.07h-14.82v41h-28.44V6.35zm0 60.17q11.11 0 16-5.3T181 46.4a22.14 22.14 0 0 0-1.26-7.66 15.59 15.59 0 0 0-3.83-5.93 17.24 17.24 0 0 0-6.53-3.81 28.69 28.69 0 0 0-9.3-1.35h-14.81v38.86zM267.12 6.35q13 0 22.26 3.07a42.75 42.75 0 0 1 15.32 8.46 33 33 0 0 1 8.88 12.71 43.08 43.08 0 0 1 2.86 15.82 46.52 46.52 0 0 1-2.95 16.83 33.77 33.77 0 0 1-9 13.13 42.43 42.43 0 0 1-15.36 8.54 70.39 70.39 0 0 1-22 3.07h-14.82v41h-28.45V6.35zm0 60.17q11.11 0 16-5.3T288 46.4a22.14 22.14 0 0 0-1.26-7.66 15.59 15.59 0 0 0-3.83-5.93 17.24 17.24 0 0 0-6.5-3.81 28.69 28.69 0 0 0-9.3-1.35h-14.8v38.86zM448 28.9h-34.5v100.05h-28.41V28.9h-34.5V6.35H448zm131.89 38.71a65.9 65.9 0 0 1-4.59 24.74 58.47 58.47 0 0 1-33 33.15 73.21 73.21 0 0 1-52.13 0 58.51 58.51 0 0 1-33.11-33.15 65.86 65.86 0 0 1-4.59-24.74 65.87 65.87 0 0 1 4.59-24.74A58.85 58.85 0 0 1 470 23a59.91 59.91 0 0 1 20.19-13.2A68.55 68.55 0 0 1 516.27 5a67.73 67.73 0 0 1 26 4.84 60.09 60.09 0 0 1 20.07 13.25 59.19 59.19 0 0 1 12.96 19.86 65.68 65.68 0 0 1 4.59 24.66zm-29.12 0a53 53 0 0 0-2.36-16.37 34.68 34.68 0 0 0-6.77-12.33 29.23 29.23 0 0 0-10.81-7.74 37.22 37.22 0 0 0-14.56-2.69 37.76 37.76 0 0 0-14.68 2.69 29.15 29.15 0 0 0-10.86 7.74A34.67 34.67 0 0 0 484 51.24a53 53 0 0 0-2.36 16.37A53.29 53.29 0 0 0 484 84.06a34.64 34.64 0 0 0 6.77 12.33 28.73 28.73 0 0 0 10.86 7.7 38.29 38.29 0 0 0 14.68 2.65 37.75 37.75 0 0 0 14.56-2.65 28.8 28.8 0 0 0 10.81-7.7 34.66 34.66 0 0 0 6.77-12.33 53.35 53.35 0 0 0 2.32-16.45zm166.23 0a65.9 65.9 0 0 1-4.59 24.74 58.47 58.47 0 0 1-33 33.15 73.21 73.21 0 0 1-52.13 0 58.51 58.51 0 0 1-33.11-33.15 65.86 65.86 0 0 1-4.59-24.74 65.87 65.87 0 0 1 4.59-24.74 58.85 58.85 0 0 1 13-19.86A59.91 59.91 0 0 1 627.26 9.8 68.55 68.55 0 0 1 653.35 5a67.73 67.73 0 0 1 26 4.84 60.09 60.09 0 0 1 20.07 13.25 59.19 59.19 0 0 1 12.92 19.86A65.68 65.68 0 0 1 717 67.61zm-29.12 0a53 53 0 0 0-2.36-16.37 34.68 34.68 0 0 0-6.77-12.33 29.23 29.23 0 0 0-10.81-7.74 37.22 37.22 0 0 0-14.56-2.69 37.76 37.76 0 0 0-14.68 2.69 29.15 29.15 0 0 0-10.86 7.74A34.67 34.67 0 0 0 621 51.24a53 53 0 0 0-2.36 16.37A53.29 53.29 0 0 0 621 84.06a34.64 34.64 0 0 0 6.77 12.33 28.73 28.73 0 0 0 10.86 7.7 38.29 38.29 0 0 0 14.68 2.65 37.75 37.75 0 0 0 14.56-2.65 28.8 28.8 0 0 0 10.81-7.7 34.66 34.66 0 0 0 6.77-12.33 53.35 53.35 0 0 0 2.4-16.45zm119.71 38.62v22.72h-73.88V6.35h28.44v99.88zM850.5 56h4.5q6.31 0 9.09-4l27.65-40A13.58 13.58 0 0 1 897 7.57a17.74 17.74 0 0 1 7-1.22h24.74l-36.33 49.56a24.77 24.77 0 0 1-8.33 7.41 20.49 20.49 0 0 1 5.81 3.28 24.75 24.75 0 0 1 4.88 5.47l37 56.88h-25.39a22 22 0 0 1-4.17-.34 10.58 10.58 0 0 1-3-1A8.58 8.58 0 0 1 897 126a16.09 16.09 0 0 1-1.77-2.23l-27.73-42.7a8.37 8.37 0 0 0-3.83-3.32 16.64 16.64 0 0 0-6.27-1h-6.9v52.17h-28.44V6.35h28.44zm119.07 72.95H941V6.35h28.61zM1081.4 28.9h-34.5v100.05h-28.44V28.9H984V6.35h97.44z"/><path class="cls-2" d="M96.44 2.35V22.9h-34.5v100.05H35.5V22.9H1V2.35h95.44m1-1H0V23.9h34.5v100.05h28.44V23.9h34.5V1.35zm57.64 1a70.7 70.7 0 0 1 21.94 3 42 42 0 0 1 15 8.25 32.14 32.14 0 0 1 8.61 12.32 42.29 42.29 0 0 1 2.79 15.46 45.75 45.75 0 0 1-2.88 16.47 32.94 32.94 0 0 1-8.74 12.74 41.64 41.64 0 0 1-15 8.33 69.72 69.72 0 0 1-21.69 3h-15.84v41h-26.44V2.35h42.25m-15.81 60.16h15.81c7.66 0 13.29-1.89 16.72-5.62S177 48 177 41.4a23.24 23.24 0 0 0-1.32-8 16.65 16.65 0 0 0-4.07-6.31 18.31 18.31 0 0 0-6.9-4.09 29.8 29.8 0 0 0-9.62-1.4h-15.82v40.91m15.81-61.16h-43.25v122.6h28.44V83h14.81a70.39 70.39 0 0 0 22-3.07 42.43 42.43 0 0 0 15.36-8.54 33.77 33.77 0 0 0 9-13.13 46.52 46.52 0 0 0 2.95-16.83 43.08 43.08 0 0 0-2.86-15.82 33 33 0 0 0-8.88-12.71 42.75 42.75 0 0 0-15.32-8.46Q168 1.35 155.08 1.35zm-14.81 60.16V22.64h14.81a28.69 28.69 0 0 1 9.3 1.35 17.24 17.24 0 0 1 6.48 3.83 15.59 15.59 0 0 1 3.83 5.93A22.14 22.14 0 0 1 176 41.4q0 9.51-4.88 14.81t-16 5.3zM262.12 2.35a70.7 70.7 0 0 1 21.94 3 42 42 0 0 1 15 8.25 32.14 32.14 0 0 1 8.61 12.32 42.29 42.29 0 0 1 2.79 15.46 45.75 45.75 0 0 1-2.88 16.47 32.94 32.94 0 0 1-8.74 12.74 41.64 41.64 0 0 1-15 8.33 69.72 69.72 0 0 1-21.69 3h-15.84v41h-26.45V2.35h42.25m-15.8 60.16h15.81c7.66 0 13.29-1.89 16.72-5.62S284 48 284 41.4a23.24 23.24 0 0 0-1.32-8 16.65 16.65 0 0 0-4.07-6.31 18.31 18.31 0 0 0-6.87-4.09 29.8 29.8 0 0 0-9.62-1.4h-15.81v40.91m15.81-61.16h-43.26v122.6h28.44V83h14.81a70.39 70.39 0 0 0 22-3.07 42.43 42.43 0 0 0 15.36-8.54 33.77 33.77 0 0 0 9-13.13 46.52 46.52 0 0 0 2.95-16.83 43.08 43.08 0 0 0-2.86-15.82 33 33 0 0 0-8.88-12.71 42.75 42.75 0 0 0-15.32-8.46q-9.3-3.07-22.26-3.07zm-14.81 60.16V22.64h14.81a28.69 28.69 0 0 1 9.3 1.35 17.24 17.24 0 0 1 6.48 3.83 15.59 15.59 0 0 1 3.83 5.93A22.14 22.14 0 0 1 283 41.4q0 9.51-4.88 14.81t-16 5.3zM442 2.35V22.9h-34.5v100.05h-26.41V22.9h-34.5V2.35H442m1-1h-97.41V23.9h34.5v100.05h28.44V23.9H443V1.35zM511.27 1a67.05 67.05 0 0 1 25.66 4.76 59.38 59.38 0 0 1 19.74 13 58.46 58.46 0 0 1 12.7 19.53 65 65 0 0 1 4.51 24.28A65.2 65.2 0 0 1 569.37 87a57.47 57.47 0 0 1-32.44 32.6 72.22 72.22 0 0 1-51.37 0A57.52 57.52 0 0 1 453 87a65.17 65.17 0 0 1-4.51-24.37A65.18 65.18 0 0 1 453 38.24a58.12 58.12 0 0 1 12.74-19.52 59.19 59.19 0 0 1 19.82-13A67.87 67.87 0 0 1 511.27 1m0 101.73a38.91 38.91 0 0 0 14.94-2.73 29.93 29.93 0 0 0 11.18-8 35.81 35.81 0 0 0 7-12.68 54.58 54.58 0 0 0 2.4-16.76 54.29 54.29 0 0 0-2.4-16.67 35.83 35.83 0 0 0-7-12.68 30.35 30.35 0 0 0-11.18-8 38.38 38.38 0 0 0-14.95-2.77 38.93 38.93 0 0 0-15.07 2.77 30.28 30.28 0 0 0-11.22 8 35.81 35.81 0 0 0-7 12.68 54.23 54.23 0 0 0-2.41 16.67 54.53 54.53 0 0 0 2.44 16.8A35.79 35.79 0 0 0 485 92a29.86 29.86 0 0 0 11.23 8 39.46 39.46 0 0 0 15.06 2.73M511.27 0a68.55 68.55 0 0 0-26.09 4.8A59.91 59.91 0 0 0 465 18a58.85 58.85 0 0 0-13 19.86 65.87 65.87 0 0 0-4.59 24.74A65.86 65.86 0 0 0 452 87.34a58.51 58.51 0 0 0 33.11 33.15 73.21 73.21 0 0 0 52.13 0 58.47 58.47 0 0 0 33-33.15 65.9 65.9 0 0 0 4.59-24.74A65.68 65.68 0 0 0 570.3 38a59.19 59.19 0 0 0-12.92-19.86 60.09 60.09 0 0 0-20.06-13.3 67.73 67.73 0 0 0-26-4.84zm0 101.73a38.29 38.29 0 0 1-14.68-2.65 28.73 28.73 0 0 1-10.86-7.7A34.64 34.64 0 0 1 479 79.06a53.29 53.29 0 0 1-2.36-16.45A53 53 0 0 1 479 46.24a34.67 34.67 0 0 1 6.77-12.33 29.15 29.15 0 0 1 10.86-7.74 37.76 37.76 0 0 1 14.68-2.69 37.22 37.22 0 0 1 14.56 2.69 29.23 29.23 0 0 1 10.81 7.74 34.68 34.68 0 0 1 6.77 12.33 53 53 0 0 1 2.36 16.37 53.35 53.35 0 0 1-2.36 16.45 34.66 34.66 0 0 1-6.77 12.33 28.8 28.8 0 0 1-10.81 7.7 37.75 37.75 0 0 1-14.56 2.65zM648.35 1A67.05 67.05 0 0 1 674 5.76a59.38 59.38 0 0 1 19.74 13 58.46 58.46 0 0 1 12.7 19.53A65 65 0 0 1 711 62.61 65.2 65.2 0 0 1 706.45 87 57.47 57.47 0 0 1 674 119.57a72.22 72.22 0 0 1-51.37 0A57.52 57.52 0 0 1 590.08 87a65.17 65.17 0 0 1-4.51-24.37 65.18 65.18 0 0 1 4.51-24.37 58.12 58.12 0 0 1 12.74-19.52 59.19 59.19 0 0 1 19.82-13A67.87 67.87 0 0 1 648.35 1m0 101.73a38.91 38.91 0 0 0 14.94-2.73 29.93 29.93 0 0 0 11.18-8 35.81 35.81 0 0 0 7-12.68 54.58 54.58 0 0 0 2.4-16.76 54.29 54.29 0 0 0-2.4-16.67 35.83 35.83 0 0 0-7-12.68 30.35 30.35 0 0 0-11.18-8 38.38 38.38 0 0 0-14.95-2.77 38.93 38.93 0 0 0-15.07 2.77 30.28 30.28 0 0 0-11.22 8 35.81 35.81 0 0 0-7 12.68 54.23 54.23 0 0 0-2.41 16.67 54.53 54.53 0 0 0 2.4 16.76 35.79 35.79 0 0 0 7 12.68 29.86 29.86 0 0 0 11.23 8 39.46 39.46 0 0 0 15.06 2.73M648.35 0a68.55 68.55 0 0 0-26.09 4.8A59.91 59.91 0 0 0 602.11 18a58.85 58.85 0 0 0-13 19.86 65.87 65.87 0 0 0-4.59 24.74 65.86 65.86 0 0 0 4.59 24.74 58.51 58.51 0 0 0 33.11 33.15 73.21 73.21 0 0 0 52.13 0 58.47 58.47 0 0 0 33-33.15A65.9 65.9 0 0 0 712 62.61 65.68 65.68 0 0 0 707.38 38a59.19 59.19 0 0 0-12.92-19.86 60.09 60.09 0 0 0-20.07-13.3 67.73 67.73 0 0 0-26-4.84zm0 101.73a38.29 38.29 0 0 1-14.68-2.65 28.73 28.73 0 0 1-10.86-7.7A34.64 34.64 0 0 1 616 79.06a53.29 53.29 0 0 1-2.36-16.45A53 53 0 0 1 616 46.24a34.67 34.67 0 0 1 6.77-12.33 29.15 29.15 0 0 1 10.86-7.74 37.76 37.76 0 0 1 14.68-2.69 37.22 37.22 0 0 1 14.56 2.69 29.23 29.23 0 0 1 10.81 7.74 34.68 34.68 0 0 1 6.77 12.33 53 53 0 0 1 2.36 16.37 53.35 53.35 0 0 1-2.36 16.45 34.66 34.66 0 0 1-6.77 12.33 28.8 28.8 0 0 1-10.81 7.7 37.75 37.75 0 0 1-14.56 2.65zm107.8-99.38v99.88h45.44v20.72h-71.88V2.35h26.44m1-1h-28.44v122.6h73.88v-22.72h-45.44V1.35zm164.64 1l-35.18 48a23.91 23.91 0 0 1-8 7.12l-2 1 2.14.79a19.58 19.58 0 0 1 5.52 3.12 23.84 23.84 0 0 1 4.67 5.24l36 55.34h-23.56a21.13 21.13 0 0 1-4-.32 9.64 9.64 0 0 1-2.71-.91 7.61 7.61 0 0 1-1.94-1.45 15.13 15.13 0 0 1-1.65-2.08l-27.74-42.67a9.39 9.39 0 0 0-4.29-3.71 17.67 17.67 0 0 0-6.65-1h-7.9v52.17h-26.44V2.35h26.44V52h5.5c4.53 0 7.87-1.47 9.91-4.39l27.57-40a12.67 12.67 0 0 1 4.86-4.11A16.85 16.85 0 0 1 899 2.35h22.77m2-1H899a17.74 17.74 0 0 0-7 1.22A13.58 13.58 0 0 0 886.74 7l-27.6 40q-2.78 4-9.09 4h-4.55V1.35h-28.44v122.6h28.44V71.78h6.9a16.64 16.64 0 0 1 6.27 1 8.37 8.37 0 0 1 3.83 3.32l27.77 42.66A16.09 16.09 0 0 0 892 121a8.58 8.58 0 0 0 2.19 1.64 10.58 10.58 0 0 0 3 1 22 22 0 0 0 4.17.34h25.41l-37-56.88a24.75 24.75 0 0 0-4.88-5.47 20.49 20.49 0 0 0-5.81-3.28 24.77 24.77 0 0 0 8.33-7.41l36.35-49.59zm39.8 1v120.6H937V2.35h26.61m1-1H936v122.6h28.61V1.35zm110.79 1V22.9h-34.5v100.05h-26.44V22.9H980V2.35h95.44m1-1H979V23.9h34.5v100.05h28.44V23.9h34.5V1.35z"/></g></g></svg>