<svg xmlns="http://www.w3.org/2000/svg" viewBox="0 0 328.61 299.98"><defs><style>.cls-1{isolation:isolate}.cls-2{fill:#f5f5f5}.cls-3{fill:#242424}.cls-4{fill:#484848}.cls-5{fill:#b33924}.cls-14,.cls-6{fill:#f2f2f2}.cls-7{fill:#1c1c1c}.cls-8{fill:#fddbbb}.cls-9{fill:#e39234}.cls-10{fill:#eb7d86}.cls-11{fill:#e6e6e6}.cls-11,.cls-14,.cls-16{mix-blend-mode:multiply}.cls-12{fill:#f5f0e1}.cls-13{fill:#53645b}.cls-15{fill:#594a42}.cls-17{fill:#e6e7e8}.cls-18{fill:#14c3a2}</style></defs><title>Asset 4</title><g class="cls-1"><g id="Layer_2" data-name="Layer 2"><g id="Objects"><path class="cls-2" d="M225.84 111.63l-1.61-.06.81 6.85 1.57-.38-.77-6.41z"/><path class="cls-3" d="M264.18 92.22s5.81 23-38 26.69l-1.18-7.77s31.26-.77 31.94-16.91z"/><circle class="cls-4" cx="232.49" cy="116.33" r=".72" transform="rotate(-89.03 232.49 116.332)"/><circle class="cls-4" cx="230" cy="116.72" r=".72" transform="rotate(-88.9 230.606 116.494)"/><circle class="cls-4" cx="227.58" cy="117.11" r=".72" transform="rotate(-89.08 227.57 117.12)"/><path class="cls-5" d="M209.92 94.32a18 18 0 0 1 12.41 22.23l-.15.54A18 18 0 0 1 200 129.5l-25.15-7.13-5.35 18.88 25.15 7.13a37.66 37.66 0 0 0 46.45-25.94l.15-.54a37.66 37.66 0 0 0-25.94-46.45l-25.15-7.13-5.39 18.88z"/><path class="cls-6" transform="rotate(-74.18 163.57 129.39)" d="M153.75 120.48h19.62v17.81h-19.62z"/><path class="cls-6" transform="rotate(-74.18 178.882 75.33)" d="M169.06 66.43h19.62v17.81h-19.62z"/><path class="cls-7" d="M256.27 129.39l.88 19.08 3.36 11s-5.82-3.21-8.59 1.76c-3.9 7 12.18 2.15 12.18 2.15l-3.1-15.55 1.42-12.83a138.4 138.4 0 0 0 39.4 2.69l-.16 10.82 4.34 13.84s-6.6-4.83-8.85 1.11c-3 7.95 12.09 1.58 12.09 1.58L307 148.31l1.06-14s-19.21-6.51-51.79-4.92z"/><path class="cls-3" d="M297.06 85.75l-19.83 22.52-16.16-24.86-5.22-.29.41 46.26s4.73 1.93 15.09 3.44c4.33.71 11 1.22 11 1.22 6.79.4 16 .61 25.67.29l7.41-47.41z"/><path class="cls-8" d="M255.86 83.12s-6.13-68.07 45.51-43.77c0 0 25-3.08 14.06 47.58z"/><path class="cls-9" d="M266.22 0S226 54.28 299.88 50.27l1.6 12s5.55-5.19 6.91.63-5.72 3.59-5.72 3.59 5.71 16.3 12.75 20.42c0 0 21-56-7.6-51.89 0 0 2.43-12.76-12.16-16.22-26.06-6.15-29.83-8.19-29.44-18.8z"/><path class="cls-2" d="M261.07 83.41l16.16 24.86 19.83-22.52-35.99-2.34z"/><path class="cls-4" d="M261.07 83.41l-.87 10.15 5.67 1.53-1.28 7.69 12.64 5.49-16.16-24.86zm16.16 24.86l12.91-5.31-.1-5.66 6.18-1.81.84-9.74-19.83 22.52z"/><path class="cls-7" d="M273.28 89.18l2.07-2.72 4.9.13 1.58 3.53-2.11 2.18 1.99 10.91-4.48 5.06-4.29-6.6 2.44-9.53-2.1-2.96z"/><path class="cls-10" d="M286.35 73.29c-.35 3.18-1.65 8.3-10.53 7.81-9.12-.51-7.72-9.41-7.72-9.41s9.84-1.95 18.25 1.6z"/><path class="cls-8" d="M322.92 133.21l-5.59-1.75-2 4.31c-.12.31-.76 2.25.15 2.55a1 1 0 0 0 1.06-.45c0 .41.11.83.51 1a.91.91 0 0 0 1-.36.83.83 0 0 0 .51.84 1 1 0 0 0 1.06-.45c0 .42.1.83.51 1 .85.28 1.4-.94 1.57-1.36z"/><path class="cls-2" d="M316.97 131.44l-.72 1.44 6.57 2.1.31-1.59-6.16-1.95z"/><path class="cls-3" d="M315.11 88.51s23.35 4.2 8.63 45.61l-7.57-2.12s12.21-28.79-2.22-36.08z"/><circle class="cls-4" cx="323.99" cy="127.33" r=".72" transform="rotate(-64.65 324.003 127.333)"/><circle class="cls-4" cx="323.32" cy="129.76" r=".72" transform="rotate(-64.68 323.298 129.769)"/><circle class="cls-4" cx="322.68" cy="132.12" r=".72" transform="rotate(-64.69 322.698 132.123)"/><circle class="cls-4" cx="276.89" cy="112" r="1.65" transform="matrix(.27 -.96 .96 .27 94.6 348.62)"/><circle class="cls-4" cx="276.7" cy="119.56" r="1.65" transform="rotate(-74.43 276.687 119.557)"/><path class="cls-4" d="M266.52 66.19a4.7 4.7 0 0 0 3.64-1.26c2.29-2.17 2.32-6.34 2.32-6.52v-.49h-1v.49s0 3.93-2 5.81a3.76 3.76 0 0 1-2.91 1 3.62 3.62 0 0 1-2.77-1.32c-1.73-2.12-1.16-6-1.16-6.08l.07-.49-1-.15-.07.49c0 .18-.63 4.4 1.37 6.85a4.61 4.61 0 0 0 3.51 1.67zm22.09 1.7a4.37 4.37 0 0 0 3.75-1.28c2.35-2.07 2.41-6.13 2.41-6.3v-.49h-1v.49s-.1 3.75-2.1 5.6a4 4 0 0 1-3 1 3.78 3.78 0 0 1-2.85-1.35c-1.74-2.13-1.19-6-1.18-6.05l.07-.49-1-.14-.07.49c0 .18-.62 4.36 1.39 6.82a4.73 4.73 0 0 0 3.58 1.7z"/><path class="cls-11" d="M167.63 82.34l15.88 4.5a54.26 54.26 0 0 1-3.82-16.12 68 68 0 0 0 8 2.6q1-2.56 2-5.14L173 63.47z"/><path class="cls-12" d="M134.5 138.26q9-1.34 18.2-2.11a67.94 67.94 0 0 0-14.29-39.67q-7.82 4.66-15.24 9.73a54.15 54.15 0 0 1 11.33 32.05z"/><path class="cls-13" d="M138.19 97.93q-2.1 1.23-4.16 2.48-2.69 1.63-5.33 3.31-2.05 1.31-4.08 2.64 1.29 1.72 2.43 3.52a55 55 0 0 1 8.19 23.21q.23 2 .31 4.09 2.44-.38 4.88-.72 3.14-.44 6.3-.81 2.43-.29 4.86-.53-.12-2.5-.42-5a67.13 67.13 0 0 0-10-28q-1.42-2.12-2.98-4.19zm-1.44 34.54a56.07 56.07 0 0 0-2.08-9.78 7.74 7.74 0 0 0 7.17 1.3 7 7 0 0 0 5.32-5.37A65.94 65.94 0 0 1 149.6 130a4 4 0 0 0-3.3 4.17q-2.82.38-5.63.82a3.05 3.05 0 0 0-3.93-2.52zm-2.09-30.64a4.28 4.28 0 0 0 5.3 1.35 66 66 0 0 1 5.4 10.56 7.06 7.06 0 0 0-7.57-1 7.74 7.74 0 0 0-4.65 5.71 56.14 56.14 0 0 0-4.61-9.09 3.2 3.2 0 0 0 1.26-4.66q2.43-1.45 4.86-2.87z"/><path class="cls-12" d="M170 33.49q-7.36 5.43-15.07 10.41a67.94 67.94 0 0 0 31.24 28.31q4.72-7.79 8.89-15.75A54.15 54.15 0 0 1 170 33.49z"/><path class="cls-13" d="M185.65 70.83q1.28-2.07 2.51-4.15 1.61-2.7 3.15-5.43 1.2-2.12 2.36-4.25-1.95-.91-3.8-2a55 55 0 0 1-18.13-16.65q-1.16-1.69-2.2-3.47-2 1.48-4 2.93-2.57 1.86-5.18 3.67-2 1.39-4 2.75 1.28 2.16 2.72 4.21a67.13 67.13 0 0 0 22 20q2.22 1.29 4.57 2.39zm-14.94-31.17a56.07 56.07 0 0 0 6.43 7.66 7.74 7.74 0 0 0-6.94 2.22 7 7 0 0 0-2.17 7.24 66 66 0 0 1-7.56-8.9 4 4 0 0 0 1-5.23q2.31-1.66 4.58-3.37a3.05 3.05 0 0 0 4.66.38zm16.24 26.07a4.28 4.28 0 0 0-5.32 1.3 66 66 0 0 1-9.72-6.79 7.06 7.06 0 0 0 7.09-2.71 7.74 7.74 0 0 0 1.42-7.23 56.14 56.14 0 0 0 8.34 5.86 3.2 3.2 0 0 0 1.08 4.7q-1.42 2.47-2.9 4.87z"/><path class="cls-12" d="M127.29 49.67q4.07 8.19 7.62 16.66a67.94 67.94 0 0 0 33.33-25.83q-6.84-6-14-11.5a54.15 54.15 0 0 1-26.95 20.67z"/><path class="cls-13" d="M166.79 40.74q-1.81-1.62-3.64-3.2-2.38-2.05-4.8-4-1.88-1.55-3.77-3.06-1.24 1.76-2.6 3.39a55 55 0 0 1-19.56 14.94q-1.87.85-3.8 1.56 1.11 2.2 2.19 4.42 1.39 2.86 2.71 5.75 1 2.22 2 4.46 2.35-.88 4.62-1.94a67.13 67.13 0 0 0 23.5-18.16q1.66-2.04 3.15-4.16zM133.49 50a56.08 56.08 0 0 0 8.66-5 7.74 7.74 0 0 0 1 7.22 7 7 0 0 0 6.75 3.4 65.94 65.94 0 0 1-10.09 5.89 4 4 0 0 0-5-1.85q-1.23-2.56-2.52-5.1a3.05 3.05 0 0 0 1.2-4.56zM162 38.58a4.28 4.28 0 0 0 .35 5.46 66 66 0 0 1-8.35 8.39 7.06 7.06 0 0 0-1.43-7.5 7.74 7.74 0 0 0-6.87-2.66 56.13 56.13 0 0 0 7.23-7.19 3.2 3.2 0 0 0 4.82-.24q2.14 1.86 4.25 3.74z"/><path class="cls-12" d="M127.79 57.81q.31 9.14.05 18.32a67.94 67.94 0 0 0 41-9.73q-3.75-8.29-8-16.24a54.16 54.16 0 0 1-33.05 7.65z"/><path class="cls-13" d="M167.45 66q-1-2.22-2-4.42-1.32-2.86-2.69-5.67-1.07-2.19-2.17-4.35-1.86 1.09-3.77 2a55 55 0 0 1-24 5.52q-2.05 0-4.1-.15.11 2.46.17 4.93.08 3.17.09 6.35v4.89q2.5.17 5 .14a67.13 67.13 0 0 0 28.91-6.82q2.32-1.09 4.56-2.42zm-34.15-5.32v-.05a56.08 56.08 0 0 0 10-1 7.74 7.74 0 0 0-2.1 7 7.05 7.05 0 0 0 4.74 5.89 65.93 65.93 0 0 1-11.62 1.19 4 4 0 0 0-3.84-3.71q-.06-2.84-.18-5.68a3.05 3.05 0 0 0 2.99-3.63zm30.7 1.38a4.28 4.28 0 0 0-2 5.12 66 66 0 0 1-11.1 4.18 7.06 7.06 0 0 0 1.8-7.42 7.74 7.74 0 0 0-5.15-5.26 56.14 56.14 0 0 0 9.55-3.56 3.2 3.2 0 0 0 4.49 1.77q1.24 2.59 2.41 5.17z"/><path class="cls-12" d="M181.92 92.07q-8.9 2.1-17.69 4.77a67.94 67.94 0 0 1-1.4-42.14q9 1.44 17.76 3.4a54.16 54.16 0 0 0 1.33 33.97z"/><path class="cls-13" d="M162.42 61a67.13 67.13 0 0 0 1 29.69q.64 2.42 1.46 4.8 2.35-.67 4.71-1.31 3.07-.82 6.15-1.58 2.4-.59 4.8-1.13-.68-1.93-1.22-3.92a55 55 0 0 1-1-24.59q.39-2.09 1-4.17-2.38-.49-4.77-.95-3.08-.59-6.18-1.11-2.39-.4-4.79-.76-.68 2.5-1.16 5.03zM175 91.37q-2.77.63-5.53 1.32a4 4 0 0 0-4.61-2.69A66 66 0 0 1 163 78.5a7 7 0 0 0 6.93 3 7.74 7.74 0 0 0 6.18-3.86 56.08 56.08 0 0 0 1.69 9.85h-.05a3.05 3.05 0 0 0-2.75 3.88zm-1.14-32.19a3.2 3.2 0 0 0 2.89 3.82h.05a56.12 56.12 0 0 0-.92 10.15 7.74 7.74 0 0 0-6.43-3.59 7.06 7.06 0 0 0-6.68 3.69 66 66 0 0 1 1.11-11.81 4.28 4.28 0 0 0 4.43-3.21q2.78.47 5.55.95z"/><path class="cls-12" d="M143.5 98.08q8.73 2.71 17.31 6a67.94 67.94 0 0 0 4.33-41.94q-9.07.81-18 2.16a54.16 54.16 0 0 1-3.64 33.78z"/><path class="cls-13" d="M164.31 63.34q-2.42.2-4.83.43-3.13.3-6.24.68-2.42.29-4.82.61.41 2.11.66 4.23a55 55 0 0 1-2.69 24.46q-.68 1.94-1.49 3.82 2.36.71 4.71 1.46l6 2q2.31.8 4.61 1.63 1-2.31 1.79-4.68a67.13 67.13 0 0 0 3.08-29.55q-.27-2.54-.78-5.09zM148 93.84a56.08 56.08 0 0 0 2.37-9.71 7.74 7.74 0 0 0 5.9 4.29 7 7 0 0 0 7.12-2.53 66 66 0 0 1-2.7 11.36 4 4 0 0 0-4.78 2.33q-2.71-.88-5.43-1.7a3.05 3.05 0 0 0-2.48-4.04zm11.4-28.52a4.28 4.28 0 0 0 4.2 3.51 66 66 0 0 1 .29 11.85 7.06 7.06 0 0 0-6.41-4.15 7.74 7.74 0 0 0-6.67 3.13 56.14 56.14 0 0 0-.21-10.19h.05a3.2 3.2 0 0 0 3.15-3.65q2.83-.27 5.63-.5z"/><path class="cls-12" d="M125.92 81.46q6.24 6.69 12.07 13.78A67.94 67.94 0 0 0 162.54 61q-8.27-3.79-16.66-7a54.16 54.16 0 0 1-19.96 27.46z"/><path class="cls-13" d="M161.22 61.6q-2.2-1-4.41-2-2.87-1.29-5.76-2.51-2.24-.95-4.49-1.86-.69 2-1.52 4a55 55 0 0 1-14.46 19.91q-1.55 1.35-3.19 2.58 1.7 1.79 3.37 3.61Q132.9 87.65 135 90q1.61 1.84 3.2 3.7 2-1.52 3.87-3.18a67.13 67.13 0 0 0 17.33-24.13q.99-2.32 1.82-4.79zM132 80a56.09 56.09 0 0 0 6.87-7.26 7.74 7.74 0 0 0 3 6.64 7.05 7.05 0 0 0 7.44 1.33 65.94 65.94 0 0 1-8 8.53 4 4 0 0 0-5.31-.35q-1.92-2.1-3.87-4.17A3.05 3.05 0 0 0 132 80zm24-19.1a4.28 4.28 0 0 0 1.9 5.1 66 66 0 0 1-5.63 10.44 7.06 7.06 0 0 0-3.51-6.78 7.74 7.74 0 0 0-7.34-.59 56.13 56.13 0 0 0 4.87-9 3.2 3.2 0 0 0 4.55-1.61q2.61 1.25 5.16 2.44z"/><path class="cls-12" d="M126.47 150.34q6.75 6.17 13.13 12.77A67.94 67.94 0 0 0 161.34 127q-8.55-3.12-17.17-5.67a54.15 54.15 0 0 1-17.7 29.01z"/><path class="cls-13" d="M160.07 127.73q-2.27-.85-4.55-1.66-3-1.05-5.94-2-2.31-.77-4.63-1.49-.52 2.09-1.2 4.11a55 55 0 0 1-12.83 21q-1.44 1.47-3 2.83 1.83 1.65 3.64 3.33 2.33 2.16 4.61 4.38 1.75 1.7 3.48 3.44 1.87-1.67 3.61-3.48a67.13 67.13 0 0 0 15.34-25.44q.84-2.5 1.47-5.02zm-27.69 20.69a56.08 56.08 0 0 0 6.27-7.79 7.74 7.74 0 0 0 3.52 6.38 7.05 7.05 0 0 0 7.53.73 65.94 65.94 0 0 1-7.27 9.14 4 4 0 0 0-5.32.08q-2.08-1.94-4.19-3.84a3.05 3.05 0 0 0-.54-4.7zm22.44-21a4.28 4.28 0 0 0 2.3 5 66 66 0 0 1-4.78 10.85 7.06 7.06 0 0 0-4-6.47 7.74 7.74 0 0 0-7.37 0 56.14 56.14 0 0 0 4.14-9.32 3.2 3.2 0 0 0 4.41-2q2.65.98 5.29 1.97z"/><path class="cls-12" d="M115.1 119.55q-1.22 9.06-3 18.07a67.94 67.94 0 0 0 42.08-2.71q-2.3-8.81-5.11-17.35a54.15 54.15 0 0 1-33.97 1.99z"/><path class="cls-13" d="M152.82 134.3q-.6-2.35-1.23-4.69-.82-3-1.7-6-.69-2.34-1.41-4.65-2 .76-4.06 1.35a55 55 0 0 1-24.57 1.42q-2-.34-4-.84-.31 2.45-.66 4.89-.45 3.14-1 6.28-.4 2.41-.84 4.82 2.44.58 4.92 1a67.13 67.13 0 0 0 29.65-1.87q2.47-.79 4.9-1.71zm-32.78-11v-.05a56.08 56.08 0 0 0 10 .72 7.74 7.74 0 0 0-3.25 6.53 7 7 0 0 0 3.68 6.6 65.94 65.94 0 0 1-11.65-.78 4 4 0 0 0-3.12-4.32q.41-2.81.77-5.63a3.05 3.05 0 0 0 3.53-3.06zm30 6.5a4.28 4.28 0 0 0-2.77 4.72 66 66 0 0 1-11.64 2.25 7.06 7.06 0 0 0 3-7 7.74 7.74 0 0 0-4.2-6.05 56.13 56.13 0 0 0 10-1.9 3.2 3.2 0 0 0 4.13 2.5q.81 2.76 1.5 5.5z"/><path class="cls-11" d="M178.74 123.49l-3.94-1.12-17.14-4.85-1.69 6c1 .85 2 1.67 3.09 2.46q-2 .48-4 .93l-2.69 9.5 17.14 4.85 4.69 1.33a54.31 54.31 0 0 1-4.33-10c1 .5 2 1 3.07 1.42 1.9-3.25 3.88-6.87 5.8-10.52z"/><path class="cls-12" d="M158 91.92q-7.85 4.69-16 8.9A67.94 67.94 0 0 0 170.29 132q5.45-7.29 10.38-14.81A54.15 54.15 0 0 1 158 91.92z"/><path class="cls-13" d="M169.94 130.6q1.47-1.93 2.9-3.88 1.86-2.53 3.66-5.1 1.4-2 2.76-4-1.85-1.1-3.59-2.33A55 55 0 0 1 159.26 97q-1-1.8-1.85-3.66-2.11 1.28-4.24 2.53-2.74 1.61-5.52 3.15-2.14 1.19-4.29 2.35 1.06 2.27 2.3 4.46a67.13 67.13 0 0 0 19.94 22q2.1 1.45 4.34 2.77zm-11.85-32.47a56.07 56.07 0 0 0 5.65 8.25 7.74 7.74 0 0 0-7.13 1.53 7.05 7.05 0 0 0-2.87 7 65.94 65.94 0 0 1-6.66-9.6 4 4 0 0 0 1.46-5.12q2.46-1.43 4.89-2.91a3.05 3.05 0 0 0 4.66.85zm13.63 27.52a4.28 4.28 0 0 0-5.42.78 66 66 0 0 1-9-7.7 7.06 7.06 0 0 0 7.36-2 7.74 7.74 0 0 0 2.12-7.06 56.14 56.14 0 0 0 7.73 6.65 3.2 3.2 0 0 0 .62 4.79q-1.7 2.3-3.41 4.54z"/><path class="cls-12" d="M123.47 134.16q6.37 6.56 12.34 13.54a67.94 67.94 0 0 0 23.87-34.76q-8.35-3.63-16.8-6.7a54.16 54.16 0 0 1-19.41 27.92z"/><path class="cls-13" d="M158.37 113.61q-2.22-1-4.45-1.93-2.9-1.23-5.8-2.39-2.26-.9-4.53-1.77-.65 2.05-1.44 4a55 55 0 0 1-14.07 20.19q-1.52 1.38-3.14 2.64 1.73 1.75 3.44 3.54 2.19 2.3 4.34 4.64 1.65 1.81 3.27 3.64 2-1.56 3.81-3.26a67.13 67.13 0 0 0 16.85-24.47q.94-2.35 1.72-4.83zm-28.89 19a56.07 56.07 0 0 0 6.73-7.4 7.74 7.74 0 0 0 3.13 6.58 7.05 7.05 0 0 0 7.47 1.18 66 66 0 0 1-7.81 8.68 4 4 0 0 0-5.31-.24q-2-2.06-4-4.09a3.05 3.05 0 0 0-.21-4.72zM153.14 113a4.28 4.28 0 0 0 2 5.09 66 66 0 0 1-5.42 10.55 7.06 7.06 0 0 0-3.64-6.71 7.74 7.74 0 0 0-7.35-.44 56.15 56.15 0 0 0 4.69-9.05 3.2 3.2 0 0 0 4.52-1.7q2.62 1.13 5.2 2.26z"/><path class="cls-12" d="M166.39 121.29q-9 1.4-18.18 2.23a67.94 67.94 0 0 0 14.54 39.58q7.79-4.71 15.18-9.83a54.16 54.16 0 0 1-11.54-31.98z"/><path class="cls-13" d="M163 161.64q2.09-1.24 4.15-2.51 2.68-1.65 5.31-3.35 2-1.32 4.06-2.67-1.3-1.71-2.45-3.51a55 55 0 0 1-8.33-23.16q-.24-2-.34-4.09-2.43.4-4.88.75-3.14.46-6.3.85-2.43.3-4.86.56.13 2.5.45 5a67.13 67.13 0 0 0 10.19 27.9q1.39 2.16 3 4.23zm1.23-34.55a56.06 56.06 0 0 0 2.14 9.77 7.74 7.74 0 0 0-7.18-1.26 7.05 7.05 0 0 0-5.29 5.41 65.94 65.94 0 0 1-2.56-11.39 4 4 0 0 0 3.27-4.2q2.82-.4 5.62-.86a3.05 3.05 0 0 0 3.96 2.54zm2.29 30.63a4.28 4.28 0 0 0-5.31-1.31 66 66 0 0 1-5.46-10.52 7.06 7.06 0 0 0 7.58.91 7.74 7.74 0 0 0 4.61-5.74 56.14 56.14 0 0 0 4.67 9.06 3.2 3.2 0 0 0-1.23 4.67q-2.49 1.49-4.91 2.93z"/><path class="cls-8" d="M224.85 117c0-.26-.24-.48-.58-.64a.88.88 0 0 0 .46-.73c0-.26-.24-.48-.58-.64a.88.88 0 0 0 .46-.73c0-.26-.24-.48-.58-.64a.88.88 0 0 0 .46-.73c-.06-.64-1.31-1.06-2.79-.92s-2.64.76-2.58 1.41c0 .26.24.48.58.64a.88.88 0 0 0-.46.73c0 .26.24.48.58.64a.88.88 0 0 0-.46.73c0 .26.24.48.58.64a.88.88 0 0 0-.46.73c.06.64 1.31 1.06 2.79.92s2.64-.77 2.58-1.41z"/><ellipse class="cls-11" cx="280.26" cy="164.51" rx="8.25" ry="43.84" transform="rotate(-89.4 280.242 164.516)"/><ellipse class="cls-14" cx="35.79" cy="294.4" rx="35.79" ry="5.58"/><path class="cls-8" d="M37.32 234l2.84 28 .74 25.43s9.17 8.32 12.42 4.77c3.73-4.07-6.82-7.61-6.82-7.61l.83-23.06L48 234zm-17.37-.9l2.48 28.9.47 25.43s9.08 8.41 12.37 4.9c3.78-4-6.74-7.68-6.74-7.68l1.07-23 1-28.29z"/><path class="cls-15" d="M57.95 246.26l-43.82.71 3.58-16.03 36.62 1.41 3.62 13.91z"/><g class="cls-16"><path class="cls-17" d="M17.71 230.94l-1.1 4.56 38.13-1.74-.41-1.41-36.62-1.41z"/></g><path class="cls-15" d="M40.9 287.42l.49 7.94 1.4-.09.53-3.84s3.16 3.91 9.74 3.5c10.32-.64-.56-8.85-6.57-10.36 0 0 7.61 2.51 5.22 5.06-3.71 3.99-10.81-2.21-10.81-2.21zm-18-.03l.41 7.95 1.4-.07.57-3.83s3.13 3.93 9.72 3.56c10.32-.53-.47-8.86-6.46-10.43 0 0 7.58 2.59 5.17 5.12-3.78 3.98-10.81-2.3-10.81-2.3z"/><path class="cls-8" d="M32.86 170.04l-.41 10.86 5.32 13.37 6.34-12.92.41-10.86-11.66-.45z"/><path class="cls-18" d="M32.45 180.9l-14.17 3.93 1.32 30.82-5.55 15.57 43.14 1.66-3.78-15.93 3.53-30.44-12.83-5.16-6.34 12.92-5.32-13.37z"/><path class="cls-18" d="M44.11 181.35l2.44.98-8.99 17.45-7.73-18.16 2.62-.72 5.32 13.37 6.34-12.92z"/><path class="cls-18" d="M32.45 180.9l-3.56.98-1.88 12.97 4.98-2.59 5.78 2.01-5.32-13.37zm11.66.45l3.32 1.33 1.02 12.99-4.8-2.96-5.88 1.56 6.34-12.92z"/><path class="cls-15" d="M62.63 150.46s2.07 14.54 6.76 21.11c0 0-12.33 2.37-22.28.43-9.8-1.91-9.74-1.44-9.74-1.44z"/><path class="cls-8" d="M64.62 143.74c2 16.18-7.6 30.66-22.16 32.43s-28.6-9.82-30.57-26 8.23-30.77 22.8-32.51c22.31-2.66 27.96 9.9 29.93 26.08z"/><path class="cls-15" d="M37.63 149.73c.17 2.28-.52 3.58-1.48 3.65s-1.83-1.12-2-3.39.52-3.58 1.48-3.65 1.83 1.12 2 3.39zM60 146.79c.17 2.28-.52 3.58-1.48 3.65s-1.83-1.12-2-3.39.52-3.58 1.48-3.65 1.83 1.11 2 3.39z"/><path class="cls-15" d="M22.85 147.53l-.7-7.72s24.29 1.5 43.69-5.59c-2.88-13.46-17.1-24-31.44-22.17C.33 116.21 3.5 148.88 14.24 174a60.93 60.93 0 0 0 18.13 2.45c-5.88-8.38-8.91-24-8.91-24s-5.15 2.7-5.43-2.76c-.2-3.77 4.82-2.16 4.82-2.16z"/><path class="cls-10" d="M41.27 167.68a6.23 6.23 0 0 1 12.41-1z"/><path class="cls-8" d="M24.24 236.18s5.45 6 9 1.13-4.37-6.9-4.37-6.9z"/><path class="cls-18" d="M18.28 184.83s-34.74 28.45 6.72 52.72l4.85-7.55s-31.39-13.65-10.37-36.8z"/><path class="cls-8" d="M82 226.27s8.09.66 7.34-5.33-7.91-2.05-7.91-2.05z"/><path class="cls-18" d="M51.43 185.85s-4.85 45 32 40.93l-1.62-8.88s-27.25 5-24.88-30.26z"/><path class="cls-5" d="M97.38 224.61a5.37 5.37 0 0 1-6.06-4.56v-.17a5.37 5.37 0 0 1 4.56-6.06l7.71-1.09-.82-5.79L95 208a11.22 11.22 0 0 0-9.52 12.66v.17a11.22 11.22 0 0 0 12.72 9.57l7.71-1.09-.82-5.79z"/><path class="cls-6" transform="rotate(-8.05 105.8 209.462)" d="M103.13 206.56h5.3v5.84h-5.3z"/><path class="cls-6" transform="rotate(-8.05 108.132 226.05)" d="M105.48 223.12h5.3v5.84h-5.3z"/><path class="cls-11" d="M104.63 212.59l4.19-.59-.82-5.79-3.35.47q-.15 2.97-.02 5.91zm3 16.48l3.54-.5-.82-5.79-4.29.61c.43 1.92.94 3.81 1.57 5.68z"/><path class="cls-12" d="M129.53 229.56Q121.68 233 114 237a63.75 63.75 0 0 1-8.49-38.64q8.54-.21 17 .11a50.81 50.81 0 0 0 7.02 31.09z"/><path class="cls-13" d="M106.23 204.22a63 63 0 0 0 6 27.22q1 2.13 2.16 4.18 2.06-1 4.13-2 2.69-1.28 5.41-2.51 2.11-1 4.24-1.87-1-1.67-1.8-3.41a51.57 51.57 0 0 1-5.11-22.52q0-2 .17-4-2.28 0-4.56-.06h-5.89q-2.27 0-4.55.11-.18 2.45-.2 4.86zM123 230.09q-2.45 1.06-4.88 2.16a3.78 3.78 0 0 0-4.71-1.67 61.87 61.87 0 0 1-3.73-10.31 6.61 6.61 0 0 0 6.91 1.61 7.26 7.26 0 0 0 5-4.62 52.61 52.61 0 0 0 3.24 8.8 2.86 2.86 0 0 0-1.83 4.03zm-6.55-29.5a3 3 0 0 0 3.33 3.07 52.67 52.67 0 0 0 .89 9.52 7.26 7.26 0 0 0-6.55-2.21 6.63 6.63 0 0 0-5.53 4.54 61.93 61.93 0 0 1-1-11.08 4 4 0 0 0 3.54-3.72q2.71-.09 5.35-.12z"/></g></g></g></svg>