<svg xmlns="http://www.w3.org/2000/svg" viewBox="0 0 53 43.07" width="185" height="150"><defs><style>.cls-1{fill:#fff}</style></defs><title>Asset 5</title><g id="Layer_2" data-name="Layer 2"><path class="cls-1" d="M53 5.1a21.58 21.58 0 0 1-6.25 1.71 10.91 10.91 0 0 0 4.78-6 21.77 21.77 0 0 1-6.9 2.64 10.89 10.89 0 0 0-18.53 9.9A30.87 30.87 0 0 1 3.69 2a10.89 10.89 0 0 0 3.36 14.51 10.84 10.84 0 0 1-4.92-1.36v.14a10.88 10.88 0 0 0 8.72 10.66 10.92 10.92 0 0 1-4.91.19 10.89 10.89 0 0 0 10.15 7.55 21.81 21.81 0 0 1-13.5 4.66A22 22 0 0 1 0 38.19a30.8 30.8 0 0 0 16.67 4.88c20 0 30.94-16.57 30.94-30.94v-1.41A22.06 22.06 0 0 0 53 5.1z" id="Layer_1-2" data-name="Layer 1"/></g></svg>