<svg xmlns="http://www.w3.org/2000/svg" viewBox="0 0 1494.42 1456.53"><defs><style>.cls-1{opacity:.1}.cls-2{fill:#fff}</style></defs><title>Asset 1</title><g id="Layer_2" data-name="Layer 2"><g class="cls-1" id="Layer_1-2" data-name="Layer 1"><path class="cls-2" d="M1350.93 376.46l.81-2.1-1.21 2.22v.01-.01l.4-.12z"/><path class="cls-2" d="M1491.07 749.94l3.11-1.33.24-2.99-.12-2.1-1.33-2.35-2.22-.6-1.3-2.14 2.02-2.27.93-2.1-.93-2.3.89-2.75.21-.56h-5.7l-.32.24-.17-.24-1.98-2.06.53-3.84.81-2.55-2.26-1 .04-2.51-.74-.93h.49l-.28-1.25-1.65-.55-5.19-6.5.38-1.07 1.01-3.07 2.3-2.42-2.38-.09-1.5-3.67-2.58-2.83 1.33-2.87-3.27-1.86-3.15-2.06.48-2.3 2.43-1.49 1.05-2.43-2.95-.52-2.22-.81-3.16-.45-1.33-2.14-2.18-1.61.04-2.22-1.98-2.79-.24-2.1 2.34-2.06.12-2.39-.56-2.34.97-2.1 1.05-2.18-1.01-3.76-1.42-2.58-1.37-2.18 1.29-2.31-1.17-2.46-2.02-2.39-1.98-2.3-.2-2.3-1.09-2.18.08-2.22-2.3-.81-1.22-2.47-2.26-.16-.6-2.14-2.1-1.05-2.43-1.29-2.1-3.76-1.25-2.67-1.86-2.3-2.22-1.21-.04-3.47-1.58-209.83-1.53-2.79-2.14.81-2.71 1.13-2.1 1.94-.65-2.46-2.26-.69-2.22-2.06-2.3 1.33-2.27.65 2.55.4.2 2.31-2.42-.89-2.1 1.53-2.15-.72.73-2.23.49-2.18-2.3 1.17-1.34 2.67-2.14.2 1.09-2.5-2.26.72-1.25 3.04-2.39-.65-2.22-.69-1.01 2.18-2.3.08-2.26-2.1.93-2.1-2.27.73-1.89-2.95-2.39-.97-2.1-1.25 1.01-2.34 1.33-2.51-2.22.73-2.66 1.7-2.27.24-2.62.28 1.81-2.22-2.18-.12-3.47.16.93-2.71-3.07.93 2.95-2.5-2.22.28-1.42-2.43.12 2.35-2.26-.41-2.18-.48-2.06 1.49-2.26-1.25 2.7-.24.81-3.11-2.38.57-2.91 1.05-3.84-.57 1.42-2.42-3.16-.69 2.02 2.26-2.26.45-2.06-2.35.69-2.26-2.39-.24-2.26-1.17.57-1.09-3.23 1.13-.04-2.14-2.1-.97.32 2.34-2.42.2-2.91-1.33 1.01-2.26-2.27.08-2.1-1.09-1.98-2.35.81-2.46-1.37-2.63.36 2.59-2.78.04.44-2.99-2.34-.93-.93-3.39-2.27 1.29-2.62-.73-3.8-.85-.65-2.42-.6-2.75-2.14-.44-.41 3.43-2.06-2.14 1.22-2.5-2.35 1.17-2.42-1.46 1.17-2.1-2.06-.44-3.68-1.66-3.87-1.61-3.11 1.21-2.02 2.1.24 3.76-1.54 2.58-2.22-2.83.4 2.51-1.85 2.38-2.27-1.21-2.66.97-2.83 1.05-2.42-.24-2.43.56-2.58-.81-2.95-.04-1.3-2.18-2.09 1.38-2.59-.16-.36-2.71-2.63 2.22-2.14-1.13.24-2.99-.97-2.54-2.22-.37-2.3-1.29-2.18 2.02-1.86 3.11-2.55-.69-2.74 2.1-2.43 1.17-2.22-.68-2.87-.81-1.94 2.14.93 2.18-.44 2.14-2.79-.2-2.22-1.45-2.18 1.17-1.05 2.5-2.11-.97-2.09-1.29-3.2-2.22-4.2-2.22-1.82 3.39-2.99.48-2.34-.88-1.82 2.42-2.22-1.54-2.1 2.59-2.71-.89-3.27-.36.24 2.06-3.23-1.29-2.46.4-1.13 2.5-2.26 1.18 2.18-.21-.33 3.44-1.77 3.55-2.23 1.09-3.55.61-2.95-1.86-2.67-1.21-2.18 1.25-.97 2.39-.04 2.82-.64 2.31-2.35 1.81-2.62.77-1.17-2.46-1.05-2.1-2.27-2.39-2.06-2.66-2.14-2.91-2.1-.2-2.14.64-3.6.41-1.77-2.1-.16-2.55-1.62-2.34-2.14.64-2.51.04-2.26-1.61-4.12-2.95 3.6-3.11.52-2.79-4.04.16-5.13-2.42-1.17 3.84-.12 2.91-2.26 3.79-2.35.65-2.38.61-2.79-.53-.77-2.54-1.93-2.83-2.11-.49-3.07.57-.2 2.1-2.14.44-2.58-2.5-1.46-3.88-.08-2.3-.52-3.48-2.63-2.78-3.15 1.98-2.38 1.21-2.51-1.74-.04 2.26 1.17 3.72v2.22l-1.41 2.38-2.75 3.36-2.83.97-2.34-2.87-2.34 2.58 4.04 1.17.4 2.11-5.05 1.81-.2 2.23 1.09 3.59-.28 2.79-2.27 2.75-3.02.4-2.35-.81-2.14-2.02-.81-2.14-.84-2.1-.81-2.1-1.22-2.22 1.1-4 3.31-1.29-.36-2.63-.73-2.67-1.17-3.07-2.23-1.73-2.34-.04-2.1 1.53-.44 3.11-2.02 2.83-2.39-1.41-2.66-2.31-.37 2.99-2.26.33-.2-2.23-.41 2.51-2.18 4.2-3.15 1.41-2.3.12h-2.3l-2.99-1.33-.97-2.87 1.13-2.95.08-2.14-1.45-2.5-4.17-1.98-3.87 1.9-3.72.56-2.54-.32-.89-2.22.24-2.34.6-2.23-2.22-1.98-2.83-1.81-4.24-1.38-2.5 1.05-1.25 2.79-1.94 2.58-2.3.98-2.43.88-.56 2.39h-2.1l.6 2.58-2.38 1.26-2.18 2.22-2.63 1.65-2.3.97-2.79-.93-2.42-1.45-2.75-1.5-2.63-.08-2.34-1.49.08-3.11 2.26-.28.21-3.24-2.15-.64 1.98-2.14.45-4.33-2.14-2.06-2.19.89-4.2.77-3.15-.36-3.11-.89-.76-2.3-1.9-2.15 2.14-1.25-3.11-2.5-.73-2.59 1.9-2.3 1.37-2.55-1.25-2.5-.69-2.59-3.15 1.3-3.84 4.16-4.4-.93-2.63-1.86-2.74.69-2.71-.17-2.26-.52-2.87-2.26-4.85-.65-2.14 2.34-1.29 2.39-1.33 3.92-2.14.97-2.35 1.65-2.54 1.05-2.63-.6-2.54-2.18-2.23-2.91-2.7-3.52-2.71-2.5-3.72-.69-4.44-.24-3.23 2.66-2.18.41-2.35.08-2.58 1.33-2.18-1.49-3.48-.89-2.18-2.1-2.5.24-3.52.93-2.18-2.55-2.5-1.25-2.14-2.06-4.41-1.17-1.61-2.18-2.43 1.05-2.54.73-2.26.8-2.15-1.17-2.94-.24-2.19.69-2.1.04-.44-2.22-2.63 1.65-4.12-.97v-2.1l-.73-2.66-.04-2.31-1.21-2.38-.28-2.1.44-2.75-.12-2.62-2.3.08-.81-2.14-2.34-2.59-2.22-1.66.24-2.22-2.55-1.98-.32.08-2.54.81-2.35-2.91-2.14-3.51-2.5-.16-1.38 3.43.41 2.5-.69 2.15-2.1 2.74-2.75.89-2.22-1.21-1.82-2.1-2.91-1.86-2.26-.73-2.54.17-2.39-.57-2.5 1.33-.04 2.22-1.74 2.27-2.75.16-2.74-1.21-2.63.64-2.7-.08-2.27-2.22-1.37-2.18-3.11-1.46-2.1-2.74-2.38-1.74-2.51-3.64-1.98-2.66-2.3-1.58-1.78-2.18-1.82-2.62-2.14-1.58-3.51-2.5-2.22-.25-2.02 2.22-3.28.25V.4h-56.35V.08h-54.86l-13.9.12-116.5-.2-104.76.04.13 68.35-.17 23.88.13 4.56-.25 91.06.08 15.15-.16 95.98.08 39.75-2.42 139.37.04 136.55-248.97.04-99.62-.33-56.27 1.06-2.14 2.46 2.18 1.66.44 2.14-1.01 2.34 1.42 1.62-2.51 1.41-1.05 2.3.93 2.51 1.01 2.5 2.75 2.26 1.57 2.39 2.87 1.49 3.07 1.74.85 2.3 2.1 2.79 2.34 1.74 2.47-1.46 3.31.33 2.62.8 4.29 3.07.64 2.15 2.59 2.18 1.74 4.52 3.51 5.66.77 2.54.93 2.22.89 3.44 3.87 2.79 2.51 5.57.68 2.91 2.11 2.34 2.78 1.01 2.14 2.43 2.83 1.65 2.67.4 3.8 3.36 8.03.73 5.82 3.75.69 3.48 1.82 3.63 3.23.81 1.41 2.3 2.47.16 2.14 3.28 1.61 2.34 2.02 2.42 2.75 3.8 1.66 2.67 1.9 2.54 2.42-.08 3.59 3.8 7.28 3.23 2.22 2.02 3.27 3.27 1.5 2.39.64 2.91 1.21 2.86.61 2.39 2.34 1.73 2.59 1.58 2.06.73 1.78 3.43 2.46 2.26 2.3 1.74 2.14 1.78 2.91 1.49.61 2.47-.77 2.26 2.5.56 2.27.65 2.58 1.7 2.18.76 1.06 2.27 2.22-1.7 1.53 2.26 2.14 1.74 2.55-1.13 2.22-.45.97 2.67 2.34.24 1.09 2.26 2.14.17.65 2.1 2.55.16 2.14.93.84 2.34 1.82 2.26 2.18.85.93 2.22 2.19-.2 2.26 1.01 2.18.08 1.78 3.11.28 2.1.4 2.83 2.35 1.54 2.22 1.09 2.1.56 1.57 2.22 1.38 2.75.93 2.1.8 2.47.97 2.42.61 2.26-.28 2.14-.04 2.67 1.05 2.67.4 2.1-.04 2.1.4 3.23 2.63 1.7 2.18.84-1.29 2.23 1.7 2.34 2.18 1.57 1.05 2.19 2.06.72.36 2.63.85 2.58 3.03 1.26 2.06 2.5.4 2.99.73 2.38.93 2.63.04 2.26-.24 2.55-.69 2.1.45 2.3.52 2.91-.44 2.34-1.42 2.1.33 2.63.85 2.26.32 2.14.52 2.22.04 2.27 1.42 2.14-.93 2.34.16 2.26 2.38 2.75 1.42 2.42 1.86 2.59 1.85 2.5-.64 2.19 2.1 1.89 1.17 2.51 1.82 2.22.97 2.26.72 2.47 1.22 2.26.44 2.3.16 2.38v2.15l2.1 1.73 1.01 2.1 1.09 2.1 2.23.85 2.18 1.62 1.86 2.14 6.62 5.98 1.41 2.22 2.18 1.01 3.6 1.82 2.18-.08 2.22.52 3.6 1.74 2.67 1.25.72 2.59 2.47-.28-.37 2.14.25 2.22 3.31 3.03.85 2.22 1.94 2.22 2.14 1.54 2.3 1.65 2.26 1.22 2.51 2.26 2.18 1.61 2.18 1.86 2.42 1.05 2.79 1.13 3.07.73 2.38.44 2.83 1.42 2.22-.37 2.19.33 2.94.48 2.15 1.21 2.5-.16 1.62 2.1 2.38.89-.24 2.18.4 2.14 2.51-.64 1.41 2.18 1.58 2.22 2.42 1.25 2.14.69 2.22.69 1.94 2.14 2.1-.08 2.47-.93 2.26 2.1 3.03-.57 2.38 1.26 2.26 1.09 1.38 2.14 2.3 2.26 2.59 2.67-.17 2.54 2.35-.32 1.94 2.3 2.06 1.94 2.34.73 2.3 1.21 2.43.12.64-2.38 2.35 1.05.08 2.22 2.26-.89-.24 2.67 2.46.28.89 3.31 1.37-2.62 3.56 1.57 2.42-.4 2.63.48 3.15 1.62 2.22-.73 3.15-.93-.04-2.18 2.18-3.56-.81-2.46 2.23-2.14.97-2.18 1.45-2.1 2.87-.77.4-2.34 2.39-2.22.76-2.47 1.38-2.1 1.69-2.99 2.71.93 2.14-1.25 2.22-1.5 2.22-1.41 2.35-.57 1.17-2.3-2.18-2.1-2.14-1.94.4-2.18 1.7-2.38-.57-2.1.93-2.35 1.38-3.59 3.1-1.7 1.42-3.19 2.22-1.94-1.53-2.1-.45-2.26.81-2.47.85-2.5 1.78-2.14-.77-2.39 1.17-3.51 2.14-1.94.08-2.38 1.78-2.55-.37-2.46 2.15.68.89-2.18-.37-3.35 2.18-2.46 1.62-2.15 1.01-2.62 1.09-2.87.93-2.87 2.46-1.01 3.52.04 2.22-1.69 2.34-.21 3.03-2.5.93 2.58 2.3-.84 2.39-1.46-.49-2.46 2.27.28 3.19.08 2.54.45 2.47.6 2.42 1.09 2.22-.89.89-2.5.44-2.42 1.26-3.8 1.37-2.95 2.1-.77 2.22-1.98 3.32 1.78 2.1-.45 2.1.45 1.65 2.18 2.87.69 2.75-.37.28 2.67 2.79 1.94 2.26 1.45 2.26 1.26 2.39.16 2.46.64 2.67.16 2.42-2.26 2.55.04 2.14.65 2.34-2.18 1.45 2.3 2.11-.48.72 2.3 2.02-2.1 4.08.56 2.26-1.81 2.07 1.89 2.14.25-.77-2.14 2.18 1.09.81 2.7 2.91-1.29 2.82 1.54 2.35.68 2.22 1.5 3.11.12 2.26-1.37 1.94 2.26 2.02-2.26 2.67-.49 3.55.12.53-3.43 2.95-1.66.44 3.11.85 3.88 3.11-.69 2.75-2.66 2.62-.53.08 2.18 1.94 2.87 4.49-1.53-1.9 2.14 2.1 1.69V927l2.87 2.83.52 3.07 2.43 1.17 4.92 1.62.17 2.14-1.38 4.44.16 2.22 2.39 1.98 1.49-2.62.04-2.19.97-3.19 2.1.81-.2 2.71.2 6.5-1.21 2.71.73 2.26 3.11-.28 3.96.28 2.38 2.22 2.26 3.68 2.51-.16 2.99 1.05 3.03.89 2.3 2.26 1.53 2.42.53 2.59 2.22 2.71.57 2.3 2.14 1.45 2.7 1.66 2.59.56 2.34 2.79 2.71 2.02 2.58 1.78 1.98 3.15 2.91 1.74 2.59 1.29 2.14.97 1.37 2.54 1.26 2.39.84 2.1-1.01 2.99 1.86 2.22 2.47 2.46 3.19 2.63 2.95 1.29 1.53 2.51.73 2.42.12 3.6.32 2.26.73 2.18.53 2.63.08 2.58.04 2.26-.37 2.35 1.42 2.18.28 2.18 2.54 1.33 2.47 1.7.2 2.3 2.02 3.31.28 3.03 2.75 1.38 1.5 2.3-.37 2.95.37 2.5 2.14 1.26.89 2.46v2.1l-.41 3.56 1.62 4.4.08.04 2.38 1.49 3.27 1.38-.32 2.75 2.1 2.82 3.72 2.83-1.58 3.39 1.25 2.71 1.38 2.22 2.95.85 2.7.93-.64 2.1-2.67 1.54 1.9 2.18 1.49 2.22.09 2.14-1.42 3.35.89 2.43 2.79 3.75 1.53 3.15 1.74 2.39.12 2.14.49 4.16 1.77 2.79 2.43 2.22 3.27.97.4 2.91.69 2.1 2.55.6 2.86 2.43h2.18l2.47 1.7 4.04 1.49 1.41 3.27 1.86 2.67 1.05 3.03 2.79 1.37.64 2.14.37 2.23.77 2.54 1.09 2.3 2.18 1.66 3.11.85 2.02 2.14-.77 2.5 1.5 2.99 2.95 2.06.68 2.63-1.17 2.42 1.21 2.63 2.02 2.46.25 3.44.44 2.5 2.87 2.14 1.33 2.18 2.26-1.49.85 2.06 1.05 3.15 2.95.48 1.46 2.75 2.86 3.64 1.26 2.62 2.54 1.46 2.3-.49 2.39 1.54-.08 2.3 2.26.57 2.62-1.5 2.51-.12 1.86 2.75-.12 2.22 2.7-1.66 2.14 3.11 2.22 2.63-.24 2.62-.4 2.51-.37 2.22-.08 2.99 2.71-.48 2.38 1.61-.48 3.4-1.13 3.39.93 3.72-.61 2.66-.73 2.59-.97 2.58-.16 2.79-2.54 1.37 1.17 2.71 2.3-.28 1.54 2.22.73 4.08 3.27-.57 1.25 3.72-.16 2.47 1.13 2.3.73 3.51-1.3 2.99.73 2.26-.2 2.51.32 3.35-.48 2.22-1.82 3.32.77 2.86.56 2.55 2.67-.36 1.33 2.7 3.11 2.71-1.98 2.3.65 2.26 3.07 2.1 2.71.85 1.77 2.18.57 5.58 2.22.08h.24l3.03 3.03.73 3.76 2.26 3.71.28 5.82 3.52 2.87-.12 4.2 1.09 5.13 2.55 4.93 1.21 8.24.08 3.27 2.62 1.13 2.87 1.54 1.58 2.22 1.05 2.55-.29 2.5-.48 2.1-1.29 2.1 1.57 2.1 2.02 2.83 3.11-.65 2.59-1.57 3.23 2.62 3.35-1.05 2.22.93-.16 2.35 2.39.6 1.29-2.62 1.45 2.78 2.51 1.98 2.14-.68 2.99.48 2.22-1.66 2.34.49.89 2.46.73 2.35 2.1.97 2.46-.69 1.26 2.22-.45 2.67 2.67.8 2.18 1.01-2.22 1.18 2.14.84 2.58 1.26.17 2.1 2.5.77 2.55-2.23 2.7-.16 2.39-.6 2.3 2.22.93 2.1 1.65-2.38 1.05 2.46 2.35-.24 1.25 2.54 2.83.93-.29-2.38 2.31-.93 2.38.93-.44 2.5 2.18 1.29 2.58 2.67 2.51 2.1 2.54-.36 2.27.85.32 2.1 1.66 2.66 2.58 1.82.85-2.14 2.83.45-2.35 2.06 2.23 1.45 2.06 2.67 4.08.4 2.34 2.14 2.3-2.42 1.46 2.38 2.14-.16 2.38-1.29 2.87.8 2.22-.2-.57 2.47 2.15-.61 2.5.69.73-2.83 2.34.77 2.1-.37 2.1.13 2.75-.53 2.26-.2 2.26.97 2.79-1.38 2.87-.48 1.37 2.46 2.71-.52 2.1-.32 2.1 1.17.73 2.14 2.1-1.38.52 2.43 2.79-.81 3.48-.53 2.14 1.26 2.66-1.54-.64 2.55 3.11-.69-.69 2.3 2.26.25-.85 2.14 2.19 1.61 2.42 2.31 2.22 1.05-.97 2.18 3.76.2 2.26 2.26.32 2.34.61 2.23 2.71-1.74.6 2.5 2.14.57 2.11-1.01 1.25 2.26.97 2.43 3.19-.69 1.65 2.38 2.31-.36-.29-2.26 1.9-2.19-.81-2.5-1.01-2.14 2.23-1.78 2.5-.89 2.1-.77 2.14-.24 2.23-.28v-2.26l3.59.36 2.26-1.33 2.26.12 2.11-.04 2.26-.24 2.26.64.08-2.1 6.3-.4-.32-9.45.52-3.15-.56-3.04-1.58-2.22-.28-5.57-.77-7.19-.89-6.87-3.55-17.33-3.19-13.74-3.35-13.77-1.22-2.87-3.07-8.77-3.55-13.89-2.02-9.7-1.54-10.74-.76-9.74-.29-3.51v-5.58l.41-8.04.68-8.16.49-3.63 1.45-7.4.93-3.71 3.6-13.38.76-2.3 5.74-14.74 3.96-9.29 4.52-9.86 8.57-14.99 4.69-5.01 2.78-2.3 2.83-9.78 2.38-3.55 3.4-4.49 3.84-4.88 3.51-4.16 11.15-10.83 12.04-10.34 5.05-3.76 7.43-5.21 12-6.51 3.43-1.49 2.31-1.54 3.47-4.8.77-2.51 1.98-2.54 3.03-.73 3.07-2.71 1.01-2.7 2.58-1.86 6.06-4.16 12.12-6.55 8.6-4.4 14.26-6.91 11.07-5.82 3.15-1.77 24.65-15.27 4.56-2.06 8.41-5.54 2.14-.04 2.66-.56 2.79-1.05 3.55-2.27 1.38-2.26 2.18-2.83 4.32-2.86 2.91-2.43 2.38-2.22 2.91-3.03 6.27-7.39 2.22-1.62 1.98-4.52.28-2.79 9.82-4.93 4.16-2.83 5.89-4.68 8.21-5.34 7.67-4.52 3.6-3.84 3.15-3.11 2.38.73 2.99-.53 2.71-2.62 2.06-4.77-.49-3.15-2.46-3.35 2.87-2.02 14.3-7.48 9.13-4.28 5.57-2.26 27.92-13.05 10.42-4h14.54l3.52.49 1.93 2.22 2.47 1.13 2.5.04-1.61-8.61-1.01-4.16-4.16-6.5-2.22-2.34-.57-2.3-3.19-2.47-.16-2.71 1.61-2.42 3.15-2.51 3.52-2.54 2.83-4.12 1.49-3.27.4-2.31 1.18-3.71 1.69-3.6 2.43-2.02 2.99-2.46.4-2.14 3.92-3.96-2.38-2.22.96-2.47 1.66-3.07.89-2.58-1.13-2.63-.85-2.54-.48-2.43-.69-2.46 1.05-2.18.28-2.27.12-2.26.37-2.22-1.62-2.1-2.5-1.49-1.74-2.55-.36-2.26.97-2.39-.49-2.58 1.09-2.43 1.94-2.3.28-2.34 2.51-.53.24-2.1-1.21-2.74.28-2.23-.2-2.38-.77-2.34-2.22-2.26.77-2.11.4-2.9 2.75-1.98 2.14-.49.2-2.22-.2-2.3.24-2.18 1.42-2.31 2.14-1.61 2.3-1.09 1.25-2.22.45-2.51.85-2.42.08-2.23.88-2.14 1.98-2.26.97-3.11 1.21-2.18 1.18-2.42-.41-2.31-.81-2.26-.97-2.58 2.15-2.11 1.21-2.34 1.98-2.38-.53-2.35-2.18-1.69-2.22-1.25-.44-2.14.2-2.43 2.5-.08z"/></g></g></svg>