<svg id="Layer_1" xmlns="http://www.w3.org/2000/svg" viewBox="0 0 32 32"><style>.st0{fill:#fff}</style><path class="st0" d="M28 0H4C1.7 0 0 1.7 0 4v24c0 2.3 1.7 4 4 4h24c2.3 0 4-1.7 4-4V4c0-2.3-1.7-4-4-4zM16 9.7c3.5 0 6.4 2.8 6.4 6.2 0 3.4-2.9 6.2-6.4 6.2-3.5 0-6.4-2.8-6.4-6.2 0-3.4 2.9-6.2 6.4-6.2zM28 27c0 .7-.3 1-1 1H5c-.7 0-1-.3-1-1V13l2.5.5c-.3.9-.4 1.8-.4 2.7 0 5.3 4.5 9.6 9.9 9.6 5.5 0 9.9-4.3 9.9-9.6 0-1-.1-1.9-.4-2.7L28 13v14zm0-18c0 .6-.4 1-1 1h-4c-.6 0-1-.4-1-1V5c0-.6.4-1 1-1h4c.6 0 1 .4 1 1v4z"/></svg>