<svg height="32" version="1" viewBox="0 0 32 32" width="32" xmlns="http://www.w3.org/2000/svg"><path d="M28 0H4C1.741 0 0 1.741 0 4v24c0 2.258 1.741 4 4 4h24c2.258 0 4-1.742 4-4V4c0-2.259-1.742-4-4-4zM16.023 9.714c3.549 0 6.425 2.787 6.425 6.226 0 3.437-2.876 6.226-6.425 6.226-3.546 0-6.423-2.789-6.423-6.226.001-3.439 2.878-6.226 6.423-6.226zM28 27c0 .701-.3 1-1 1H5c-.699 0-1-.299-1-1V13l2.493.542a9.334 9.334 0 0 0-.413 2.745c0 5.318 4.454 9.634 9.943 9.634 5.492 0 9.944-4.315 9.944-9.634 0-.955-.145-1.875-.412-2.745L28 13v14zm0-18a1 1 0 0 1-1 1h-4a1 1 0 0 1-1-1V5a1 1 0 0 1 1-1h4a1 1 0 0 1 1 1v4z" fill="#316699"/></svg>