<svg height="32" version="1" viewBox="0 0 32 32" width="32" xmlns="http://www.w3.org/2000/svg"><path d="M32 30a2 2 0 0 1-2 2H2a2 2 0 0 1-2-2V2a2 2 0 0 1 2-2h28a2 2 0 0 1 2 2v28z" fill="#55ACEE"/><path d="M25.987 9.894a8.277 8.277 0 0 1-2.357.635 4.043 4.043 0 0 0 1.806-2.231 8.32 8.32 0 0 1-2.605.978A4.125 4.125 0 0 0 19.838 8c-2.266 0-4.1 1.807-4.1 4.038 0 .314.036.625.104.922A11.724 11.724 0 0 1 7.39 8.739a3.986 3.986 0 0 0-.556 2.032c0 1.399.726 2.635 1.824 3.36a4.135 4.135 0 0 1-1.856-.506l-.001.052c0 1.955 1.414 3.589 3.29 3.96-.343.09-.705.142-1.081.142a4.07 4.07 0 0 1-.77-.072c.52 1.604 2.034 2.771 3.828 2.805a8.293 8.293 0 0 1-5.089 1.728c-.33 0-.658-.018-.979-.056a11.744 11.744 0 0 0 6.287 1.813c7.541 0 11.666-6.154 11.666-11.491 0-.173-.005-.35-.012-.521a8.313 8.313 0 0 0 2.046-2.091z" fill="#FFF"/></svg>