<svg xmlns="http://www.w3.org/2000/svg" viewBox="0 0 456.457 456.457"><path d="M430.913 54.424c-2.734-8.656-9.177-15.456-17.674-18.656L324.96 2.52c-14.442-5.44-30.832-1.902-41.747 9.012l-1.235 1.235a224.856 224.856 0 0 0-107.499 0l-1.235-1.235C162.328.616 145.942-2.922 131.496 2.52L43.218 35.768c-8.497 3.2-14.938 9.999-17.675 18.655-2.733 8.651-1.37 17.912 3.741 25.409 22.414 32.869 37.352 57.886 42.061 70.443a8.998 8.998 0 0 0 13.973 3.927c4.774-3.736 9.338-8.15 13.685-13.027l.717 159.438c-6.733 21.857-7.393 46.552-1.908 73.54a8.996 8.996 0 0 0 6.173 6.81l24.503 7.539a49.306 49.306 0 0 0 9.501 1.912c8.729 18.369 24.244 32.84 43.352 40.16l.974.375a145.483 145.483 0 0 1 21.045 10.079 144.708 144.708 0 0 1 19.137 13.367 8.979 8.979 0 0 0 5.732 2.062 8.98 8.98 0 0 0 5.736-2.065 143.245 143.245 0 0 1 40.159-23.436l.986-.376c19.035-7.296 34.511-21.695 43.254-39.962a47.014 47.014 0 0 0 8.516-1.78l25.593-7.875a8.998 8.998 0 0 0 6.173-6.81c5.485-26.987 4.825-51.682-1.908-73.54l.717-159.438c4.347 4.877 8.911 9.291 13.685 13.027a9 9 0 0 0 13.974-3.927c4.708-12.555 19.646-37.572 42.06-70.443 5.109-7.497 6.473-16.757 3.739-25.408zM268.682 413.767l-.982.375a161.186 161.186 0 0 0-39.475 21.852 162.698 162.698 0 0 0-15.797-10.513 163.387 163.387 0 0 0-23.653-11.331l-.978-.377c-12.732-4.877-23.394-13.853-30.429-25.315a49.023 49.023 0 0 0 13.259-6.476l11.84-8.197c11.85 11.626 28.382 18.392 45.761 18.392s33.912-6.766 45.761-18.393l12.781 8.848a46.68 46.68 0 0 0 12.183 6.035c-7.034 11.359-17.641 20.258-30.271 25.1zm-40.453-96.317c-13.714 0-24.87-10.058-24.87-22.421 0-6.215 1.106-9.459 24.87-9.459 23.763 0 24.869 3.244 24.869 9.459 0 12.363-11.157 22.421-24.869 22.421zm0 34.396c6.416 7.429 15.89 12.079 26.295 12.079 1.058 0 2.102.11 3.125.304-8.114 6.338-18.517 9.948-29.421 9.948-10.905 0-21.307-3.61-29.421-9.948a16.783 16.783 0 0 1 3.127-.304c10.405-.001 19.879-4.651 26.295-12.079zM412.301 69.69c-13.239 19.416-29.438 44.264-38.706 62.474-31.735-32.937-52.819-99.431-53.047-100.158-1.483-4.744-6.533-7.386-11.274-5.904a9 9 0 0 0-5.906 11.275c.765 2.446 13.971 44.123 36.195 79.564l-.668 148.533c-5.944-7.982-12.978-15.377-21.094-22.12a9 9 0 0 0-11.502 13.845c31.585 26.242 43.578 62.612 35.689 108.158l-20.401 6.277c-8.393 2.583-17.35 1.197-24.57-3.802L274.291 352.1a34.57 34.57 0 0 0-19.768-6.175c-7.373 0-13.773-4.85-15.941-11.674 18.651-4.379 32.516-20.3 32.516-39.222 0-11.696-5.389-20.028-15.585-24.096-7.783-3.105-17.348-3.363-27.284-3.363-9.938 0-19.502.257-27.285 3.363-10.195 4.068-15.585 12.4-15.585 24.096 0 18.922 13.865 34.843 32.517 39.222-2.168 6.824-8.569 11.674-15.941 11.674a34.57 34.57 0 0 0-19.768 6.175l-21.786 15.083c-7.816 5.411-17.512 6.912-26.6 4.116l-19.312-5.942c-7.889-45.544 4.104-81.915 35.69-108.157a9.002 9.002 0 0 0-11.504-13.845c-8.116 6.743-15.149 14.138-21.093 22.121l-.667-148.534c22.224-35.441 35.43-77.117 36.194-79.563a8.998 8.998 0 0 0-5.903-11.273 9 9 0 0 0-11.276 5.902c-.228.727-21.312 67.221-53.047 100.158-9.269-18.212-25.468-43.06-38.707-62.474a11.317 11.317 0 0 1-1.448-9.843 11.337 11.337 0 0 1 6.854-7.234l88.278-33.248a21.445 21.445 0 0 1 22.676 4.895l4.874 4.874a8.998 8.998 0 0 0 8.721 2.321 206.778 206.778 0 0 1 108.236 0 9 9 0 0 0 8.722-2.322l4.873-4.874a21.445 21.445 0 0 1 22.675-4.895l88.279 33.248a11.334 11.334 0 0 1 6.854 7.235c1.059 3.35.53 6.937-1.449 9.841z"/><path d="M162.109 101.47l-30.631 19.977a8.999 8.999 0 0 0 4.925 16.539 8.955 8.955 0 0 0 4.907-1.462l30.631-19.977a2.83 2.83 0 0 1 3.681.492c3.303 3.717 8.993 4.051 12.706.749a9 9 0 0 0 .749-12.706c-6.801-7.652-18.393-9.203-26.968-3.612zm105.271 3.611a9 9 0 0 0 13.453 11.959 2.83 2.83 0 0 1 3.683-.493l30.631 19.977a8.96 8.96 0 0 0 4.907 1.462 8.999 8.999 0 0 0 4.925-16.539l-30.631-19.977c-8.714-5.683-20.056-4.164-26.968 3.611z"/><path d="M164.611 126.297c-8.661 0-15.707 7.046-15.707 15.707s7.046 15.707 15.707 15.707c5.862 0 11.778-4.857 11.778-15.707s-5.915-15.707-11.778-15.707zm0 18a7.404 7.404 0 0 1-5.38-2.293 7.402 7.402 0 0 1 5.38-2.293c1.265 0 2.293 1.029 2.293 2.293s-1.028 2.293-2.293 2.293zm127.234-18c-3.669 0-8.361 2.098-10.529 7.986-1.032 2.803-1.249 5.746-1.249 7.721 0 10.85 5.916 15.707 11.778 15.707 8.661 0 15.707-7.046 15.707-15.707s-7.046-15.707-15.707-15.707zm0 18c-1.265 0-2.293-1.029-2.293-2.293s1.028-2.293 2.293-2.293a7.404 7.404 0 0 1 5.38 2.293 7.404 7.404 0 0 1-5.38 2.293z"/></svg>