<svg xmlns="http://www.w3.org/2000/svg" viewBox="0 0 60 60"><path d="M44 31h2v3h-2zM2 14h11c.6 0 1-.4 1-1V2h30v3h2V1c0-.6-.4-1-1-1H13c-.1 0-.2 0-.3.1h-.1c-.1.1-.2.1-.3.2l-12 12c-.1.1-.1.2-.2.3v.1c0 .1-.1.2-.1.3v46c0 .6.4 1 1 1h36v-2H2V14zm10-2H3.4l4.3-4.3L12 3.4V12z"/><path d="M49 29c6.1 0 11-4.9 11-11S55.1 7 49 7s-11 4.9-11 11 4.9 11 11 11zm0-20c5 0 9 4 9 9s-4 9-9 9-9-4-9-9 4-9 9-9z"/><path d="M47 23h1v2h2v-2h1c1.2 0 2-.8 2-2v-2c0-1.2-.8-2-2-2h-4v-2h4v1h2v-1c0-1.2-.8-2-2-2h-1v-2h-2v2h-1c-1.2 0-2 .8-2 2v2c0 1.2.8 2 2 2h4v2h-4v-1h-2v1c0 1.2.8 2 2 2zm12 13H41c-.6 0-1 .4-1 1v22c0 .6.4 1 1 1h18c.6 0 1-.4 1-1V37c0-.6-.4-1-1-1zm-1 2v4H42v-4h16zM42 58V44h16v14H42z"/><path d="M45 46h2v2h-2zm4 0h2v2h-2zm4 0h2v2h-2zm-8 4h2v2h-2zm4 0h2v2h-2zm4 0h2v2h-2zm-8 4h2v2h-2zm4 0h2v2h-2zm4 0h2v2h-2zM43 39h2v2h-2zm3 0h2v2h-2zm3 0h2v2h-2zm3 0h2v2h-2zm3 0h2v2h-2zM19 5h6v2h-6zm0 5h15v2H19zm-9.7 8.3l-3 3 1.4 1.4L9 21.4V35h2V21.4l1.3 1.3 1.4-1.4-3-3c-.4-.4-1-.4-1.4 0zm8.4 8.4l1.3-1.3V35h2v-9.6l1.3 1.3 1.4-1.4-3-3c-.4-.4-1-.4-1.4 0l-3 3 1.4 1.4zM31 19.4l1.3 1.3 1.4-1.4-3-3c-.4-.4-1-.4-1.4 0l-3 3 1.4 1.4 1.3-1.3V35h2V19.4zM9 40h15v2H9zm0 5h26v2H9zm0 5h26v2H9zm17-10h4v2h-4z"/></svg>