<svg xmlns="http://www.w3.org/2000/svg" viewBox="0 0 512.043 512.043"><path d="M491.217 102.878l-28.245-40.661c1.271-4.685 1.229-9.626-.265-14.362-2.057-6.528-6.536-11.861-12.595-15.01l-30.276-15.77a25.702 25.702 0 0 0-11.81-2.893c-7.45 0-14.344 3.217-19.14 8.636l-40.32-4.941C345.272 7.552 335.697 0 324.288 0h-34.133c-12.595 0-23.031 9.148-25.156 21.137L229.85 49.263c-9.574-4.625-21.854-3.183-29.576 4.548l-24.141 24.132c-7.825 7.834-9.412 19.482-4.966 28.971l-32.179 32.179c-3.337-1.596-7.023-2.56-10.965-2.56-14.123 0-25.6 11.477-25.6 25.771l.171 8.363H93.89c-14.123 0-25.6 11.477-25.6 25.6V243.2a8.53 8.53 0 0 0 8.533 8.533 8.536 8.536 0 0 0 8.533-8.533v-46.933a8.536 8.536 0 0 1 8.533-8.533h68.267c4.702 0 8.533 3.823 8.533 8.533V243.2a8.53 8.53 0 0 0 8.533 8.533 8.536 8.536 0 0 0 8.533-8.533v-46.933c0-14.123-11.486-25.6-25.6-25.6h-8.533v-8.533c0-3.942-.973-7.629-2.568-10.965l32.128-32.137c3.422 1.647 7.151 2.611 11.059 2.611 6.835 0 13.261-2.662 18.099-7.492l24.132-24.132a25.448 25.448 0 0 0 7.501-18.108c0-3.618-.794-7.108-2.219-10.325l27.153-21.717c4.608 6.827 12.407 11.332 21.248 11.332h34.133c10.778 0 19.985-6.724 23.748-16.188l34.483 4.215c-.179 9.429 4.762 18.628 13.67 23.262l30.276 15.761a25.675 25.675 0 0 0 11.81 2.893c5.137 0 9.993-1.553 14.097-4.267l20.489 29.491c-7.202 4.531-12.041 12.501-12.041 21.632v34.133c0 8.328 4.062 15.676 10.24 20.352l-20.028 20.028c-9.489-4.275-21.427-2.705-28.954 4.83l-7.748 7.671-5.999-5.999c-9.984-9.992-26.223-9.992-36.207 0l-33.186 33.186c-3.336 3.328-3.336 8.73 0 12.066a8.54 8.54 0 0 0 12.066 0l33.186-33.186c3.336-3.328 8.747-3.328 12.075 0l8.158 8.158c.162 1.929.87 3.823 2.338 5.299 1.485 1.502 3.413 2.236 5.367 2.398l16.495 16.495c.162 1.937.879 3.849 2.364 5.333 1.476 1.485 3.388 2.202 5.333 2.364l8.218 8.218c3.328 3.328 3.319 8.738 0 12.066l-33.195 33.195c-3.328 3.337-3.328 8.738 0 12.066a8.54 8.54 0 0 0 6.033 2.5 8.509 8.509 0 0 0 6.033-2.5l33.195-33.195c9.984-9.984 9.984-26.214 0-36.198l-6.033-6.033 7.68-7.68c4.838-4.838 7.501-11.264 7.501-18.099 0-3.883-.939-7.578-2.56-10.974l27.153-27.162c12.245-1.903 21.675-12.433 21.675-25.199V128c.001-12.476-8.976-22.861-20.803-25.122zm-354.662 67.789h-16.887l-.179-8.533a8.536 8.536 0 0 1 8.533-8.533c4.702 0 8.533 3.823 8.533 8.533v8.533zm87.85-92.724l-24.132 24.132c-3.226 3.234-8.858 3.217-12.066.009-3.328-3.337-3.328-8.747-.009-12.075l24.149-24.132c1.604-1.613 3.746-2.5 6.025-2.5s4.42.887 6.033 2.5 2.5 3.755 2.5 6.033-.887 4.421-2.5 6.033zm99.883-43.81h-34.133c-4.71 0-8.533-3.831-8.533-8.533a8.536 8.536 0 0 1 8.533-8.533h34.133c4.702 0 8.533 3.823 8.533 8.533 0 4.702-3.831 8.533-8.533 8.533zm121.566 25.353c-2.108 4.053-7.381 5.786-11.503 3.627L404.075 47.36c-4.173-2.176-5.803-7.347-3.635-11.52a8.525 8.525 0 0 1 7.586-4.591c1.374 0 2.697.324 3.925.964l30.285 15.77a8.466 8.466 0 0 1 4.19 5.001 8.461 8.461 0 0 1-.572 6.502zm.333 172.015l-7.68 7.68-12.1-12.1 7.714-7.646c3.217-3.226 8.841-3.234 12.066 0a8.475 8.475 0 0 1 2.5 6.033 8.48 8.48 0 0 1-2.5 6.033zm48.768-69.368c0 4.702-3.831 8.533-8.533 8.533-4.71 0-8.533-3.831-8.533-8.533V128a8.536 8.536 0 0 1 8.533-8.533c4.702 0 8.533 3.823 8.533 8.533v34.133z"/><path d="M128.021 256c-70.579 0-128 57.421-128 128s57.421 128 128 128 128-57.421 128-128-57.42-128-128-128zm0 238.933c-61.175 0-110.933-49.766-110.933-110.933 0-61.175 49.758-110.933 110.933-110.933 61.167 0 110.933 49.758 110.933 110.933.001 61.167-49.766 110.933-110.933 110.933z"/><path d="M128.021 290.133c-51.763 0-93.867 42.103-93.867 93.867 0 51.755 42.104 93.867 93.867 93.867 51.755 0 93.867-42.112 93.867-93.867 0-51.763-42.112-93.867-93.867-93.867zm0 170.667c-42.351 0-76.8-34.458-76.8-76.8 0-42.351 34.449-76.8 76.8-76.8 42.342 0 76.8 34.449 76.8 76.8 0 42.342-34.457 76.8-76.8 76.8zm8.534-230.4v-17.067a8.53 8.53 0 0 0-8.533-8.533 8.525 8.525 0 0 0-8.533 8.533V230.4a8.53 8.53 0 0 0 8.533 8.533 8.536 8.536 0 0 0 8.533-8.533zm259.712 51.012l12.066-12.066c3.328-3.328 3.328-8.73 0-12.066-3.336-3.337-8.738-3.337-12.066 0l-12.066 12.066c-3.337 3.337-3.337 8.738 0 12.066 1.664 1.673 3.849 2.5 6.033 2.5s4.36-.827 6.033-2.5zm-164.489-15.274c-4.335 1.835-6.374 6.835-4.54 11.179 1.843 4.343 6.844 6.357 11.187 4.54 41.839-17.664 89.583-8.354 121.634 23.689 43.247 43.264 43.255 113.638.009 156.894-32.068 32.06-79.812 41.37-121.634 23.689-4.335-1.826-9.353.196-11.187 4.54-1.835 4.343.205 9.344 4.54 11.187 16.239 6.852 33.237 10.189 50.074 10.189 33.203 0 65.724-12.988 90.274-37.538 49.903-49.903 49.903-131.115-.009-181.026-36.992-37.003-92.083-47.73-140.348-27.343z"/><path d="M260.169 457.728c-4.557-1.306-9.267 1.297-10.581 5.82-1.306 4.531 1.297 9.259 5.82 10.573a93.926 93.926 0 0 0 26.197 3.729c24.567 0 48.546-9.643 66.389-27.486 17.732-17.724 27.494-41.293 27.494-66.364 0-25.079-9.771-48.648-27.494-66.381-24.201-24.192-59.682-33.28-92.587-23.748-4.531 1.314-7.134 6.042-5.82 10.564 1.314 4.531 6.059 7.134 10.573 5.828 26.957-7.808 55.97-.367 75.767 19.422 14.498 14.515 22.494 33.792 22.494 54.315 0 20.514-7.987 39.791-22.494 54.298-19.797 19.797-48.844 27.247-75.758 19.43z"/></svg>