<svg xmlns="http://www.w3.org/2000/svg" viewBox="0 0 512.013 512.013"><path d="M215.851 125.489c26.786 26.803 65.408 28.16 72.883 28.16l35.55-.017v162.125c0 4.719 3.797 8.533 8.516 8.533a8.525 8.525 0 0 0 8.533-8.533V102.731c.077-1.826 1.468-45.039-28.134-74.641C287.164 2.029 250.931.006 240.452.006l-44.151.017a8.53 8.53 0 0 0-8.533 8.533l.009 42.274c-.078 1.827-1.528 45.04 28.074 74.659zm-11.017-74.3V17.09l35.618-.017c6.281 0 38.733 1.109 60.681 23.083 24.226 24.226 23.185 61.534 23.168 62.234v22.033l-87.834-87.825c-3.337-3.337-8.738-3.337-12.066 0a8.525 8.525 0 0 0 0 12.066l87.91 87.902-23.578.017c-6.289 0-38.784-1.118-60.817-23.168-24.208-24.218-23.099-61.517-23.082-62.226zm153.583 162.117a8.594 8.594 0 0 0 .666 3.388c.06.137.179.23.239.358.41.853.879 1.673 1.579 2.372.649.649 1.417 1.067 2.193 1.459.196.102.341.273.546.367a8.616 8.616 0 0 0 3.294.674c.026 0 .043-.009.068-.009l42.223-.009 1.801.026c7.475 0 46.097-1.348 72.858-28.117 29.628-29.611 28.169-72.832 28.1-74.3V76.849a8.53 8.53 0 0 0-8.533-8.533l-42.308.009-1.801-.034c-7.475 0-46.08 1.357-72.858 28.126-29.611 29.611-28.134 72.832-28.066 74.3v42.589zm40.132-104.824c22.016-22.007 54.502-23.125 60.791-23.125l35.576.026.008 34.466c.009.375 1.126 37.675-23.108 61.901-21.999 22.008-54.502 23.117-60.792 23.117l-23.484-.009 87.842-87.842c3.337-3.337 3.337-8.73 0-12.066s-8.738-3.337-12.066 0l-87.834 87.834-.009-22.434c-.015-.368-1.286-37.497 23.076-61.868zm88.15 234.027c-8.806-2.364-18.005-1.152-25.37 3.123l-98.21 47.804c-15.266 7.637-30.677 7.637-64.452 7.637-33.015 0-83.422-8.337-83.934-8.414-4.651-.768-9.045 2.364-9.813 7.006-.777 4.651 2.364 9.045 7.014 9.822 2.116.358 52.292 8.653 86.733 8.653 35.43 0 53.214 0 71.996-9.395l98.671-48.051a16.962 16.962 0 0 1 12.945-1.707c4.403 1.186 8.09 4.011 10.359 7.953 4.71 8.149 1.903 18.611-6.477 23.458l-115.379 71.808c-.239.162-24.858 15.667-80.648 15.667-48.375 0-123.11-41.182-124.186-41.771-.777-.384-19.285-9.429-55.014-9.429-4.719 0-8.533 3.823-8.533 8.533s3.814 8.533 8.533 8.533c31.036 0 47.027 7.467 47.061 7.467v-.009c3.226 1.792 79.334 43.742 132.139 43.742 61.611 0 88.934-17.749 89.839-18.355l114.961-71.552c16.29-9.412 21.897-30.328 12.493-46.626-4.558-7.893-11.922-13.542-20.728-15.897zM42.667 456.54c0-7.057-5.743-12.8-12.8-12.8s-12.8 5.743-12.8 12.8 5.743 12.8 12.8 12.8 12.8-5.743 12.8-12.8z"/><path d="M59.733 273.073h-51.2c-4.719 0-8.533 3.823-8.533 8.533s3.814 8.533 8.533 8.533h51.2c4.71 0 8.533 3.831 8.533 8.533v187.733c0 4.702-3.823 8.533-8.533 8.533h-51.2c-4.719 0-8.533 3.823-8.533 8.533s3.814 8.533 8.533 8.533h51.2c14.114 0 25.6-11.486 25.6-25.6V298.673c0-14.114-11.486-25.6-25.6-25.6zm51.2 51.2H179.2c9.958 0 26.88 12.698 41.813 23.893 18.722 14.046 36.412 27.307 52.053 27.307h51.2c12.962 0 19.396 5.879 19.567 6.033a8.51 8.51 0 0 0 6.033 2.5 8.509 8.509 0 0 0 6.033-2.5 8.525 8.525 0 0 0 0-12.066c-1.126-1.126-11.605-11.034-31.633-11.034h-51.2c-9.958 0-26.88-12.698-41.813-23.893-18.722-14.046-36.412-27.307-52.053-27.307h-68.267c-4.719 0-8.533 3.823-8.533 8.533s3.814 8.534 8.533 8.534z"/></svg>