<svg xmlns="http://www.w3.org/2000/svg" viewBox="0 0 299.92 299.92"><path d="M293.4 65.2h-68.254c.023-.223.035-.449.035-.678 0-21.555-17.193-38.442-39.12-38.442h-65.213c-21.927 0-39.12 16.593-39.12 37.777 0 .461.049.91.139 1.343H6.52A6.513 6.513 0 0 0 0 71.72v195.6a6.513 6.513 0 0 0 6.52 6.52H293.4a6.513 6.513 0 0 0 6.52-6.52V71.72a6.513 6.513 0 0 0-6.52-6.52zM94.768 63.857c0-14.103 11.221-24.737 26.08-24.737h65.213c14.624 0 26.08 11.149 26.08 25.402 0 .229.012.455.035.678H94.629c.091-.433.139-.882.139-1.343zM286.88 260.8H13.04V78.24h273.84V260.8z"/><path d="M84.76 208.64h32.6v32.6a6.513 6.513 0 0 0 6.52 6.52h52.16a6.513 6.513 0 0 0 6.52-6.52v-32.6h32.6a6.513 6.513 0 0 0 6.52-6.52v-52.16a6.513 6.513 0 0 0-6.52-6.52h-32.6v-32.6a6.513 6.513 0 0 0-6.52-6.52h-52.16a6.513 6.513 0 0 0-6.52 6.52v32.6h-32.6a6.513 6.513 0 0 0-6.52 6.52v52.16a6.513 6.513 0 0 0 6.52 6.52zm6.52-52.16h32.6a6.513 6.513 0 0 0 6.52-6.52v-32.6h39.12v32.6a6.513 6.513 0 0 0 6.52 6.52h32.6v39.12h-32.6a6.513 6.513 0 0 0-6.52 6.52v32.6H130.4v-32.6a6.513 6.513 0 0 0-6.52-6.52h-32.6v-39.12z"/></svg>