<svg xmlns="http://www.w3.org/2000/svg" viewBox="0 0 470 470"><path d="M447.743 148.36c-2.935 0-5.739.571-8.307 1.607-2.868-8.978-11.291-15.497-21.208-15.497a22.168 22.168 0 0 0-14.757 5.609c-3.931-3.488-9.101-5.609-14.757-5.609s-10.826 2.121-14.757 5.609a22.168 22.168 0 0 0-14.757-5.609c-12.225 0-22.17 9.984-22.17 22.238-.056 21.452-.059 31.504-.033 36.324-4.444 4.144-6.999 9.963-6.999 16.266v34.551c0 23.437 11.869 45.387 31.25 58.302v159.084a7.5 7.5 0 0 0 15 0V297.986a7.501 7.501 0 0 0-3.744-6.492C355.54 281.68 345 263.423 345 243.85v-34.551c0-2.506 1.216-4.758 3.252-6.078.083-.046.168-.085.25-.135a7.233 7.233 0 0 1 3.755-1.044h37.813c4.001 0 7.257 3.256 7.257 7.257s-3.255 7.257-7.257 7.257h-23.056a7.497 7.497 0 0 0-7.5 7.5v23.266a7.501 7.501 0 0 0 4.538 6.891l32.313 13.889a7.502 7.502 0 0 0 5.923-13.782l-27.774-11.938v-10.826h15.556c10.042 0 18.548-6.687 21.31-15.841a22.17 22.17 0 0 0 6.85 1.083 22.167 22.167 0 0 0 14.757-5.609 22.168 22.168 0 0 0 14.757 5.609c2.541 0 4.981-.434 7.257-1.221v29.834c0 28.389-23.096 51.484-51.484 51.484a7.5 7.5 0 0 0 0 15c9.68 0 18.875-2.097 27.179-5.833v155.172a7.5 7.5 0 0 0 15 0v-164.47C460.525 284.561 470 266.073 470 245.412v-74.794c0-12.273-9.984-22.258-22.257-22.258zm-95.757 38.691c-.002-8.567.021-21.25.045-30.322 0-4.001 3.217-7.257 7.17-7.257 4.001 0 7.257 3.256 7.257 7.257v30.313h-14.202c-.09 0-.179.008-.27.009zm38.083-.009h-8.611v-30.313c0-4.001 3.255-7.257 7.257-7.257s7.257 3.256 7.257 7.257v31.114a22.158 22.158 0 0 0-5.903-.801zm28.16 14.757c-4.001 0-7.257-3.256-7.257-7.257v-37.813c0-4.001 3.255-7.257 7.257-7.257s7.257 3.256 7.257 7.257v37.813c0 4.001-3.256 7.257-7.257 7.257zm29.514 0c-4.001 0-7.257-3.256-7.257-7.257v-23.933c.005-3.997 3.259-7.248 7.257-7.248 4.001 0 7.257 3.256 7.257 7.257v23.924c0 4.001-3.255 7.257-7.257 7.257zM125.68 174.374c-3.283 0-6.41.682-9.247 1.912-2.827-9.696-11.795-16.801-22.392-16.801a23.23 23.23 0 0 0-15.819 6.201c-4.16-3.847-9.72-6.201-15.819-6.201s-11.66 2.354-15.819 6.201a23.233 23.233 0 0 0-15.82-6.201c-12.807 0-23.226 10.461-23.226 23.3-.061 23.381-.063 34.124-.034 39.173C2.742 226.309 0 232.474 0 239.159v37.039c0 25.041 12.729 48.487 33.5 62.21V462.5a7.5 7.5 0 0 0 15 0V334.233a7.501 7.501 0 0 0-3.744-6.492C26.402 317.124 15 297.373 15 276.198v-37.039c0-2.877 1.401-5.463 3.746-6.977.089-.049.18-.091.268-.145a8.29 8.29 0 0 1 4.306-1.198h40.535c4.587 0 8.319 3.732 8.319 8.32s-3.732 8.32-8.319 8.32H39.139a7.497 7.497 0 0 0-7.5 7.5v24.941a7.501 7.501 0 0 0 4.538 6.891L70.816 301.7a7.502 7.502 0 0 0 5.923-13.782l-30.1-12.938v-12.501h17.215c10.717 0 19.763-7.27 22.48-17.135a23.21 23.21 0 0 0 7.707 1.315c6.1 0 11.66-2.354 15.819-6.201a23.233 23.233 0 0 0 15.82 6.201c2.93 0 5.734-.549 8.319-1.54v32.753c0 30.73-25.001 55.731-55.731 55.731a7.5 7.5 0 0 0 0 15 70.287 70.287 0 0 0 29.676-6.55V462.5a7.5 7.5 0 0 0 15 0V332.66C138.834 319.679 149 299.943 149 277.873v-80.179c0-12.859-10.461-23.32-23.32-23.32zM22.488 215.868c-.003-9.056.022-22.797.049-33.063 0-4.587 3.69-8.32 8.226-8.32 4.586 0 8.317 3.73 8.32 8.315v33.04H23.319c-.278-.001-.554.018-.831.028zm41.366-.029h-9.771v-33.025c0-4.597 3.732-8.33 8.32-8.33s8.319 3.732 8.319 8.32v34.069a23.23 23.23 0 0 0-6.868-1.034zm30.188 15.82c-4.587 0-8.319-3.732-8.319-8.319v-40.536c0-4.587 3.732-8.32 8.319-8.32s8.319 3.732 8.319 8.32v40.536c0 4.587-3.732 8.319-8.319 8.319zm31.639 0c-4.587 0-8.32-3.732-8.32-8.319v-25.646c0-4.587 3.732-8.32 8.319-8.32s8.32 3.732 8.32 8.32v25.646c0 4.587-3.732 8.319-8.319 8.319zM322.495 74.776V44.165c0-14.55-11.837-26.388-26.388-26.388a26.222 26.222 0 0 0-12.011 2.896C281.478 8.86 270.92 0 258.332 0c-7.396 0-14.091 3.059-18.887 7.978C234.648 3.059 227.954 0 220.557 0s-14.092 3.059-18.888 7.978C196.873 3.059 190.178 0 182.781 0c-14.489 0-26.277 11.838-26.277 26.369-.076 29.09-.073 41.764-.038 47.417-5.678 4.942-8.962 12.103-8.962 19.888v44.222c0 29.669 15.22 57.434 39.998 73.489V462.5a7.5 7.5 0 0 0 15 0V207.187a7.501 7.501 0 0 0-3.744-6.492c-22.362-12.937-36.253-37-36.253-62.8V93.674c0-3.946 1.933-7.497 5.168-9.572.108-.058.217-.11.323-.175a11.359 11.359 0 0 1 5.896-1.642h48.397c6.279 0 11.388 5.109 11.388 11.388s-5.108 11.388-11.388 11.388H192.78a7.497 7.497 0 0 0-7.5 7.5v29.778a7.501 7.501 0 0 0 4.538 6.891l41.357 17.777a7.502 7.502 0 0 0 5.923-13.782L200.281 137.4v-17.338h22.009c12.686 0 23.307-9 25.821-20.949a26.232 26.232 0 0 0 10.221 2.061c7.397 0 14.092-3.059 18.888-7.978 4.796 4.919 11.491 7.978 18.888 7.978 4.076 0 7.938-.93 11.387-2.587v41.309c0 37.493-30.502 67.995-67.995 67.995a7.5 7.5 0 0 0 0 15 82.463 82.463 0 0 0 36.886-8.677V462.5a7.5 7.5 0 0 0 15 0V204.604c18.948-15.224 31.109-38.567 31.109-64.708v-65.12zm-151.048-7.363c-.007-10.747.024-28.153.057-41.025 0-6.279 5.059-11.388 11.277-11.388 6.279 0 11.388 5.109 11.388 11.388v40.897h-20.276c-.82.001-1.635.053-2.446.128zm50.843-.127h-13.121V26.388c0-6.279 5.108-11.388 11.388-11.388s11.388 5.109 11.388 11.388v42.735a26.244 26.244 0 0 0-9.655-1.837zm36.042 18.888c-6.279 0-11.388-5.109-11.388-11.388V26.388c0-6.279 5.108-11.388 11.387-11.388s11.388 5.109 11.388 11.388v48.398c.001 6.279-5.108 11.388-11.387 11.388zm37.775 0c-6.279 0-11.388-5.109-11.388-11.388v-30.63c.005-6.275 5.111-11.379 11.387-11.379 6.279 0 11.388 5.109 11.388 11.388v30.63c-.005 6.275-5.111 11.379-11.387 11.379z"/></svg>