<svg xmlns="http://www.w3.org/2000/svg" viewBox="0 0 405.98 405.98"><path d="M368.899 272.314a158.387 158.387 0 0 0-84.697-24.514c-1.054 0-2.108.016-3.162.037 34.507-27.094 59.146-65.556 68.972-108.692a6.5 6.5 0 0 0-7.756-7.787c-35.557 7.956-67.984 25.74-93.773 51.428a190.732 190.732 0 0 0-5.727 5.961 238.6 238.6 0 0 0 2.532-34.637 237.784 237.784 0 0 0-36.802-127.169 6.497 6.497 0 0 0-10.99 0 237.79 237.79 0 0 0-36.802 127.169c0 11.648.857 23.22 2.532 34.638a191.79 191.79 0 0 0-5.726-5.959c-25.791-25.69-58.218-43.475-93.775-51.431a6.498 6.498 0 0 0-7.756 7.787c9.826 43.136 34.464 81.598 68.972 108.692a158.638 158.638 0 0 0-3.161-.037c-30.02 0-59.308 8.477-84.697 24.514a6.5 6.5 0 0 0 0 10.992c24.396 15.409 51.878 23.719 80.344 24.451a110.49 110.49 0 0 0-16.053 23.201 6.502 6.502 0 0 0 .16 6.275 6.503 6.503 0 0 0 5.393 3.213c1.221.041 2.437.061 3.653.061 33.486-.001 65.127-15.431 85.913-40.998v63.615a6.5 6.5 0 1 0 13 0v-63.612c20.785 25.567 52.422 40.996 85.911 40.996 1.215 0 2.435-.021 3.653-.061a6.501 6.501 0 0 0 5.553-9.487 110.45 110.45 0 0 0-16.08-23.233c28.343-.821 56.358-9.252 80.371-24.419a6.5 6.5 0 0 0-.002-10.994zM257.654 192a179.1 179.1 0 0 1 76.961-45.278c-12.816 43.752-42.149 81.468-81.713 104.586a178.99 178.99 0 0 1-36.299 16.099 237.783 237.783 0 0 0 20.298-50.624A179.076 179.076 0 0 1 257.654 192zM202.99 43.056c19.198 33.835 29.297 72.005 29.297 111.054 0 39.048-10.099 77.218-29.297 111.054-19.198-33.836-29.297-72.006-29.297-111.054 0-39.049 10.099-77.219 29.297-111.054zM71.364 146.722a179.09 179.09 0 0 1 76.963 45.281 179.229 179.229 0 0 1 20.753 24.782 237.796 237.796 0 0 0 20.298 50.623 178.923 178.923 0 0 1-36.3-16.1c-39.565-23.118-68.898-60.834-81.714-104.586zm50.413 114.079c8.666 0 17.331.787 25.776 2.322a191.931 191.931 0 0 0 38.293 16.802c-16.325 7.99-34.096 12.927-52.17 14.394a5.73 5.73 0 0 0-.392.044c-27.949 2.211-55.314-3.494-79.804-16.549a145.388 145.388 0 0 1 68.297-17.013zm-3.064 66.362c5.064-7.51 11.136-14.228 18.119-20.089 15.745-1.494 31.248-5.388 45.872-11.469-16.478 18.022-39.393 29.475-63.991 31.558zm104.564-31.557c14.623 6.081 30.125 9.974 45.869 11.469 6.983 5.861 13.056 12.579 18.119 20.089-24.594-2.085-47.51-13.538-63.988-31.558zm49.42-1.242a5.845 5.845 0 0 0-.396-.044c-18.075-1.468-35.845-6.404-52.169-14.394a191.965 191.965 0 0 0 38.294-16.802 144.349 144.349 0 0 1 25.776-2.322c23.902 0 47.301 5.855 68.296 17.014-24.489 13.053-51.852 18.754-79.801 16.548z"/><path d="M202.99 0C91.061 0 0 91.061 0 202.99s91.061 202.99 202.99 202.99 202.99-91.061 202.99-202.99S314.92 0 202.99 0zm0 392.98C98.229 392.98 13 307.751 13 202.99S98.229 13 202.99 13s189.99 85.229 189.99 189.99-85.229 189.99-189.99 189.99z"/></svg>