<svg xmlns="http://www.w3.org/2000/svg" viewBox="0 0 430.068 430.068"><path d="M345.188 106.82H5.503A5.503 5.503 0 0 0 0 112.324v205.429a5.503 5.503 0 0 0 5.503 5.503h339.685a5.503 5.503 0 0 0 5.503-5.503V112.324a5.503 5.503 0 0 0-5.503-5.504zm-5.503 205.43H11.006V117.826h328.679V312.25z"/><path d="M155.591 158.941H306.37a5.502 5.502 0 1 0 0-11.006H155.591a5.503 5.503 0 0 0 0 11.006zm0 123.336h109.182a5.503 5.503 0 1 0 0-11.006H155.591a5.503 5.503 0 1 0 0 11.006zm0-60.138h67.873a5.502 5.502 0 1 0 0-11.006h-67.873a5.503 5.503 0 0 0 0 11.006zm0 30.064h67.873a5.502 5.502 0 1 0 0-11.006h-67.873a5.503 5.503 0 0 0 0 11.006zm-95.283-12.432c0-3.039-2.464-5.502-5.503-5.502s-5.503 2.463-5.503 5.502c0 15.078 13.402 27.606 30.839 29.814v7.188a5.503 5.503 0 1 0 11.006 0v-7.188c17.433-2.208 30.832-14.736 30.832-29.814 0-15.088-13.398-27.624-30.832-29.834v-38.204c11.328 1.907 19.826 9.567 19.826 18.706a5.503 5.503 0 0 0 11.006 0c0-15.084-13.398-27.618-30.832-29.826v-7.174a5.503 5.503 0 1 0-11.006 0v7.173c-17.438 2.208-30.839 14.743-30.839 29.827 0 15.077 13.402 27.605 30.839 29.813v38.213c-11.332-1.905-19.833-9.561-19.833-18.694zm50.665 0c0 9.133-8.498 16.787-19.826 18.693v-37.406c11.328 1.909 19.826 9.573 19.826 18.713zm-50.665-49.332c0-9.139 8.501-16.799 19.833-18.706v37.398c-11.332-1.904-19.833-9.56-19.833-18.692zM406.563 86.306H381.12a5.503 5.503 0 0 0-5.503 5.503v221.008c0 .853.199 1.697.581 2.461l12.722 25.443a5.505 5.505 0 0 0 9.844 0l12.722-25.443a5.51 5.51 0 0 0 .581-2.461V91.809a5.505 5.505 0 0 0-5.504-5.503zm-5.503 225.212l-7.219 14.438-7.219-14.438V97.311h14.438v214.207zm23.505-196.221a5.503 5.503 0 0 0-5.503 5.504v75.313a5.503 5.503 0 0 0 11.006 0v-75.313a5.503 5.503 0 0 0-5.503-5.504z"/></svg>