<svg xmlns="http://www.w3.org/2000/svg" width="438.69" height="438.69" viewBox="0 0 438.69 438.69"><path d="M361.323 276.665c-.005-.686-.16-1.35-.399-1.995a7.573 7.573 0 0 0-.218-.486c-.08-.171-.12-.349-.218-.515l-58.552-96.611a5.875 5.875 0 0 0-5.009-2.825h-30.146l67.976-67.976a5.853 5.853 0 0 0 0-8.279L238.501 1.715a5.854 5.854 0 0 0-8.28 0L103.933 127.991a5.848 5.848 0 0 0 0 8.28l37.959 37.957h-.134a5.857 5.857 0 0 0-5.006 2.824L78.2 273.663c-.1.166-.146.344-.223.515-.074.16-.146.315-.211.48-.24.652-.397 1.315-.403 2.001 0 .012-.006.023-.006.035v156.142a5.847 5.847 0 0 0 5.855 5.854h272.269a5.847 5.847 0 0 0 5.855-5.854V276.7a.072.072 0 0 1-.013-.035zM234.35 14.134l87.982 87.983-117.994 117.997-44.166-44.166-43.814-43.812L234.35 14.134zm-89.296 171.809h8.548l46.584 46.585a5.8 5.8 0 0 0 1.91 1.27 5.727 5.727 0 0 0 2.236.451h50.624a5.856 5.856 0 0 0 0-11.71h-36.489l36.593-36.595h38.562l51.451 84.901H93.598l51.456-84.902zm204.565 241.043H89.061V282.555H349.62v144.431z" fill="#030303"/></svg>