<svg xmlns="http://www.w3.org/2000/svg" viewBox="0 0 49.609 49.609"><path d="M42.037 16.479a.757.757 0 0 0-.75-.75H8.521a.757.757 0 0 0-.75.75v3.774c0 .409.341.75.75.75h4.37v16.564h-2.146a.757.757 0 0 0-.75.75v2.809c0 .41.341.75.75.75h4.708c-.035.08-.072.16-.072.256v6.727c0 .409.341.75.75.75h18.624a.681.681 0 0 0 .476-.184c.017-.016.037-.023.052-.039h.001c.016-.014.023-.035.038-.051l.006-.012a.68.68 0 0 0 .177-.466v-6.794c0-.071-.02-.127-.031-.188h4.145c.408 0 .75-.34.75-.75v-2.809a.757.757 0 0 0-.75-.75h-1.792v.75l-.001-.001v-.749h.001V21.002h-.001v-.749l.001-.001v.75h3.463a.692.692 0 0 0 .474-.181.83.83 0 0 1-.002 0c.019-.016.041-.025.057-.042.015-.013.021-.033.035-.047.328-.431.143-1.23-.564-1.23h.001c.707 0 .892.799.563 1.23a.692.692 0 0 0 .187-.48c-.004-1.257-.004-2.515-.004-3.773zm-7.284 31.629h-8.577c.262-1.135.653-2.896.88-3.943.012-.056-.039-.061-.102-.037-.443.164-1.328.482-1.328.482s-.984-.387-1.262-.493c-.023-.022-.054-.024-.085-.01a.135.135 0 0 0-.039.04l-.001.007c.209 1.06.561 2.819.798 3.954h-8.159v-5.577l.974-.655h-.001c.704-.474 1.408-.947 2.111-1.422-.173.447-.353.938-.52 1.422-.446 1.303-.778 2.561-.492 2.801l.287.175.236-.165c1.258-.88 4.441-.85 5.58-.809h.001l.056.062c.132.146.331.219.53.219s.398-.072.531-.219l.07-.077c1.182-.059 4.557-.038 5.79.823l.522-.01c.289-.242-.062-1.506-.525-2.801a44.533 44.533 0 0 0-.459-1.213c.574.404 1.146.81 1.721 1.213h.001c.237.17.474.336.711.502v5.73l.751.001c.527-.001.763.441.714.848.049-.405-.187-.848-.714-.848zm-8.727-6.232l-.383.418c-.126-.14-.253-.277-.379-.418l-1.361-1.5h.001l-1.186-1.308h.754a.753.753 0 0 0 .667-.426c.718.278 1.513.39 2.378.264.073-.011.141-.034.213-.049l-.015-.011c-.013-.016-.023-.033-.035-.049.012.016.022.031.036.047.004.005.01.008.015.012h-.001l.04.029c.119.105.27.183.474.183h1.336l-1.189 1.308-1.365 1.5zm-4.83-2.252l.683.752h-.001l1.36 1.5h.001l1.121 1.235h-.001c-1.292-.01-3.368.073-4.707.634.126-.466.351-1.152.602-1.869a56.971 56.971 0 0 1 .806-2.162c.045-.03.09-.061.136-.09zm6.857 2.252l1.364-1.5.685-.752c.108.075.217.151.324.229v.001a64.906 64.906 0 0 1 .783 2.022c.26.711.497 1.396.633 1.864-1.375-.565-3.539-.657-4.904-.637.37-.409.742-.817 1.115-1.227zm1.56-2.597c.001 0 0-.001 0 0l.537-.069-.537.069zm-.61-1.711h-.005.005a7.968 7.968 0 0 0 1.155-1.44c1.018-1.613 1.415-3.603 1.434-5.487l.002-.013c-.027-2.856-1.018-6.145-3.6-7.705v-1.919h4.557v16.564h-3.548zm-1.009-12.03c.333.401.602.854.82 1.33s.386.979.514 1.48c.191.748.258 1.51.266 2.279-.015 1.619-.438 3.797-1.6 5.151v.001c-.405.473-.9.846-1.5 1.059a3.416 3.416 0 0 1-.508.139c-.639.12-1.247-.128-1.765-.505v1.846a.727.727 0 0 1-.083.323h-.001c.05-.1.083-.207.083-.324l.001-1.846a5.079 5.079 0 0 1-.828-.775 5.225 5.225 0 0 1-.672-1.037v-.001c-.45-.878-.714-1.883-.826-2.815a10.317 10.317 0 0 1-.07-1.289c.01-1.34.273-2.79.896-3.987a4.841 4.841 0 0 1 1.5-1.742c.179-.126.348-.262.551-.361.546-.266 1.163-.247 1.722-.05.329.115.639.292.9.507.225.184.416.396.6.617zm-5.273-4.534v2.473a6.883 6.883 0 0 0-1.458 1.652c-1.061 1.683-1.515 3.771-1.446 5.819.042 1.229.271 2.443.671 3.548.07.192.156.379.24.567a8.06 8.06 0 0 0 1.154 1.894c.18.215.368.422.57.608h.269v.001h-.269l.001.001-4.288-.001V21.002l4.556.002zm11.283 20.988c.123.216.247.433.371.647l-.002-.001c-.123-.216-.247-.43-.369-.646zm6.532-22.489h-3.462a.757.757 0 0 0-.75.75v18.064c0 .409.341.75.75.75h1.792v1.309h-5.107a153.9 153.9 0 0 0-.502-.354l-1.351-.953H33.3c.407 0 .75-.341.75-.75V20.255a.758.758 0 0 0-.75-.75h-6.058a.757.757 0 0 0-.75.75v2.085a4.216 4.216 0 0 0-2.273.247v-2.333a.757.757 0 0 0-.75-.75h-6.056a.685.685 0 0 0-.479.186c-.016.012-.033.022-.047.036-.016.017-.027.036-.041.055a.684.684 0 0 0-.182.474v18.063c0 .409.341.75.75.75h1.926l-1.2.808-.743.5h-5.902v.75h-.001v-.75h.001v-1.309h-.001v-.749l.001-.001v.75h2.146c.409 0 .75-.341.75-.75V20.253a.757.757 0 0 0-.75-.75h-4.37v.75l-.001-.001v-.749h.001v-2.274H9.27v-.749l.001-.001v.75h31.266l.001 2.274h-.002zm.002-3.023l.749.749-.749-.749zm-32.25-2.337h32.835a.568.568 0 0 0 .616-.165c.366-.302.35-.943-.054-1.21-.008-.007-.01-.016-.02-.023L26.882 1.421 25.165.107c-.187-.143-.57-.143-.757 0L9.624 11.431l-1.716 1.314c-.555.426-.433 1.398.38 1.398zM23.45 2.716l1.337-1.024 14.296 10.95H10.491L23.45 2.716z" fill="#030104"/></svg>