<svg xmlns="http://www.w3.org/2000/svg" viewBox="0 0 100.13 100.13"><defs><style>.cls-1{fill:#fff;}</style></defs><title>Asset 4</title><g id="Layer_2" data-name="Layer 2"><g id="Layer_1-2" data-name="Layer 1"><g id="Page-1"><g id="Icons-Communication"><g id="phone"><path id="Shape" class="cls-1" d="M20,43.39C27.81,59,41.16,71.76,56.74,80.1L69,67.86c1.67-1.67,3.89-2.23,5.56-1.11a58.19,58.19,0,0,0,20,3.34,5.26,5.26,0,0,1,5.56,5.56V94.56a5.26,5.26,0,0,1-5.56,5.56A94.49,94.49,0,0,1,0,5.56,5.26,5.26,0,0,1,5.56,0H25a5.26,5.26,0,0,1,5.56,5.56,63,63,0,0,0,3.34,20,6.85,6.85,0,0,1-1.11,5.56L20,43.39Z"/></g></g></g></g></g></svg>