<svg xmlns="http://www.w3.org/2000/svg" viewBox="0 0 1081.4 130.3"><defs><style>.cls-1{fill:#92c8f4;}.cls-2{fill:#fff;}</style></defs><title>Asset 3</title><g id="Layer_2" data-name="Layer 2"><g id="Layer_1-2" data-name="Layer 1"><path class="cls-1" d="M102.44,28.9H67.94V128.95H39.5V28.9H5V6.35h97.44Z"/><path class="cls-1" d="M160.08,6.35q13,0,22.26,3.07a42.75,42.75,0,0,1,15.32,8.46,33,33,0,0,1,8.88,12.71,43.08,43.08,0,0,1,2.86,15.82,46.52,46.52,0,0,1-2.95,16.83,33.77,33.77,0,0,1-9,13.13,42.43,42.43,0,0,1-15.36,8.54,70.39,70.39,0,0,1-22,3.07H145.27v41H116.83V6.35Zm0,60.17q11.11,0,16-5.3T181,46.4a22.14,22.14,0,0,0-1.26-7.66,15.59,15.59,0,0,0-3.83-5.93A17.24,17.24,0,0,0,169.38,29a28.69,28.69,0,0,0-9.3-1.35H145.27V66.51Z"/><path class="cls-1" d="M267.12,6.35q13,0,22.26,3.07a42.75,42.75,0,0,1,15.32,8.46,33,33,0,0,1,8.88,12.71,43.08,43.08,0,0,1,2.86,15.82,46.52,46.52,0,0,1-2.95,16.83,33.77,33.77,0,0,1-9,13.13,42.43,42.43,0,0,1-15.36,8.54,70.39,70.39,0,0,1-22,3.07H252.31v41H223.86V6.35Zm0,60.17q11.11,0,16-5.3T288,46.4a22.14,22.14,0,0,0-1.26-7.66,15.59,15.59,0,0,0-3.83-5.93A17.24,17.24,0,0,0,276.41,29a28.69,28.69,0,0,0-9.3-1.35H252.31V66.51Z"/><path class="cls-1" d="M448,28.9h-34.5V128.95H385.09V28.9h-34.5V6.35H448Z"/><path class="cls-1" d="M579.89,67.61a65.9,65.9,0,0,1-4.59,24.74,58.47,58.47,0,0,1-33,33.15,73.21,73.21,0,0,1-52.13,0,58.51,58.51,0,0,1-33.11-33.15,65.86,65.86,0,0,1-4.59-24.74,65.87,65.87,0,0,1,4.59-24.74A58.85,58.85,0,0,1,470,23,59.91,59.91,0,0,1,490.19,9.8,68.55,68.55,0,0,1,516.27,5a67.73,67.73,0,0,1,26,4.84,60.09,60.09,0,0,1,20.07,13.25A59.19,59.19,0,0,1,575.3,42.95,65.68,65.68,0,0,1,579.89,67.61Zm-29.12,0a53,53,0,0,0-2.36-16.37,34.68,34.68,0,0,0-6.77-12.33,29.23,29.23,0,0,0-10.81-7.74,37.22,37.22,0,0,0-14.56-2.69,37.76,37.76,0,0,0-14.68,2.69,29.15,29.15,0,0,0-10.86,7.74A34.67,34.67,0,0,0,484,51.24a53,53,0,0,0-2.36,16.37A53.29,53.29,0,0,0,484,84.06a34.64,34.64,0,0,0,6.77,12.33,28.73,28.73,0,0,0,10.86,7.7,38.29,38.29,0,0,0,14.68,2.65,37.75,37.75,0,0,0,14.56-2.65,28.8,28.8,0,0,0,10.81-7.7,34.66,34.66,0,0,0,6.77-12.33A53.35,53.35,0,0,0,550.77,67.61Z"/><path class="cls-1" d="M717,67.61a65.9,65.9,0,0,1-4.59,24.74,58.47,58.47,0,0,1-33,33.15,73.21,73.21,0,0,1-52.13,0,58.51,58.51,0,0,1-33.11-33.15,65.86,65.86,0,0,1-4.59-24.74,65.87,65.87,0,0,1,4.59-24.74,58.85,58.85,0,0,1,13-19.86A59.91,59.91,0,0,1,627.26,9.8,68.55,68.55,0,0,1,653.35,5a67.73,67.73,0,0,1,26,4.84,60.09,60.09,0,0,1,20.07,13.25,59.19,59.19,0,0,1,12.92,19.86A65.68,65.68,0,0,1,717,67.61Zm-29.12,0a53,53,0,0,0-2.36-16.37,34.68,34.68,0,0,0-6.77-12.33,29.23,29.23,0,0,0-10.81-7.74,37.22,37.22,0,0,0-14.56-2.69,37.76,37.76,0,0,0-14.68,2.69,29.15,29.15,0,0,0-10.86,7.74A34.67,34.67,0,0,0,621,51.24a53,53,0,0,0-2.36,16.37A53.29,53.29,0,0,0,621,84.06a34.64,34.64,0,0,0,6.77,12.33,28.73,28.73,0,0,0,10.86,7.7,38.29,38.29,0,0,0,14.68,2.65,37.75,37.75,0,0,0,14.56-2.65,28.8,28.8,0,0,0,10.81-7.7,34.66,34.66,0,0,0,6.77-12.33A53.35,53.35,0,0,0,687.85,67.61Z"/><path class="cls-1" d="M807.59,106.23v22.72H733.71V6.35h28.44v99.88Z"/><path class="cls-1" d="M850.5,56H855q6.31,0,9.09-4L891.74,12A13.58,13.58,0,0,1,897,7.57a17.74,17.74,0,0,1,7-1.22h24.74L892.41,55.91a24.77,24.77,0,0,1-8.33,7.41,20.49,20.49,0,0,1,5.81,3.28,24.75,24.75,0,0,1,4.88,5.47l37,56.88H906.38a22,22,0,0,1-4.17-.34,10.58,10.58,0,0,1-3-1A8.58,8.58,0,0,1,897,126a16.09,16.09,0,0,1-1.77-2.23L867.5,81.07a8.37,8.37,0,0,0-3.83-3.32,16.64,16.64,0,0,0-6.27-1h-6.9v52.17H822.06V6.35H850.5Z"/><path class="cls-1" d="M969.57,128.95H941V6.35h28.61Z"/><path class="cls-1" d="M1081.4,28.9h-34.5V128.95h-28.44V28.9H984V6.35h97.44Z"/><path class="cls-2" d="M96.44,2.35V22.9H61.94V122.95H35.5V22.9H1V2.35H96.44m1-1H0V23.9H34.5V123.95H62.94V23.9h34.5V1.35Z"/><path class="cls-2" d="M155.08,2.35a70.7,70.7,0,0,1,21.94,3,42,42,0,0,1,15,8.25,32.14,32.14,0,0,1,8.61,12.32,42.29,42.29,0,0,1,2.79,15.46,45.75,45.75,0,0,1-2.88,16.47,32.94,32.94,0,0,1-8.74,12.74,41.64,41.64,0,0,1-15,8.33,69.72,69.72,0,0,1-21.69,3H139.27v41H112.83V2.35h42.25M139.27,62.51h15.81c7.66,0,13.29-1.89,16.72-5.62S177,48,177,41.4a23.24,23.24,0,0,0-1.32-8,16.65,16.65,0,0,0-4.07-6.31A18.31,18.31,0,0,0,164.71,23a29.8,29.8,0,0,0-9.62-1.4H139.27V62.51M155.08,1.35H111.83v122.6h28.44V83h14.81a70.39,70.39,0,0,0,22-3.07,42.43,42.43,0,0,0,15.36-8.54,33.77,33.77,0,0,0,9-13.13,46.52,46.52,0,0,0,2.95-16.83,43.08,43.08,0,0,0-2.86-15.82,33,33,0,0,0-8.88-12.71,42.75,42.75,0,0,0-15.32-8.46Q168,1.35,155.08,1.35ZM140.27,61.51V22.64h14.81a28.69,28.69,0,0,1,9.3,1.35,17.24,17.24,0,0,1,6.48,3.83,15.59,15.59,0,0,1,3.83,5.93A22.14,22.14,0,0,1,176,41.4q0,9.51-4.88,14.81t-16,5.3Z"/><path class="cls-2" d="M262.12,2.35a70.7,70.7,0,0,1,21.94,3,42,42,0,0,1,15,8.25,32.14,32.14,0,0,1,8.61,12.32,42.29,42.29,0,0,1,2.79,15.46,45.75,45.75,0,0,1-2.88,16.47,32.94,32.94,0,0,1-8.74,12.74,41.64,41.64,0,0,1-15,8.33,69.72,69.72,0,0,1-21.69,3H246.31v41H219.86V2.35h42.25M246.31,62.51h15.81c7.66,0,13.29-1.89,16.72-5.62S284,48,284,41.4a23.24,23.24,0,0,0-1.32-8,16.65,16.65,0,0,0-4.07-6.31A18.31,18.31,0,0,0,271.74,23a29.8,29.8,0,0,0-9.62-1.4H246.31V62.51M262.12,1.35H218.86v122.6h28.44V83h14.81a70.39,70.39,0,0,0,22-3.07,42.43,42.43,0,0,0,15.36-8.54,33.77,33.77,0,0,0,9-13.13,46.52,46.52,0,0,0,2.95-16.83,43.08,43.08,0,0,0-2.86-15.82,33,33,0,0,0-8.88-12.71,42.75,42.75,0,0,0-15.32-8.46q-9.3-3.07-22.26-3.07ZM247.31,61.51V22.64h14.81a28.69,28.69,0,0,1,9.3,1.35,17.24,17.24,0,0,1,6.48,3.83,15.59,15.59,0,0,1,3.83,5.93A22.14,22.14,0,0,1,283,41.4q0,9.51-4.88,14.81t-16,5.3Z"/><path class="cls-2" d="M442,2.35V22.9h-34.5V122.95H381.09V22.9h-34.5V2.35H442m1-1H345.59V23.9h34.5V123.95h28.44V23.9H443V1.35Z"/><path class="cls-2" d="M511.27,1a67.05,67.05,0,0,1,25.66,4.76,59.38,59.38,0,0,1,19.74,13,58.46,58.46,0,0,1,12.7,19.53,65,65,0,0,1,4.51,24.28A65.2,65.2,0,0,1,569.37,87a57.47,57.47,0,0,1-32.44,32.6,72.22,72.22,0,0,1-51.37,0A57.52,57.52,0,0,1,453,87a65.17,65.17,0,0,1-4.51-24.37A65.18,65.18,0,0,1,453,38.24a58.12,58.12,0,0,1,12.74-19.52,59.19,59.19,0,0,1,19.82-13A67.87,67.87,0,0,1,511.27,1m0,101.73A38.91,38.91,0,0,0,526.21,100a29.93,29.93,0,0,0,11.18-8,35.81,35.81,0,0,0,7-12.68,54.58,54.58,0,0,0,2.4-16.76,54.29,54.29,0,0,0-2.4-16.67,35.83,35.83,0,0,0-7-12.68,30.35,30.35,0,0,0-11.18-8,38.38,38.38,0,0,0-14.95-2.77,38.93,38.93,0,0,0-15.07,2.77,30.28,30.28,0,0,0-11.22,8,35.81,35.81,0,0,0-7,12.68,54.23,54.23,0,0,0-2.41,16.67A54.53,54.53,0,0,0,478,79.36,35.79,35.79,0,0,0,485,92a29.86,29.86,0,0,0,11.23,8,39.46,39.46,0,0,0,15.06,2.73M511.27,0a68.55,68.55,0,0,0-26.09,4.8A59.91,59.91,0,0,0,465,18a58.85,58.85,0,0,0-13,19.86,65.87,65.87,0,0,0-4.59,24.74,65.86,65.86,0,0,0,4.59,24.74,58.51,58.51,0,0,0,33.11,33.15,73.21,73.21,0,0,0,52.13,0,58.47,58.47,0,0,0,33-33.15,65.9,65.9,0,0,0,4.59-24.74A65.68,65.68,0,0,0,570.3,38a59.19,59.19,0,0,0-12.92-19.86A60.09,60.09,0,0,0,537.32,4.84a67.73,67.73,0,0,0-26-4.84Zm0,101.73a38.29,38.29,0,0,1-14.68-2.65,28.73,28.73,0,0,1-10.86-7.7A34.64,34.64,0,0,1,479,79.06a53.29,53.29,0,0,1-2.36-16.45A53,53,0,0,1,479,46.24a34.67,34.67,0,0,1,6.77-12.33,29.15,29.15,0,0,1,10.86-7.74,37.76,37.76,0,0,1,14.68-2.69,37.22,37.22,0,0,1,14.56,2.69,29.23,29.23,0,0,1,10.81,7.74,34.68,34.68,0,0,1,6.77,12.33,53,53,0,0,1,2.36,16.37,53.35,53.35,0,0,1-2.36,16.45,34.66,34.66,0,0,1-6.77,12.33,28.8,28.8,0,0,1-10.81,7.7,37.75,37.75,0,0,1-14.56,2.65Z"/><path class="cls-2" d="M648.35,1A67.05,67.05,0,0,1,674,5.76a59.38,59.38,0,0,1,19.74,13,58.46,58.46,0,0,1,12.7,19.53A65,65,0,0,1,711,62.61,65.2,65.2,0,0,1,706.45,87,57.47,57.47,0,0,1,674,119.57a72.22,72.22,0,0,1-51.37,0A57.52,57.52,0,0,1,590.08,87a65.17,65.17,0,0,1-4.51-24.37,65.18,65.18,0,0,1,4.51-24.37,58.12,58.12,0,0,1,12.74-19.52,59.19,59.19,0,0,1,19.82-13A67.87,67.87,0,0,1,648.35,1m0,101.73A38.91,38.91,0,0,0,663.29,100a29.93,29.93,0,0,0,11.18-8,35.81,35.81,0,0,0,7-12.68,54.58,54.58,0,0,0,2.4-16.76,54.29,54.29,0,0,0-2.4-16.67,35.83,35.83,0,0,0-7-12.68,30.35,30.35,0,0,0-11.18-8,38.38,38.38,0,0,0-14.95-2.77,38.93,38.93,0,0,0-15.07,2.77,30.28,30.28,0,0,0-11.22,8,35.81,35.81,0,0,0-7,12.68,54.23,54.23,0,0,0-2.41,16.67,54.53,54.53,0,0,0,2.4,16.76,35.79,35.79,0,0,0,7,12.68,29.86,29.86,0,0,0,11.23,8,39.46,39.46,0,0,0,15.06,2.73M648.35,0a68.55,68.55,0,0,0-26.09,4.8A59.91,59.91,0,0,0,602.11,18a58.85,58.85,0,0,0-13,19.86,65.87,65.87,0,0,0-4.59,24.74,65.86,65.86,0,0,0,4.59,24.74,58.51,58.51,0,0,0,33.11,33.15,73.21,73.21,0,0,0,52.13,0,58.47,58.47,0,0,0,33-33.15A65.9,65.9,0,0,0,712,62.61,65.68,65.68,0,0,0,707.38,38a59.19,59.19,0,0,0-12.92-19.86A60.09,60.09,0,0,0,674.39,4.84a67.73,67.73,0,0,0-26-4.84Zm0,101.73a38.29,38.29,0,0,1-14.68-2.65,28.73,28.73,0,0,1-10.86-7.7A34.64,34.64,0,0,1,616,79.06a53.29,53.29,0,0,1-2.36-16.45A53,53,0,0,1,616,46.24a34.67,34.67,0,0,1,6.77-12.33,29.15,29.15,0,0,1,10.86-7.74,37.76,37.76,0,0,1,14.68-2.69,37.22,37.22,0,0,1,14.56,2.69,29.23,29.23,0,0,1,10.81,7.74,34.68,34.68,0,0,1,6.77,12.33,53,53,0,0,1,2.36,16.37,53.35,53.35,0,0,1-2.36,16.45,34.66,34.66,0,0,1-6.77,12.33,28.8,28.8,0,0,1-10.81,7.7,37.75,37.75,0,0,1-14.56,2.65Z"/><path class="cls-2" d="M756.15,2.35v99.88h45.44v20.72H729.71V2.35h26.44m1-1H728.71v122.6h73.88V101.23H757.15V1.35Z"/><path class="cls-2" d="M921.79,2.35l-35.18,48a23.91,23.91,0,0,1-8,7.12l-2,1,2.14.79a19.58,19.58,0,0,1,5.52,3.12,23.84,23.84,0,0,1,4.67,5.24l36,55.34H901.38a21.13,21.13,0,0,1-4-.32,9.64,9.64,0,0,1-2.71-.91,7.61,7.61,0,0,1-1.94-1.45,15.13,15.13,0,0,1-1.65-2.08L863.34,75.53a9.39,9.39,0,0,0-4.29-3.71,17.67,17.67,0,0,0-6.65-1h-7.9v52.17H818.06V2.35H844.5V52H850c4.53,0,7.87-1.47,9.91-4.39l27.57-40a12.67,12.67,0,0,1,4.86-4.11A16.85,16.85,0,0,1,899,2.35h22.77m2-1H899a17.74,17.74,0,0,0-7,1.22A13.58,13.58,0,0,0,886.74,7L859.14,47q-2.78,4-9.09,4H845.5V1.35H817.06v122.6H845.5V71.78h6.9a16.64,16.64,0,0,1,6.27,1,8.37,8.37,0,0,1,3.83,3.32l27.77,42.66A16.09,16.09,0,0,0,892,121a8.58,8.58,0,0,0,2.19,1.64,10.58,10.58,0,0,0,3,1,22,22,0,0,0,4.17.34h25.41l-37-56.88a24.75,24.75,0,0,0-4.88-5.47,20.49,20.49,0,0,0-5.81-3.28,24.77,24.77,0,0,0,8.33-7.41L923.76,1.35Z"/><path class="cls-2" d="M963.57,2.35v120.6H937V2.35h26.61m1-1H936v122.6h28.61V1.35Z"/><path class="cls-2" d="M1075.4,2.35V22.9h-34.5V122.95h-26.44V22.9H980V2.35h95.44m1-1H979V23.9h34.5V123.95h28.44V23.9h34.5V1.35Z"/></g></g></svg>