<svg xmlns="http://www.w3.org/2000/svg" viewBox="0 0 283.33 283.33"><defs><style>.cls-1{fill:#768290}.cls-2{fill:none;stroke:#f23a3e;stroke-miterlimit:10;stroke-width:17px}.cls-3{fill:#f23a3e}</style></defs><title>Asset 3</title><g id="Layer_2" data-name="Layer 2"><g id="Objects"><path class="cls-1" d="M237.54 183.46c-.05-.64-3.29-1.17-7.42-1.23v-.93a1.48 1.48 0 1 0-1.52 0v.93c-4.13.06-7.37.59-7.42 1.23v56.44h16.38v-56.44zM67.27 129.27h-9.81L54.41 178h15.9l-3.04-48.73zm53.17-85.83h-6.3l-2.25 112.67 10.91 5.99-2.36-118.66zm-15.9 132.02h3.24v3.32h-3.24zm0 3.87h3.24v12.47h-3.24zm3.51-7.39a3.49 3.49 0 0 0-3.45 3h6.9a3.49 3.49 0 0 0-3.45-3zm.27 3.52h3.24v3.32h-3.24zm0 3.87h3.24v12.47h-3.24zm53.7-57.09h-4.89v36.46l4.89 2.69v-39.15zm-16.96 53.22h3.24v3.32h-3.24zm0 3.87h3.24v12.47h-3.24zm3.5-7.39a3.5 3.5 0 0 0-3.45 3H152a3.49 3.49 0 0 0-3.44-3zm.28 3.52h3.24v3.32h-3.24zm0 3.87h3.24v12.47h-3.24zm47.94-23.23h.9v2.62l4.86 2.67v-58.28h-4.86v.89h-.9v-.85h-.36V158l.36.2zm0-51.81h.9v7.07h-.9zm0 7.4h.9v7.07h-.9zm0 7.4h.9v7.07h-.9zm0 7.4h.9v7.07h-.9zm0 7.4h.9V141h-.9zm0 7.4h.9v7.07h-.9zm0 7.4h.9v7.07h-.9zm-14.63-26.45h-4.89v38.23l4.89-2.7v-35.53z"/><path class="cls-1" d="M206.89 162.94h-3.08L189 154.81l-14.7 8.13h-3.06v29.97h-4.89v-30h-3.05l-14.79-8.13-14.7 8.13h-3.06v29.97h-4.89v-30h-3.08L108 154.81l-14.7 8.13h-3.06v29.97H78.47v47h140.19v-47h-11.77zm-22.57 11.19h.21a4.73 4.73 0 0 1 9.11 0h.2v18.79h-9.51zm-40.51 0h.2a4.73 4.73 0 0 1 9.11 0h.2v18.79h-9.51zm-40.52 0h.21a4.73 4.73 0 0 1 9.11 0h.2v18.79h-9.51zm-7.69 58.54h-8.94v-7.46h8.94zm0-12.53h-8.94v-7.46h8.94zm0-12.53h-8.94v-7.46h8.94zm14.4 25.06h-9v-7.46h9zm0-12.53h-9v-7.46h9zm0-12.53h-9v-7.46h9zm14.36 25.07h-8.95v-7.46h8.95zm0-12.53h-8.95v-7.46h8.95zm0-12.53h-8.95v-7.46h8.95zm14.36 25.07h-8.95v-7.46h8.95zm0-12.53h-8.95v-7.46h8.95zm0-12.53h-8.95v-7.46h8.95zM153 232.67h-8.95v-7.46H153zm0-12.53h-8.95v-7.46H153zm0-12.53h-8.95v-7.46H153zm14.36 25.07h-8.95v-7.46h8.95zm0-12.53h-8.95v-7.46h8.95zm0-12.53h-8.95v-7.46h8.95zm14.36 25.07h-8.95v-7.46h8.95zm0-12.53h-8.95v-7.46h8.95zm0-12.53h-8.95v-7.46h8.95zm14.36 25.07h-8.95v-7.46h8.95zm0-12.53h-8.95v-7.46h8.95zm0-12.53h-8.95v-7.46h8.95zm14.36 25.07h-8.95v-7.46h8.95zm0-12.53h-8.95v-7.46h8.95zm0-12.53h-8.95v-7.46h8.95z"/><path class="cls-1" d="M185.57 175.46h3.24v3.32h-3.24zm0 3.87h3.24v12.47h-3.24zm3.51-7.39a3.49 3.49 0 0 0-3.45 3h6.9a3.49 3.49 0 0 0-3.45-3zm.27 3.52h3.24v3.32h-3.24zm0 3.87h3.24v12.47h-3.24zM45.79 239.9h29.83v-61.15H45.79zm16.55-56.6h3v5.52h-3zm0 9.21h3V198h-3zm0 9.2h3v5.52h-3zm0 9.21h3v5.52h-3zm0 9.2h3v5.52h-3zm0 9.21h3v5.52h-3zm-6-46h3v5.52h-3zm0 9.21h3V198h-3zm0 9.2h3v5.52h-3zm0 9.21h3v5.52h-3zm0 9.2h3v5.52h-3zm0 9.21h3v5.52h-3zm-6-46h3v5.52h-3zm0 9.21h3V198h-3zm0 9.2h3v5.52h-3zm0 9.21h3v5.52h-3zm0 9.2h3v5.52h-3zm0 9.21h3v5.52h-3z"/><circle class="cls-2" cx="141.67" cy="141.67" r="133.17"/><path class="cls-3" transform="rotate(-45 137.452 147.006)" d="M126.96 10.1h21v273.81h-21z"/></g></g></svg>