<svg id="Layer_1" xmlns="http://www.w3.org/2000/svg" xmlns:xlink="http://www.w3.org/1999/xlink" viewBox="0 0 1920 999.2"><style>.st0{opacity:.65}.st1{clip-path:url(#SVGID_2_)}.st2{opacity:.5}.st3{fill:#218fff}.st4{fill:#ff3939}.st5{fill:#036}.st6{fill:url(#SVGID_3_)}</style><title>Asset 1</title><g id="Layer_2"><g id="Layer_1-2"><g id="Layer_2-2"><g id="Layer_1-2-2"><g class="st0"><defs><path id="SVGID_1_" d="M0 999.2V0h1920v999.2"/></defs><clipPath id="SVGID_2_"><use xlink:href="#SVGID_1_" overflow="visible"/></clipPath><g class="st1"><g class="st2"><path transform="rotate(-20.215 1071.163 426.085)" class="st3" d="M1066.6 415h9.4v22.1h-9.4z"/><path transform="rotate(-20.215 1377.203 444.004)" class="st3" d="M1372.7 432.9h9.4V455h-9.4z"/><path transform="rotate(-78.492 997.48 379.994)" class="st4" d="M986.5 375.3h22.1v9.4h-22.1z"/><path transform="rotate(-33.488 1410.62 361.15)" class="st4" d="M1405.9 350.1h9.4v22.1h-9.4z"/><path transform="rotate(-66.603 1134.913 395.373)" class="st5" d="M1123.9 390.7h22.1v9.4h-22.1z"/><path class="st3" d="M1120.3 479.2l-5.3-5.3 7.2-1.9 7.2-1.9-1.9 7.2-1.9 7.2z"/><path class="st5" d="M1012.4 470.7l-5.3-5.3 7.2-1.9 7.2-2-1.9 7.3-1.9 7.2z"/><path class="st4" d="M1077.5 355.6l-7.2-1.9 5.2-5.3 5.3-5.3 2 7.2 1.9 7.2zm307.1 151.5l-7.2-1.9 5.3-5.3 5.2-5.3 2 7.2 1.9 7.2z"/><circle class="st5" cx="970.4" cy="440.9" r="2.9"/><circle class="st5" cx="1374.5" cy="331" r="2.9"/><circle class="st3" cx="1024.5" cy="339.6" r="2.9"/><circle class="st4" cx="1087.7" cy="498.9" r="2.9"/><path transform="rotate(-20.215 1179.624 454.881)" class="st3" d="M1175.1 443.8h9.4v22.1h-9.4z"/><path transform="rotate(-20.215 1310.844 464.973)" class="st3" d="M1306.3 453.9h9.4V476h-9.4z"/><path transform="rotate(-78.492 1237.23 422.987)" class="st4" d="M1226.2 418.3h22.1v9.4h-22.1z"/><path transform="rotate(-84.129 1334.62 361.177)" class="st5" d="M1323.6 356.5h22.1v9.4h-22.1z"/><path class="st3" d="M1171.7 359.2l5.2 5.3-7.2 1.9-7.2 2 1.9-7.2 2-7.3z"/><path class="st5" d="M1220.7 489.8l5.3 5.3-7.3 1.9-7.2 1.9 2-7.2 1.9-7.2z"/><path class="st4" d="M1274.7 381.3l7.2 1.9-5.3 5.3-5.2 5.3-2-7.2-1.9-7.3z"/><circle class="st5" cx="1227.5" cy="352.2" r="2.9"/><circle class="st3" cx="1325.9" cy="409.7" r="2.9"/><circle class="st4" cx="1267.5" cy="494.7" r="2.9"/><circle class="st4" cx="1433" cy="457.9" r="2.9"/><path transform="rotate(-20.215 1555.202 426.16)" class="st3" d="M1550.7 415h9.4v22.1h-9.4z"/><path transform="rotate(-73.328 1861.535 443.684)" class="st3" d="M1850.5 439h22.1v9.4h-22.1z"/><path transform="rotate(-78.492 1481.553 380.02)" class="st4" d="M1470.5 375.3h22.1v9.4h-22.1z"/><path transform="rotate(-78.492 1894.604 361.226)" class="st4" d="M1883.6 356.5h22.1v9.4h-22.1z"/><path transform="rotate(-84.129 1619.108 395.227)" class="st5" d="M1608.1 390.6h22.1v9.4h-22.1z"/><path class="st3" d="M1604.3 479.2l-5.2-5.3 7.2-1.9 7.2-1.9-1.9 7.2-2 7.2z"/><path class="st5" d="M1496.4 470.7l-5.2-5.3 7.2-1.9 7.2-2-1.9 7.3-2 7.2z"/><path class="st4" d="M1561.6 355.6l-7.3-1.9 5.3-5.3 5.3-5.3 1.9 7.2 2 7.2zm307.1 151.5l-7.2-1.9 5.3-5.3 5.2-5.3 2 7.2 1.9 7.2z"/><circle class="st5" cx="1454.5" cy="440.9" r="2.9"/><circle class="st5" cx="1858.6" cy="331" r="2.9"/><circle class="st3" cx="1508.6" cy="339.6" r="2.9"/><circle class="st4" cx="1571.7" cy="498.9" r="2.9"/><path transform="rotate(-20.215 1663.638 454.871)" class="st3" d="M1659.2 443.8h9.4v22.1h-9.4z"/><path transform="rotate(-20.215 1794.847 464.973)" class="st3" d="M1790.4 453.8h9.4v22.1h-9.4z"/><path transform="rotate(-78.492 1721.29 422.977)" class="st4" d="M1710.3 418.3h22.1v9.4h-22.1z"/><path transform="rotate(-16.929 1818.782 361.077)" class="st5" d="M1814.1 350h9.4v22.1h-9.4z"/><path class="st3" d="M1655.7 359.2l5.3 5.3-7.2 1.9-7.2 2 1.9-7.2 2-7.3z"/><path class="st5" d="M1704.8 489.8l5.3 5.3-7.3 1.9-7.2 1.9 1.9-7.2 2-7.2z"/><path class="st4" d="M1758.8 381.3l7.2 1.9-5.3 5.3-5.3 5.3-1.9-7.2-2-7.3z"/><circle class="st5" cx="1711.6" cy="352.2" r="2.9"/><circle class="st3" cx="1810" cy="409.7" r="2.9"/><circle class="st4" cx="1751.5" cy="494.7" r="2.9"/><circle class="st4" cx="1917.1" cy="457.9" r="2.9"/><path transform="rotate(-20.215 1071.13 613.99)" class="st3" d="M1066.6 602.9h9.4V625h-9.4z"/><path transform="rotate(-20.215 1377.17 631.908)" class="st3" d="M1372.7 620.8h9.4v22.1h-9.4z"/><path transform="rotate(-78.492 997.468 567.895)" class="st4" d="M986.5 563.2h22.1v9.4h-22.1z"/><path transform="rotate(-78.492 1410.518 549.098)" class="st4" d="M1399.5 544.4h22.1v9.4h-22.1z"/><path transform="rotate(-84.129 1135.043 583.146)" class="st5" d="M1124 578.5h22.1v9.4H1124z"/><path class="st3" d="M1120.3 667.1l-5.3-5.3 7.2-1.9 7.2-1.9-1.9 7.2-1.9 7.2z"/><path class="st5" d="M1012.4 658.6l-5.3-5.3 7.2-1.9 7.2-2-1.9 7.3-1.9 7.2z"/><path class="st4" d="M1077.5 543.5l-7.2-1.9 5.2-5.3 5.3-5.3 2 7.2 1.9 7.3zM1384.6 695l-7.2-1.9 5.3-5.3 5.2-5.3 2 7.2 1.9 7.2z"/><circle class="st5" cx="970.4" cy="628.8" r="2.9"/><circle class="st5" cx="1374.5" cy="518.9" r="2.9"/><circle class="st3" cx="1024.5" cy="527.5" r="2.9"/><circle class="st4" cx="1087.7" cy="686.8" r="2.9"/><path transform="rotate(-20.215 1179.622 642.756)" class="st3" d="M1175.1 631.7h9.4v22.1h-9.4z"/><path transform="rotate(-20.215 1310.841 652.858)" class="st3" d="M1306.3 641.8h9.4v22.1h-9.4z"/><path transform="rotate(-78.492 1237.228 610.9)" class="st4" d="M1226.2 606.2h22.1v9.4h-22.1z"/><path transform="rotate(-84.129 1334.595 549.066)" class="st5" d="M1323.6 544.4h22.1v9.4h-22.1z"/><path class="st3" d="M1171.7 547.1l5.2 5.3-7.2 1.9-7.2 2 1.9-7.2 2-7.3z"/><path class="st5" d="M1220.7 677.7l5.3 5.3-7.3 1.9-7.2 1.9 2-7.2 1.9-7.2z"/><path class="st4" d="M1274.7 569.2l7.2 1.9-5.3 5.3-5.2 5.3-2-7.2-1.9-7.2z"/><circle class="st5" cx="1227.5" cy="540.1" r="2.9"/><circle class="st3" cx="1325.9" cy="597.6" r="2.9"/><circle class="st4" cx="1267.5" cy="682.6" r="2.9"/><circle class="st4" cx="1433" cy="645.8" r="2.9"/><path transform="rotate(-20.215 1555.169 614.054)" class="st3" d="M1550.7 603h9.4v22.1h-9.4z"/><path transform="rotate(-20.215 1861.21 631.973)" class="st3" d="M1856.8 620.9h9.4V643h-9.4z"/><path transform="rotate(-78.492 1481.539 567.93)" class="st4" d="M1470.5 563.2h22.1v9.4h-22.1z"/><path transform="rotate(-78.492 1894.588 549.134)" class="st4" d="M1883.6 544.4h22.1v9.4h-22.1z"/><path transform="rotate(-84.129 1619.116 583.117)" class="st5" d="M1608.1 578.5h22.1v9.4h-22.1z"/><path class="st3" d="M1604.3 667.1l-5.2-5.3 7.2-1.9 7.2-1.9-1.9 7.2-2 7.2z"/><path class="st5" d="M1496.4 658.6l-5.2-5.3 7.2-1.9 7.2-2-1.9 7.3-2 7.2z"/><path class="st4" d="M1561.6 543.5l-7.3-1.9 5.3-5.3 5.3-5.3 1.9 7.2 2 7.3zM1868.7 695l-7.2-1.9 5.3-5.3 5.2-5.3 2 7.2 1.9 7.2z"/><circle class="st5" cx="1454.5" cy="628.8" r="2.9"/><circle class="st5" cx="1858.6" cy="518.9" r="2.9"/><circle class="st3" cx="1508.6" cy="527.5" r="2.9"/><circle class="st4" cx="1571.7" cy="686.8" r="2.9"/><path transform="rotate(-20.215 1663.636 642.756)" class="st3" d="M1659.2 631.7h9.4v22.1h-9.4z"/><path transform="rotate(-20.215 1794.855 652.845)" class="st3" d="M1790.4 641.7h9.4v22.1h-9.4z"/><path transform="rotate(-78.492 1721.3 610.89)" class="st4" d="M1710.3 606.2h22.1v9.4h-22.1z"/><path transform="rotate(-84.129 1818.678 549.082)" class="st5" d="M1807.7 544.4h22.1v9.4h-22.1z"/><path class="st3" d="M1655.7 547.1l5.3 5.3-7.2 1.9-7.2 2 1.9-7.2 2-7.3z"/><path class="st5" d="M1704.8 677.7l5.3 5.3-7.3 1.9-7.2 1.9 1.9-7.2 2-7.2z"/><path class="st4" d="M1758.8 569.2l7.2 1.9-5.3 5.3-5.3 5.3-1.9-7.2-2-7.2z"/><circle class="st5" cx="1711.6" cy="540.1" r="2.9"/><circle class="st3" cx="1810" cy="597.6" r="2.9"/><circle class="st4" cx="1751.5" cy="682.6" r="2.9"/><circle class="st4" cx="1917.1" cy="645.8" r="2.9"/></g><g class="st2"><path transform="rotate(-20.215 121.452 473.39)" class="st3" d="M116.8 462.4h9.4v22.1h-9.4z"/><path transform="rotate(-20.215 427.495 491.29)" class="st3" d="M422.9 480.3h9.4v22.1h-9.4z"/><path transform="rotate(-78.492 47.735 427.387)" class="st4" d="M36.7 422.7h22.1v9.4H36.7z"/><path transform="rotate(-33.488 460.82 408.592)" class="st4" d="M456.1 397.6h9.4v22.1h-9.4z"/><path transform="rotate(-66.603 185.208 442.713)" class="st5" d="M174.2 438h22.1v9.4h-22.1z"/><path class="st3" d="M170.5 526.7l-5.3-5.3 7.2-2 7.2-1.9-1.9 7.2-1.9 7.2z"/><path class="st5" d="M62.6 518.1l-5.3-5.3 7.2-1.9 7.2-1.9-1.9 7.2-1.9 7.2z"/><path class="st4" d="M127.7 403.1l-7.2-1.9 5.2-5.4 5.3-5.3 2 7.3 1.9 7.2zm307.2 151.4l-7.3-1.9 5.3-5.3 5.3-5.3 1.9 7.2 2 7.3z"/><circle class="st5" cx="20.6" cy="488.3" r="2.9"/><circle class="st5" cx="424.7" cy="378.4" r="2.9"/><circle class="st3" cx="74.7" cy="387" r="2.9"/><circle class="st4" cx="137.9" cy="546.3" r="2.9"/><path transform="rotate(-20.215 229.99 502.304)" class="st3" d="M225.4 491.3h9.4v22.1h-9.4z"/><path transform="rotate(-20.215 361.185 512.413)" class="st3" d="M356.6 501.4h9.4v22.1h-9.4z"/><path transform="rotate(-78.492 287.457 470.44)" class="st4" d="M276.4 465.7h22.1v9.4h-22.1z"/><path transform="rotate(-84.129 384.868 408.573)" class="st5" d="M373.8 403.9h22.1v9.4h-22.1z"/><path class="st3" d="M221.9 406.7l5.3 5.2-7.3 2-7.2 1.9 2-7.2 1.9-7.2z"/><path class="st5" d="M270.9 537.2l5.3 5.3-7.2 1.9-7.3 2 2-7.2 1.9-7.3z"/><path class="st4" d="M324.9 428.7l7.2 1.9-5.2 5.3-5.3 5.3-2-7.2-1.9-7.2z"/><circle class="st5" cx="277.7" cy="399.7" r="2.9"/><circle class="st3" cx="376.1" cy="457.2" r="2.9"/><circle class="st4" cx="317.7" cy="542.1" r="2.9"/><circle class="st4" cx="483.2" cy="505.3" r="2.9"/><path transform="rotate(-20.215 605.502 473.464)" class="st3" d="M600.9 462.4h9.4v22.1h-9.4z"/><path transform="rotate(-73.328 911.756 491.2)" class="st3" d="M900.7 486.5h22.1v9.4h-22.1z"/><path transform="rotate(-78.492 531.793 427.413)" class="st4" d="M520.8 422.7h22.1v9.4h-22.1z"/><path transform="rotate(-78.492 944.842 408.627)" class="st4" d="M933.8 403.9h22.1v9.4h-22.1z"/><path transform="rotate(-84.129 669.345 442.69)" class="st5" d="M658.3 438h22.1v9.4h-22.1z"/><path class="st3" d="M654.6 526.7l-5.3-5.3 7.2-2 7.2-1.9-1.9 7.2-2 7.2z"/><path class="st5" d="M546.7 518.1l-5.3-5.3 7.2-1.9 7.2-1.9-1.9 7.2-1.9 7.2z"/><path class="st4" d="M611.8 403.1l-7.2-1.9 5.2-5.4 5.3-5.3 1.9 7.3 2 7.2zm307.1 151.4l-7.2-1.9 5.3-5.3 5.2-5.3 2 7.2 2 7.3z"/><circle class="st5" cx="504.7" cy="488.3" r="2.9"/><circle class="st5" cx="908.8" cy="378.4" r="2.9"/><circle class="st3" cx="558.8" cy="387" r="2.9"/><circle class="st4" cx="622" cy="546.3" r="2.9"/><path transform="rotate(-20.215 714.005 502.294)" class="st3" d="M709.4 491.3h9.4v22.1h-9.4z"/><path transform="rotate(-20.215 845.208 512.41)" class="st3" d="M840.6 501.4h9.4v22.1h-9.4z"/><path transform="rotate(-78.492 771.542 470.432)" class="st4" d="M760.5 465.7h22.1v9.4h-22.1z"/><path transform="rotate(-16.929 868.984 408.546)" class="st5" d="M864.3 397.5h9.4v22.1h-9.4z"/><path class="st3" d="M706 406.7l5.2 5.2-7.2 2-7.2 1.9 1.9-7.2 2-7.2z"/><path class="st5" d="M755 537.2l5.3 5.3-7.3 1.9-7.2 2 2-7.2 1.9-7.3z"/><path class="st4" d="M809 428.7l7.2 1.9-5.3 5.3-5.2 5.3-2-7.2-1.9-7.2z"/><circle class="st5" cx="761.8" cy="399.7" r="2.9"/><circle class="st3" cx="860.2" cy="457.2" r="2.9"/><circle class="st4" cx="801.8" cy="542.1" r="2.9"/><circle class="st4" cx="967.3" cy="505.3" r="2.9"/><path transform="rotate(-20.215 121.431 661.262)" class="st3" d="M116.8 650.3h9.4v22.1h-9.4z"/><path transform="rotate(-20.215 427.468 679.171)" class="st3" d="M422.9 668.2h9.4v22.1h-9.4z"/><path transform="rotate(-78.492 47.722 615.274)" class="st4" d="M36.7 610.6h22.1v9.4H36.7z"/><path transform="rotate(-78.492 460.77 596.5)" class="st4" d="M449.7 591.8h22.1v9.4h-22.1z"/><path transform="rotate(-84.129 185.29 630.62)" class="st5" d="M174.2 625.9h22.1v9.4h-22.1z"/><path class="st3" d="M170.5 714.6l-5.3-5.3 7.2-2 7.2-1.9-1.9 7.2-1.9 7.2z"/><path class="st5" d="M62.6 706l-5.3-5.3 7.2-1.9 7.2-1.9-1.9 7.2-1.9 7.2z"/><path class="st4" d="M127.7 591l-7.2-1.9 5.2-5.3 5.3-5.3 2 7.2 1.9 7.2zm307.2 151.5l-7.3-2 5.3-5.3 5.3-5.3 1.9 7.3 2 7.2z"/><circle class="st5" cx="20.6" cy="676.2" r="2.9"/><circle class="st5" cx="424.7" cy="566.3" r="2.9"/><circle class="st3" cx="74.7" cy="574.9" r="2.9"/><circle class="st4" cx="137.9" cy="734.2" r="2.9"/><path transform="rotate(-20.215 229.989 690.18)" class="st3" d="M225.4 679.2h9.4v22.1h-9.4z"/><path transform="rotate(-20.215 361.189 700.285)" class="st3" d="M356.6 689.3h9.4v22.1h-9.4z"/><path transform="rotate(-78.492 287.457 658.329)" class="st4" d="M276.4 653.6h22.1v9.4h-22.1z"/><path transform="rotate(-84.129 384.853 596.484)" class="st5" d="M373.8 591.8h22.1v9.4h-22.1z"/><path class="st3" d="M221.9 594.6l5.3 5.2-7.3 2-7.2 1.9 2-7.2 1.9-7.2z"/><path class="st5" d="M270.9 725.1l5.3 5.3-7.2 1.9-7.3 2 2-7.2 1.9-7.3z"/><path class="st4" d="M324.9 616.6l7.2 1.9-5.2 5.3-5.3 5.3-2-7.2-1.9-7.2z"/><circle class="st5" cx="277.7" cy="587.6" r="2.9"/><circle class="st3" cx="376.1" cy="645.1" r="2.9"/><circle class="st4" cx="317.7" cy="730" r="2.9"/><circle class="st4" cx="483.2" cy="693.2" r="2.9"/><path transform="rotate(-20.215 605.461 661.34)" class="st3" d="M600.9 650.3h9.4v22.1h-9.4z"/><path transform="rotate(-20.215 911.518 679.256)" class="st3" d="M907 668.2h9.4v22.1H907z"/><path transform="rotate(-78.492 531.78 615.312)" class="st4" d="M520.8 610.6h22.1v9.4h-22.1z"/><path transform="rotate(-78.492 944.83 596.515)" class="st4" d="M933.8 591.8h22.1v9.4h-22.1z"/><path transform="rotate(-84.129 669.353 630.601)" class="st5" d="M658.3 625.9h22.1v9.4h-22.1z"/><path class="st3" d="M654.6 714.6l-5.3-5.3 7.2-2 7.2-1.9-1.9 7.2-2 7.2z"/><path class="st5" d="M546.7 706l-5.3-5.3 7.2-1.9 7.2-1.9-1.9 7.2-1.9 7.2z"/><path class="st4" d="M611.8 591l-7.2-1.9 5.2-5.3 5.3-5.3 1.9 7.2 2 7.2zm307.1 151.5l-7.2-2 5.3-5.3 5.2-5.3 2 7.3 2 7.2z"/><circle class="st5" cx="504.7" cy="676.2" r="2.9"/><circle class="st5" cx="908.8" cy="566.3" r="2.9"/><circle class="st3" cx="558.8" cy="574.9" r="2.9"/><circle class="st4" cx="622" cy="734.2" r="2.9"/><path transform="rotate(-20.215 713.996 690.189)" class="st3" d="M709.4 679.2h9.4v22.1h-9.4z"/><path transform="rotate(-20.215 845.206 700.284)" class="st3" d="M840.7 689.3h9.4v22.1h-9.4z"/><path transform="rotate(-78.463 772.038 658.572)" class="st4" d="M761 653.9h22.1v9.4H761z"/><path transform="rotate(-84.129 868.915 596.499)" class="st5" d="M857.9 591.8H880v9.4h-22.1z"/><path class="st3" d="M706 594.6l5.2 5.2-7.2 2-7.2 1.9 1.9-7.2 2-7.2z"/><path class="st5" d="M755 725.1l5.3 5.3-7.3 1.9-7.2 2 2-7.2 1.9-7.3z"/><path class="st4" d="M809 616.6l7.2 1.9-5.3 5.3-5.2 5.3-2-7.2-1.9-7.2z"/><circle class="st5" cx="761.8" cy="587.6" r="2.9"/><circle class="st3" cx="860.2" cy="645.1" r="2.9"/><circle class="st4" cx="801.8" cy="730" r="2.9"/><circle class="st4" cx="967.3" cy="693.2" r="2.9"/></g><g class="st2"><path transform="rotate(-20.215 121.523 96.047)" class="st3" d="M116.8 85h9.4v22.1h-9.4z"/><path transform="rotate(-20.215 427.56 113.96)" class="st3" d="M422.9 102.9h9.4V125h-9.4z"/><path transform="rotate(-78.492 47.753 50.027)" class="st4" d="M36.7 45.3h22.1v9.4H36.7z"/><path transform="rotate(-33.488 460.813 31.216)" class="st4" d="M456.1 20.2h9.4v22.1h-9.4z"/><path transform="rotate(-66.603 185.241 65.38)" class="st5" d="M174.2 60.7h22.1v9.4h-22.1z"/><path class="st3" d="M170.5 149.3l-5.3-5.3 7.2-1.9 7.2-2-1.9 7.2-1.9 7.3z"/><path class="st5" d="M62.6 140.8l-5.3-5.3 7.2-2 7.2-1.9-1.9 7.2-1.9 7.2z"/><path class="st4" d="M127.7 25.7l-7.2-1.9 5.2-5.3 5.3-5.3 2 7.2 1.9 7.2zm307.2 151.5l-7.3-1.9 5.3-5.3 5.3-5.3 1.9 7.2 2 7.2z"/><circle class="st5" cx="20.6" cy="111" r="2.9"/><circle class="st5" cx="424.7" cy="1" r="2.9"/><circle class="st3" cx="74.7" cy="9.6" r="2.9"/><circle class="st4" cx="137.9" cy="168.9" r="2.9"/><path transform="rotate(-20.215 229.987 124.994)" class="st3" d="M225.3 113.9h9.4V136h-9.4z"/><path transform="rotate(-20.215 361.187 135.09)" class="st3" d="M356.5 124h9.4v22.1h-9.4z"/><path transform="rotate(-78.492 287.452 93.08)" class="st4" d="M276.4 88.4h22.1v9.4h-22.1z"/><path transform="rotate(-84.129 384.873 31.222)" class="st5" d="M373.8 26.5h22.1v9.4h-22.1z"/><path class="st3" d="M221.9 29.3l5.3 5.3-7.3 1.9-7.2 1.9 2-7.2 1.9-7.2z"/><path class="st5" d="M270.9 159.9l5.3 5.2-7.2 2-7.3 1.9 2-7.2 1.9-7.2z"/><path class="st4" d="M324.9 51.3l7.2 1.9-5.2 5.3-5.3 5.3-2-7.2-1.9-7.2z"/><circle class="st5" cx="277.7" cy="22.3" r="2.9"/><circle class="st3" cx="376.1" cy="79.8" r="2.9"/><circle class="st4" cx="317.7" cy="164.7" r="2.9"/><circle class="st4" cx="483.2" cy="128" r="2.9"/><path transform="rotate(-20.215 605.544 96.119)" class="st3" d="M600.9 85h9.4v22.1h-9.4z"/><path transform="rotate(-73.328 911.722 113.83)" class="st3" d="M900.7 109.1h22.1v9.4h-22.1z"/><path transform="rotate(-78.492 531.81 50.053)" class="st4" d="M520.8 45.3h22.1v9.4h-22.1z"/><path transform="rotate(-78.492 944.862 31.257)" class="st4" d="M933.8 26.5h22.1v9.4h-22.1z"/><path transform="rotate(-84.129 669.338 65.338)" class="st5" d="M658.3 60.6h22.1V70h-22.1z"/><path class="st3" d="M654.6 149.3l-5.3-5.3 7.2-1.9 7.2-2-1.9 7.2-2 7.3z"/><path class="st5" d="M546.7 140.8l-5.3-5.3 7.2-2 7.2-1.9-1.9 7.2-1.9 7.2z"/><path class="st4" d="M611.8 25.7l-7.2-1.9 5.2-5.3 5.3-5.3 1.9 7.2 2 7.2zm307.1 151.5l-7.2-1.9 5.3-5.3 5.2-5.3 2 7.2 2 7.2z"/><circle class="st5" cx="504.7" cy="111" r="2.9"/><circle class="st5" cx="908.8" cy="1" r="2.9"/><circle class="st3" cx="558.8" cy="9.6" r="2.9"/><circle class="st4" cx="622" cy="168.9" r="2.9"/><path transform="rotate(-20.215 713.984 124.997)" class="st3" d="M709.4 113.9h9.4V136h-9.4z"/><path transform="rotate(-20.215 845.2 135.09)" class="st3" d="M840.6 124h9.4v22.1h-9.4z"/><path transform="rotate(-78.492 771.536 93.072)" class="st4" d="M760.5 88.4h22.1v9.4h-22.1z"/><path transform="rotate(-16.929 868.964 31.182)" class="st5" d="M864.2 20.1h9.4v22.1h-9.4z"/><path class="st3" d="M706 29.3l5.2 5.3-7.2 1.9-7.2 1.9 1.9-7.2 2-7.2z"/><path class="st5" d="M755 159.9l5.3 5.2-7.3 2-7.2 1.9 2-7.2 1.9-7.2z"/><path class="st4" d="M809 51.3l7.2 1.9-5.3 5.3-5.2 5.3-2-7.2-1.9-7.2z"/><circle class="st5" cx="761.8" cy="22.3" r="2.9"/><circle class="st3" cx="860.2" cy="79.8" r="2.9"/><circle class="st4" cx="801.8" cy="164.7" r="2.9"/><circle class="st4" cx="967.3" cy="128" r="2.9"/><path transform="rotate(-20.215 121.487 283.932)" class="st3" d="M116.8 272.9h9.4V295h-9.4z"/><path transform="rotate(-20.215 427.527 301.851)" class="st3" d="M422.9 290.8h9.4v22.1h-9.4z"/><path transform="rotate(-78.492 47.74 237.926)" class="st4" d="M36.7 233.2h22.1v9.4H36.7z"/><path transform="rotate(-78.492 460.788 219.139)" class="st4" d="M449.8 214.4h22.1v9.4h-22.1z"/><path transform="rotate(-84.129 185.274 253.259)" class="st5" d="M174.2 248.6h22.1v9.4h-22.1z"/><path class="st3" d="M170.5 337.2l-5.3-5.3 7.2-1.9 7.2-2-1.9 7.3-1.9 7.2z"/><path class="st5" d="M62.6 328.7l-5.3-5.3 7.2-2 7.2-1.9-1.9 7.2-1.9 7.2z"/><path class="st4" d="M127.7 213.6l-7.2-1.9 5.2-5.3 5.3-5.3 2 7.2 1.9 7.2zm307.2 151.5l-7.3-1.9 5.3-5.3 5.3-5.3 1.9 7.2 2 7.2z"/><circle class="st5" cx="20.6" cy="298.9" r="2.9"/><circle class="st5" cx="424.7" cy="188.9" r="2.9"/><circle class="st3" cx="74.7" cy="197.5" r="2.9"/><circle class="st4" cx="137.9" cy="356.8" r="2.9"/><path transform="rotate(-20.215 229.997 312.875)" class="st3" d="M225.3 301.8h9.4v22.1h-9.4z"/><path transform="rotate(-20.215 361.185 322.965)" class="st3" d="M356.5 311.9h9.4V334h-9.4z"/><path transform="rotate(-78.492 287.451 280.968)" class="st4" d="M276.4 276.3h22.1v9.4h-22.1z"/><path transform="rotate(-84.129 384.87 219.134)" class="st5" d="M373.8 214.4h22.1v9.4h-22.1z"/><path class="st3" d="M221.9 217.2l5.3 5.3-7.3 1.9-7.2 1.9 2-7.2 1.9-7.2z"/><path class="st5" d="M270.9 347.8l5.3 5.2-7.2 2-7.3 1.9 2-7.2 1.9-7.2z"/><path class="st4" d="M324.9 239.2l7.2 2-5.2 5.2-5.3 5.3-2-7.2-1.9-7.2z"/><circle class="st5" cx="277.7" cy="210.2" r="2.9"/><circle class="st3" cx="376.1" cy="267.7" r="2.9"/><circle class="st4" cx="317.7" cy="352.6" r="2.9"/><circle class="st4" cx="483.2" cy="315.9" r="2.9"/><path transform="rotate(-20.215 605.526 284.007)" class="st3" d="M600.9 272.9h9.4V295h-9.4z"/><path transform="rotate(-20.215 911.563 301.92)" class="st3" d="M907 290.8h9.4v22.1H907z"/><path transform="rotate(-78.492 531.799 237.951)" class="st4" d="M520.8 233.2h22.1v9.4h-22.1z"/><path transform="rotate(-78.492 944.86 219.155)" class="st4" d="M933.8 214.4h22.1v9.4h-22.1z"/><path transform="rotate(-84.129 669.336 253.24)" class="st5" d="M658.3 248.6h22.1v9.4h-22.1z"/><path class="st3" d="M654.6 337.2l-5.3-5.3 7.2-1.9 7.2-2-1.9 7.3-2 7.2z"/><path class="st5" d="M546.7 328.7l-5.3-5.3 7.2-2 7.2-1.9-1.9 7.2-1.9 7.2z"/><path class="st4" d="M611.8 213.6l-7.2-1.9 5.2-5.3 5.3-5.3 1.9 7.2 2 7.2zm307.1 151.5l-7.2-1.9 5.3-5.3 5.2-5.3 2 7.2 2 7.2z"/><circle class="st5" cx="504.7" cy="298.9" r="2.9"/><circle class="st5" cx="908.8" cy="188.9" r="2.9"/><circle class="st3" cx="558.8" cy="197.5" r="2.9"/><circle class="st4" cx="622" cy="356.8" r="2.9"/><path transform="rotate(-20.215 713.995 312.888)" class="st3" d="M709.4 301.8h9.4v22.1h-9.4z"/><path transform="rotate(-20.215 845.208 322.961)" class="st3" d="M840.6 311.9h9.4V334h-9.4z"/><path transform="rotate(-78.492 771.544 280.97)" class="st4" d="M760.5 276.3h22.1v9.4h-22.1z"/><path transform="rotate(-84.129 868.931 219.137)" class="st5" d="M857.9 214.4H880v9.4h-22.1z"/><path class="st3" d="M706 217.2l5.2 5.3-7.2 1.9-7.2 1.9 1.9-7.2 2-7.2z"/><path class="st5" d="M755 347.8l5.3 5.2-7.3 2-7.2 1.9 2-7.2 1.9-7.2z"/><path class="st4" d="M809 239.2l7.2 2-5.3 5.2-5.2 5.3-2-7.2-1.9-7.2z"/><circle class="st5" cx="761.8" cy="210.2" r="2.9"/><circle class="st3" cx="860.2" cy="267.7" r="2.9"/><circle class="st4" cx="801.8" cy="352.6" r="2.9"/><circle class="st4" cx="967.3" cy="315.9" r="2.9"/></g><g class="st2"><path transform="rotate(-20.215 1071.221 48.765)" class="st3" d="M1066.7 37.6h9.4v22.1h-9.4z"/><path transform="rotate(-20.215 1377.258 66.674)" class="st3" d="M1372.7 55.5h9.4v22.1h-9.4z"/><path transform="rotate(-78.492 997.499 2.646)" class="st4" d="M986.5-2.1h22.1v9.4h-22.1z"/><path transform="rotate(-33.488 1410.62 -16.232)" class="st4" d="M1405.9-27.2h9.4v22.1h-9.4z"/><path transform="rotate(-66.603 1134.937 18.016)" class="st5" d="M1124 13.3h22.1v9.4H1124z"/><path class="st3" d="M1120.3 101.8l-5.3-5.2 7.2-2 7.2-1.9-1.9 7.2-1.9 7.2z"/><path class="st5" d="M1012.4 93.3l-5.3-5.3 7.2-1.9 7.2-1.9-1.9 7.2-1.9 7.2z"/><path class="st4" d="M1077.5-21.7l-7.2-2 5.2-5.3 5.3-5.2 2 7.2 1.9 7.2zm307.1 151.5l-7.2-2 5.3-5.3 5.2-5.3 2 7.2 1.9 7.3z"/><circle class="st5" cx="970.4" cy="63.5" r="2.9"/><circle class="st5" cx="1374.5" cy="-46.4" r="2.9"/><circle class="st3" cx="1024.5" cy="-37.8" r="2.9"/><circle class="st4" cx="1087.7" cy="121.5" r="2.9"/><path transform="rotate(-20.215 1179.63 77.571)" class="st3" d="M1175.1 66.4h9.4v22.1h-9.4z"/><path transform="rotate(-20.215 1310.83 87.667)" class="st3" d="M1306.3 76.5h9.4v22.1h-9.4z"/><path transform="rotate(-78.492 1237.225 45.627)" class="st4" d="M1226.2 40.9h22.1v9.4h-22.1z"/><path transform="rotate(-84.129 1334.615 -16.185)" class="st5" d="M1323.6-20.9h22.1v9.4h-22.1z"/><path class="st3" d="M1171.7-18.2l5.2 5.3-7.2 2-7.2 1.9 1.9-7.2 2-7.2z"/><path class="st5" d="M1220.7 112.4l5.3 5.3-7.3 1.9-7.2 2 2-7.2 1.9-7.3z"/><path class="st4" d="M1274.7 3.9l7.2 1.9-5.3 5.3-5.2 5.3-2-7.2-1.9-7.2z"/><circle class="st5" cx="1227.5" cy="-25.1" r="2.9"/><circle class="st3" cx="1325.9" cy="32.3" r="2.9"/><circle class="st4" cx="1267.5" cy="117.3" r="2.9"/><circle class="st4" cx="1433" cy="80.5" r="2.9"/><path transform="rotate(-20.215 1555.258 48.83)" class="st3" d="M1550.7 37.7h9.4v22.1h-9.4z"/><path transform="rotate(-73.328 1861.5 66.317)" class="st3" d="M1850.5 61.6h22.1V71h-22.1z"/><path transform="rotate(-78.492 1481.583 2.663)" class="st4" d="M1470.6-2.1h22.1v9.4h-22.1z"/><path transform="rotate(-78.492 1894.622 -16.134)" class="st4" d="M1883.6-20.9h22.1v9.4h-22.1z"/><path transform="rotate(-84.129 1619.092 17.864)" class="st5" d="M1608.1 13.2h22.1v9.4h-22.1z"/><path class="st3" d="M1604.3 101.8l-5.2-5.2 7.2-2 7.2-1.9-1.9 7.2-2 7.2z"/><path class="st5" d="M1496.4 93.3l-5.2-5.3 7.2-1.9 7.2-1.9-1.9 7.2-2 7.2z"/><path class="st4" d="M1561.6-21.7l-7.3-2 5.3-5.3 5.3-5.2 1.9 7.2 2 7.2zm307.1 151.5l-7.2-2 5.3-5.3 5.2-5.3 2 7.2 1.9 7.3z"/><circle class="st5" cx="1454.5" cy="63.5" r="2.9"/><circle class="st5" cx="1858.6" cy="-46.4" r="2.9"/><circle class="st3" cx="1508.6" cy="-37.8" r="2.9"/><circle class="st4" cx="1571.7" cy="121.5" r="2.9"/><path transform="rotate(-20.215 1663.643 77.558)" class="st3" d="M1659.1 66.4h9.4v22.1h-9.4z"/><path transform="rotate(-20.215 1794.853 87.663)" class="st3" d="M1790.4 76.5h9.4v22.1h-9.4z"/><path transform="rotate(-78.492 1721.284 45.627)" class="st4" d="M1710.3 40.9h22.1v9.4h-22.1z"/><path transform="rotate(-16.929 1818.771 -16.28)" class="st5" d="M1814-27.3h9.4v22.1h-9.4z"/><path class="st3" d="M1655.7-18.2l5.3 5.3-7.2 2-7.2 1.9 1.9-7.2 2-7.2z"/><path class="st5" d="M1704.8 112.4l5.3 5.3-7.3 1.9-7.2 2 1.9-7.2 2-7.3z"/><path class="st4" d="M1758.8 3.9l7.2 1.9-5.3 5.3-5.3 5.3-1.9-7.2-2-7.2z"/><circle class="st5" cx="1711.6" cy="-25.1" r="2.9"/><circle class="st3" cx="1810" cy="32.3" r="2.9"/><circle class="st4" cx="1751.5" cy="117.3" r="2.9"/><circle class="st4" cx="1917.1" cy="80.5" r="2.9"/><path transform="rotate(-20.215 1071.194 236.646)" class="st3" d="M1066.6 225.5h9.4v22.1h-9.4z"/><path transform="rotate(-20.215 1377.241 254.556)" class="st3" d="M1372.7 243.4h9.4v22.1h-9.4z"/><path transform="rotate(-78.492 997.486 190.535)" class="st4" d="M986.5 185.8h22.1v9.4h-22.1z"/><path transform="rotate(-78.492 1410.536 171.75)" class="st4" d="M1399.5 167h22.1v9.4h-22.1z"/><path transform="rotate(-84.129 1135.027 205.785)" class="st5" d="M1124 201.1h22.1v9.4H1124z"/><path class="st3" d="M1120.3 289.8l-5.3-5.3 7.2-2 7.2-1.9-1.9 7.2-1.9 7.2z"/><path class="st5" d="M1012.4 281.2l-5.3-5.3 7.2-1.9 7.2-1.9-1.9 7.2-1.9 7.2z"/><path class="st4" d="M1077.5 166.2l-7.2-2 5.2-5.3 5.3-5.3 2 7.3 1.9 7.2zm307.1 151.5l-7.2-2 5.3-5.3 5.2-5.3 2 7.2 1.9 7.3z"/><circle class="st5" cx="970.4" cy="251.4" r="2.9"/><circle class="st5" cx="1374.5" cy="141.5" r="2.9"/><circle class="st3" cx="1024.5" cy="150.1" r="2.9"/><circle class="st4" cx="1087.7" cy="309.4" r="2.9"/><path transform="rotate(-20.215 1179.618 265.446)" class="st3" d="M1175.1 254.3h9.4v22.1h-9.4z"/><path transform="rotate(-20.215 1310.828 275.538)" class="st3" d="M1306.3 264.4h9.4v22.1h-9.4z"/><path transform="rotate(-78.492 1237.232 233.54)" class="st4" d="M1226.2 228.8h22.1v9.4h-22.1z"/><path transform="rotate(-84.129 1334.622 171.705)" class="st5" d="M1323.6 167h22.1v9.4h-22.1z"/><path class="st3" d="M1171.7 169.8l5.2 5.2-7.2 2-7.2 1.9 1.9-7.2 2-7.2z"/><path class="st5" d="M1220.7 300.3l5.3 5.3-7.3 1.9-7.2 2 2-7.2 1.9-7.3z"/><path class="st4" d="M1274.7 191.8l7.2 1.9-5.3 5.3-5.2 5.3-2-7.2-1.9-7.2z"/><circle class="st5" cx="1227.5" cy="162.8" r="2.9"/><circle class="st3" cx="1325.9" cy="220.3" r="2.9"/><circle class="st4" cx="1267.5" cy="305.2" r="2.9"/><circle class="st4" cx="1433" cy="268.4" r="2.9"/><path transform="rotate(-20.215 1555.22 236.715)" class="st3" d="M1550.7 225.6h9.4v22.1h-9.4z"/><path transform="rotate(-20.215 1861.271 254.634)" class="st3" d="M1856.8 243.5h9.4v22.1h-9.4z"/><path transform="rotate(-78.492 1481.557 190.56)" class="st4" d="M1470.5 185.8h22.1v9.4h-22.1z"/><path transform="rotate(-78.492 1894.618 171.776)" class="st4" d="M1883.6 167h22.1v9.4h-22.1z"/><path transform="rotate(-84.129 1619.1 205.755)" class="st5" d="M1608.1 201.1h22.1v9.4h-22.1z"/><path class="st3" d="M1604.3 289.8l-5.2-5.3 7.2-2 7.2-1.9-1.9 7.2-2 7.2z"/><path class="st5" d="M1496.4 281.2l-5.2-5.3 7.2-1.9 7.2-1.9-1.9 7.2-2 7.2z"/><path class="st4" d="M1561.6 166.2l-7.3-2 5.3-5.3 5.3-5.3 1.9 7.3 2 7.2zm307.1 151.5l-7.2-2 5.3-5.3 5.2-5.3 2 7.2 1.9 7.3z"/><circle class="st5" cx="1454.5" cy="251.4" r="2.9"/><circle class="st5" cx="1858.6" cy="141.5" r="2.9"/><circle class="st3" cx="1508.6" cy="150.1" r="2.9"/><circle class="st4" cx="1571.7" cy="309.4" r="2.9"/><path transform="rotate(-20.215 1663.641 265.443)" class="st3" d="M1659.2 254.3h9.4v22.1h-9.4z"/><path transform="rotate(-20.215 1794.845 275.547)" class="st3" d="M1790.4 264.4h9.4v22.1h-9.4z"/><path transform="rotate(-78.492 1721.283 233.53)" class="st4" d="M1710.3 228.8h22.1v9.4h-22.1z"/><path transform="rotate(-84.129 1818.694 171.72)" class="st5" d="M1807.7 167h22.1v9.4h-22.1z"/><path class="st3" d="M1655.7 169.8l5.3 5.2-7.2 2-7.2 1.9 1.9-7.2 2-7.2z"/><path class="st5" d="M1704.8 300.3l5.3 5.3-7.3 1.9-7.2 2 1.9-7.2 2-7.3z"/><path class="st4" d="M1758.8 191.8l7.2 1.9-5.3 5.3-5.3 5.3-1.9-7.2-2-7.2z"/><circle class="st5" cx="1711.6" cy="162.8" r="2.9"/><circle class="st3" cx="1810" cy="220.3" r="2.9"/><circle class="st4" cx="1751.5" cy="305.2" r="2.9"/><circle class="st4" cx="1917.1" cy="268.4" r="2.9"/></g></g></g><linearGradient id="SVGID_3_" gradientUnits="userSpaceOnUse" x1="960" y1="1100.29" x2="960" y2="104" gradientTransform="translate(0 -104)"><stop offset=".31" stop-color="#fff"/><stop offset=".37" stop-color="#fff" stop-opacity=".97"/><stop offset=".46" stop-color="#fff" stop-opacity=".89"/><stop offset=".57" stop-color="#fff" stop-opacity=".75"/><stop offset=".7" stop-color="#fff" stop-opacity=".56"/><stop offset=".83" stop-color="#fff" stop-opacity=".32"/><stop offset=".98" stop-color="#fff" stop-opacity=".04"/><stop offset="1" stop-color="#fff" stop-opacity="0"/></linearGradient><path class="st6" d="M0 0h1920v996.3H0z"/></g></g></g></g></svg>