<svg xmlns="http://www.w3.org/2000/svg" xmlns:xlink="http://www.w3.org/1999/xlink" viewBox="0 0 1923.31 395.58"><defs><style>.cls-1{fill:none;}.cls-2{opacity:0.7;}.cls-3{clip-path:url(#clip-path);}.cls-4{opacity:0.5;}.cls-5{fill:#218fff;}.cls-6{fill:#ff3939;}.cls-7{fill:#036;}</style><clipPath id="clip-path" transform="translate(-17.69)"><polyline class="cls-1" points="0 396.9 0 0.9 1920 0.9 1920 396.9"/></clipPath></defs><title>confetti</title><g id="Layer_2" data-name="Layer 2"><g id="Layer_1-2" data-name="Layer 1"><g class="cls-2"><g class="cls-3"><g class="cls-4"><rect class="cls-5" x="116.84" y="86.88" width="9.41" height="22.1" transform="translate(-44.05 48.03) rotate(-20.21)"/><rect class="cls-5" x="422.91" y="104.75" width="9.41" height="22.1" transform="translate(-31.37 154.89) rotate(-20.21)"/><rect class="cls-6" x="43.05" y="40.87" width="9.41" height="22.1" transform="translate(-6.37 -8.48) rotate(11.51)"/><rect class="cls-6" x="456.11" y="22.06" width="9.41" height="22.1" transform="translate(40.54 259.78) rotate(-33.49)"/><rect class="cls-7" x="180.56" y="56.22" width="9.41" height="22.1" transform="translate(24.25 -68.04) rotate(23.4)"/><polygon class="cls-5" points="152.78 151.18 147.5 145.9 154.72 143.96 161.94 142.03 160 149.25 158.07 156.47 152.78 151.18"/><polygon class="cls-7" points="44.89 142.65 39.61 137.36 46.83 135.43 54.04 133.49 52.11 140.71 50.18 147.93 44.89 142.65"/><polygon class="cls-6" points="110 27.59 102.78 25.68 108.05 20.38 113.32 15.08 115.27 22.29 117.23 29.5 110 27.59"/><polygon class="cls-6" points="417.15 179.08 409.93 177.16 415.19 171.87 420.46 166.56 422.42 173.78 424.38 180.99 417.15 179.08"/><circle class="cls-7" cx="2.94" cy="112.86" r="2.94"/><circle class="cls-7" cx="406.98" cy="2.94" r="2.94"/><circle class="cls-5" cx="56.99" cy="11.53" r="2.94"/><circle class="cls-6" cx="120.17" cy="170.84" r="2.94"/><rect class="cls-5" x="225.3" y="115.86" width="9.41" height="22.1" transform="translate(472.02 166.53) rotate(159.79)"/><rect class="cls-5" x="356.54" y="125.97" width="9.41" height="22.1" transform="translate(729.88 140.77) rotate(159.79)"/><rect class="cls-6" x="282.75" y="83.93" width="9.41" height="22.1" transform="translate(532.49 245.39) rotate(-168.49)"/><rect class="cls-7" x="380.17" y="22.06" width="9.41" height="22.1" transform="translate(746.66 105.43) rotate(-174.13)"/><polygon class="cls-5" points="204.18 31.18 209.47 36.46 202.25 38.4 195.03 40.33 196.96 33.11 198.9 25.89 204.18 31.18"/><polygon class="cls-7" points="253.2 161.75 258.49 167.04 251.26 168.97 244.05 170.91 245.98 163.69 247.91 156.47 253.2 161.75"/><polygon class="cls-6" points="307.21 53.23 314.43 55.14 309.16 60.44 303.89 65.74 301.94 58.53 299.98 51.31 307.21 53.23"/><circle class="cls-7" cx="260" cy="24.2" r="2.94"/><circle class="cls-5" cx="358.43" cy="81.68" r="2.94"/><circle class="cls-6" cx="299.98" cy="166.63" r="2.94"/><circle class="cls-6" cx="465.5" cy="129.86" r="2.94"/><rect class="cls-5" x="600.92" y="86.88" width="9.41" height="22.1" transform="translate(-14.23 215.3) rotate(-20.21)"/><rect class="cls-5" x="928" y="92.75" width="9.41" height="22.1" transform="translate(51.31 -263.25) rotate(16.67)"/><rect class="cls-6" x="527.13" y="40.87" width="9.41" height="22.1" transform="translate(3.36 -105.06) rotate(11.51)"/><rect class="cls-6" x="961.19" y="10.06" width="9.41" height="22.1" transform="translate(5.94 -192.28) rotate(11.51)"/><rect class="cls-7" x="664.64" y="56.22" width="9.41" height="22.1" transform="translate(-7.3 -68.13) rotate(5.87)"/><polygon class="cls-5" points="636.87 151.18 631.58 145.9 638.8 143.96 646.02 142.03 644.09 149.25 642.15 156.47 636.87 151.18"/><polygon class="cls-7" points="528.98 142.65 523.69 137.36 530.91 135.43 538.13 133.49 536.19 140.71 534.26 147.93 528.98 142.65"/><polygon class="cls-6" points="594.09 27.59 586.86 25.68 592.13 20.38 597.4 15.08 599.36 22.29 601.31 29.5 594.09 27.59"/><polygon class="cls-6" points="922.24 167.08 915.01 165.16 920.28 159.87 925.55 154.56 927.5 161.78 929.46 168.99 922.24 167.08"/><circle class="cls-7" cx="487.03" cy="112.86" r="2.94"/><circle class="cls-5" cx="541.07" cy="11.53" r="2.94"/><circle class="cls-6" cx="604.26" cy="170.84" r="2.94"/><rect class="cls-5" x="709.39" y="115.86" width="9.41" height="22.1" transform="translate(1410.37 -0.74) rotate(159.79)"/><rect class="cls-5" x="840.62" y="125.97" width="9.41" height="22.1" transform="translate(1668.24 -26.5) rotate(159.79)"/><rect class="cls-6" x="766.83" y="83.93" width="9.41" height="22.1" transform="translate(1490.92 341.97) rotate(-168.49)"/><rect class="cls-7" x="864.26" y="22.06" width="9.41" height="22.1" transform="translate(1692.22 -188.28) rotate(163.07)"/><polygon class="cls-5" points="688.27 31.18 693.55 36.46 686.33 38.4 679.11 40.33 681.05 33.11 682.98 25.89 688.27 31.18"/><polygon class="cls-7" points="737.28 161.75 742.57 167.04 735.35 168.97 728.13 170.91 730.06 163.69 732 156.47 737.28 161.75"/><polygon class="cls-6" points="791.29 53.23 798.51 55.14 793.25 60.44 787.98 65.74 786.02 58.53 784.07 51.31 791.29 53.23"/><circle class="cls-7" cx="744.09" cy="24.2" r="2.94"/><circle class="cls-5" cx="842.52" cy="81.68" r="2.94"/><circle class="cls-6" cx="784.06" cy="166.63" r="2.94"/><circle class="cls-6" cx="970.58" cy="117.86" r="2.94"/><rect class="cls-5" x="116.84" y="274.79" width="9.41" height="22.1" transform="translate(-108.98 59.61) rotate(-20.21)"/><rect class="cls-5" x="422.91" y="292.66" width="9.41" height="22.1" transform="translate(-96.3 166.47) rotate(-20.21)"/><rect class="cls-6" x="43.05" y="228.78" width="9.41" height="22.1" transform="translate(31.11 -4.71) rotate(11.51)"/><rect class="cls-6" x="456.11" y="209.97" width="9.41" height="22.1" transform="translate(35.67 -87.49) rotate(11.51)"/><rect class="cls-7" x="180.56" y="244.12" width="9.41" height="22.1" transform="translate(9.38 -17.61) rotate(5.87)"/><polygon class="cls-5" points="152.78 339.09 147.5 333.8 154.72 331.87 161.94 329.94 160 337.15 158.07 344.37 152.78 339.09"/><polygon class="cls-7" points="44.89 330.55 39.61 325.27 46.83 323.33 54.04 321.4 52.11 328.62 50.18 335.84 44.89 330.55"/><polygon class="cls-6" points="110 215.5 102.78 213.58 108.05 208.28 113.32 202.98 115.27 210.19 117.23 217.41 110 215.5"/><polygon class="cls-6" points="417.15 366.98 409.93 365.07 415.19 359.77 420.46 354.47 422.42 361.68 424.38 368.9 417.15 366.98"/><circle class="cls-7" cx="2.94" cy="300.76" r="2.94"/><circle class="cls-7" cx="406.98" cy="190.85" r="2.94"/><circle class="cls-5" cx="56.99" cy="199.43" r="2.94"/><circle class="cls-6" cx="120.17" cy="358.74" r="2.94"/><rect class="cls-5" x="225.3" y="303.77" width="9.41" height="22.1" transform="translate(536.94 530.77) rotate(159.79)"/><rect class="cls-5" x="356.54" y="313.87" width="9.41" height="22.1" transform="translate(794.81 505) rotate(159.79)"/><rect class="cls-6" x="282.75" y="271.83" width="9.41" height="22.1" transform="translate(495 617.43) rotate(-168.49)"/><rect class="cls-7" x="380.17" y="209.97" width="9.41" height="22.1" transform="translate(727.44 480.26) rotate(-174.13)"/><polygon class="cls-5" points="204.18 219.09 209.47 224.37 202.25 226.31 195.03 228.24 196.96 221.02 198.9 213.8 204.18 219.09"/><polygon class="cls-7" points="253.2 349.66 258.49 354.94 251.26 356.88 244.05 358.81 245.98 351.59 247.91 344.37 253.2 349.66"/><polygon class="cls-6" points="307.21 241.13 314.43 243.05 309.16 248.35 303.89 253.65 301.94 246.43 299.98 239.22 307.21 241.13"/><circle class="cls-7" cx="260" cy="212.11" r="2.94"/><circle class="cls-5" cx="358.43" cy="269.59" r="2.94"/><circle class="cls-6" cx="299.98" cy="354.54" r="2.94"/><circle class="cls-6" cx="465.5" cy="317.76" r="2.94"/><rect class="cls-5" x="600.92" y="274.79" width="9.41" height="22.1" transform="translate(-79.16 226.88) rotate(-20.21)"/><rect class="cls-5" x="928" y="280.66" width="9.41" height="22.1" transform="translate(-61.04 340.25) rotate(-20.21)"/><rect class="cls-6" x="527.13" y="228.78" width="9.41" height="22.1" transform="translate(40.85 -101.29) rotate(11.51)"/><rect class="cls-6" x="961.19" y="197.97" width="9.41" height="22.1" transform="translate(43.43 -188.5) rotate(11.51)"/><rect class="cls-7" x="664.64" y="244.12" width="9.41" height="22.1" transform="translate(11.92 -67.14) rotate(5.87)"/><polygon class="cls-5" points="636.87 339.09 631.58 333.8 638.8 331.87 646.02 329.94 644.09 337.15 642.15 344.37 636.87 339.09"/><polygon class="cls-7" points="528.98 330.55 523.69 325.27 530.91 323.33 538.13 321.4 536.19 328.62 534.26 335.84 528.98 330.55"/><polygon class="cls-6" points="594.09 215.5 586.86 213.58 592.13 208.28 597.4 202.98 599.36 210.19 601.31 217.41 594.09 215.5"/><polygon class="cls-6" points="922.24 354.98 915.01 353.07 920.28 347.77 925.55 342.47 927.5 349.68 929.46 356.9 922.24 354.98"/><circle class="cls-7" cx="487.03" cy="300.76" r="2.94"/><circle class="cls-7" cx="912.07" cy="178.85" r="2.94"/><circle class="cls-5" cx="541.07" cy="199.43" r="2.94"/><circle class="cls-6" cx="604.26" cy="358.74" r="2.94"/><rect class="cls-5" x="709.39" y="303.77" width="9.41" height="22.1" transform="translate(1475.3 363.5) rotate(159.79)"/><rect class="cls-5" x="840.62" y="313.87" width="9.41" height="22.1" transform="translate(1733.16 337.73) rotate(159.79)"/><rect class="cls-6" x="766.83" y="271.83" width="9.41" height="22.1" transform="translate(1453.44 714.01) rotate(-168.49)"/><rect class="cls-7" x="864.26" y="209.97" width="9.41" height="22.1" transform="translate(1693.07 529.78) rotate(-174.13)"/><polygon class="cls-5" points="688.27 219.09 693.55 224.37 686.33 226.31 679.11 228.24 681.05 221.02 682.98 213.8 688.27 219.09"/><polygon class="cls-7" points="737.28 349.66 742.57 354.94 735.35 356.88 728.13 358.81 730.06 351.59 732 344.37 737.28 349.66"/><polygon class="cls-6" points="791.29 241.13 798.51 243.05 793.25 248.35 787.98 253.65 786.02 246.43 784.07 239.22 791.29 241.13"/><circle class="cls-7" cx="744.09" cy="212.11" r="2.94"/><circle class="cls-5" cx="842.52" cy="269.59" r="2.94"/><circle class="cls-6" cx="784.06" cy="354.54" r="2.94"/><circle class="cls-6" cx="970.58" cy="305.76" r="2.94"/></g><g class="cls-4"><rect class="cls-5" x="1087.63" y="27.45" width="9.41" height="22.1" transform="translate(36.29 379.82) rotate(-20.21)"/><rect class="cls-5" x="1393.7" y="45.32" width="9.41" height="22.1" transform="translate(48.96 486.68) rotate(-20.21)"/><polygon class="cls-5" points="1123.57 91.75 1118.29 86.46 1125.5 84.53 1132.72 82.59 1130.79 89.81 1128.86 97.03 1123.57 91.75"/><polygon class="cls-7" points="1015.67 83.21 1010.39 77.93 1017.61 75.99 1024.83 74.06 1022.89 81.28 1020.96 88.5 1015.67 83.21"/><polygon class="cls-6" points="1387.93 119.64 1380.71 117.73 1385.98 112.43 1391.25 107.13 1393.2 114.34 1395.16 121.56 1387.93 119.64"/><circle class="cls-7" cx="973.73" cy="53.42" r="2.94"/><circle class="cls-6" cx="1090.96" cy="111.4" r="2.94"/><rect class="cls-5" x="1196.09" y="56.43" width="9.41" height="22.1" transform="translate(2333.25 -284.12) rotate(159.79)"/><rect class="cls-5" x="1327.32" y="66.53" width="9.41" height="22.1" transform="translate(2591.12 -309.89) rotate(159.79)"/><rect class="cls-6" x="1253.53" y="24.49" width="9.41" height="22.1" transform="translate(2466.4 321.4) rotate(-168.49)"/><polygon class="cls-7" points="1223.98 102.32 1229.27 107.6 1222.05 109.54 1214.83 111.47 1216.77 104.25 1218.7 97.03 1223.98 102.32"/><circle class="cls-5" cx="1329.22" cy="22.25" r="2.94"/><circle class="cls-6" cx="1270.77" cy="107.19" r="2.94"/><circle class="cls-6" cx="1436.28" cy="70.42" r="2.94"/><rect class="cls-5" x="1571.71" y="27.45" width="9.41" height="22.1" transform="translate(66.1 547.08) rotate(-20.21)"/><rect class="cls-5" x="1877.78" y="45.32" width="9.41" height="22.1" transform="translate(77.63 -537.77) rotate(16.67)"/><polygon class="cls-5" points="1607.65 91.75 1602.37 86.46 1609.59 84.53 1616.81 82.59 1614.87 89.81 1612.94 97.03 1607.65 91.75"/><polygon class="cls-7" points="1499.76 83.21 1494.47 77.93 1501.69 75.99 1508.91 74.06 1506.98 81.28 1505.04 88.5 1499.76 83.21"/><polygon class="cls-6" points="1872.02 119.64 1864.79 117.73 1870.06 112.43 1875.33 107.13 1877.29 114.34 1879.24 121.56 1872.02 119.64"/><circle class="cls-7" cx="1457.81" cy="53.42" r="2.94"/><circle class="cls-6" cx="1575.04" cy="111.4" r="2.94"/><rect class="cls-5" x="1680.17" y="56.43" width="9.41" height="22.1" transform="translate(3271.6 -451.39) rotate(159.79)"/><rect class="cls-5" x="1811.4" y="66.53" width="9.41" height="22.1" transform="translate(3529.47 -477.16) rotate(159.79)"/><rect class="cls-6" x="1737.62" y="24.49" width="9.41" height="22.1" transform="translate(3424.83 417.98) rotate(-168.49)"/><polygon class="cls-7" points="1708.07 102.32 1713.35 107.6 1706.13 109.54 1698.91 111.47 1700.85 104.25 1702.78 97.03 1708.07 102.32"/><circle class="cls-5" cx="1813.3" cy="22.25" r="2.94"/><circle class="cls-6" cx="1754.85" cy="107.19" r="2.94"/><circle class="cls-6" cx="1920.36" cy="70.42" r="2.94"/><rect class="cls-5" x="1087.63" y="215.36" width="9.41" height="22.1" transform="translate(-28.64 391.39) rotate(-20.21)"/><rect class="cls-5" x="1393.7" y="233.22" width="9.41" height="22.1" transform="translate(-15.96 498.25) rotate(-20.21)"/><rect class="cls-6" x="1013.83" y="169.35" width="9.41" height="22.1" transform="matrix(0.98, 0.2, -0.2, 0.98, 38.77, -199.58)"/><rect class="cls-6" x="1426.89" y="150.54" width="9.41" height="22.1" transform="translate(43.32 -282.37) rotate(11.51)"/><rect class="cls-7" x="1151.34" y="184.69" width="9.41" height="22.1" transform="translate(8.4 -117.24) rotate(5.87)"/><polygon class="cls-5" points="1123.57 279.65 1118.29 274.37 1125.5 272.44 1132.72 270.5 1130.79 277.72 1128.86 284.94 1123.57 279.65"/><polygon class="cls-7" points="1015.67 271.12 1010.39 265.83 1017.61 263.9 1024.83 261.96 1022.89 269.18 1020.96 276.4 1015.67 271.12"/><polygon class="cls-6" points="1080.79 156.06 1073.56 154.15 1078.83 148.85 1084.1 143.55 1086.06 150.76 1088.01 157.97 1080.79 156.06"/><polygon class="cls-6" points="1387.93 307.55 1380.71 305.64 1385.98 300.34 1391.25 295.04 1393.2 302.25 1395.16 309.46 1387.93 307.55"/><circle class="cls-7" cx="973.73" cy="241.33" r="2.94"/><circle class="cls-7" cx="1377.77" cy="131.41" r="2.94"/><circle class="cls-5" cx="1027.77" cy="140" r="2.94"/><circle class="cls-6" cx="1090.96" cy="299.31" r="2.94"/><rect class="cls-5" x="1196.09" y="244.34" width="9.41" height="22.1" transform="translate(2398.18 80.12) rotate(159.79)"/><rect class="cls-5" x="1327.32" y="254.44" width="9.41" height="22.1" transform="translate(2656.05 54.35) rotate(159.79)"/><rect class="cls-6" x="1253.53" y="212.4" width="9.41" height="22.1" transform="translate(2428.91 693.43) rotate(-168.49)"/><rect class="cls-7" x="1350.96" y="150.54" width="9.41" height="22.1" transform="translate(2670 461.02) rotate(-174.13)"/><polygon class="cls-5" points="1174.97 159.65 1180.25 164.94 1173.03 166.87 1165.81 168.81 1167.75 161.59 1169.68 154.37 1174.97 159.65"/><polygon class="cls-7" points="1223.98 290.23 1229.27 295.51 1222.05 297.44 1214.83 299.38 1216.77 292.16 1218.7 284.94 1223.98 290.23"/><polygon class="cls-6" points="1277.99 181.7 1285.22 183.61 1279.95 188.91 1274.68 194.21 1272.72 187 1270.77 179.79 1277.99 181.7"/><circle class="cls-7" cx="1230.79" cy="152.67" r="2.94"/><circle class="cls-5" cx="1329.22" cy="210.15" r="2.94"/><circle class="cls-6" cx="1270.77" cy="295.1" r="2.94"/><circle class="cls-6" cx="1436.28" cy="258.33" r="2.94"/><rect class="cls-5" x="1571.71" y="215.36" width="9.41" height="22.1" transform="translate(1.17 558.66) rotate(-20.21)"/><rect class="cls-5" x="1877.78" y="233.22" width="9.41" height="22.1" transform="translate(13.85 665.52) rotate(-20.21)"/><rect class="cls-6" x="1497.92" y="169.35" width="9.41" height="22.1" transform="matrix(0.98, 0.2, -0.2, 0.98, 48.5, -296.16)"/><rect class="cls-6" x="1910.98" y="150.54" width="9.41" height="22.1" transform="translate(53.06 -378.95) rotate(11.51)"/><rect class="cls-7" x="1635.43" y="184.69" width="9.41" height="22.1" transform="translate(10.94 -166.77) rotate(5.87)"/><polygon class="cls-5" points="1607.65 279.65 1602.37 274.37 1609.59 272.44 1616.81 270.5 1614.87 277.72 1612.94 284.94 1607.65 279.65"/><polygon class="cls-7" points="1499.76 271.12 1494.47 265.83 1501.69 263.9 1508.91 261.96 1506.98 269.18 1505.04 276.4 1499.76 271.12"/><polygon class="cls-6" points="1564.87 156.06 1557.65 154.15 1562.92 148.85 1568.19 143.55 1570.14 150.76 1572.1 157.97 1564.87 156.06"/><polygon class="cls-6" points="1872.02 307.55 1864.79 305.64 1870.06 300.34 1875.33 295.04 1877.29 302.25 1879.24 309.46 1872.02 307.55"/><circle class="cls-7" cx="1457.81" cy="241.33" r="2.94"/><circle class="cls-7" cx="1861.85" cy="131.41" r="2.94"/><circle class="cls-5" cx="1511.85" cy="140" r="2.94"/><circle class="cls-6" cx="1575.04" cy="299.31" r="2.94"/><rect class="cls-5" x="1680.17" y="244.34" width="9.41" height="22.1" transform="translate(3336.53 -87.15) rotate(159.79)"/><rect class="cls-5" x="1811.4" y="254.44" width="9.41" height="22.1" transform="translate(3594.4 -112.92) rotate(159.79)"/><rect class="cls-6" x="1737.62" y="212.4" width="9.41" height="22.1" transform="translate(3387.35 790.01) rotate(-168.49)"/><rect class="cls-7" x="1835.04" y="150.54" width="9.41" height="22.1" transform="translate(3635.62 510.54) rotate(-174.13)"/><polygon class="cls-5" points="1659.05 159.65 1664.34 164.94 1657.12 166.87 1649.9 168.81 1651.83 161.59 1653.77 154.37 1659.05 159.65"/><polygon class="cls-7" points="1708.07 290.23 1713.35 295.51 1706.13 297.44 1698.91 299.38 1700.85 292.16 1702.78 284.94 1708.07 290.23"/><polygon class="cls-6" points="1762.08 181.7 1769.3 183.61 1764.03 188.91 1758.76 194.21 1756.81 187 1754.85 179.79 1762.08 181.7"/><circle class="cls-7" cx="1714.87" cy="152.67" r="2.94"/><circle class="cls-5" cx="1813.3" cy="210.15" r="2.94"/><circle class="cls-6" cx="1754.85" cy="295.1" r="2.94"/><circle class="cls-6" cx="1920.36" cy="258.33" r="2.94"/></g><g class="cls-4"><rect class="cls-5" x="1087.63" y="333.45" width="9.41" height="22.1" transform="translate(-69.45 398.66) rotate(-20.21)"/><rect class="cls-5" x="1393.7" y="351.32" width="9.41" height="22.1" transform="translate(-56.77 505.52) rotate(-20.21)"/><circle class="cls-7" cx="973.73" cy="359.42" r="2.94"/><rect class="cls-5" x="1196.09" y="362.43" width="9.41" height="22.1" transform="translate(2438.99 309.03) rotate(159.79)"/><rect class="cls-6" x="1253.53" y="330.49" width="9.41" height="22.1" transform="translate(2405.35 927.25) rotate(-168.49)"/><circle class="cls-5" cx="1329.22" cy="328.25" r="2.94"/><circle class="cls-6" cx="1436.28" cy="376.42" r="2.94"/><rect class="cls-5" x="1571.71" y="333.45" width="9.41" height="22.1" transform="translate(-39.63 565.93) rotate(-20.21)"/><rect class="cls-5" x="1877.78" y="351.32" width="9.41" height="22.1" transform="translate(165.43 -524.9) rotate(16.67)"/><circle class="cls-7" cx="1457.81" cy="359.42" r="2.94"/><rect class="cls-5" x="1680.17" y="362.43" width="9.41" height="22.1" transform="translate(3377.34 141.76) rotate(159.79)"/><rect class="cls-5" x="1811.4" y="372.53" width="9.41" height="22.1" transform="translate(3635.21 116) rotate(159.79)"/><rect class="cls-6" x="1737.62" y="330.49" width="9.41" height="22.1" transform="translate(3363.79 1023.83) rotate(-168.49)"/><circle class="cls-5" cx="1813.3" cy="328.25" r="2.94"/><circle class="cls-6" cx="1920.36" cy="376.42" r="2.94"/></g></g></g></g></g></svg>