<svg xmlns="http://www.w3.org/2000/svg" viewBox="0 0 1920 996.47"><defs><style>.cls-1{fill:none}.cls-2{clip-path:url(#clip-path)}.cls-3{opacity:.65}.cls-4{opacity:.5}.cls-5{fill:#218fff}.cls-6{fill:#ff3939}.cls-7{fill:#036}.cls-8{fill:url(#linear-gradient)}</style><clipPath id="clip-path"><path class="cls-1" d="M18 .18h1902v450H18z"/></clipPath><linearGradient id="linear-gradient" x1="960" y1="996.47" x2="960" y2=".18" gradientUnits="userSpaceOnUse"><stop offset="0" stop-color="#fff"/><stop offset=".03" stop-color="#fff"/><stop offset=".5" stop-color="#fff"/><stop offset=".54" stop-color="#fff" stop-opacity=".97"/><stop offset=".61" stop-color="#fff" stop-opacity=".89"/><stop offset=".69" stop-color="#fff" stop-opacity=".75"/><stop offset=".78" stop-color="#fff" stop-opacity=".56"/><stop offset=".88" stop-color="#fff" stop-opacity=".32"/><stop offset=".99" stop-color="#fff" stop-opacity=".04"/><stop offset="1" stop-color="#fff" stop-opacity="0"/></linearGradient></defs><title>confetti</title><g id="Layer_2" data-name="Layer 2"><g class="cls-2" id="Layer_1-2" data-name="Layer 1"><g class="cls-3"><g class="cls-4"><path class="cls-5" transform="rotate(-20.21 1071.597 435.2)" d="M1066.63 424.1h9.41v22.1h-9.41z"/><path class="cls-6" transform="rotate(11.5 994.847 388.965)" d="M992.83 378.09h9.41v22.1h-9.41z"/><path class="cls-6" transform="rotate(-33.49 1410.68 370.317)" d="M1405.89 359.28h9.41v22.1h-9.41z"/><path class="cls-7" transform="rotate(23.4 1134.86 404.366)" d="M1130.34 393.43h9.41v22.1h-9.41z"/><path class="cls-6" d="M1077.48 364.8l-7.22-1.91 5.27-5.3 5.27-5.3 1.95 7.21 1.96 7.22-7.23-1.92z"/><circle class="cls-7" cx="1374.46" cy="340.16" r="2.94"/><circle class="cls-5" cx="1024.46" cy="348.74" r="2.94"/><path class="cls-6" transform="rotate(-168.49 1237.248 432.17)" d="M1232.53 421.14h9.41v22.1h-9.41z"/><path class="cls-7" transform="rotate(-174.13 1334.657 370.347)" d="M1329.96 359.28h9.41v22.1h-9.41z"/><path class="cls-5" d="M1171.66 368.39l5.29 5.29-7.22 1.93-7.22 1.94 1.93-7.22 1.94-7.22 5.28 5.28z"/><path class="cls-6" d="M1274.68 390.44l7.23 1.91-5.27 5.3-5.27 5.3-1.96-7.21-1.95-7.21 7.22 1.91z"/><circle class="cls-7" cx="1227.48" cy="361.41" r="2.94"/><circle class="cls-5" cx="1325.91" cy="418.89" r="2.94"/><path class="cls-5" transform="rotate(-20.21 1555.794 435.174)" d="M1550.71 424.1h9.41v22.1h-9.41z"/><path class="cls-6" transform="rotate(11.5 1477.782 389.322)" d="M1476.92 378.09h9.41v22.1h-9.41z"/><path class="cls-6" transform="rotate(11.51 1894.393 370.221)" d="M1889.98 359.28h9.41v22.1h-9.41z"/><path class="cls-7" transform="rotate(5.87 1619.626 404.682)" d="M1614.43 393.43h9.41v22.1h-9.41z"/><path class="cls-6" d="M1561.57 364.8l-7.23-1.91 5.27-5.3 5.27-5.3 1.96 7.21 1.95 7.22-7.22-1.92z"/><circle class="cls-7" cx="1858.55" cy="340.16" r="2.94"/><circle class="cls-5" cx="1508.55" cy="348.74" r="2.94"/><path class="cls-6" transform="rotate(-168.49 1721.335 432.164)" d="M1716.62 421.14h9.41v22.1h-9.41z"/><path class="cls-7" transform="rotate(163.07 1818.75 370.297)" d="M1814.04 359.28h9.41v22.1h-9.41z"/><path class="cls-5" d="M1655.74 368.39l5.29 5.29-7.22 1.93-7.22 1.94 1.94-7.22 1.93-7.22 5.28 5.28z"/><path class="cls-6" d="M1758.77 390.44l7.22 1.91-5.27 5.3-5.27 5.3-1.95-7.21-1.96-7.21 7.23 1.91z"/><circle class="cls-7" cx="1711.56" cy="361.41" r="2.94"/><circle class="cls-5" cx="1810" cy="418.89" r="2.94"/></g><g class="cls-4"><path class="cls-6" transform="rotate(11.51 47.75 436.505)" d="M43.05 425.52h9.41v22.1h-9.41z"/><path class="cls-6" transform="rotate(-33.49 460.846 417.782)" d="M456.11 406.71h9.41v22.1h-9.41z"/><path class="cls-6" d="M127.7 412.24l-7.23-1.92 5.27-5.3 5.27-5.3 1.96 7.22 1.95 7.21-7.22-1.91z"/><circle class="cls-7" cx="424.68" cy="387.59" r="2.94"/><circle class="cls-5" cx="74.68" cy="396.17" r="2.94"/><path class="cls-7" transform="rotate(-174.13 384.877 417.77)" d="M380.17 406.71h9.41v22.1h-9.41z"/><path class="cls-5" d="M221.88 415.83l5.28 5.28-7.22 1.94-7.22 1.93 1.94-7.22 1.93-7.22 5.29 5.29z"/><path class="cls-6" d="M324.9 437.87l7.23 1.92-5.27 5.3-5.27 5.3-1.96-7.21-1.95-7.22 7.22 1.91z"/><circle class="cls-7" cx="277.7" cy="408.85" r="2.94"/><path class="cls-6" transform="rotate(11.51 531.765 436.487)" d="M527.13 425.52h9.41v22.1h-9.41z"/><path class="cls-6" transform="rotate(11.51 944.774 417.665)" d="M940.19 406.71h9.41v22.1h-9.41z"/><path class="cls-6" d="M611.78 412.24l-7.22-1.92 5.27-5.3 5.27-5.3 1.95 7.22 1.96 7.21-7.23-1.91z"/><circle class="cls-7" cx="908.76" cy="387.59" r="2.94"/><circle class="cls-5" cx="558.76" cy="396.17" r="2.94"/><path class="cls-7" transform="rotate(163.07 868.97 417.746)" d="M864.26 406.71h9.41v22.1h-9.41z"/><path class="cls-5" d="M705.96 415.83l5.29 5.28-7.22 1.94-7.22 1.93 1.93-7.22 1.93-7.22 5.29 5.29z"/><path class="cls-6" d="M808.98 437.87l7.23 1.92-5.27 5.3-5.27 5.3-1.95-7.21-1.96-7.22 7.22 1.91z"/><circle class="cls-7" cx="761.78" cy="408.85" r="2.94"/></g><g class="cls-4"><path class="cls-5" transform="rotate(-20.21 121.579 105.237)" d="M116.84 94.16h9.41v22.1h-9.41z"/><path class="cls-5" transform="rotate(-20.21 427.722 123.092)" d="M422.91 112.03h9.41v22.1h-9.41z"/><path class="cls-6" transform="rotate(11.51 47.761 59.184)" d="M43.05 48.15h9.41v22.1h-9.41z"/><path class="cls-6" transform="rotate(-33.49 460.835 40.39)" d="M456.11 29.34h9.41v22.1h-9.41z"/><path class="cls-7" transform="rotate(23.4 185.243 74.518)" d="M180.56 63.49h9.41v22.1h-9.41z"/><path class="cls-5" d="M170.48 158.46l-5.29-5.28 7.22-1.94 7.22-1.93-1.93 7.22-1.94 7.22-5.28-5.29z"/><path class="cls-7" d="M62.58 149.92l-5.28-5.28 7.22-1.94 7.22-1.93-1.94 7.22-1.93 7.22-5.29-5.29z"/><path class="cls-6" d="M127.7 34.87l-7.23-1.92 5.27-5.3 5.27-5.3 1.96 7.22 1.95 7.21-7.22-1.91zm307.15 151.49l-7.23-1.92 5.27-5.3 5.27-5.3 1.95 7.22 1.96 7.21-7.22-1.91z"/><circle class="cls-7" cx="20.64" cy="120.14" r="2.94"/><circle class="cls-7" cx="424.68" cy="10.22" r="2.94"/><circle class="cls-5" cx="74.68" cy="18.8" r="2.94"/><circle class="cls-6" cx="137.87" cy="178.11" r="2.94"/><path class="cls-5" transform="rotate(159.79 230.013 134.181)" d="M225.3 123.14h9.41v22.1h-9.41z"/><path class="cls-5" transform="rotate(159.79 361.245 144.274)" d="M356.54 133.24h9.41v22.1h-9.41z"/><path class="cls-6" transform="rotate(-168.49 287.457 102.249)" d="M282.75 91.2h9.41v22.1h-9.41z"/><path class="cls-7" transform="rotate(-174.13 384.88 40.4)" d="M380.17 29.34h9.41v22.1h-9.41z"/><path class="cls-5" d="M221.88 38.46l5.28 5.28-7.22 1.94-7.22 1.93 1.94-7.22 1.93-7.22 5.29 5.29z"/><path class="cls-7" d="M270.89 169.03l5.29 5.28-7.22 1.94-7.22 1.93 1.93-7.21 1.94-7.22 5.28 5.28z"/><path class="cls-6" d="M324.9 60.51l7.23 1.91-5.27 5.3-5.27 5.3-1.96-7.21-1.95-7.22 7.22 1.92z"/><circle class="cls-7" cx="277.7" cy="31.48" r="2.94"/><circle class="cls-5" cx="376.13" cy="88.96" r="2.94"/><circle class="cls-6" cx="317.67" cy="173.91" r="2.94"/><circle class="cls-6" cx="483.19" cy="137.13" r="2.94"/><path class="cls-5" transform="rotate(-20.21 605.776 105.21)" d="M600.92 94.16h9.41v22.1h-9.41z"/><path class="cls-5" transform="rotate(16.67 911.93 123.141)" d="M907 112.03h9.41v22.1H907z"/><path class="cls-6" transform="rotate(11.51 531.775 59.166)" d="M527.13 48.15h9.41v22.1h-9.41z"/><path class="cls-6" transform="rotate(11.51 944.735 40.35)" d="M940.19 29.34h9.41v22.1h-9.41z"/><path class="cls-7" transform="rotate(5.87 669.6 74.595)" d="M664.64 63.49h9.41v22.1h-9.41z"/><path class="cls-5" d="M654.56 158.46l-5.28-5.28 7.22-1.94 7.22-1.93-1.94 7.22-1.93 7.22-5.29-5.29z"/><path class="cls-7" d="M546.67 149.92l-5.29-5.28 7.22-1.94 7.22-1.93-1.93 7.22-1.94 7.22-5.28-5.29z"/><path class="cls-6" d="M611.78 34.87l-7.22-1.92 5.27-5.3 5.27-5.3 1.95 7.22 1.96 7.21-7.23-1.91zm307.15 151.49l-7.23-1.92 5.27-5.3 5.27-5.3 1.96 7.22 1.95 7.21-7.22-1.91z"/><circle class="cls-7" cx="504.72" cy="120.14" r="2.94"/><circle class="cls-7" cx="908.76" cy="10.22" r="2.94"/><circle class="cls-5" cx="558.76" cy="18.8" r="2.94"/><circle class="cls-6" cx="621.95" cy="178.11" r="2.94"/><path class="cls-5" transform="rotate(159.79 714.099 134.162)" d="M709.39 123.14h9.41v22.1h-9.41z"/><path class="cls-5" transform="rotate(159.79 845.325 144.254)" d="M840.62 133.24h9.41v22.1h-9.41z"/><path class="cls-6" transform="rotate(-168.49 771.543 102.242)" d="M766.83 91.2h9.41v22.1h-9.41z"/><path class="cls-7" transform="rotate(163.07 868.966 40.378)" d="M864.26 29.34h9.41v22.1h-9.41z"/><path class="cls-5" d="M705.96 38.46l5.29 5.28-7.22 1.94-7.22 1.93 1.93-7.22 1.93-7.22 5.29 5.29z"/><path class="cls-7" d="M754.98 169.03l5.28 5.28-7.22 1.94-7.22 1.93 1.94-7.21 1.93-7.22 5.29 5.28z"/><path class="cls-6" d="M808.98 60.51l7.23 1.91-5.27 5.3-5.27 5.3-1.95-7.21-1.96-7.22 7.22 1.92z"/><circle class="cls-7" cx="761.78" cy="31.48" r="2.94"/><circle class="cls-5" cx="860.21" cy="88.96" r="2.94"/><circle class="cls-6" cx="801.76" cy="173.91" r="2.94"/><circle class="cls-6" cx="967.27" cy="137.13" r="2.94"/><path class="cls-5" transform="rotate(-20.21 121.574 293.187)" d="M116.84 282.07h9.41v22.1h-9.41z"/><path class="cls-5" transform="rotate(-20.21 427.717 311.043)" d="M422.91 299.94h9.41v22.1h-9.41z"/><path class="cls-6" transform="rotate(11.51 47.753 247.068)" d="M43.05 236.06h9.41v22.1h-9.41z"/><path class="cls-6" transform="rotate(11.51 460.762 228.246)" d="M456.11 217.25h9.41v22.1h-9.41z"/><path class="cls-7" transform="rotate(5.87 185.354 262.517)" d="M180.56 251.4h9.41v22.1h-9.41z"/><path class="cls-5" d="M170.48 346.37l-5.29-5.29 7.22-1.93 7.22-1.94-1.93 7.22-1.94 7.22-5.28-5.28z"/><path class="cls-7" d="M62.58 337.83l-5.28-5.29 7.22-1.93 7.22-1.93-1.94 7.21-1.93 7.22-5.29-5.28z"/><path class="cls-6" d="M127.7 222.77l-7.23-1.91 5.27-5.3 5.27-5.3 1.96 7.21 1.95 7.22-7.22-1.92zm307.15 151.49l-7.23-1.91 5.27-5.3 5.27-5.3 1.95 7.21 1.96 7.22-7.22-1.92z"/><circle class="cls-7" cx="20.64" cy="308.04" r="2.94"/><circle class="cls-7" cx="424.68" cy="198.13" r="2.94"/><circle class="cls-5" cx="74.68" cy="206.71" r="2.94"/><circle class="cls-6" cx="137.87" cy="366.02" r="2.94"/><path class="cls-5" transform="rotate(159.79 230.022 322.087)" d="M225.3 311.05h9.41v22.1h-9.41z"/><path class="cls-5" transform="rotate(159.79 361.253 332.18)" d="M356.54 321.15h9.41v22.1h-9.41z"/><path class="cls-6" transform="rotate(-168.49 287.46 290.158)" d="M282.75 279.11h9.41v22.1h-9.41z"/><path class="cls-7" transform="rotate(-174.13 384.878 228.302)" d="M380.17 217.25h9.41v22.1h-9.41z"/><path class="cls-5" d="M221.88 226.36l5.28 5.29-7.22 1.93-7.22 1.94 1.94-7.22 1.93-7.22 5.29 5.28z"/><path class="cls-7" d="M270.89 356.94l5.29 5.28-7.22 1.94-7.22 1.93 1.93-7.22 1.94-7.22 5.28 5.29z"/><path class="cls-6" d="M324.9 248.41l7.23 1.91-5.27 5.31-5.27 5.3-1.96-7.22-1.95-7.21 7.22 1.91z"/><circle class="cls-7" cx="277.7" cy="219.39" r="2.94"/><circle class="cls-5" cx="376.13" cy="276.87" r="2.94"/><circle class="cls-6" cx="317.67" cy="361.81" r="2.94"/><circle class="cls-6" cx="483.19" cy="325.04" r="2.94"/><path class="cls-5" transform="rotate(-20.21 605.771 293.16)" d="M600.92 282.07h9.41v22.1h-9.41z"/><path class="cls-5" transform="rotate(-20.21 911.914 311.016)" d="M907 299.94h9.41v22.1H907z"/><path class="cls-6" transform="rotate(11.51 531.767 247.05)" d="M527.13 236.06h9.41v22.1h-9.41z"/><path class="cls-6" transform="rotate(11.51 944.776 228.228)" d="M940.19 217.25h9.41v22.1h-9.41z"/><path class="cls-7" transform="rotate(5.87 669.555 262.528)" d="M664.64 251.4h9.41v22.1h-9.41z"/><path class="cls-5" d="M654.56 346.37l-5.28-5.29 7.22-1.93 7.22-1.94-1.94 7.22-1.93 7.22-5.29-5.28z"/><path class="cls-7" d="M546.67 337.83l-5.29-5.29 7.22-1.93 7.22-1.93-1.93 7.21-1.94 7.22-5.28-5.28z"/><path class="cls-6" d="M611.78 222.77l-7.22-1.91 5.27-5.3 5.27-5.3 1.95 7.21 1.96 7.22-7.23-1.92zm307.15 151.49l-7.23-1.91 5.27-5.3 5.27-5.3 1.96 7.21 1.95 7.22-7.22-1.92z"/><circle class="cls-7" cx="504.72" cy="308.04" r="2.94"/><circle class="cls-7" cx="908.76" cy="198.13" r="2.94"/><circle class="cls-5" cx="558.76" cy="206.71" r="2.94"/><circle class="cls-6" cx="621.95" cy="366.02" r="2.94"/><path class="cls-5" transform="rotate(159.79 714.102 322.067)" d="M709.39 311.05h9.41v22.1h-9.41z"/><path class="cls-5" transform="rotate(159.79 845.333 332.16)" d="M840.62 321.15h9.41v22.1h-9.41z"/><path class="cls-6" transform="rotate(-168.49 771.546 290.15)" d="M766.83 279.11h9.41v22.1h-9.41z"/><path class="cls-7" transform="rotate(-174.13 868.963 228.313)" d="M864.26 217.25h9.41v22.1h-9.41z"/><path class="cls-5" d="M705.96 226.36l5.29 5.29-7.22 1.93-7.22 1.94 1.93-7.22 1.93-7.22 5.29 5.28z"/><path class="cls-7" d="M754.98 356.94l5.28 5.28-7.22 1.94-7.22 1.93 1.94-7.22 1.93-7.22 5.29 5.29z"/><path class="cls-6" d="M808.98 248.41l7.23 1.91-5.27 5.31-5.27 5.3-1.95-7.22-1.96-7.21 7.22 1.91z"/><circle class="cls-7" cx="761.78" cy="219.39" r="2.94"/><circle class="cls-5" cx="860.21" cy="276.87" r="2.94"/><circle class="cls-6" cx="801.76" cy="361.81" r="2.94"/><circle class="cls-6" cx="967.27" cy="325.04" r="2.94"/></g><g class="cls-4"><path class="cls-5" transform="rotate(-20.21 1071.59 57.763)" d="M1066.63 46.73h9.41v22.1h-9.41z"/><path class="cls-5" transform="rotate(-20.21 1377.733 75.618)" d="M1372.7 64.59h9.41v22.1h-9.41z"/><path class="cls-6" transform="rotate(11.51 997.38 11.74)" d="M992.83.72h9.41v22.1h-9.41z"/><path class="cls-7" transform="matrix(.92 .4 -.4 .92 104.08 -448.48)" d="M1130.34 16.06h9.41v22.1h-9.41z"/><path class="cls-5" d="M1120.26 111.03l-5.28-5.29 7.22-1.93 7.22-1.94-1.94 7.22-1.93 7.22-5.29-5.28z"/><path class="cls-7" d="M1012.37 102.49l-5.29-5.29 7.22-1.93 7.22-1.94-1.93 7.22-1.94 7.22-5.28-5.28z"/><path class="cls-6" d="M1384.63 138.92l-7.23-1.91 5.27-5.3 5.27-5.3 1.96 7.21 1.95 7.22-7.22-1.92z"/><circle class="cls-7" cx="970.42" cy="72.7" r="2.94"/><circle class="cls-6" cx="1087.65" cy="130.68" r="2.94"/><path class="cls-5" transform="rotate(159.79 1179.792 86.706)" d="M1175.09 75.71h9.41v22.1h-9.41z"/><path class="cls-5" transform="rotate(159.79 1311.022 96.804)" d="M1306.32 85.81h9.41v22.1h-9.41z"/><path class="cls-6" transform="rotate(-168.49 1237.243 54.802)" d="M1232.53 43.77h9.41v22.1h-9.41z"/><path class="cls-7" d="M1220.68 121.6l5.28 5.28-7.22 1.94-7.22 1.93 1.94-7.22 1.93-7.22 5.29 5.29z"/><path class="cls-6" d="M1274.68 13.07l7.23 1.91-5.27 5.31-5.27 5.3-1.96-7.22-1.95-7.21 7.22 1.91z"/><circle class="cls-5" cx="1325.91" cy="41.52" r="2.94"/><circle class="cls-6" cx="1267.46" cy="126.47" r="2.94"/><circle class="cls-6" cx="1432.97" cy="89.7" r="2.94"/><path class="cls-5" transform="rotate(-20.21 1555.787 57.736)" d="M1550.71 46.73h9.41v22.1h-9.41z"/><path class="cls-5" transform="rotate(16.67 1861.937 75.745)" d="M1856.78 64.59h9.41v22.1h-9.41z"/><path class="cls-6" transform="rotate(11.51 1481.394 11.722)" d="M1476.92.72h9.41v22.1h-9.41z"/><path class="cls-7" transform="rotate(5.87 1619.63 27.158)" d="M1614.43 16.06h9.41v22.1h-9.41z"/><path class="cls-5" d="M1604.35 111.03l-5.29-5.29 7.22-1.93 7.22-1.94-1.93 7.22-1.94 7.22-5.28-5.28z"/><path class="cls-7" d="M1496.45 102.49l-5.28-5.29 7.22-1.93 7.22-1.94-1.94 7.22-1.93 7.22-5.29-5.28z"/><path class="cls-6" d="M1868.71 138.92l-7.22-1.91 5.27-5.3 5.27-5.3 1.95 7.21 1.96 7.22-7.23-1.92z"/><circle class="cls-7" cx="1454.5" cy="72.7" r="2.94"/><circle class="cls-6" cx="1571.73" cy="130.68" r="2.94"/><path class="cls-5" transform="rotate(159.79 1663.872 86.686)" d="M1659.17 75.71h9.41v22.1h-9.41z"/><path class="cls-5" transform="rotate(159.79 1795.102 96.784)" d="M1790.4 85.81h9.41v22.1h-9.41z"/><path class="cls-6" transform="rotate(-168.49 1721.325 54.795)" d="M1716.62 43.77h9.41v22.1h-9.41z"/><path class="cls-7" d="M1704.76 121.6l5.29 5.28-7.22 1.94-7.22 1.93 1.93-7.22 1.94-7.22 5.28 5.29z"/><path class="cls-6" d="M1758.77 13.07l7.22 1.91-5.27 5.31-5.27 5.3-1.95-7.22-1.96-7.21 7.23 1.91z"/><circle class="cls-5" cx="1810" cy="41.52" r="2.94"/><circle class="cls-6" cx="1751.54" cy="126.47" r="2.94"/><circle class="cls-6" cx="1917.06" cy="89.7" r="2.94"/><path class="cls-5" transform="rotate(-20.21 1071.59 245.685)" d="M1066.63 234.63h9.41v22.1h-9.41z"/><path class="cls-5" transform="rotate(-20.21 1377.733 263.54)" d="M1372.7 252.5h9.41v22.1h-9.41z"/><path class="cls-6" transform="rotate(11.5 994.995 199.95)" d="M992.83 188.62h9.41v22.1h-9.41z"/><path class="cls-6" transform="rotate(11.51 1410.381 180.802)" d="M1405.89 169.81h9.41v22.1h-9.41z"/><path class="cls-7" transform="rotate(5.87 1135.385 215.08)" d="M1130.34 203.97h9.41v22.1h-9.41z"/><path class="cls-5" d="M1120.26 298.93l-5.28-5.28 7.22-1.94 7.22-1.93-1.94 7.22-1.93 7.22-5.29-5.29z"/><path class="cls-7" d="M1012.37 290.39l-5.29-5.28 7.22-1.93 7.22-1.94-1.93 7.22-1.94 7.22-5.28-5.29z"/><path class="cls-6" d="M1077.48 175.34l-7.22-1.91 5.27-5.3 5.27-5.3 1.95 7.21 1.96 7.21-7.23-1.91zm307.15 151.49l-7.23-1.91 5.27-5.3 5.27-5.31 1.96 7.22 1.95 7.21-7.22-1.91z"/><circle class="cls-7" cx="970.42" cy="260.61" r="2.94"/><circle class="cls-7" cx="1374.46" cy="150.69" r="2.94"/><circle class="cls-5" cx="1024.46" cy="159.28" r="2.94"/><circle class="cls-6" cx="1087.65" cy="318.59" r="2.94"/><path class="cls-5" transform="rotate(159.79 1179.8 274.611)" d="M1175.09 263.61h9.41v22.1h-9.41z"/><path class="cls-5" transform="rotate(159.79 1311.03 284.71)" d="M1306.32 273.72h9.41v22.1h-9.41z"/><path class="cls-6" transform="rotate(-168.49 1237.245 242.706)" d="M1232.53 231.68h9.41v22.1h-9.41z"/><path class="cls-7" transform="rotate(-174.13 1334.664 180.885)" d="M1329.96 169.81h9.41v22.1h-9.41z"/><path class="cls-5" d="M1171.66 178.93l5.29 5.28-7.22 1.94-7.22 1.93 1.93-7.22 1.94-7.22 5.28 5.29z"/><path class="cls-7" d="M1220.68 309.5l5.28 5.29-7.22 1.93-7.22 1.94 1.94-7.22 1.93-7.22 5.29 5.28z"/><path class="cls-6" d="M1274.68 200.98l7.23 1.91-5.27 5.3-5.27 5.3-1.96-7.21-1.95-7.22 7.22 1.92z"/><circle class="cls-7" cx="1227.48" cy="171.95" r="2.94"/><circle class="cls-5" cx="1325.91" cy="229.43" r="2.94"/><circle class="cls-6" cx="1267.46" cy="314.38" r="2.94"/><circle class="cls-6" cx="1432.97" cy="277.61" r="2.94"/><path class="cls-5" transform="rotate(-20.21 1555.783 245.686)" d="M1550.71 234.63h9.41v22.1h-9.41z"/><path class="cls-5" transform="rotate(-20.21 1861.925 263.542)" d="M1856.78 252.5h9.41v22.1h-9.41z"/><path class="cls-6" transform="rotate(11.5 1477.93 200.307)" d="M1476.92 188.62h9.41v22.1h-9.41z"/><path class="cls-6" transform="rotate(11.51 1894.395 180.784)" d="M1889.98 169.81h9.41v22.1h-9.41z"/><path class="cls-7" transform="rotate(5.87 1619.684 215.086)" d="M1614.43 203.97h9.41v22.1h-9.41z"/><path class="cls-5" d="M1604.35 298.93l-5.29-5.28 7.22-1.94 7.22-1.93-1.93 7.22-1.94 7.22-5.28-5.29z"/><path class="cls-7" d="M1496.45 290.39l-5.28-5.28 7.22-1.93 7.22-1.94-1.94 7.22-1.93 7.22-5.29-5.29z"/><path class="cls-6" d="M1561.57 175.34l-7.23-1.91 5.27-5.3 5.27-5.3 1.96 7.21 1.95 7.21-7.22-1.91zm307.14 151.49l-7.22-1.91 5.27-5.3 5.27-5.31 1.95 7.22 1.96 7.21-7.23-1.91z"/><circle class="cls-7" cx="1454.5" cy="260.61" r="2.94"/><circle class="cls-7" cx="1858.55" cy="150.69" r="2.94"/><circle class="cls-5" cx="1508.55" cy="159.28" r="2.94"/><circle class="cls-6" cx="1571.73" cy="318.59" r="2.94"/><path class="cls-5" transform="rotate(159.79 1663.88 274.592)" d="M1659.17 263.61h9.41v22.1h-9.41z"/><path class="cls-5" transform="rotate(159.79 1795.11 284.69)" d="M1790.4 273.72h9.41v22.1h-9.41z"/><path class="cls-6" transform="rotate(-168.49 1721.332 242.699)" d="M1716.62 231.68h9.41v22.1h-9.41z"/><path class="cls-7" transform="rotate(-174.13 1818.749 180.896)" d="M1814.04 169.81h9.41v22.1h-9.41z"/><path class="cls-5" d="M1655.74 178.93l5.29 5.28-7.22 1.94-7.22 1.93 1.94-7.22 1.93-7.22 5.28 5.29z"/><path class="cls-7" d="M1704.76 309.5l5.29 5.29-7.22 1.93-7.22 1.94 1.93-7.22 1.94-7.22 5.28 5.28z"/><path class="cls-6" d="M1758.77 200.98l7.22 1.91-5.27 5.3-5.27 5.3-1.95-7.21-1.96-7.22 7.23 1.92z"/><circle class="cls-7" cx="1711.56" cy="171.95" r="2.94"/><circle class="cls-5" cx="1810" cy="229.43" r="2.94"/><circle class="cls-6" cx="1751.54" cy="314.38" r="2.94"/><circle class="cls-6" cx="1917.06" cy="277.61" r="2.94"/></g></g><path class="cls-8" d="M0 .18h1920v996.29H0z"/></g></g></svg>