<svg xmlns="http://www.w3.org/2000/svg" viewBox="0 0 500 250"><path fill="none" d="M119.3 160.5c.7 0 1.5.9 2.2.2.6-1-2.1-1.1-2.2-.2zm-5 .1c1.1.3 2.9.9 3.2-.3-.8-.3-2.8-.8-3.2.3zm73.4-1.4c-1.4 0-2.5-.5-3.7.7-2.5-2.2-6.3.8-9-.7-1.6.4-3.2 1.2-4.7 1.3-1.7.1-3.3-1.1-4.9-1.2h-.5v1.7c.7 0 1.4-.1 2.1-.1 7.4-.3 14.2-.2 21.1-.1h3.9V159c-1.5.3-3 .2-4.3.2zm-72.2 8.1c-9.3.4-19.4.3-29.3.3v20c0 6.2 1.5 11.7 4.6 16.7 3.1 4.9 8.4 7.4 16 7.4s12.9-2.6 16.1-7.7c3.2-5.2 4.8-11.4 4.8-18.7v-17.7c-.9-.1-1.8-.1-2.7-.2-3.3-.3-6.9 1.1-9.5-.1zm268.9-9c2-.1 3.9-.6 5.8-.5l-.6-1.7c-3.2 0-6.6-.6-9.8.2-1.5-.5-3.9-.7-6-.5v1.9c3.5-.3 7.1.8 10.6.6zm-8.3 1.4c-.6.1-1.2.3-1.8.6-.2-.1-.4-.1-.7-.2v1.1c6.1 0 12 .1 17.8.2l-.4-1.4c-5.3-.3-10.3-.6-14.9-.3zm-248.9.7c0-.2 0-.4-.1-.7-.6 0-1 .2-.8 1 .4 0 .7-.1.9-.3zm186.6-5.6h-6.1v6.9c9.1-.1 18.9-.3 28.8-.3v-1.5c-5 0-9.9-.1-14.5-.5 3.3-2.1 8 0 12-1 .8.6 1.6.6 2.5.5v-3.5c-7.8 0-15.5 0-22.7-.6zM123.4 45.7c-2.9-5.3-8.3-7.9-16.3-7.9-4.4 0-7.9 1-10.6 2.9-2.7 1.9-4.9 4.4-6.4 7.2-1.5 2.9-2.5 6.1-3.1 9.6-.6 3.6-.9 6.8-.9 9.8v21.5c8.7-1.1 18 1 26.2-.3 3.4.7 8.4-.5 12.1.5.5 0 .5-.6 1.1-.6.7.1 1.5.1 2.2.2v-25c0-6.6-1.4-12.6-4.3-17.9zm-11.1 114.8c.4.1.7.5 1.3.3 0-.8-1.3-1.1-1.3-.3zm129 1.7c2.5 1.6 6.6.1 9.5.2-2.8-.6-5.9-.2-9.5-.2zm-2.4 2c.2.2.5.3.9.2 0-1-.7-.6-.9-.2zm6.6.1c1.2-.3 2.2.5 3-.1.1-.3.2-.4 0-.7-.8.1-2.4-.3-3 .8z"/><path fill="none" d="M267.3 162.4c-.1.9.8.5 1.1.9-.2.5-1.2.1-1.8.3-.3-2-3.7-.9-5.6-1.3-.8.3.3.6-.1 1.1-2.1.2-3.3.3-5.2 0 .4-1.1 1.3-.4 2.3-.6-1.2-1.1-4.5-.5-5.9-.4.6 1 2.6-.1 3.3.8-1.4.9-4.1.1-6 .7 1.3 1.2 3.4.5 5 .7-3.3.7-7.9.7-11.4.3 0-.7.8-.3 1-.7-1-.5-2-.6-3.2-.3-.9.2.3 1-.1 1.1-3.6.3-7.7.4-11.6.2v22.4c0 6.2 1.5 11.7 4.6 16.7 3.1 4.9 8.4 7.4 16 7.4s12.9-2.6 16.1-7.7c3.2-5.2 4.8-11.4 4.8-18.7v-23c-1.1-.1-2.2 0-3.3.1zm-4.4 1.2c.5-.8 2-.3 2.7-.3-.9.6-1.8.4-2.7.3zm-96.7-6.5c.2-1.1-.9-.6-.9-.1.2.1.5.2.9.1zm75.9-2.3c-.1 1.1.3 1.5.5 2.2.8.1 1.4-.1 1.8-.5-.2-.8-.1-1.3-.3-1.8-.4-.4-1.6-.3-2 .1z"/><path fill="none" d="M245.2 154.8c.6 1 2.5-.6 2.8 1.4 2.5-2.2 4.5-.1 6.8.6.6-.6-1.2-.5-.4-1.3 1-.1 1.4.6 1.8 1.3 2.8 1.2 6 .3 9.2 1-11.3.6-23.8.5-36.3.5v1.9h1c8.6-.1 17.7 0 26.8.3 1.4 0 2.8-.4 4.1-.2.7.2 1.4 1.1 2.2 1.3 2.5.5 5-.4 7.3-.1h.1v-2.7c-1.1 0-2.1-.1-3.1-.3.8-.3 2.2-.7 3.1-.2v-3.9c-8.4-.3-17-.6-25.4.4z"/><path fill="none" d="M239.8 155.6c-.1.5-.2 1.1.4 1.1.4-.5 0-1-.4-1.1zm-4 8.5c.3 1.1 2.2.5 2.7-.1-.7-.3-2.1-.3-2.7.1zm15-11.8c-.5-1.6-1.9-.6-2.7-.5-6.1.3-12.8-.4-19 .6v.3c7.7.3 14.7.4 21.7-.4zm-15.6 3.5c.6 1.1 3 1.4 3.4 0-.6-.7-1.5-.5-2.4-1.2-2.3.1-4.7.2-7.1.2v2.6c.8-1.4 4.8-.4 6.1-1.6zM410.3 49c-4.5-6.1-11.9-9.1-22.2-9.1h-14.4v49c14.1-.2 28-1.6 41.7.1h.3c.9-4.2 1.3-9 1.3-14.4 0-11-2.3-19.5-6.7-25.6zM229.4 164.4c.4.3 1.9.3 2.3-.1-.6-.4-1.8-.6-2.3.1zm201-.1c1 .1 1.9.6 2.9-.1 3.2 1.3 7 .6 10.3 1.2-1.4-3-6.6-1.5-10.1-1.8-.5 0-.9-.6-1.4-.7-1.1-.2-2.3-.3-3.5-.4l.7 1.8c.4-.1.8 0 1.1 0zm33-9h.9c.3-.6-1.2-.6-.9 0zm-279.7.4c-.8 0-2.3-.7-2.6.6 1.9 1.4 4.5.1 6.8.2 1.2 0 2.6.1 4.1.1v-1.3c-2.8.1-5.6.2-8.3.4zm251.5 5.3c.7.1 1.3.8 1.9.9.6.1 1.8-.1 2.5-.1 1.4 0 2.6-.4 3.7.6 2.9-.8 6.8.1 9.5-.1-7.4-2.7-16.6-1.2-25.2-2.2l.3.8c2.5-.2 5.3-.3 7.3.1z"/><path fill="#53A2F2" d="M404.8 166.6c.3.3 1.7.5 1.8-.2-.7.2-1.5-.8-1.8.2zm9.4-12.3c-1.2-1.1-3-1.3-4.8-1 .2.7 1.3.5 1.8.9-5.9 1.3-11.4-1.5-17.2-.3 10.3 1.4 21.4 2.6 32.7 3.4l-.5-1.2c-4.8-.2-9.7-.4-14.7-1.4.5-.8 1.8-.7 2.7-.4zm-21.2 4.3c2.2-.6 3.4.6 5.7.7.8.4.3-.8.9-.6 2.3.9 5 0 7.7.4 3.1.4 5.8 1.2 8.4 2.1-3.9.7-9.9.3-13.9-1.6-.7-.1-.5.9-1.3.6-3.2 0-6.4-.1-9.5-.3l.6 1.5h2.8c12.2.2 24.3 2 34.9 2.6l-.7-1.8c-4.1-.3-8.3-.2-11.9-1.1 1.8-.4 3.6.5 4.5-1.2 1.1 0 1.6.7 2.5.9 1.1 0 2.6-.2 4.3-.2l-.3-.8c-.4 0-.8-.1-1.2-.2-7.7-1.1-15.5-2.8-22.7-2.3-.4-.3-.6-.9-1.2-.9-1.1.5-2.2-.3-3.1.4-2.5-1-5.6-1.3-8.4-1-.5 0-1 .1-1.5.1l.6 1.7c.9.3 1.8.5 2.8 1z"/><path fill="#53A2F2" d="M403.2 152.9c.3.6 2.4.8 2.7.1-.5-.3-2.3-1.1-2.7-.1zm-11.4.9c.4.1.8.3 1.4.2.2-.7-1.4-.5-1.4-.2zm-30.3 5.7c-7.9.1-16.6.4-24.9.4v1.5c12.3-.1 24.8-.1 37.1 0v-1.1c-3.3-.9-8.4 0-12.2-.8zm62-4.8c-.4-.2-1.7-.6-1.8.2.6.3 1.3.2 1.8-.2zm-55.4 13.1c-.3-.4.1-.4 0-1.1-.7-.2-1.6-.1-2.1-.4-.1-.8.7-.4.7-.9-.6-1.1-2.1-.1-3-.2-.7.2.7.9 0 1.1-1.1.3-1.1-.8-1.6-1.3-1.2-.3-.1 1.1-.9 1.1-.7.3-.5-.5-.5-1.1-7.7 0-14.8-.3-21.9.1-.1 1.2 1.5.2 1.3 1.6-1.2-.3-1.7.2-2.5 0-.6-.7.7-1 .2-1.6h-1v79.3h37.1v-76.6c-2.2-.2-4-.3-5.8 0zm53.3 1.7c-2.6.5-7.2 0-10-.6-.7 0-1 .7-2 .4-.7 0-.5-1.1-1-1.3-1.6.5-3.2.1-4.8.4-1.5.2-1.9.5-3.4-.1-1.3-.4-2.9-.2-4.5-.3-.6 0-1.3-.2-1.9-.3l28.3 76.6h37.8L432 171.4c-2.3-.4-4.7-.8-6.9-1.1-1.3-.2-2.7.3-3.7-.8zm-53.8-80.6h6v-49H388c10.3 0 17.7 3 22.2 9.1s6.7 14.6 6.7 25.6c0 5.5-.5 10.3-1.3 14.4.4 0 .8-.2 1.2-.2 9.3.2 18.8-.5 27.9.1 1.4.1 2.7.2 4 .5 1.2.2 2.5.2 3.9.2.5-4.7.8-9.7.8-15 0-24.5-5.5-42.2-16.5-53.1-11-10.9-26.2-16.3-45.7-16.3h-54.6v83.5c8.3.2 16.6.4 24.8.5 2.1 0 4.1-.4 6.2-.3zM340 158.2c3.6-.1 7.2.9 9.3-.5 1.8 1.1 4.6.2 7.2.6 1.8.3 4.7.5 6.3-.2 3.1.5 6.7.1 10-.4.3 0 .6-.1.9-.1v-1.9c-1 .1-2 .2-2.7.4-11.2-1.3-23-1.1-34.4-.9v3.5c1-.1 2.1-.4 3.4-.5zM54.5 90c4.5-.3 9.1-1.4 13.7-.5 5.4-1.4 12.2-.9 17.5-.5.2 0 .3 0 .5-.1V67.4c0-3 .3-6.2.9-9.8.6-3.5 1.6-6.8 3.1-9.6 1.5-2.9 3.6-5.3 6.4-7.2 2.7-1.9 6.3-2.9 10.6-2.9 8 0 13.5 2.6 16.3 7.9 2.9 5.3 4.3 11.2 4.3 17.9v25.2c5.7.3 11.7-.8 17.3-.3.8.1 1.5.6 2.3.7 2.5.1 5.2-.8 7.9-.8 3 0 6.4.4 9.7.8v-23c0-9.8-1-18.7-2.9-26.5-1.9-7.8-5.1-14.4-9.6-19.9-4.5-5.5-10.4-9.7-17.8-12.5-7.4-2.9-16.6-4.3-27.6-4.3-10.3 0-19.1 1.5-26.5 4.6-7.4 3.1-13.4 7.4-18 13.1-4.6 5.6-7.9 12.3-10.1 20.1-2.2 7.8-3.3 16.4-3.3 25.8v23.1c1.7 0 3.5.4 5.3.2zm77.9 70.5c.5.4 1.3.4 2.2.2-.1-1.1-1.9-.9-2.2-.2zm-1.1.1c0-.2 0-.4-.1-.7-1.4-.8-1.2 1.9.1.7zm29.6 5.7c-2.4 0-4.7.3-6.5 1-1.8-1.3-4.3.4-6.1.1-.5-.9-2.4-1.8-3.5-.8-1.6 1.5-6.4.1-9 1.3-.6.1-.9-.4-1.3-.5-2.2.5-4.4.4-6.7.2v17.7c0 7.3-1.6 13.6-4.8 18.7-3.2 5.2-8.6 7.7-16.1 7.7-7.6 0-12.9-2.5-16-7.4-3.1-4.9-4.6-10.5-4.6-16.7v-20c-10.7-.1-21.3-.1-30.8.4-1 0-.5 1.4-1.6 1.3-.6.4-.2-.9-.6-.8-1.2.1-2.6 0-4 0V187c0 19.2 4.6 34 13.7 44.1 9.1 10.2 23.7 15.3 43.8 15.3 20.1 0 34.8-5.3 44.2-16 9.4-10.6 14-26.4 14-47.2v-16.9c-1.3-.1-2.7 0-4.1 0zm1.4-6.2c-1.3 0-3.6-.7-5.6-.4-1.3.2-2.4.8-3.7.8-1 0-2.2-.7-3 .3.7 1.1 3.5.4 4.7 0 2.4 1 6.5.7 10.1.4v-1.7c-.8.1-1.6.6-2.5.6zm-22.9.7c3 .5 6.7.2 10.1.2-1.6-1.5-5.1-.2-6.9-1.4-.7 1.2-2.4.1-3.2 1.2zm165.9-8.2c-1.2.1-3.7-1.2-4.3.3 1.4-.5 3.3.7 4.3-.3zm-100.9 4.3c1.2 0 2.5-.4 3.7-.5 7.5-.3 13.9.4 20.3-.1.2.4.1 1.2.6 1.1v-2.7c-11.9.3-24.7.1-37.1.5v1.3c2.2 0 4.3-.1 5.8-.3 2.1-.2 4.4.8 6.7.7zm-9.3 2.3c-.8.1-1.9.1-3.1.1v1.8c11.8.1 24.8-.7 37.1-.9v-1.9c-11.7 0-23.3 0-34 .9zm32.2-6.6c.6 0 1.2 0 1.8.1v-.3c-.6 0-1.2.1-1.8.2zm59.9.1c.1-1-1.3-.7-1.4-.2.4.6.8.3 1.4.2z"/><path fill="#53A2F2" d="M304.1 161.7c1.2 0 2.4 0 3.6-.1v-6.9c-7.8-.1-19-.4-21.2-.6-5.2.4-10.5.3-15.9.2v3.9c.2.1.4.3.5.5h-.5v2.7c.8.1.4-1.2 1.3-1 .5.3 0 .7.6 1.1.8.3.2-1.1.9-.9 1.6 1.8 5.6.4 7.9 1.3-.2.7-1.4.2-1.6 1 1 1.3 2.9 0 4.3.8-1.6.6-3.6.1-5 .2-.5-.5.2-.5.3-.9-1.1-.6-1.9-.1-3.2-.3 0 1.8 1.9-.3 2.2 1.3-2.3-.2-5 .2-7.3-.4 1.2-.7 3.7 0 4.6-.4-1.5-.7-3.2-.9-5-.9v23c0 7.3-1.6 13.6-4.8 18.7-3.2 5.2-8.6 7.7-16.1 7.7-7.6 0-12.9-2.5-16-7.4-3.1-4.9-4.6-10.5-4.6-16.7v-22.4c-1 0-1.9-.1-2.8-.1-.3-.9.8-.1.7-.7-3.1-.4-7.4-.2-10.4-.1-.8.4.5.8-.3 1.1-3.4 0-6 .5-9.8-.1-.7.3-.2-1.2-.8-1.1-1.7.5-3.8 0-5.5.1-.2 1.3 1.4 0 1.3 1-1.3 0-2.9.2-3.5-.9 0 1-2 1.5-3 .9-.2-.8.8-.3 1.2-.5-.7-.9-1.7.2-2.7-.3.1.6.7.3.9.6-.8.8-1.7.1-1.8-.5-.7.1.2.7-.3.9-.1 0-.2 0-.4.1v21.2c0 19.2 4.6 34 13.9 44.1 9.2 10.2 23.9 15.3 44 15.3s34.8-5.3 44-16c9.2-10.6 13.9-26.4 13.9-47.2v-18.6c-.4.3-1.5 0-1.8-.1.5-.3 1-.1 1.8-.2v-1.4c-1.3.1-2.6 0-3.6-1zm-83.2 4.2c-.6.1-.9-.2-1.3-.4.2-.4 1.5-.4 1.3.4zm66.3-1.6c.3-1.1 1.6.1 2.5-.3-.7.6-1.6-.2-2.5.3zm13.1 0c.3-.7.8-.3 1.4-.3-.2.6-1.1.7-1.4.3zm-4-1c0 1.1 2-.4 1.8 1-1 .2-1.5-.2-2.3-.2-.3-.4.2-.6-.2-1.1-1.1-.4-2.2-.2-3-.4 3.6-.6 7.6.1 10.2-.9-.6 2.6-4.4 1.1-6.5 1.6z"/><path fill="#53A2F2" d="M214.6 164.4c-2.1 0-4.4-.5-5.9.4 2.2-.1 4.3.9 5.9-.4zm12.2-11.7c-.1-1-2-.3-3.2-.3.4 1.3 2.6.1 3.2.3zm-32.4-64.6c11.1.3 23.2.6 34.6.6V5.5h-37V88c.8 0 1.7 0 2.4.1zm85-.2c9.2.6 18.7.7 28.3.7V5.5h-37.1v82.2c3 0 5.9 0 8.8.2z"/><path fill="#F23D3D" d="M327.2 166.2c.4.3 1 .7 1.2 0-.1-.4-1.1-.8-1.2 0zm-19.3-2.1h-.2v.4c.2-.1.2-.2.2-.4zm-260-74.3c-5 .2-9.8.6-14.5.7-7.5.1-15.7-1.2-17.5 5.4 1.3 1.7.7 4.6.8 6.5-1.5 2.8-3.6 8.7-2.1 10.9.2.9-.1 1.4 0 2.1 0 1.8-2.3 4.9-.8 6.3.8 5.5-3.4 14.7-3.2 21.2.9 1.2-1.3 2.7-.8 4.8.5.7-.8 1.3-.4 2.1.6 2-1.5 4.7-.7 6.5.3.8-.9 1.1-.5 1.7.4.7-.7 2.1.2 2.2-.2.3 0 .9 0 1.5.5 1-.2.8.1 2-.3.5-.7.1-1.9 1.6 1.5 3.4-2.2 4.3-.1 4.5 5 .5 35.1-2.2 39.1-.4.9-.7 2.1-.9 3.4-.9V89.8c-.3 0-.7-.1-1.1 0zm325.8-.9V110h15.1c9.6 0 16.7-2.8 21.3-8.4 2.6-3.1 4.4-7.3 5.5-12.5h-.3c-13.7-1.8-27.5-.4-41.6-.2zM309 164.6c1.5.3 3.4.1 5.2.1-.7-1.1-3.8-.2-5.2-.1zm65.3-4.2c.6-.4 1.2-.6 1.8-.6 4.5-.4 9.6 0 14.8.2l-.8-2.2c-1.9-.1-3.8.4-5.8.5-3.5.2-7.1-.9-10.7-.6v2.5c.3 0 .5.1.7.2zm5.4-4.1c3.2-.8 6.6-.2 9.8-.2l-4-10.7h-11.9v10.5c2.2-.2 4.6-.1 6.1.4zm-45.6 2c-4 1-8.6-1.1-12 1 4.5.4 9.4.5 14.5.5v-1c-.9.1-1.7.1-2.5-.5zm-20.3-3.5c7.2.6 14.9.6 22.8.5V88.7c-6.3-.1-12.6-.2-18.8-.2-3.3 0-6.7.1-10 .1v66.2h6zm59.9 6.5v6.3c4.2.2 8.6.9 12.2.4 1.6-.2 3.2-1.3 4.3 0 1-.8 2.3-.6 3.6-.4l-2.3-6.2c-5.8 0-11.8-.1-17.8-.1zm-208.4-1.9c1.6.1 3.3 1.2 4.9 1.2 1.6-.1 3.1-.9 4.7-1.3 2.7 1.5 6.5-1.5 9 .7 1.2-1.2 2.3-.7 3.7-.7h4.2v-2.7c-1.4 0-2.8 0-4.1-.1-2.4-.1-5 1.3-6.8-.2.4-1.3 1.8-.6 2.6-.6 2.7-.2 5.5-.3 8.2-.4V88.1c-1.2 0-2.4.1-3.4.2-6.3.9-12.9.5-18.5.9-.7-.2-.5.7-1.2.6-1.2-.2-2.6-.4-4-.6v70.3c.4-.1.6-.1.7-.1zm.9-2.3c-.4.1-.7 0-.9-.1.1-.5 1.1-1 .9.1zm81.9-5.3c.8 0 2.2-1.1 2.7.5-7 .8-14 .6-21.7.4v2.2c2.4-.1 4.8-.1 7.1-.2.9.7 1.8.5 2.4 1.2-.5 1.3-2.8 1.1-3.4 0-1.3 1.1-5.3.2-6.1 1.6v.8c12.5 0 25 .1 36.3-.5-3.1-.7-6.4.3-9.2-1-.4-.7-.8-1.4-1.8-1.3-.8.9 1 .8.4 1.3-2.4-.7-4.3-2.7-6.8-.6-.2-2.1-2.2-.4-2.8-1.4 8.4-1 17-.7 25.4-.5V87.7c-6.1.1-12.2.5-18 .5-3.6 0-7.4-.8-10.8-.2-.9.2-1.5.8-2.3.8-1.5.1-3.1-.6-4.6-.7-1.5-.1-2.9.5-4.4.5h-1.4v63.7c6.2-.9 12.9-.2 19-.5zm-7.8 4.9c-.6 0-.5-.6-.4-1.1.3.1.7.6.4 1.1zm2.3.3c-.2-.7-.6-1.1-.5-2.2.3-.4 1.6-.4 2-.1.2.5 0 1 .3 1.8-.4.4-1 .6-1.8.5zm-54.6 4c-6.9-.2-13.8-.3-21.1.1-.7 0-1.4.1-2.1.1v5.1c1.5.1 2.7.4 3.7 1.2-.1-.7 0-1.4.8-1.6 2.6.1 5.4.8 7.7.7.3 0 .7-.4 1-.3.5.2.8.9 1.3 1 .8.1 1.4-.3 2.1-.2.4-.2 0-1.1.6-.9 3.2-.2 6.6.3 9.8-.4v-4.7c-1.2-.1-2.5-.1-3.8-.1zm79.5-2.6c.9.2 1.9.4 3.1.3v-.5c-.8-.5-2.3-.1-3.1.2zM124.4 89.2c-3.6-1-8.6.1-12.1-.5-8.2 1.3-17.5-.8-26.2.3v78.7c10 .1 20 .1 29.3-.3 2.6 1.2 6.2-.2 9.5 0 .9.1 1.9.1 2.7.2V88.8c-.8 0-1.5-.1-2.2-.2-.4 0-.4.6-1 .6zm-12.1 71.3c.1-.9 1.3-.6 1.3.3-.7.2-.9-.1-1.3-.3zm2 .1c.5-1 2.5-.5 3.2-.3-.4 1.2-2.1.5-3.2.3zm7.2.1c-.7.7-1.5-.2-2.2-.2.1-.9 2.8-.8 2.2.2zm5.6-1c0 .2 0 .4.1.7-.2.2-.5.3-.9.3-.2-.8.2-1 .8-1zm180.6 2v1c1.2-.1 2.4-.3 3.6-.2 2.1 0 4.3.2 6.1 1-.1.9-1.2.4-1.6.9 6.5.8 14.3.2 20.8.5v-3.6c-10 .1-19.7.2-28.9.4zm186.7-67.5c-.7-.3-.9-2.3-1.6-2.5-2.6-.3-5.2-1.3-8-1.1-.5 0-1 .3-1.5.3-3.8-.1-6.9-.5-10.7-.6-.6 0-1.1.3-1.7.3-1.8.1-5.1-.1-7.3-.3-1.8-.2-3.6-.4-5.3-.6-1.9-.2-3.9-.1-5.7-.1-1 8.7-2.8 16.5-5.6 23.3-4.2 10.4-15 20.6-22.5 24.6-1.4.7-2.9 1.5-4.6 2.2l6.3 16.4c2.3.1 4.6.2 6.8.5 6.9.7 14.8 1.6 23.1 1.9.5.2-.1-1 .4-.8 1.9 2.2 5.5.5 8.4 1.6.5-.4-.3-1.1.4-1.3 2.3-.1 5.1.6 6.8-.1-.8-2.2-4.9-.4-6-2.6 2.1-.2 3.7-.8 5.3-1.7-1.9-.6-4-1.1-6.1-1.6 3.4-.5 9.1.2 13 .2.6-.5-.9-1 .1-1.3 1.7-.6 3.7.6 5.1-.4-.7-2-3.2-1.8-4.6-2.6 2.6-.3 5.8.2 6.4-2.6.3-1.3-.8-1-.6-2.2 2-1.3 3.4-11.6 4.9-13.7 0-.7-.4-1-.3-1.7 1.1-1.5 1.7-3.7 1.8-6.4 2.3-1.5 1.3-5.4 2.1-9.1.1-.4.5-.8.6-1.2 1-3.9.8-14.2.6-16.8zm-30.1 61.2h-.9c-.3-.7 1.2-.7.9 0zm-201.1 6.1c-.8-.2-1.4-1.1-2.2-1.3-1.3-.3-2.7.2-4.1.2-9.1-.3-18.3-.4-26.8-.3h-1v5.1c3.9.1 8 .1 11.6-.2.4-.1-.7-.9.1-1.1 1.2-.3 2.2-.2 3.2.3-.2.4-1.1.1-1 .7 3.5.4 8.1.4 11.4-.3-1.7-.2-3.8.5-5-.7 2-.6 4.6.1 6-.7-.6-.9-2.7.2-3.3-.8 1.5-.1 4.8-.7 5.9.4-1 .1-1.9-.5-2.3.6 1.9.3 3.1.2 5.2 0 .5-.5-.7-.8.1-1.1 1.9.4 5.3-.6 5.6 1.3.5-.2 1.5.2 1.8-.3-.3-.4-1.2.1-1.1-.9 1.1-.2 2.2-.3 3.3-.3v-.7h-.1c-2.3-.3-4.8.6-7.3.1zm-33.8 2.9c.5-.7 1.7-.6 2.3-.1-.4.5-1.9.4-2.3.1zm6.4-.3c.6-.5 2-.4 2.7-.1-.5.6-2.4 1.2-2.7.1zm3.1.1c.2-.4.9-.8.9.2-.5 0-.7 0-.9-.2zm9.6 0c-.8.6-1.9-.2-3 .1.6-1 2.2-.7 3-.8.2.3 0 .3 0 .7zm-7.2-2c3.7 0 6.7-.4 9.5.2-3 0-7.1 1.4-9.5-.2z"/><path fill="#F23D3D" d="M262.9 163.6c.8.1 1.8.3 2.7-.3-.7 0-2.1-.5-2.7.3zm190-1.4c-2.7.2-6.6-.7-9.5.1-1.1-1-2.4-.6-3.7-.6-.7 0-1.9.3-2.5.1-.7-.1-1.3-.8-1.9-.9-2-.3-4.7-.3-7.2-.1l.6 1.6c1.2.1 2.4.2 3.5.4.5.1.9.6 1.4.7 3.5.4 8.7-1.2 10.1 1.8-3.4-.6-7.1.1-10.3-1.2-1 .8-1.9.2-2.9.1-.4 0-.8-.1-1.2-.1l2.7 7.2c2.3.4 4.6.7 6.6.7 7.7.1 16.6 3 23-.3-.5-.6-2.4.3-2.3-.9 1.3-1.3 4.7.4 6.1-.6-1-.8-3.7.1-4.4-1.5 1.6 0 2.8-1.1 4.1-.9-1.6-1.7-5.8-.5-7.6-2 .8-1.7 3-.4 4.5-.9-.6-2.6-4.5-1.7-6.5-2.8.6-1.5 1.4-.2 2.5-.1 1.4-.9 3.9-.3 5.8-.6-.8-1.8-3.1-1.3-4.6-1.5-2-.3-4.9-.8-7-.9-8.4-.5-17-1-25.6-1.7l1 2.7c8.6 1 17.9-.5 25.3 2.2z"/><g fill="#9B267A"><path d="M373.7 160.2v-2.5c-.3 0-.6 0-.9.1-3.3.5-6.9.9-10 .4-1.5.7-4.5.5-6.3.2-2.5-.4-5.4.5-7.2-.6-2.1 1.4-5.7.4-9.3.5-1.2 0-2.4.4-3.4.6v1c8.3 0 17-.3 24.9-.4 3.8.8 8.9-.1 12.2.7zm-37.1 1.1v3.6h1c.5.6-.8.9-.2 1.6.8.2 1.3-.3 2.5 0 .3-1.4-1.4-.3-1.3-1.6 7.2-.4 14.3-.1 21.9-.1 0 .6-.2 1.4.5 1.1.8 0-.3-1.4.9-1.1.5.5.5 1.6 1.6 1.3.7-.2-.7-.9 0-1.1 1 .2 2.5-.8 3 .2-.1.5-.8.1-.7.9.6.3 1.4.3 2.1.4.1.7-.3.7 0 1.1 1.8-.2 3.7-.2 5.6-.1v-6.3c-12.1 0-24.7 0-36.9.1zm87.9-23.8c7.5-4 18.3-14.1 22.5-24.6 2.8-6.8 4.6-14.5 5.6-23.3-1.4 0-2.7.1-3.9-.2-1.3-.2-2.6-.4-4-.5-9-.6-18.5.2-27.9-.1-.5 0-.8.1-1.2.2-1.1 5.2-3 9.4-5.5 12.5-4.6 5.6-11.7 8.4-21.3 8.4h-15.1v-21h-6c-2.1 0-4.1.3-6.2.3-8.2-.1-16.5-.3-24.8-.5v66.6c11.4-.1 23.2-.4 34.4.9.7-.2 1.7-.4 2.7-.4v-10.5h11.9l4 10.7c.5 0 1 0 1.5-.1 2.8-.2 5.9 0 8.4 1 .8-.7 1.9.1 3.1-.4.7 0 .8.6 1.2.9 7.2-.5 15 1.2 22.7 2.3.4.1.8.1 1.2.2l-1-2.7c-11.3-.9-22.5-2-32.7-3.4 5.8-1.2 11.4 1.6 17.2.3-.5-.5-1.6-.2-1.8-.9 1.9-.3 3.7-.1 4.8 1-.8-.3-2.2-.4-2.7.4 5 1.1 9.9 1.2 14.7 1.4l-6.3-16.4c1.6-.7 3.1-1.4 4.5-2.1zm-32.7 16.3c.1-.3 1.6-.5 1.4.2-.6.1-1 0-1.4-.2zm11.4-.9c.4-1 2.2-.2 2.7.1-.2.7-2.4.5-2.7-.1zm20.3 1.8c-.4.4-1.2.5-1.8.2.1-.8 1.4-.3 1.8-.2zm-2.3 5.4c-.9 1.7-2.7.8-4.5 1.2 3.6.9 7.8.8 11.9 1.1l-.6-1.6c-1.6.1-3.1.2-4.3.2-.9-.2-1.3-.9-2.5-.9z"/><path d="M400.5 160.2c.8.2.6-.7 1.3-.6 4 1.9 10 2.3 13.9 1.6-2.5-.9-5.3-1.7-8.4-2.1-2.7-.4-5.4.5-7.7-.4-.6-.2-.1 1-.9.6-2.4-.2-3.5-1.3-5.7-.7-.9-.5-1.9-.8-2.8-.8l.8 2.2c3.1.1 6.3.3 9.5.2zm-6.1 1.4h-2.8l2.3 6.2c.6.1 1.3.2 1.9.3 1.5.1 3.1-.2 4.5.3 1.5.5 1.9.3 3.4.1 1.6-.3 3.2.1 4.8-.4.5.2.3 1.3 1 1.3 1 .3 1.2-.4 2-.4 2.8.6 7.4 1.2 10 .6 1.1 1.1 2.4.6 3.7.7 2.2.3 4.6.7 6.9 1.1l-2.7-7.2c-10.7-.7-22.9-2.4-35-2.6zm10.4 5c.3-1 1.1 0 1.8-.2 0 .7-1.4.5-1.8.2zm-351.7 1.8c.5-.1 0 1.2.6.8 1.2.1.6-1.3 1.6-1.3 9.6-.5 20.2-.4 30.8-.4V88.9c-.2 0-.3 0-.5.1-5.4-.3-12.2-.8-17.5.5-4.6-.8-9.2.2-13.7.5-1.8.1-3.6-.2-5.4-.3v78.7c1.4 0 2.8.2 4.1 0zm101.6-7.7c-1.1.3-3.9 1.1-4.7 0 .9-.9 2-.3 3-.3 1.3 0 2.4-.6 3.7-.8 2-.3 4.3.4 5.6.4.8 0 1.7-.5 2.5-.7V89.2c-3.2-.5-6.7-.8-9.7-.8-2.6 0-5.4.9-7.9.8-.7 0-1.5-.6-2.3-.7-5.6-.5-11.6.6-17.3.3v78.6c2.4.2 4.6.3 6.7-.2.4.2.7.6 1.3.5 2.6-1.1 7.5.2 9-1.3 1-1 2.9-.1 3.5.8 1.8.3 4.2-1.4 6.1-.1 1.8-.7 4.1-1 6.5-1h3.9V161c-3.4.4-7.5.7-9.9-.3zm-23.4-.7c0 .2 0 .4.1.7-1.4 1.1-1.6-1.6-.1-.7zm1.1.5c.3-.7 2.1-.9 2.2.2-.9.2-1.7.3-2.2-.2zm7 .3c.8-1 2.5.1 3.1-1.2 1.8 1.2 5.3-.1 6.9 1.4-3.3-.1-6.9.3-10-.2zm160.9 3.5c.3.4 1.3.2 1.4-.3-.6 0-1.2-.4-1.4.3zm-71.2-6v-.8.1c-.5.1-.4-.7-.6-1.1-6.3.5-12.8-.2-20.3.1-1.2.1-2.6.4-3.7.5-2.3 0-4.6-1-6.7-.7-1.5.2-3.6.3-5.8.3v2.7c1.2 0 2.3 0 3.1-.1 10.7-1 22.3-1 34-1zm75 3.4c1 .9 2.3 1.1 3.6 1v-1h-3.6zm-8.5 1.4c.4.4-.1.7.2 1.1.9-.1 1.4.3 2.3.2.2-1.4-1.8.1-1.8-1 2.1-.5 5.9 1 6.4-1.5-2.5 1-6.6.3-10.2.9.9.2 2 0 3.1.3zm-8.4 1.2c.9-.5 1.7.3 2.5-.3-.9.3-2.1-.9-2.5.3zm-58.1-9.4v-2.2c-.6 0-1.2 0-1.8-.1l1.8-.3V88.7c-11.4 0-23.5-.2-34.6-.6H192v67.3c12.3-.5 25.2-.3 37.1-.5zm-2.3-2.2c-.6-.1-2.7 1-3.2-.3 1.2-.1 3.1-.7 3.2.3zm59.7 1.4c2.1.2 13.4.5 21.2.6V88.6c-9.6 0-19.1-.1-28.3-.7-2.9-.2-5.8-.2-8.8-.1v66.6c5.4 0 10.8.1 15.9-.3zm18.8-1.5c-1.1 1-2.9-.3-4.3.3.6-1.4 3.1-.1 4.3-.3zm-18.1.1c-.7.1-1 .4-1.4-.2.1-.5 1.5-.8 1.4.2zM275.6 163c-.9.4-3.5-.3-4.6.4 2.3.6 5.1.2 7.3.4-.3-1.6-2.2.5-2.2-1.3 1.3.2 2.1-.3 3.2.3-.1.4-.8.4-.3.9 1.4-.1 3.4.5 5-.2-1.4-.8-3.3.5-4.3-.8.2-.7 1.4-.2 1.6-1-2.3-.9-6.3.5-7.9-1.3-.7-.1-.1 1.2-.9.9-.5-.4 0-.8-.6-1.1-.9-.3-.5 1.1-1.3 1v.7c1.8.2 3.5.5 5 1.1zm-4.5-4.3c-.1-.2-.3-.4-.5-.5v.5h.5zm-51.5 6.8c.4.1.7.4 1.3.4.2-.8-1.1-.8-1.3-.4zm88.1-1v-.4c-.8.1-1.3 0-1.8.2.3.3 1.4.5 1.8.2z"/><path d="M192.6 164.7c.1.6 1 1.3 1.8.5-.2-.3-.9 0-.9-.6 1 .4 2-.7 2.7.3-.4.2-1.4-.3-1.2.5 1 .6 2.9.1 3-.9.6 1.1 2.1.9 3.5.9 0-1-1.5.2-1.3-1 1.7-.2 3.9.4 5.5-.1.6-.2.1 1.3.8 1.1 3.8.6 6.5.1 9.8.1.8-.4-.5-.8.3-1.1 3-.1 7.3-.4 10.4.1.1.6-1-.2-.7.7.9.1 1.9.1 2.8.1v-5.1c-12.3.2-25.3 1-37.1.9v4.7c.1 0 .2 0 .4-.1.4-.3-.5-.9.2-1zm22-.3c-1.6 1.3-3.7.3-5.9.4 1.5-.9 3.8-.3 5.9-.4z"/></g><path d="M51.8 133.4v9.9c0 .8-.7 1.5-1.5 1.5h-6.8c-.8 0-1.5-.7-1.5-1.5V107c0-.8.7-1.5 1.5-1.5h15.7c9.7 0 16.2 5.3 16.2 13.8 0 5.5-2.8 9.8-7.5 12.2l8.3 10.9c.7 1 0 2.3-1.2 2.3h-8c-.5 0-.9-.2-1.2-.6l-8-10.8h-6zm7.2-8.7c3.8 0 6.8-2.1 6.8-5.3 0-3.2-3-5.2-6.8-5.2h-7.2v10.5H59zm36.8-3.5h15.9c.8 0 1.5.7 1.5 1.5v5.4c0 .8-.7 1.5-1.5 1.5H95.8v6.8h18.5c.8 0 1.5.7 1.5 1.5v5.6c0 .8-.7 1.5-1.5 1.5H87.5c-.8 0-1.5-.7-1.5-1.5V107c0-.8.7-1.5 1.5-1.5h26.8c.8 0 1.5.7 1.5 1.5v5.6c0 .8-.7 1.5-1.5 1.5H95.8v7.1zm52 23.9h-7.9c-.6 0-1.1-.3-1.3-.9l-15.8-36.6c-.4-1 .3-2 1.3-2h7.6c.6 0 1.1.4 1.3.9l10.8 25.7 10.8-25.7c.2-.5.8-.9 1.3-.9h7.6c1 0 1.8 1.1 1.3 2L149 144.2c-.1.5-.6.9-1.2.9zm63.7-19.9c0 11.4-9 20.4-20.8 20.4s-20.8-9-20.8-20.4 9-20.4 20.8-20.4c11.9 0 20.8 9 20.8 20.4zm-9.9 0c0-6.2-4.6-11.4-10.9-11.4s-10.9 5.2-10.9 11.4 4.6 11.4 10.9 11.4 10.9-5.2 10.9-11.4zm47.9 19.6h-26.2c-.8 0-1.5-.7-1.5-1.5V107c0-.8.7-1.5 1.5-1.5h6.8c.8 0 1.5.7 1.5 1.5v29.2h17.9c.8 0 1.5.7 1.5 1.5v5.7c0 .8-.7 1.4-1.5 1.4zm45.2-18.3c0 12.2-7 19.2-18.3 19.2-11.2 0-18.2-7-18.2-19.2V107c0-.8.7-1.5 1.5-1.5h6.9c.8 0 1.5.7 1.5 1.5v19.7c0 6 3.3 9.9 8.4 9.9 5.1 0 8.5-3.9 8.5-9.9V107c0-.8.7-1.5 1.5-1.5h6.9c.8 0 1.5.7 1.5 1.5v19.5zm30.3-12.2v29.1c0 .8-.7 1.5-1.5 1.5h-6.8c-.8 0-1.5-.7-1.5-1.5v-29.1h-11.1c-.8 0-1.5-.7-1.5-1.5V107c0-.8.7-1.5 1.5-1.5H336c.8 0 1.5.7 1.5 1.5v5.8c0 .8-.7 1.5-1.5 1.5h-11zm29.4 30.5h-6.8c-.8 0-1.5-.7-1.5-1.5V107c0-.8.7-1.5 1.5-1.5h6.8c.8 0 1.5.7 1.5 1.5v36.3c0 .9-.6 1.5-1.5 1.5zm53.4-19.6c0 11.4-9 20.4-20.8 20.4s-20.8-9-20.8-20.4 9-20.4 20.8-20.4c11.9 0 20.8 9 20.8 20.4zm-9.9 0c0-6.2-4.6-11.4-10.9-11.4-6.4 0-10.9 5.2-10.9 11.4s4.6 11.4 10.9 11.4c6.3 0 10.9-5.2 10.9-11.4zm56.3 19.6h-5.4c-.4 0-.8-.2-1.1-.5l-18.4-21v20.1c0 .8-.7 1.5-1.5 1.5H421c-.8 0-1.5-.7-1.5-1.5V107c0-.8.7-1.5 1.5-1.5h5.3c.4 0 .8.2 1.1.5l18.5 21.6V107c0-.8.7-1.5 1.5-1.5h6.8c.8 0 1.5.7 1.5 1.5v36.3c-.1.9-.7 1.5-1.5 1.5z" fill="#FFF"/></svg>