<svg xmlns="http://www.w3.org/2000/svg" viewBox="0 0 565.65 565.65"><defs><style>.cls-1{fill:none}.cls-2{isolation:isolate}.cls-3{clip-path:url(#clip-path)}.cls-4{fill:#fff}.cls-5{fill:#797979}.cls-10,.cls-5,.cls-6,.cls-7,.cls-8{mix-blend-mode:multiply}.cls-6{fill:#9c9c9c}.cls-7{fill:#d0d0d0}.cls-15,.cls-9{fill:#218fff}.cls-10{fill:#7a7a7a}.cls-11{clip-path:url(#clip-path-2)}.cls-12{clip-path:url(#clip-path-3)}.cls-13{clip-path:url(#clip-path-4)}.cls-14{clip-path:url(#clip-path-5)}.cls-15{opacity:.8}</style><clipPath id="clip-path"><path class="cls-1" d="M0 0h565.65v565.65H0z"/></clipPath><clipPath id="clip-path-2"><path class="cls-1" d="M0-565.65h565.65V0H0z"/></clipPath><clipPath id="clip-path-3"><path class="cls-1" d="M565.65 0h565.65v565.65H565.65z"/></clipPath><clipPath id="clip-path-4"><path class="cls-1" d="M-565.65 0H0v565.65h-565.65z"/></clipPath><clipPath id="clip-path-5"><path class="cls-1" d="M0 565.65h565.65v565.65H0z"/></clipPath></defs><title>or-plaid</title><g class="cls-2"><g id="Layer_1" data-name="Layer 1"><g class="cls-3"><path class="cls-4" transform="rotate(-45 -70.717 -.018)" d="M-270.71-200.02h400v400h-400z"/><path class="cls-5" transform="rotate(-45 -34.653 -36.076)" d="M-84.65-236.08h100v400h-100z"/><path class="cls-6" transform="rotate(-135 -176.775 -106.086)" d="M-226.78-306.08h100v400h-100z"/><path class="cls-7" transform="rotate(-135 -35.355 35.334)" d="M-85.36-164.66h100v400h-100z"/><g class="cls-8"><path class="cls-9" transform="rotate(-45 -70.717 -.018)" d="M-270.71-200.02h400v400h-400z"/></g><path class="cls-4" transform="rotate(-45 -70.712 565.67)" d="M-270.71 365.67h400v400h-400z"/><path class="cls-10" transform="rotate(-45 -176.77 671.73)" d="M-226.78 471.73h100v400h-100z"/><path class="cls-5" transform="rotate(-45 -34.648 529.612)" d="M-84.65 329.6h100v400h-100z"/><path class="cls-6" transform="rotate(-135 -176.774 459.601)" d="M-226.78 259.6h100v400h-100z"/><path class="cls-7" transform="rotate(-135 -35.354 601.022)" d="M-85.36 401.02h100v400h-100z"/><g class="cls-8"><path class="cls-9" transform="rotate(-45 -70.712 565.67)" d="M-270.71 365.67h400v400h-400z"/></g><path class="cls-4" transform="rotate(-45 212.133 282.832)" d="M12.13 82.82h400v400h-400z"/><path class="cls-10" transform="rotate(-45 106.062 388.887)" d="M56.07 188.89h100v400h-100z"/><path class="cls-5" transform="rotate(-45 248.19 246.756)" d="M198.19 46.76h100v400h-100z"/><path class="cls-6" transform="rotate(-135 106.067 176.76)" d="M56.07-23.24h100v400h-100z"/><path class="cls-7" transform="rotate(-135 247.488 318.181)" d="M197.49 118.18h100v400h-100z"/><g class="cls-8"><path class="cls-9" transform="rotate(-45 212.133 282.832)" d="M12.13 82.82h400v400h-400z"/></g><path class="cls-4" transform="rotate(-45 494.97 -.023)" d="M294.97-200.02h400v400h-400z"/><path class="cls-10" transform="rotate(-45 388.907 106.05)" d="M338.91-93.95h100v400h-100z"/><path class="cls-5" transform="rotate(-45 531.034 -36.082)" d="M481.04-236.08h100v400h-100z"/><path class="cls-6" transform="rotate(-135 388.907 -106.085)" d="M338.91-306.08h100v400h-100z"/><path class="cls-7" transform="rotate(-135 530.328 35.336)" d="M480.33-164.66h100v400h-100z"/><g class="cls-8"><path class="cls-9" transform="rotate(-45 494.97 -.023)" d="M294.97-200.02h400v400h-400z"/></g><path class="cls-4" transform="rotate(-45 494.976 565.664)" d="M294.97 365.67h400v400h-400z"/><path class="cls-10" transform="rotate(-45 388.913 671.737)" d="M338.91 471.73h100v400h-100z"/><path class="cls-5" transform="rotate(-45 531.04 529.606)" d="M481.04 329.6h100v400h-100z"/><path class="cls-6" transform="rotate(-135 388.908 459.602)" d="M338.91 259.6h100v400h-100z"/><path class="cls-7" transform="rotate(-135 530.329 601.023)" d="M480.33 401.02h100v400h-100z"/><g class="cls-8"><path class="cls-9" transform="rotate(-45 494.976 565.664)" d="M294.97 365.67h400v400h-400z"/></g><path class="cls-4" transform="rotate(-45 777.82 282.826)" d="M577.82 82.82h400v400h-400z"/><path class="cls-10" transform="rotate(-45 671.745 388.894)" d="M621.75 188.89h100v400h-100z"/><path class="cls-6" transform="rotate(-135 671.75 176.762)" d="M621.75-23.24h100v400h-100z"/><g class="cls-8"><path class="cls-9" transform="rotate(-45 777.82 282.826)" d="M577.82 82.82h400v400h-400z"/></g></g><g class="cls-11"><path class="cls-4" transform="rotate(-45 -70.703 .016)" d="M-270.71-199.98h400v400h-400z"/><path class="cls-10" transform="rotate(-45 -176.779 106.084)" d="M-226.78-93.92h100v400h-100z"/><path class="cls-5" transform="rotate(-45 -34.651 -36.047)" d="M-84.65-236.04h100v400h-100z"/><path class="cls-6" transform="rotate(-135 -176.776 -106.045)" d="M-226.78-306.05h100v400h-100z"/><path class="cls-7" transform="rotate(-135 -35.355 35.376)" d="M-85.36-164.63h100v400h-100z"/><g class="cls-8"><path class="cls-9" transform="rotate(-45 -70.703 .016)" d="M-270.71-199.98h400v400h-400z"/></g><path class="cls-4" transform="rotate(-45 212.13 -282.827)" d="M12.13-482.82h400v400h-400z"/><path class="cls-10" transform="rotate(-45 106.066 -176.754)" d="M56.07-376.76h100v400h-100z"/><g class="cls-8"><path class="cls-9" transform="rotate(-45 212.13 -282.827)" d="M12.13-482.82h400v400h-400z"/></g><path class="cls-4" transform="rotate(-45 -70.71 565.699)" d="M-270.71 365.7h400v400h-400z"/><path class="cls-10" transform="rotate(-45 -176.773 671.772)" d="M-226.78 471.77h100v400h-100z"/><path class="cls-5" transform="rotate(-45 -34.646 529.64)" d="M-84.65 329.64h100v400h-100z"/><path class="cls-6" transform="rotate(-135 -176.777 459.637)" d="M-226.78 259.64h100v400h-100z"/><path class="cls-7" transform="rotate(-135 -35.357 601.058)" d="M-85.36 401.06h100v400h-100z"/><g class="cls-8"><path class="cls-9" transform="rotate(-45 -70.71 565.699)" d="M-270.71 365.7h400v400h-400z"/></g><path class="cls-4" transform="rotate(-45 212.135 282.86)" d="M12.13 82.86h400v400h-400z"/><path class="cls-10" transform="rotate(-45 106.06 388.929)" d="M56.07 188.93h100v400h-100z"/><path class="cls-5" transform="rotate(-45 248.199 246.803)" d="M198.19 46.8h100v400h-100z"/><path class="cls-6" transform="rotate(-135 106.065 176.797)" d="M56.07-23.21h100v400h-100z"/><path class="cls-7" transform="rotate(-135 247.485 318.218)" d="M197.49 118.22h100v400h-100z"/><g class="cls-8"><path class="cls-9" transform="rotate(-45 212.135 282.86)" d="M12.13 82.86h400v400h-400z"/></g><path class="cls-4" transform="rotate(-45 494.98 .023)" d="M294.97-199.98h400v400h-400z"/><path class="cls-10" transform="rotate(-45 388.91 106.079)" d="M338.91-93.92h100v400h-100z"/><path class="cls-5" transform="rotate(-45 531.032 -36.04)" d="M481.04-236.04h100v400h-100z"/><path class="cls-6" transform="rotate(-135 388.912 -106.046)" d="M338.91-306.05h100v400h-100z"/><path class="cls-7" transform="rotate(-135 530.332 35.375)" d="M480.33-164.63h100v400h-100z"/><g class="cls-8"><path class="cls-9" transform="rotate(-45 494.98 .023)" d="M294.97-199.98h400v400h-400z"/></g><path class="cls-4" transform="rotate(-45 777.812 -282.82)" d="M577.82-482.82h400v400h-400z"/><path class="cls-10" transform="rotate(-45 671.754 -176.76)" d="M621.75-376.76h100v400h-100z"/><g class="cls-8"><path class="cls-9" transform="rotate(-45 777.812 -282.82)" d="M577.82-482.82h400v400h-400z"/></g><path class="cls-4" transform="rotate(-45 494.973 565.706)" d="M294.97 365.7h400v400h-400z"/><path class="cls-10" transform="rotate(-45 388.915 671.766)" d="M338.91 471.77h100v400h-100z"/><path class="cls-5" transform="rotate(-45 531.037 529.647)" d="M481.04 329.64h100v400h-100z"/><path class="cls-6" transform="rotate(-135 388.91 459.637)" d="M338.91 259.64h100v400h-100z"/><path class="cls-7" transform="rotate(-135 530.331 601.057)" d="M480.33 401.06h100v400h-100z"/><g class="cls-8"><path class="cls-9" transform="rotate(-45 494.973 565.706)" d="M294.97 365.7h400v400h-400z"/></g><path class="cls-4" transform="rotate(-45 777.818 282.867)" d="M577.82 82.86h400v400h-400z"/><path class="cls-10" transform="rotate(-45 671.747 388.923)" d="M621.75 188.93h100v400h-100z"/><path class="cls-6" transform="rotate(-135 671.753 176.796)" d="M621.75-23.21h100v400h-100z"/><g class="cls-8"><path class="cls-9" transform="rotate(-45 777.818 282.867)" d="M577.82 82.86h400v400h-400z"/></g></g><g class="cls-12"><path class="cls-4" transform="rotate(-45 -70.747 -.016)" d="M-270.75-200.02h400v400h-400z"/><path class="cls-5" transform="rotate(-45 -34.682 -36.074)" d="M-84.68-236.08h100v400h-100z"/><path class="cls-7" transform="rotate(-135 -35.39 35.337)" d="M-85.39-164.66h100v400h-100z"/><g class="cls-8"><path class="cls-9" transform="rotate(-45 -70.747 -.016)" d="M-270.75-200.02h400v400h-400z"/></g><path class="cls-4" transform="rotate(-45 -70.753 565.667)" d="M-270.75 365.67h400v400h-400z"/><path class="cls-5" transform="rotate(-45 -34.689 529.609)" d="M-84.68 329.6h100v400h-100z"/><path class="cls-7" transform="rotate(-135 -35.39 601.02)" d="M-85.39 401.02h100v400h-100z"/><g class="cls-8"><path class="cls-9" transform="rotate(-45 -70.753 565.667)" d="M-270.75 365.67h400v400h-400z"/></g><path class="cls-4" transform="rotate(-45 212.092 282.829)" d="M12.1 82.82h400v400h-400z"/><path class="cls-10" transform="rotate(-45 106.033 388.89)" d="M56.03 188.89h100v400h-100z"/><path class="cls-5" transform="rotate(-45 248.16 246.758)" d="M198.16 46.76h100v400h-100z"/><path class="cls-6" transform="rotate(-135 106.031 176.758)" d="M56.03-23.24h100v400h-100z"/><path class="cls-7" transform="rotate(-135 247.452 318.179)" d="M197.45 118.18h100v400h-100z"/><g class="cls-8"><path class="cls-9" transform="rotate(-45 212.092 282.829)" d="M12.1 82.82h400v400h-400z"/></g><path class="cls-4" transform="rotate(-45 494.941 -.021)" d="M294.94-200.02h400v400h-400z"/><path class="cls-10" transform="rotate(-45 388.866 106.046)" d="M338.87-93.95h100v400h-100z"/><path class="cls-5" transform="rotate(-45 531.005 -36.08)" d="M481-236.08h100v400H481z"/><path class="cls-6" transform="rotate(-135 388.873 -106.083)" d="M338.87-306.08h100v400h-100z"/><path class="cls-7" transform="rotate(-135 530.294 35.338)" d="M480.29-164.66h100v400h-100z"/><g class="cls-8"><path class="cls-9" transform="rotate(-45 494.941 -.021)" d="M294.94-200.02h400v400h-400z"/></g><path class="cls-4" transform="rotate(-45 494.935 565.661)" d="M294.94 365.67h400v400h-400z"/><path class="cls-10" transform="rotate(-45 388.871 671.734)" d="M338.87 471.73h100v400h-100z"/><path class="cls-5" transform="rotate(-45 530.999 529.603)" d="M481 329.6h100v400H481z"/><path class="cls-6" transform="rotate(-135 388.872 459.6)" d="M338.87 259.6h100v400h-100z"/><path class="cls-7" transform="rotate(-135 530.292 601.02)" d="M480.29 401.02h100v400h-100z"/><g class="cls-8"><path class="cls-9" transform="rotate(-45 494.935 565.661)" d="M294.94 365.67h400v400h-400z"/></g><path class="cls-4" transform="rotate(-45 777.78 282.823)" d="M577.78 82.82h400v400h-400z"/><path class="cls-10" transform="rotate(-45 671.716 388.896)" d="M621.72 188.89h100v400h-100z"/><path class="cls-6" transform="rotate(-135 671.714 176.759)" d="M621.72-23.24h100v400h-100z"/><g class="cls-8"><path class="cls-9" transform="rotate(-45 777.78 282.823)" d="M577.78 82.82h400v400h-400z"/></g></g><g class="cls-13"><path class="cls-4" transform="rotate(-45 -70.676 -.015)" d="M-270.67-200.02h400v400h-400z"/><path class="cls-10" transform="rotate(-45 -176.734 106.046)" d="M-226.74-93.95h100v400h-100z"/><path class="cls-5" transform="rotate(-45 -34.607 -36.085)" d="M-84.61-236.08h100v400h-100z"/><path class="cls-6" transform="rotate(-135 -176.74 -106.084)" d="M-226.74-306.08h100v400h-100z"/><path class="cls-7" transform="rotate(-135 -35.319 35.337)" d="M-85.32-164.66h100v400h-100z"/><g class="cls-8"><path class="cls-9" transform="rotate(-45 -70.676 -.015)" d="M-270.67-200.02h400v400h-400z"/></g><path class="cls-4" transform="rotate(-45 -70.67 565.673)" d="M-270.67 365.67h400v400h-400z"/><path class="cls-10" transform="rotate(-45 -176.74 671.728)" d="M-226.74 471.73h100v400h-100z"/><path class="cls-5" transform="rotate(-45 -34.614 529.597)" d="M-84.61 329.6h100v400h-100z"/><path class="cls-6" transform="rotate(-135 -176.74 459.599)" d="M-226.74 259.6h100v400h-100z"/><path class="cls-7" transform="rotate(-135 -35.318 601.025)" d="M-85.32 401.02h100v400h-100z"/><g class="cls-8"><path class="cls-9" transform="rotate(-45 -70.67 565.673)" d="M-270.67 365.67h400v400h-400z"/></g><path class="cls-4" transform="rotate(-45 212.167 282.818)" d="M12.17 82.82h400v400h-400z"/><path class="cls-10" transform="rotate(-45 106.104 388.89)" d="M56.1 188.89h100v400h-100z"/><path class="cls-5" transform="rotate(-45 248.231 246.76)" d="M198.23 46.76h100v400h-100z"/><path class="cls-6" transform="rotate(-135 106.102 176.758)" d="M56.1-23.24h100v400h-100z"/><path class="cls-7" transform="rotate(-135 247.522 318.179)" d="M197.52 118.18h100v400h-100z"/><g class="cls-8"><path class="cls-9" transform="rotate(-45 212.167 282.818)" d="M12.17 82.82h400v400h-400z"/></g><path class="cls-4" transform="rotate(-45 495.012 -.02)" d="M295.01-200.02h400v400h-400z"/><path class="cls-10" transform="rotate(-45 388.948 106.052)" d="M338.95-93.95h100v400h-100z"/><path class="cls-5" transform="rotate(-45 531.076 -36.079)" d="M481.07-236.08h100v400h-100z"/><path class="cls-6" transform="rotate(-135 388.944 -106.083)" d="M338.95-306.08h100v400h-100z"/><path class="cls-7" transform="rotate(-135 530.369 35.336)" d="M480.37-164.66h100v400h-100z"/><g class="cls-8"><path class="cls-9" transform="rotate(-45 495.012 -.02)" d="M295.01-200.02h400v400h-400z"/></g><path class="cls-4" transform="rotate(-45 495.017 565.667)" d="M295.01 365.67h400v400h-400z"/><path class="cls-10" transform="rotate(-45 388.942 671.735)" d="M338.95 471.73h100v400h-100z"/><path class="cls-5" transform="rotate(-45 531.07 529.604)" d="M481.07 329.6h100v400h-100z"/><path class="cls-6" transform="rotate(-135 388.942 459.6)" d="M338.95 259.6h100v400h-100z"/><path class="cls-7" transform="rotate(-135 530.37 601.024)" d="M480.37 401.02h100v400h-100z"/><g class="cls-8"><path class="cls-9" transform="rotate(-45 495.017 565.667)" d="M295.01 365.67h400v400h-400z"/></g><path class="cls-4" transform="rotate(-45 777.85 282.824)" d="M577.85 82.82h400v400h-400z"/><path class="cls-10" transform="rotate(-45 671.786 388.897)" d="M621.79 188.89h100v400h-100z"/><path class="cls-6" transform="rotate(-135 671.79 176.757)" d="M621.79-23.24h100v400h-100z"/><g class="cls-8"><path class="cls-9" transform="rotate(-45 777.85 282.824)" d="M577.85 82.82h400v400h-400z"/></g></g><g class="cls-14"><path class="cls-4" transform="rotate(-45 -70.714 -.06)" d="M-270.71-200.05h400v400h-400z"/><path class="cls-5" transform="rotate(-45 -34.65 -36.117)" d="M-84.65-236.12h100v400h-100z"/><path class="cls-6" transform="rotate(-135 -176.778 -106.12)" d="M-226.78-306.12h100v400h-100z"/><path class="cls-7" transform="rotate(-135 -35.357 35.3)" d="M-85.36-164.7h100v400h-100z"/><g class="cls-8"><path class="cls-9" transform="rotate(-45 -70.714 -.06)" d="M-270.71-200.05h400v400h-400z"/></g><path class="cls-4" transform="rotate(-45 -70.709 565.629)" d="M-270.71 365.63h400v400h-400z"/><path class="cls-5" transform="rotate(-45 -34.645 529.57)" d="M-84.65 329.57h100v400h-100z"/><path class="cls-6" transform="rotate(-135 -176.777 459.567)" d="M-226.78 259.56h100v400h-100z"/><path class="cls-7" transform="rotate(-135 -35.356 600.988)" d="M-85.36 400.99h100v400h-100z"/><g class="cls-8"><path class="cls-9" transform="rotate(-45 -70.709 565.629)" d="M-270.71 365.63h400v400h-400z"/></g><path class="cls-4" transform="rotate(-45 212.136 282.79)" d="M12.13 82.79h400v400h-400z"/><path class="cls-10" transform="rotate(-45 106.06 388.858)" d="M56.07 188.85h100v400h-100z"/><path class="cls-5" transform="rotate(-45 248.188 246.727)" d="M198.19 46.73h100v400h-100z"/><path class="cls-6" transform="rotate(-135 106.063 176.721)" d="M56.07-23.28h100v400h-100z"/><path class="cls-7" transform="rotate(-135 247.488 318.14)" d="M197.49 118.14h100v400h-100z"/><g class="cls-8"><path class="cls-9" transform="rotate(-45 212.136 282.79)" d="M12.13 82.79h400v400h-400z"/></g><path class="cls-4" transform="rotate(-45 494.968 -.053)" d="M294.97-200.05h400v400h-400z"/><path class="cls-10" transform="rotate(-45 388.91 106.008)" d="M338.91-93.99h100v400h-100z"/><path class="cls-5" transform="rotate(-45 531.037 -36.123)" d="M481.04-236.12h100v400h-100z"/><path class="cls-6" transform="rotate(-135 388.91 -106.122)" d="M338.91-306.12h100v400h-100z"/><path class="cls-7" transform="rotate(-135 530.33 35.3)" d="M480.33-164.7h100v400h-100z"/><g class="cls-8"><path class="cls-9" transform="rotate(-45 494.968 -.053)" d="M294.97-200.05h400v400h-400z"/></g><path class="cls-4" transform="rotate(-45 212.13 848.473)" d="M12.13 648.47h400v400h-400z"/><path class="cls-6" transform="rotate(-135 106.064 742.409)" d="M56.07 542.41h100v400h-100z"/><g class="cls-8"><path class="cls-9" transform="rotate(-45 212.13 848.473)" d="M12.13 648.47h400v400h-400z"/></g><path class="cls-4" transform="rotate(-45 494.974 565.635)" d="M294.97 365.63h400v400h-400z"/><path class="cls-10" transform="rotate(-45 388.916 671.696)" d="M338.91 471.7h100v400h-100z"/><path class="cls-5" transform="rotate(-45 531.043 529.565)" d="M481.04 329.57h100v400h-100z"/><path class="cls-6" transform="rotate(-135 388.91 459.566)" d="M338.91 259.56h100v400h-100z"/><path class="cls-7" transform="rotate(-135 530.331 600.987)" d="M480.33 400.99h100v400h-100z"/><g class="cls-8"><path class="cls-9" transform="rotate(-45 494.974 565.635)" d="M294.97 365.63h400v400h-400z"/></g><path class="cls-4" transform="rotate(-45 777.823 282.785)" d="M577.82 82.79h400v400h-400z"/><path class="cls-10" transform="rotate(-45 671.748 388.853)" d="M621.75 188.85h100v400h-100z"/><path class="cls-6" transform="rotate(-135 671.75 176.72)" d="M621.75-23.28h100v400h-100z"/><g class="cls-8"><path class="cls-9" transform="rotate(-45 777.823 282.785)" d="M577.82 82.79h400v400h-400z"/></g><path class="cls-4" transform="rotate(-45 777.817 848.468)" d="M577.82 648.47h400v400h-400z"/><path class="cls-6" transform="rotate(-135 671.752 742.408)" d="M621.75 542.41h100v400h-100z"/><g class="cls-8"><path class="cls-9" transform="rotate(-45 777.817 848.468)" d="M577.82 648.47h400v400h-400z"/></g></g><path class="cls-15" d="M-565.65-565.65H1131.3V1131.3H-565.65z"/></g></g></svg>