<svg xmlns="http://www.w3.org/2000/svg" viewBox="0 0 137.32 118.67"><defs><style>.cls-1{fill:#ff3939}.cls-2{fill:#0c56a0}.cls-3{fill:#0098ff}</style></defs><title>icon-full-color</title><g id="Layer_2" data-name="Layer 2"><g id="Layer_1-2" data-name="Layer 1"><path class="cls-1" d="M81.29 47.05C66.5 24.14 30.71 38.85 5.51 0c-.88 23.17 6.25 44 34.1 58.08C30 57.1 16.39 50 10.38 42.5a3 3 0 0 0-.3 1c1.43 21.72 22.78 29.77 34 33.48a68.41 68.41 0 0 1-14.29 4.22s34 14.2 56.31-22.46L81.3 47z"/><path class="cls-2" d="M124.63 23.15c-18.44-7.67-31.74 4.6-38.81 15.43A52.7 52.7 0 0 0 81.3 47l4.8 11.72c.3-.49.6-1 .89-1.49s.48-.81.72-1.22c18.65-31.78 28.23-31.26 34.46-31.75a24.73 24.73 0 0 1 6 .5 25.42 25.42 0 0 0-3.54-1.61z"/><path class="cls-3" d="M105.23 91.12a1.55 1.55 0 0 1 .23-.31l.23-.33c.15-.23.31-.45.46-.67.31-.46.62-.92.91-1.38.61-1 1.2-1.91 1.76-2.89s1.14-2 1.67-3.07 1.08-2.17 1.58-3.27 1-2.3 1.48-3.47.94-2.43 1.38-3.66.87-2.57 1.27-3.87a36 36 0 0 0 1.33-5.2c.29-2 .52-3.94.63-5.93a38.56 38.56 0 0 1 2.18-11.69 33.18 33.18 0 0 1 2.17-4.64c.42-.74.86-1.47 1.34-2.17.24-.36.48-.7.73-1s.46-.82.74-1l-.46.26.46-.26a33.3 33.3 0 0 1 12-9.54c-5.33-1.1-15.17-2.12-21.27 2.14-.37.26-.74.5-1.09.78-5 4-8.48 11.07-12.44 19.43l.14-.08-.14.08c-2.33 4.92-4.83 10.27-7.93 15.67-9.38 16.35-24.23 33.22-56.22 40.1C27.65 107.45 15 108.64 0 108.3a54.5 54.5 0 0 0 8.38 3.19 162 162 0 0 0 34.86 7.17c1.62.14-1.59-6.75 0-6.46 22.36 3.87 46.32.63 62-21.08"/></g></g></svg>