<?xml version="1.0" encoding="iso-8859-1"?>
<!-- Generator: Adobe Illustrator 18.0.0, SVG Export Plug-In . SVG Version: 6.00 Build 0)  -->
<!DOCTYPE svg PUBLIC "-//W3C//DTD SVG 1.1//EN" "http://www.w3.org/Graphics/SVG/1.1/DTD/svg11.dtd">
<svg version="1.1" id="Capa_1" xmlns="http://www.w3.org/2000/svg" xmlns:xlink="http://www.w3.org/1999/xlink" x="0px" y="0px"
	 viewBox="0 0 456.457 456.457" style="enable-background:new 0 0 456.457 456.457;" xml:space="preserve">
<g>
	<path d="M430.913,54.424c-2.734-8.656-9.177-15.456-17.674-18.656L324.96,2.52c-14.442-5.44-30.832-1.902-41.747,9.012
		l-1.235,1.235c-35.275-8.692-72.224-8.691-107.499,0l-1.235-1.235C162.328,0.616,145.942-2.922,131.496,2.52L43.218,35.768
		c-8.497,3.2-14.938,9.999-17.675,18.655c-2.733,8.651-1.37,17.912,3.741,25.409c22.414,32.869,37.352,57.886,42.061,70.443
		c1.007,2.684,3.231,4.729,5.991,5.504c2.761,0.778,5.726,0.19,7.982-1.577c4.774-3.736,9.338-8.15,13.685-13.027l0.717,159.438
		c-6.733,21.857-7.393,46.552-1.908,73.54c0.655,3.229,3.023,5.841,6.173,6.81l24.503,7.539c3.135,0.964,6.315,1.587,9.501,1.912
		c8.729,18.369,24.244,32.84,43.352,40.16l0.974,0.375c7.279,2.793,14.362,6.186,21.045,10.079
		c6.698,3.912,13.137,8.409,19.137,13.367c1.663,1.375,3.698,2.062,5.732,2.062c2.036,0,4.072-0.688,5.736-2.065
		c12.039-9.958,25.555-17.845,40.159-23.436l0.986-0.376c19.035-7.296,34.511-21.695,43.254-39.962
		c2.856-0.324,5.705-0.916,8.516-1.78l25.593-7.875c3.149-0.969,5.518-3.581,6.173-6.81c5.485-26.987,4.825-51.682-1.908-73.54
		l0.717-159.438c4.347,4.877,8.911,9.291,13.685,13.027c1.602,1.254,3.56,1.913,5.548,1.913c0.813,0,1.633-0.11,2.435-0.336
		c2.76-0.775,4.984-2.82,5.991-5.504c4.708-12.555,19.646-37.572,42.06-70.443C432.283,72.335,433.647,63.075,430.913,54.424z
		 M268.682,413.767l-0.982,0.375c-14.167,5.423-27.414,12.759-39.475,21.852c-5.061-3.811-10.35-7.332-15.797-10.513
		c-7.524-4.384-15.487-8.198-23.653-11.331l-0.978-0.377c-12.732-4.877-23.394-13.853-30.429-25.315
		c4.652-1.458,9.123-3.613,13.259-6.476l11.84-8.197c11.85,11.626,28.382,18.392,45.761,18.392c17.379,0,33.912-6.766,45.761-18.393
		l12.781,8.848c3.807,2.636,7.912,4.65,12.183,6.035C291.919,400.026,281.312,408.925,268.682,413.767z M228.229,317.45
		c-13.714,0-24.87-10.058-24.87-22.421c0-6.215,1.106-9.459,24.87-9.459c23.763,0,24.869,3.244,24.869,9.459
		C253.098,307.392,241.941,317.45,228.229,317.45z M228.229,351.846c6.416,7.429,15.89,12.079,26.295,12.079
		c1.058,0,2.102,0.11,3.125,0.304c-8.114,6.338-18.517,9.948-29.421,9.948c-10.905,0-21.307-3.61-29.421-9.948
		c1.024-0.194,2.068-0.304,3.127-0.304C212.339,363.924,221.813,359.274,228.229,351.846z M412.301,69.69
		c-13.239,19.416-29.438,44.264-38.706,62.474c-31.735-32.937-52.819-99.431-53.047-100.158c-1.483-4.744-6.533-7.386-11.274-5.904
		c-4.744,1.482-7.389,6.53-5.906,11.275c0.765,2.446,13.971,44.123,36.195,79.564l-0.668,148.533
		c-5.944-7.982-12.978-15.377-21.094-22.12c-3.822-3.177-9.496-2.652-12.674,1.171c-3.176,3.823-2.651,9.498,1.172,12.674
		c31.585,26.242,43.578,62.612,35.689,108.158l-20.401,6.277c-8.393,2.583-17.35,1.197-24.57-3.802L274.291,352.1
		c-5.835-4.04-12.67-6.175-19.768-6.175c-7.373,0-13.773-4.85-15.941-11.674c18.651-4.379,32.516-20.3,32.516-39.222
		c0-11.696-5.389-20.028-15.585-24.096c-7.783-3.105-17.348-3.363-27.284-3.363c-9.938,0-19.502,0.257-27.285,3.363
		c-10.195,4.068-15.585,12.4-15.585,24.096c0,18.922,13.865,34.843,32.517,39.222c-2.168,6.824-8.569,11.674-15.941,11.674
		c-7.098,0-13.933,2.135-19.768,6.175l-21.786,15.083c-7.816,5.411-17.512,6.912-26.6,4.116l-19.312-5.942
		c-7.889-45.544,4.104-81.915,35.69-108.157c3.822-3.176,4.347-8.851,1.171-12.674c-3.177-3.824-8.85-4.346-12.675-1.171
		c-8.116,6.743-15.149,14.138-21.093,22.121l-0.667-148.534c22.224-35.441,35.43-77.117,36.194-79.563
		c1.482-4.744-1.16-9.79-5.903-11.273c-4.748-1.482-9.791,1.16-11.276,5.902c-0.228,0.727-21.312,67.221-53.047,100.158
		c-9.269-18.212-25.468-43.06-38.707-62.474c-1.979-2.904-2.508-6.492-1.448-9.843c1.061-3.356,3.559-5.993,6.854-7.234
		l88.278-33.248c7.849-2.954,16.747-1.033,22.676,4.895l4.874,4.874c2.28,2.281,5.607,3.166,8.721,2.321
		c35.404-9.61,72.832-9.61,108.236,0c3.114,0.846,6.442-0.042,8.722-2.322l4.873-4.874c5.93-5.928,14.83-7.849,22.675-4.895
		l88.279,33.248c3.295,1.241,5.794,3.878,6.854,7.235C414.809,63.199,414.28,66.786,412.301,69.69z"/>
	<path d="M162.109,101.47l-30.631,19.977c-4.164,2.715-5.338,8.292-2.622,12.455c1.726,2.646,4.606,4.084,7.547,4.084
		c1.686,0,3.391-0.473,4.907-1.462l30.631-19.977c1.189-0.775,2.738-0.569,3.681,0.492c3.303,3.717,8.993,4.051,12.706,0.749
		c3.716-3.302,4.051-8.99,0.749-12.706C182.276,97.43,170.684,95.879,162.109,101.47z"/>
	<path d="M267.38,105.081c-3.303,3.715-2.968,9.404,0.747,12.706c3.715,3.301,9.402,2.969,12.706-0.747
		c0.944-1.061,2.493-1.269,3.683-0.493l30.631,19.977c1.517,0.989,3.222,1.462,4.907,1.462c2.94,0,5.821-1.438,7.547-4.084
		c2.716-4.164,1.542-9.74-2.622-12.455l-30.631-19.977C285.634,95.787,274.292,97.306,267.38,105.081z"/>
	<path d="M164.611,126.297c-8.661,0-15.707,7.046-15.707,15.707s7.046,15.707,15.707,15.707c5.862,0,11.778-4.857,11.778-15.707
		S170.474,126.297,164.611,126.297z M164.611,144.297c-2.441,0-4.302-1.147-5.38-2.293c1.078-1.146,2.938-2.293,5.38-2.293
		c1.265,0,2.293,1.029,2.293,2.293S165.876,144.297,164.611,144.297z"/>
	<path d="M291.845,126.297c-3.669,0-8.361,2.098-10.529,7.986c-1.032,2.803-1.249,5.746-1.249,7.721
		c0,10.85,5.916,15.707,11.778,15.707c8.661,0,15.707-7.046,15.707-15.707S300.506,126.297,291.845,126.297z M291.845,144.297
		c-1.265,0-2.293-1.029-2.293-2.293s1.028-2.293,2.293-2.293c2.441,0,4.302,1.147,5.38,2.293
		C296.147,143.15,294.286,144.297,291.845,144.297z"/>
</g>
<g>
</g>
<g>
</g>
<g>
</g>
<g>
</g>
<g>
</g>
<g>
</g>
<g>
</g>
<g>
</g>
<g>
</g>
<g>
</g>
<g>
</g>
<g>
</g>
<g>
</g>
<g>
</g>
<g>
</g>
</svg>
