<?xml version="1.0" encoding="iso-8859-1"?>
<!-- Generator: Adobe Illustrator 16.0.0, SVG Export Plug-In . SVG Version: 6.00 Build 0)  -->
<!DOCTYPE svg PUBLIC "-//W3C//DTD SVG 1.1//EN" "http://www.w3.org/Graphics/SVG/1.1/DTD/svg11.dtd">
<svg version="1.1" id="Capa_1" xmlns="http://www.w3.org/2000/svg" xmlns:xlink="http://www.w3.org/1999/xlink" x="0px" y="0px"
	 width="438.69px" height="438.69px" viewBox="0 0 438.69 438.69" style="enable-background:new 0 0 438.69 438.69;"
	 xml:space="preserve">
<g>
	<path style="fill:#030303;" d="M361.323,276.665c-0.005-0.686-0.16-1.35-0.399-1.995c-0.069-0.172-0.138-0.32-0.218-0.486
		c-0.08-0.171-0.12-0.349-0.218-0.515l-58.552-96.611c-1.069-1.75-2.962-2.825-5.009-2.825h-30.146l67.976-67.976
		c2.287-2.292,2.287-5.992,0-8.279L238.501,1.715c-2.293-2.287-5.993-2.287-8.28,0L103.933,127.991c-2.29,2.287-2.29,5.987,0,8.28
		l37.959,37.957h-0.134c-2.05,0-3.945,1.075-5.006,2.824l-58.552,96.611c-0.1,0.166-0.146,0.344-0.223,0.515
		c-0.074,0.16-0.146,0.315-0.211,0.48c-0.24,0.652-0.397,1.315-0.403,2.001c0,0.012-0.006,0.023-0.006,0.035v156.142
		c0,3.242,2.619,5.854,5.855,5.854h272.269c3.236,0,5.855-2.612,5.855-5.854V276.7C361.329,276.688,361.323,276.677,361.323,276.665
		z M234.35,14.134l87.982,87.983L204.338,220.114l-44.166-44.166l-43.814-43.812L234.35,14.134z M145.054,185.943h8.548
		l46.584,46.585c0.538,0.543,1.189,0.972,1.91,1.27c0.715,0.303,1.476,0.451,2.236,0.451h50.624c3.236,0,5.855-2.619,5.855-5.855
		c0-3.23-2.619-5.855-5.855-5.855h-36.489l36.593-36.595h38.562l51.451,84.901H93.598L145.054,185.943z M349.619,426.986H89.061
		V282.555h260.559V426.986z"/>
</g>
<g>
</g>
<g>
</g>
<g>
</g>
<g>
</g>
<g>
</g>
<g>
</g>
<g>
</g>
<g>
</g>
<g>
</g>
<g>
</g>
<g>
</g>
<g>
</g>
<g>
</g>
<g>
</g>
<g>
</g>
</svg>
