<?xml version="1.0" encoding="iso-8859-1"?>
<!-- Generator: Adobe Illustrator 19.0.0, SVG Export Plug-In . SVG Version: 6.00 Build 0)  -->
<svg version="1.1" id="Layer_1" xmlns="http://www.w3.org/2000/svg" xmlns:xlink="http://www.w3.org/1999/xlink" x="0px" y="0px"
	 viewBox="0 0 299.92 299.92" style="enable-background:new 0 0 299.92 299.92;" xml:space="preserve">
<g>
	<g>
		<g>
			<path d="M293.4,65.2h-68.254c0.023-0.223,0.035-0.449,0.035-0.678c0-21.555-17.193-38.442-39.12-38.442h-65.213
				c-21.927,0-39.12,16.593-39.12,37.777c0,0.461,0.049,0.91,0.139,1.343H6.52C2.914,65.2,0,68.114,0,71.72v195.6
				c0,3.606,2.914,6.52,6.52,6.52H293.4c3.606,0,6.52-2.914,6.52-6.52V71.72C299.92,68.114,297.006,65.2,293.4,65.2z M94.768,63.857
				c0-14.103,11.221-24.737,26.08-24.737h65.213c14.624,0,26.08,11.149,26.08,25.402c0,0.229,0.012,0.455,0.035,0.678H94.629
				C94.72,64.767,94.768,64.318,94.768,63.857z M286.88,260.8H13.04V78.24h273.84V260.8z"/>
			<path d="M84.76,208.64h32.6v32.6c0,3.606,2.914,6.52,6.52,6.52h52.16c3.606,0,6.52-2.914,6.52-6.52v-32.6h32.6
				c3.606,0,6.52-2.914,6.52-6.52v-52.16c0-3.606-2.914-6.52-6.52-6.52h-32.6v-32.6c0-3.606-2.914-6.52-6.52-6.52h-52.16
				c-3.606,0-6.52,2.914-6.52,6.52v32.6h-32.6c-3.606,0-6.52,2.914-6.52,6.52v52.16C78.24,205.726,81.154,208.64,84.76,208.64z
				 M91.28,156.48h32.6c3.606,0,6.52-2.914,6.52-6.52v-32.6h39.12v32.6c0,3.606,2.914,6.52,6.52,6.52h32.6v39.12h-32.6
				c-3.606,0-6.52,2.914-6.52,6.52v32.6H130.4v-32.6c0-3.606-2.914-6.52-6.52-6.52h-32.6V156.48z"/>
		</g>
	</g>
</g>
<g>
</g>
<g>
</g>
<g>
</g>
<g>
</g>
<g>
</g>
<g>
</g>
<g>
</g>
<g>
</g>
<g>
</g>
<g>
</g>
<g>
</g>
<g>
</g>
<g>
</g>
<g>
</g>
<g>
</g>
</svg>
