<?xml version="1.0" encoding="iso-8859-1"?>
<!-- Generator: Adobe Illustrator 18.0.0, SVG Export Plug-In . SVG Version: 6.00 Build 0)  -->
<!DOCTYPE svg PUBLIC "-//W3C//DTD SVG 1.1//EN" "http://www.w3.org/Graphics/SVG/1.1/DTD/svg11.dtd">
<svg version="1.1" id="Capa_1" xmlns="http://www.w3.org/2000/svg" xmlns:xlink="http://www.w3.org/1999/xlink" x="0px" y="0px"
	 viewBox="0 0 430.068 430.068" style="enable-background:new 0 0 430.068 430.068;" xml:space="preserve">
<g>
	<path d="M345.188,106.82H5.503c-3.039,0-5.503,2.464-5.503,5.504v205.429c0,3.039,2.464,5.503,5.503,5.503h339.685
		c3.04,0,5.503-2.464,5.503-5.503V112.324C350.691,109.284,348.228,106.82,345.188,106.82z M339.685,312.25H11.006V117.826h328.679
		V312.25z"/>
	<path d="M155.591,158.941H306.37c3.039,0,5.503-2.463,5.503-5.502c0-3.04-2.464-5.504-5.503-5.504H155.591
		c-3.039,0-5.503,2.464-5.503,5.504C150.088,156.479,152.552,158.941,155.591,158.941z"/>
	<path d="M155.591,282.277h109.182c3.04,0,5.503-2.464,5.503-5.503c0-3.04-2.463-5.503-5.503-5.503H155.591
		c-3.039,0-5.503,2.463-5.503,5.503C150.088,279.814,152.552,282.277,155.591,282.277z"/>
	<path d="M155.591,222.139h67.873c3.039,0,5.503-2.463,5.503-5.502c0-3.04-2.464-5.504-5.503-5.504h-67.873
		c-3.039,0-5.503,2.464-5.503,5.504C150.088,219.676,152.552,222.139,155.591,222.139z"/>
	<path d="M155.591,252.203h67.873c3.039,0,5.503-2.463,5.503-5.502c0-3.04-2.464-5.504-5.503-5.504h-67.873
		c-3.039,0-5.503,2.464-5.503,5.504C150.088,249.74,152.552,252.203,155.591,252.203z"/>
	<path d="M60.308,239.771c0-3.039-2.464-5.502-5.503-5.502s-5.503,2.463-5.503,5.502c0,15.078,13.402,27.606,30.839,29.814v7.188
		c0,3.039,2.463,5.503,5.503,5.503c3.04,0,5.503-2.464,5.503-5.503v-7.188c17.433-2.208,30.832-14.736,30.832-29.814
		c0-15.088-13.398-27.624-30.832-29.834v-38.204c11.328,1.907,19.826,9.567,19.826,18.706c0,3.039,2.464,5.503,5.503,5.503
		c3.039,0,5.503-2.464,5.503-5.503c0-15.084-13.398-27.618-30.832-29.826v-7.174c0-3.04-2.463-5.504-5.503-5.504
		c-3.04,0-5.503,2.464-5.503,5.504v7.173c-17.438,2.208-30.839,14.743-30.839,29.827c0,15.077,13.402,27.605,30.839,29.813v38.213
		C68.809,256.56,60.308,248.904,60.308,239.771z M110.973,239.771c0,9.133-8.498,16.787-19.826,18.693v-37.406
		C102.475,222.967,110.973,230.631,110.973,239.771z M60.308,190.439c0-9.139,8.501-16.799,19.833-18.706v37.398
		C68.809,207.227,60.308,199.571,60.308,190.439z"/>
	<path d="M406.563,86.306h-25.443c-3.039,0-5.503,2.464-5.503,5.503v221.008c0,0.853,0.199,1.697,0.581,2.461l12.722,25.443
		c0.933,1.864,2.838,3.042,4.922,3.042c2.085,0,3.99-1.178,4.922-3.042l12.722-25.443c0.382-0.765,0.581-1.608,0.581-2.461V91.809
		C412.065,88.77,409.602,86.306,406.563,86.306z M401.06,311.518l-7.219,14.438l-7.219-14.438V97.311h14.438V311.518z"/>
	<path d="M424.565,115.297c-3.039,0-5.503,2.464-5.503,5.504v75.313c0,3.039,2.464,5.503,5.503,5.503
		c3.039,0,5.503-2.464,5.503-5.503v-75.313C430.068,117.761,427.605,115.297,424.565,115.297z"/>
</g>
<g>
</g>
<g>
</g>
<g>
</g>
<g>
</g>
<g>
</g>
<g>
</g>
<g>
</g>
<g>
</g>
<g>
</g>
<g>
</g>
<g>
</g>
<g>
</g>
<g>
</g>
<g>
</g>
<g>
</g>
</svg>
