<?xml version='1.0' encoding='iso-8859-1'?>
<svg version="1.1" xmlns="http://www.w3.org/2000/svg" viewBox="0 0 470 470" xmlns:xlink="http://www.w3.org/1999/xlink" enable-background="new 0 0 470 470">
  <g>
    <g>
      <path d="m447.743,148.36c-2.935,0-5.739,0.571-8.307,1.607-2.868-8.978-11.291-15.497-21.208-15.497-5.656,0-10.826,2.121-14.757,5.609-3.931-3.488-9.101-5.609-14.757-5.609s-10.826,2.121-14.757,5.609c-3.931-3.488-9.101-5.609-14.757-5.609-12.225,0-22.17,9.984-22.17,22.238-0.056,21.452-0.059,31.504-0.033,36.324-4.444,4.144-6.999,9.963-6.999,16.266v34.551c0,23.437 11.869,45.387 31.25,58.302v159.084c0,4.142 3.358,7.5 7.5,7.5s7.5-3.358 7.5-7.5v-163.249c0-2.677-1.427-5.151-3.744-6.492-16.964-9.814-27.504-28.071-27.504-47.644v-34.551c0-2.506 1.216-4.758 3.252-6.078 0.083-0.046 0.168-0.085 0.25-0.135 1.125-0.683 2.424-1.044 3.755-1.044h37.813c4.001,0 7.257,3.256 7.257,7.257s-3.255,7.257-7.257,7.257h-23.056c-1.989,0-3.897,0.79-5.303,2.197-1.407,1.407-2.197,3.314-2.197,5.303v23.266c0,2.998 1.785,5.707 4.538,6.891l32.313,13.889c0.966,0.415 1.97,0.611 2.958,0.611 2.907,0 5.673-1.7 6.894-4.54 1.636-3.806-0.124-8.217-3.929-9.853l-27.774-11.938v-10.826h15.556c10.042,0 18.548-6.687 21.31-15.841 2.159,0.7 4.46,1.083 6.85,1.083 5.656,0 10.827-2.121 14.757-5.609 3.931,3.488 9.101,5.609 14.757,5.609 2.541,0 4.981-0.434 7.257-1.221v29.834c0,28.389-23.096,51.484-51.484,51.484-4.142,0-7.5,3.358-7.5,7.5s3.358,7.5 7.5,7.5c9.68,0 18.875-2.097 27.179-5.833v155.172c0,4.142 3.358,7.5 7.5,7.5s7.5-3.358 7.5-7.5v-164.47c14.829-12.203 24.304-30.691 24.304-51.352v-74.794c0-12.273-9.984-22.258-22.257-22.258zm-95.757,38.691c-0.002-8.567 0.021-21.25 0.045-30.322 0-4.001 3.217-7.257 7.17-7.257 4.001,0 7.257,3.256 7.257,7.257v30.313h-14.202c-0.09,2.84217e-14-0.179,0.008-0.27,0.009zm38.083-.009h-8.611v-30.313c0-4.001 3.255-7.257 7.257-7.257s7.257,3.256 7.257,7.257v31.114c-1.881-0.519-3.859-0.801-5.903-0.801zm28.16,14.757c-4.001,0-7.257-3.256-7.257-7.257v-37.813c0-4.001 3.255-7.257 7.257-7.257s7.257,3.256 7.257,7.257v13.889c0,0.01 0,23.924 0,23.924 0,4.001-3.256,7.257-7.257,7.257zm29.514,0c-4.001,0-7.257-3.256-7.257-7.257v-23.933c0.005-3.997 3.259-7.248 7.257-7.248 4.001,0 7.257,3.256 7.257,7.257v23.924c0,4.001-3.255,7.257-7.257,7.257z"/>
      <path d="m125.68,174.374c-3.283,0-6.41,0.682-9.247,1.912-2.827-9.696-11.795-16.801-22.392-16.801-6.1,0-11.66,2.354-15.819,6.201-4.16-3.847-9.72-6.201-15.819-6.201s-11.66,2.354-15.819,6.201c-4.16-3.847-9.72-6.201-15.82-6.201-12.807,0-23.226,10.461-23.226,23.3-0.061,23.381-0.063,34.124-0.034,39.173-4.762,4.351-7.504,10.516-7.504,17.201v37.039c0,25.041 12.729,48.487 33.5,62.21v124.092c0,4.142 3.358,7.5 7.5,7.5s7.5-3.358 7.5-7.5v-128.267c0-2.677-1.427-5.151-3.744-6.492-18.354-10.617-29.756-30.368-29.756-51.543v-37.039c0-2.877 1.401-5.463 3.746-6.977 0.089-0.049 0.18-0.091 0.268-0.145 1.291-0.784 2.78-1.198 4.306-1.198h40.535c4.587,0 8.319,3.732 8.319,8.32s-3.732,8.32-8.319,8.32h-24.716c-1.989,0-3.897,0.79-5.303,2.197-1.407,1.407-2.197,3.314-2.197,5.303v24.941c0,2.998 1.785,5.707 4.538,6.891l34.639,14.889c0.966,0.415 1.97,0.611 2.958,0.611 2.907,0 5.673-1.7 6.894-4.54 1.636-3.806-0.124-8.217-3.929-9.853l-30.1-12.938v-12.501h17.215c10.717,0 19.763-7.27 22.48-17.135 2.414,0.848 5.007,1.315 7.707,1.315 6.1,0 11.66-2.354 15.819-6.201 4.16,3.847 9.72,6.201 15.82,6.201 2.93,0 5.734-0.549 8.319-1.54v32.753c0,30.73-25.001,55.731-55.731,55.731-4.142,0-7.5,3.358-7.5,7.5s3.358,7.5 7.5,7.5c10.595,0 20.644-2.357 29.676-6.55v120.447c0,4.142 3.358,7.5 7.5,7.5s7.5-3.358 7.5-7.5v-129.84c15.89-12.981 26.056-32.717 26.056-54.787v-80.179c0-12.859-10.461-23.32-23.32-23.32zm-103.192,41.494c-0.003-9.056 0.022-22.797 0.049-33.063 0-4.587 3.69-8.32 8.226-8.32 4.586,0 8.317,3.73 8.32,8.315 0,0.005 0,33.04 0,33.04h-15.764c-0.278-0.001-0.554,0.018-0.831,0.028zm41.366-.029h-9.771v-33.025c0-4.597 3.732-8.33 8.32-8.33s8.319,3.732 8.319,8.32v34.069c-2.172-0.671-4.478-1.034-6.868-1.034zm30.188,15.82c-4.587,0-8.319-3.732-8.319-8.319v-40.536c0-4.587 3.732-8.32 8.319-8.32s8.319,3.732 8.319,8.32v40.536c0,4.587-3.732,8.319-8.319,8.319zm31.639,0c-4.587,0-8.32-3.732-8.32-8.319v-25.646c0-4.587 3.732-8.32 8.319-8.32s8.32,3.732 8.32,8.32v25.646c0,4.587-3.732,8.319-8.319,8.319z"/>
      <path d="m322.495,74.776v-30.611c0-14.55-11.837-26.388-26.388-26.388-4.323,0-8.406,1.045-12.011,2.896-2.618-11.813-13.176-20.673-25.764-20.673-7.396,0-14.091,3.059-18.887,7.978-4.797-4.919-11.491-7.978-18.888-7.978s-14.092,3.059-18.888,7.978c-4.796-4.919-11.491-7.978-18.888-7.978-14.489,0-26.277,11.838-26.277,26.369-0.076,29.09-0.073,41.764-0.038,47.417-5.678,4.942-8.962,12.103-8.962,19.888v44.222c0,29.669 15.22,57.434 39.998,73.489v251.115c0,4.142 3.358,7.5 7.5,7.5s7.5-3.358 7.5-7.5v-255.313c0-2.677-1.427-5.151-3.744-6.492-22.362-12.937-36.253-37-36.253-62.8v-44.221c0-3.946 1.933-7.497 5.168-9.572 0.108-0.058 0.217-0.11 0.323-0.175 1.77-1.074 3.808-1.642 5.896-1.642h48.397c6.279,0 11.388,5.109 11.388,11.388s-5.108,11.388-11.388,11.388h-29.509c-1.989,0-3.897,0.79-5.303,2.197-1.407,1.407-2.197,3.314-2.197,5.303v29.778c0,2.998 1.785,5.707 4.538,6.891l41.357,17.777c0.966,0.415 1.97,0.611 2.958,0.611 2.907,0 5.673-1.7 6.894-4.54 1.636-3.806-0.124-8.216-3.929-9.853l-36.817-15.825v-17.338h22.009c12.686,0 23.307-9 25.821-20.949 3.145,1.327 6.599,2.061 10.221,2.061 7.397,0 14.092-3.059 18.888-7.978 4.796,4.919 11.491,7.978 18.888,7.978 4.076,0 7.938-0.93 11.387-2.587v41.309c0,37.493-30.502,67.995-67.995,67.995-4.142,0-7.5,3.358-7.5,7.5s3.358,7.5 7.5,7.5c13.245,0 25.766-3.135 36.886-8.677v248.286c0,4.142 3.358,7.5 7.5,7.5s7.5-3.358 7.5-7.5v-257.896c18.948-15.224 31.109-38.567 31.109-64.708 5.68434e-14-2.84217e-14 5.68434e-14-65.091 5.68434e-14-65.12zm-151.048-7.363c-0.007-10.747 0.024-28.153 0.057-41.025 0-6.279 5.059-11.388 11.277-11.388 6.279,0 11.388,5.109 11.388,11.388v40.897h-20.276c-0.82,0.001-1.635,0.053-2.446,0.128zm50.843-.127h-13.121v-40.898c0-6.279 5.108-11.388 11.388-11.388s11.388,5.109 11.388,11.388v42.735c-2.993-1.181-6.248-1.837-9.655-1.837zm36.042,18.888c-6.279,0-11.388-5.109-11.388-11.388v-48.398c0-6.279 5.108-11.388 11.387-11.388s11.388,5.109 11.388,11.388v17.777c0,0.01 0,30.621 0,30.621 0.001,6.279-5.108,11.388-11.387,11.388zm37.775,0c-6.279,0-11.388-5.109-11.388-11.388v-30.63c0.005-6.275 5.111-11.379 11.387-11.379 6.279,0 11.388,5.109 11.388,11.388v30.63c-0.005,6.275-5.111,11.379-11.387,11.379z"/>
    </g>
  </g>
</svg>
