<svg xmlns="http://www.w3.org/2000/svg" viewBox="0 0 1494.42 1456.53"><defs><style>.cls-1{opacity:0.1;}.cls-2{fill:#fff;}</style></defs><title>Asset 1</title><g id="Layer_2" data-name="Layer 2"><g id="Layer_1-2" data-name="Layer 1"><g class="cls-1"><polygon class="cls-2" points="1350.93 376.46 1351.74 374.36 1350.53 376.58 1350.53 376.59 1350.53 376.58 1350.93 376.46"/><polygon class="cls-2" points="1491.07 749.94 1494.18 748.61 1494.42 745.62 1494.3 743.52 1492.97 741.17 1490.75 740.57 1489.45 738.43 1491.47 736.16 1492.4 734.06 1491.47 731.76 1492.36 729.01 1492.57 728.45 1486.87 728.45 1486.55 728.69 1486.38 728.45 1484.4 726.39 1484.93 722.55 1485.74 720 1483.48 719 1483.52 716.49 1482.78 715.56 1483.27 715.56 1482.99 714.31 1481.34 713.76 1476.15 707.26 1476.53 706.19 1477.54 703.12 1479.84 700.7 1477.46 700.61 1475.96 696.94 1473.38 694.11 1474.71 691.24 1471.44 689.38 1468.29 687.32 1468.77 685.02 1471.2 683.53 1472.25 681.1 1469.3 680.58 1467.08 679.77 1463.92 679.32 1462.59 677.18 1460.41 675.57 1460.45 673.35 1458.47 670.56 1458.23 668.46 1460.57 666.4 1460.69 664.01 1460.13 661.67 1461.1 659.57 1462.15 657.39 1461.14 653.63 1459.72 651.05 1458.35 648.87 1459.64 646.56 1458.47 644.1 1456.45 641.71 1454.47 639.41 1454.27 637.11 1453.18 634.93 1453.26 632.71 1450.96 631.9 1449.74 629.43 1447.48 629.27 1446.88 627.13 1444.78 626.08 1442.35 624.79 1440.25 621.03 1439 618.36 1437.14 616.06 1434.92 614.85 1434.88 611.38 1433.3 401.55 1431.77 398.76 1429.63 399.57 1426.92 400.7 1424.82 402.64 1424.17 400.18 1421.91 399.49 1419.69 397.43 1417.39 398.76 1415.12 399.41 1417.67 399.81 1417.87 402.12 1415.45 401.23 1413.35 402.76 1411.2 402.04 1411.93 399.81 1412.42 397.63 1410.12 398.8 1408.78 401.47 1406.64 401.67 1407.73 399.17 1405.47 399.89 1404.22 402.93 1401.83 402.28 1399.61 401.59 1398.6 403.77 1396.3 403.85 1394.04 401.75 1394.97 399.65 1392.7 400.38 1390.81 397.43 1388.42 396.46 1386.32 395.21 1387.33 392.87 1388.66 390.36 1386.44 391.09 1383.78 392.79 1381.51 393.03 1378.89 393.31 1380.7 391.09 1378.52 390.97 1375.05 391.13 1375.98 388.42 1372.91 389.35 1375.86 386.85 1373.64 387.13 1372.22 384.7 1372.34 387.05 1370.08 386.64 1367.9 386.16 1365.84 387.65 1363.58 386.4 1366.28 386.16 1367.09 383.05 1364.71 383.62 1361.8 384.67 1357.96 384.1 1359.38 381.68 1356.22 380.99 1358.24 383.25 1355.98 383.7 1353.92 381.35 1354.61 379.09 1352.22 378.85 1349.96 377.68 1350.53 376.59 1347.3 377.72 1347.26 375.58 1345.16 374.61 1345.48 376.95 1343.06 377.15 1340.15 375.82 1341.16 373.56 1338.89 373.64 1336.79 372.55 1334.81 370.2 1335.62 367.74 1334.25 365.11 1334.61 367.7 1331.83 367.74 1332.27 364.75 1329.93 363.82 1329 360.43 1326.73 361.72 1324.11 360.99 1320.31 360.14 1319.66 357.72 1319.06 354.97 1316.92 354.53 1316.51 357.96 1314.45 355.82 1315.67 353.32 1313.32 354.49 1310.9 353.03 1312.07 350.93 1310.01 350.49 1306.33 348.83 1302.46 347.22 1299.35 348.43 1297.33 350.53 1297.57 354.29 1296.03 356.87 1293.81 354.04 1294.21 356.55 1292.36 358.93 1290.09 357.72 1287.43 358.69 1284.6 359.74 1282.18 359.5 1279.75 360.06 1277.17 359.25 1274.22 359.21 1272.92 357.03 1270.83 358.41 1268.24 358.25 1267.88 355.54 1265.25 357.76 1263.11 356.63 1263.35 353.64 1262.38 351.1 1260.16 350.73 1257.86 349.44 1255.68 351.46 1253.82 354.57 1251.27 353.88 1248.53 355.98 1246.1 357.15 1243.88 356.47 1241.01 355.66 1239.07 357.8 1240 359.98 1239.56 362.12 1236.77 361.92 1234.55 360.47 1232.37 361.64 1231.32 364.14 1229.21 363.17 1227.12 361.88 1223.92 359.66 1219.72 357.44 1217.9 360.83 1214.91 361.31 1212.57 360.43 1210.75 362.85 1208.53 361.31 1206.43 363.9 1203.72 363.01 1200.45 362.65 1200.69 364.71 1197.46 363.42 1195 363.82 1193.87 366.32 1191.61 367.5 1193.79 367.29 1193.46 370.73 1191.69 374.28 1189.46 375.37 1185.91 375.98 1182.96 374.12 1180.29 372.91 1178.11 374.16 1177.14 376.55 1177.1 379.37 1176.46 381.68 1174.11 383.49 1171.49 384.26 1170.32 381.8 1169.27 379.7 1167 377.31 1164.94 374.65 1162.8 371.74 1160.7 371.54 1158.56 372.18 1154.96 372.59 1153.19 370.49 1153.03 367.94 1151.41 365.6 1149.27 366.24 1146.76 366.28 1144.5 364.67 1140.38 361.72 1143.98 358.61 1144.5 355.82 1140.46 355.98 1135.33 353.56 1134.16 357.4 1134.04 360.31 1131.78 364.1 1129.43 364.75 1127.05 365.36 1124.26 364.83 1123.49 362.29 1121.56 359.46 1119.45 358.97 1116.38 359.54 1116.18 361.64 1114.04 362.08 1111.46 359.58 1110 355.7 1109.92 353.4 1109.4 349.92 1106.77 347.14 1103.62 349.12 1101.24 350.33 1098.73 348.59 1098.69 350.85 1099.86 354.57 1099.86 356.79 1098.45 359.17 1095.7 362.53 1092.87 363.5 1090.53 360.63 1088.19 363.21 1092.23 364.38 1092.63 366.49 1087.58 368.3 1087.38 370.53 1088.47 374.12 1088.19 376.91 1085.92 379.66 1082.9 380.06 1080.55 379.25 1078.41 377.23 1077.6 375.09 1076.76 372.99 1075.95 370.89 1074.73 368.67 1075.83 364.67 1079.14 363.38 1078.78 360.75 1078.05 358.08 1076.88 355.01 1074.65 353.28 1072.31 353.24 1070.21 354.77 1069.77 357.88 1067.75 360.71 1065.36 359.3 1062.7 356.99 1062.33 359.98 1060.07 360.31 1059.87 358.08 1059.46 360.59 1057.28 364.79 1054.13 366.2 1051.83 366.32 1049.53 366.32 1046.54 364.99 1045.57 362.12 1046.7 359.17 1046.78 357.03 1045.33 354.53 1041.16 352.55 1037.29 354.45 1033.57 355.01 1031.03 354.69 1030.14 352.47 1030.38 350.13 1030.98 347.9 1028.76 345.92 1025.93 344.11 1021.69 342.73 1019.19 343.78 1017.94 346.57 1016 349.15 1013.7 350.13 1011.27 351.01 1010.71 353.4 1008.61 353.4 1009.21 355.98 1006.83 357.24 1004.65 359.46 1002.02 361.11 999.72 362.08 996.93 361.15 994.51 359.7 991.76 358.2 989.13 358.12 986.79 356.63 986.87 353.52 989.13 353.24 989.34 350 987.19 349.36 989.17 347.22 989.62 342.89 987.48 340.83 985.29 341.72 981.09 342.49 977.94 342.13 974.83 341.24 974.07 338.94 972.17 336.79 974.31 335.54 971.2 333.04 970.47 330.45 972.37 328.15 973.74 325.6 972.49 323.1 971.8 320.51 968.65 321.81 964.81 325.97 960.41 325.04 957.78 323.18 955.04 323.87 952.33 323.7 950.07 323.18 947.2 320.92 942.35 320.27 940.21 322.61 938.92 325 937.59 328.92 935.45 329.89 933.1 331.54 930.56 332.59 927.93 331.99 925.39 329.81 923.16 326.9 920.46 323.38 917.75 320.88 914.03 320.19 909.59 319.95 906.36 322.61 904.18 323.02 901.83 323.1 899.25 324.43 897.07 322.94 893.59 322.05 891.41 319.95 888.91 320.19 885.39 321.12 883.21 318.57 880.71 317.32 878.57 315.26 874.16 314.09 872.55 311.91 870.12 312.96 867.58 313.69 865.32 314.49 863.17 313.32 860.23 313.08 858.04 313.77 855.94 313.81 855.5 311.59 852.87 313.24 848.75 312.27 848.75 310.17 848.02 307.51 847.98 305.2 846.77 302.82 846.49 300.72 846.93 297.97 846.81 295.35 844.51 295.43 843.7 293.29 841.36 290.7 839.14 289.04 839.38 286.82 836.83 284.84 836.83 284.84 836.51 284.92 836.51 284.92 833.97 285.73 831.62 282.82 829.48 279.31 826.98 279.15 825.6 282.58 826.01 285.08 825.32 287.23 823.22 289.97 820.47 290.86 818.25 289.65 816.43 287.55 813.52 285.69 811.26 284.96 808.72 285.13 806.33 284.56 803.83 285.89 803.79 288.11 802.05 290.38 799.3 290.54 796.56 289.33 793.93 289.97 791.23 289.89 788.96 287.67 787.59 285.49 784.48 284.03 782.38 281.29 780 279.55 777.49 275.91 775.51 273.25 773.21 271.67 771.43 269.49 769.61 266.87 767.47 265.29 763.96 262.79 761.74 262.54 759.72 264.76 756.44 265.01 756.44 0.4 700.09 0.4 700.09 0.08 645.23 0.08 631.33 0.2 514.83 0 514.83 0 410.07 0.04 410.2 68.39 410.03 92.27 410.16 96.83 409.91 187.89 409.99 203.04 409.83 299.02 409.91 338.77 407.49 478.14 407.53 614.69 158.56 614.73 58.94 614.4 2.67 615.46 0.53 617.92 2.71 619.58 3.15 621.72 2.14 624.06 3.56 625.68 1.05 627.09 0 629.39 0.93 631.9 1.94 634.4 4.69 636.66 6.26 639.05 9.13 640.54 12.2 642.28 13.05 644.58 15.15 647.37 17.49 649.11 19.96 647.65 23.27 647.98 25.89 648.78 30.18 651.85 30.82 654 33.41 656.18 35.15 660.7 38.66 666.36 39.43 668.9 40.36 671.12 41.25 674.56 45.12 677.35 47.63 682.92 48.31 685.83 50.42 688.17 53.2 689.18 55.34 691.61 58.17 693.26 60.84 693.66 64.64 697.02 72.67 697.75 78.49 701.5 79.18 704.98 81 708.61 84.23 709.42 85.64 711.72 88.11 711.88 90.25 715.16 91.86 717.5 93.88 719.92 96.63 723.72 98.29 726.39 100.19 728.93 102.61 728.85 106.2 732.65 113.48 735.88 115.7 737.9 118.97 741.17 120.47 743.56 121.11 746.47 122.32 749.33 122.93 751.72 125.27 753.45 127.86 755.03 129.92 755.76 131.7 759.19 134.16 761.45 136.46 763.19 138.6 764.97 141.51 766.46 142.12 768.93 141.35 771.19 143.85 771.75 146.12 772.4 148.7 774.1 150.88 774.86 151.94 777.13 154.16 775.43 155.69 777.69 157.83 779.43 160.38 778.3 162.6 777.85 163.57 780.52 165.91 780.76 167 783.02 169.14 783.19 169.79 785.29 172.34 785.45 174.48 786.38 175.32 788.72 177.14 790.98 179.32 791.83 180.25 794.05 182.44 793.85 184.7 794.86 186.88 794.94 188.66 798.05 188.94 800.15 189.34 802.98 191.69 804.52 193.91 805.61 196.01 806.17 197.58 808.39 198.96 811.14 199.89 813.24 200.69 815.71 201.66 818.13 202.27 820.39 201.99 822.53 201.95 825.2 203 827.87 203.4 829.97 203.36 832.07 203.76 835.3 206.39 837 208.57 837.84 207.28 840.07 208.98 842.41 211.16 843.98 212.21 846.17 214.27 846.89 214.63 849.52 215.48 852.1 218.51 853.36 220.57 855.86 220.97 858.85 221.7 861.23 222.63 863.86 222.67 866.12 222.43 868.67 221.74 870.77 222.19 873.07 222.71 875.98 222.27 878.32 220.85 880.42 221.18 883.05 222.03 885.31 222.35 887.45 222.87 889.67 222.91 891.94 224.33 894.08 223.4 896.42 223.56 898.68 225.94 901.43 227.36 903.85 229.22 906.44 231.07 908.94 230.43 911.13 232.53 913.02 233.7 915.53 235.52 917.75 236.49 920.01 237.21 922.48 238.43 924.74 238.87 927.04 239.03 929.42 239.03 931.57 241.13 933.3 242.14 935.4 243.23 937.5 245.46 938.35 247.64 939.97 249.5 942.11 256.12 948.09 257.53 950.31 259.71 951.32 263.31 953.14 265.49 953.06 267.71 953.58 271.31 955.32 273.98 956.57 274.7 959.16 277.17 958.88 276.8 961.02 277.05 963.24 280.36 966.27 281.21 968.49 283.15 970.71 285.29 972.25 287.59 973.9 289.85 975.12 292.36 977.38 294.54 978.99 296.72 980.85 299.14 981.9 301.93 983.03 305 983.76 307.38 984.2 310.21 985.62 312.43 985.25 314.62 985.58 317.56 986.06 319.71 987.27 322.21 987.11 323.83 989.21 326.21 990.1 325.97 992.28 326.37 994.42 328.88 993.78 330.29 995.96 331.87 998.18 334.29 999.43 336.43 1000.12 338.65 1000.81 340.59 1002.95 342.69 1002.87 345.16 1001.94 347.42 1004.04 350.45 1003.47 352.83 1004.73 355.09 1005.82 356.47 1007.96 358.77 1010.22 361.36 1012.89 361.19 1015.43 363.54 1015.11 365.48 1017.41 367.54 1019.35 369.88 1020.08 372.18 1021.29 374.61 1021.41 375.25 1019.03 377.6 1020.08 377.68 1022.3 379.94 1021.41 379.7 1024.08 382.16 1024.36 383.05 1027.67 384.42 1025.05 387.98 1026.62 390.4 1026.22 393.03 1026.7 396.18 1028.32 398.4 1027.59 401.55 1026.66 401.51 1024.48 403.69 1020.92 402.88 1018.46 405.11 1016.32 406.08 1014.14 407.53 1012.04 410.4 1011.27 410.8 1008.93 413.19 1006.71 413.95 1004.24 415.33 1002.14 417.02 999.15 419.73 1000.08 421.87 998.83 424.09 997.33 426.31 995.92 428.66 995.35 429.83 993.05 427.65 990.95 425.51 989.01 425.91 986.83 427.61 984.45 427.04 982.35 427.97 980 429.35 976.41 432.45 974.71 433.87 971.52 436.09 969.58 434.56 967.48 434.11 965.22 434.92 962.75 435.77 960.25 437.55 958.11 436.78 955.72 437.95 952.21 440.09 950.27 440.17 947.89 441.95 945.34 441.58 942.88 443.73 943.56 444.62 941.38 444.25 938.03 446.43 935.57 448.05 933.42 449.06 930.8 450.15 927.93 451.08 925.06 453.54 924.05 457.06 924.09 459.28 922.4 461.62 922.19 464.65 919.69 465.58 922.27 467.88 921.43 470.27 919.97 469.78 917.51 472.05 917.79 475.24 917.87 477.78 918.32 480.25 918.92 482.67 920.01 484.89 919.12 485.78 916.62 486.22 914.2 487.48 910.4 488.85 907.45 490.95 906.68 493.17 904.7 496.49 906.48 498.59 906.03 500.69 906.48 502.34 908.66 505.21 909.35 507.96 908.98 508.24 911.65 511.03 913.59 513.29 915.04 515.55 916.3 517.94 916.46 520.4 917.1 523.07 917.26 525.49 915 528.04 915.04 530.18 915.69 532.52 913.51 533.97 915.81 536.08 915.33 536.8 917.63 538.82 915.53 542.9 916.09 545.16 914.28 547.23 916.17 549.37 916.42 548.6 914.28 550.78 915.37 551.59 918.07 554.5 916.78 557.32 918.32 559.67 919 561.89 920.5 565 920.62 567.26 919.25 569.2 921.51 571.22 919.25 573.89 918.76 577.44 918.88 577.97 915.45 580.92 913.79 581.36 916.9 582.21 920.78 585.32 920.09 588.07 917.43 590.69 916.9 590.77 919.08 592.71 921.95 597.2 920.42 595.3 922.56 597.4 924.25 597.4 927 600.27 929.83 600.79 932.9 603.22 934.07 608.14 935.69 608.31 937.83 606.93 942.27 607.09 944.49 609.48 946.47 610.97 943.85 611.01 941.66 611.98 938.47 614.08 939.28 613.88 941.99 614.08 948.49 612.87 951.2 613.6 953.46 616.71 953.18 620.67 953.46 623.05 955.68 625.31 959.36 627.82 959.2 630.81 960.25 633.84 961.14 636.14 963.4 637.67 965.82 638.2 968.41 640.42 971.12 640.99 973.42 643.13 974.87 645.83 976.53 648.42 977.09 650.76 979.88 653.47 981.9 656.05 983.68 658.03 986.83 660.94 988.57 663.53 989.86 665.67 990.83 667.04 993.37 668.3 995.76 669.14 997.86 668.13 1000.85 669.99 1003.07 672.46 1005.53 675.65 1008.16 678.6 1009.45 680.13 1011.96 680.86 1014.38 680.98 1017.98 681.3 1020.24 682.03 1022.42 682.56 1025.05 682.64 1027.63 682.68 1029.89 682.31 1032.24 683.73 1034.42 684.01 1036.6 686.55 1037.93 689.02 1039.63 689.22 1041.93 691.24 1045.24 691.52 1048.27 694.27 1049.65 695.77 1051.95 695.4 1054.9 695.77 1057.4 697.91 1058.66 698.8 1061.12 698.8 1063.22 698.39 1066.78 700.01 1071.18 700.09 1071.22 702.47 1072.71 705.74 1074.09 705.42 1076.84 707.52 1079.66 711.24 1082.49 709.66 1085.88 710.91 1088.59 712.29 1090.81 715.24 1091.66 717.94 1092.59 717.3 1094.69 714.63 1096.23 716.53 1098.41 718.02 1100.63 718.11 1102.77 716.69 1106.12 717.58 1108.55 720.37 1112.3 721.9 1115.45 723.64 1117.84 723.76 1119.98 724.25 1124.14 726.02 1126.93 728.45 1129.15 731.72 1130.12 732.12 1133.03 732.81 1135.13 735.36 1135.73 738.22 1138.16 740.4 1138.16 742.87 1139.86 746.91 1141.35 748.32 1144.62 750.18 1147.29 751.23 1150.32 754.02 1151.69 754.66 1153.83 755.03 1156.06 755.8 1158.6 756.89 1160.9 759.07 1162.56 762.18 1163.41 764.2 1165.55 763.43 1168.05 764.93 1171.04 767.88 1173.1 768.56 1175.73 767.39 1178.15 768.6 1180.78 770.62 1183.24 770.87 1186.68 771.31 1189.18 774.18 1191.32 775.51 1193.5 777.77 1192.01 778.62 1194.07 779.67 1197.22 782.62 1197.7 784.08 1200.45 786.94 1204.09 788.2 1206.71 790.74 1208.17 793.04 1207.68 795.43 1209.22 795.35 1211.52 797.61 1212.09 800.23 1210.59 802.74 1210.47 804.6 1213.22 804.48 1215.44 807.18 1213.78 809.32 1216.89 811.54 1219.52 811.3 1222.14 810.9 1224.65 810.53 1226.87 810.45 1229.86 813.16 1229.38 815.54 1230.99 815.06 1234.39 813.93 1237.78 814.86 1241.5 814.25 1244.16 813.52 1246.75 812.55 1249.33 812.39 1252.12 809.85 1253.49 811.02 1256.2 813.32 1255.92 814.86 1258.14 815.59 1262.22 818.86 1261.65 820.11 1265.37 819.95 1267.84 821.08 1270.14 821.81 1273.65 820.51 1276.64 821.24 1278.9 821.04 1281.41 821.36 1284.76 820.88 1286.98 819.06 1290.3 819.83 1293.16 820.39 1295.71 823.06 1295.35 824.39 1298.05 827.5 1300.76 825.52 1303.06 826.17 1305.32 829.24 1307.42 831.95 1308.27 833.72 1310.45 834.29 1316.03 836.51 1316.11 836.51 1316.11 836.75 1316.11 839.78 1319.14 840.51 1322.9 842.77 1326.61 843.05 1332.43 846.57 1335.3 846.45 1339.5 847.54 1344.63 850.09 1349.56 851.3 1357.8 851.38 1361.07 854 1362.2 856.87 1363.74 858.45 1365.96 859.5 1368.51 859.21 1371.01 858.73 1373.11 857.44 1375.21 859.01 1377.31 861.03 1380.14 864.14 1379.49 866.73 1377.92 869.96 1380.54 873.31 1379.49 875.53 1380.42 875.37 1382.77 877.76 1383.37 879.05 1380.75 880.5 1383.53 883.01 1385.51 885.15 1384.83 888.14 1385.31 890.36 1383.65 892.7 1384.14 893.59 1386.6 894.32 1388.95 896.42 1389.92 898.88 1389.23 900.14 1391.45 899.69 1394.12 902.36 1394.92 904.54 1395.93 902.32 1397.11 904.46 1397.95 907.04 1399.21 907.21 1401.31 909.71 1402.08 912.26 1399.85 914.96 1399.69 917.35 1399.09 919.65 1401.31 920.58 1403.41 922.23 1401.03 923.28 1403.49 925.63 1403.25 926.88 1405.79 929.71 1406.72 929.42 1404.34 931.73 1403.41 934.11 1404.34 933.67 1406.84 935.85 1408.13 938.43 1410.8 940.94 1412.9 943.48 1412.54 945.75 1413.39 946.07 1415.49 947.73 1418.15 950.31 1419.97 951.16 1417.83 953.99 1418.28 951.64 1420.34 953.87 1421.79 955.93 1424.46 960.01 1424.86 962.35 1427 964.65 1424.58 966.11 1426.96 968.25 1426.8 970.63 1425.51 973.5 1426.31 975.72 1426.11 975.15 1428.58 977.3 1427.97 979.8 1428.66 980.53 1425.83 982.87 1426.6 984.97 1426.23 987.07 1426.36 989.82 1425.83 992.08 1425.63 994.34 1426.6 997.13 1425.22 1000 1424.74 1001.37 1427.2 1004.08 1426.68 1006.18 1426.36 1008.28 1427.53 1009.01 1429.67 1011.11 1428.29 1011.63 1430.72 1014.42 1429.91 1017.9 1429.38 1020.04 1430.64 1022.7 1429.1 1022.06 1431.65 1025.17 1430.96 1024.48 1433.26 1026.74 1433.51 1025.89 1435.65 1028.08 1437.26 1030.5 1439.57 1032.72 1440.62 1031.75 1442.8 1035.51 1443 1037.77 1445.26 1038.09 1447.6 1038.7 1449.83 1041.41 1448.09 1042.01 1450.59 1044.15 1451.16 1046.26 1450.15 1047.51 1452.41 1048.48 1454.84 1051.67 1454.15 1053.32 1456.53 1055.63 1456.17 1055.34 1453.91 1057.24 1451.72 1056.43 1449.22 1055.42 1447.08 1057.65 1445.3 1060.15 1444.41 1062.25 1443.64 1064.39 1443.4 1066.62 1443.12 1066.62 1440.86 1070.21 1441.22 1072.47 1439.89 1074.73 1440.01 1076.84 1439.97 1079.1 1439.73 1081.36 1440.37 1081.44 1438.27 1087.74 1437.87 1087.42 1428.42 1087.94 1425.27 1087.38 1422.23 1085.8 1420.01 1085.52 1414.44 1084.75 1407.25 1083.86 1400.38 1080.31 1383.05 1077.12 1369.31 1073.77 1355.54 1072.55 1352.67 1069.48 1343.9 1065.93 1330.01 1063.91 1320.31 1062.37 1309.57 1061.61 1299.83 1061.32 1296.32 1061.32 1290.74 1061.73 1282.7 1062.41 1274.54 1062.9 1270.91 1064.35 1263.51 1065.28 1259.8 1068.88 1246.42 1069.64 1244.12 1075.38 1229.38 1079.34 1220.09 1083.86 1210.23 1092.43 1195.24 1097.12 1190.23 1099.9 1187.93 1102.73 1178.15 1105.11 1174.6 1108.51 1170.11 1112.35 1165.23 1115.86 1161.07 1127.01 1150.24 1139.05 1139.9 1144.1 1136.14 1151.53 1130.93 1163.53 1124.42 1166.96 1122.93 1169.27 1121.39 1172.74 1116.59 1173.51 1114.08 1175.49 1111.54 1178.52 1110.81 1181.59 1108.1 1182.6 1105.4 1185.18 1103.54 1191.24 1099.38 1203.36 1092.83 1211.96 1088.43 1226.22 1081.52 1237.29 1075.7 1240.44 1073.93 1265.09 1058.66 1269.65 1056.6 1278.06 1051.06 1280.2 1051.02 1282.86 1050.46 1285.65 1049.41 1289.2 1047.14 1290.58 1044.88 1292.76 1042.05 1297.08 1039.19 1299.99 1036.76 1302.37 1034.54 1305.28 1031.51 1311.55 1024.12 1313.77 1022.5 1315.75 1017.98 1316.03 1015.19 1325.85 1010.26 1330.01 1007.43 1335.9 1002.75 1344.11 997.41 1351.78 992.89 1355.38 989.05 1358.53 985.94 1360.91 986.67 1363.9 986.14 1366.61 983.52 1368.67 978.75 1368.18 975.6 1365.72 972.25 1368.59 970.23 1382.89 962.75 1392.02 958.47 1397.59 956.21 1425.51 943.16 1435.93 939.16 1450.47 939.16 1453.99 939.65 1455.92 941.87 1458.39 943 1460.89 943.04 1459.28 934.43 1458.27 930.27 1454.11 923.77 1451.89 921.43 1451.32 919.13 1448.13 916.66 1447.97 913.95 1449.58 911.53 1452.73 909.02 1456.25 906.48 1459.08 902.36 1460.57 899.09 1460.97 896.78 1462.15 893.07 1463.84 889.47 1466.27 887.45 1469.26 884.99 1469.66 882.85 1473.58 878.89 1471.2 876.67 1472.16 874.2 1473.82 871.13 1474.71 868.55 1473.58 865.92 1472.73 863.38 1472.25 860.95 1471.56 858.49 1472.61 856.31 1472.89 854.04 1473.01 851.78 1473.38 849.56 1471.76 847.46 1469.26 845.97 1467.52 843.42 1467.16 841.16 1468.13 838.77 1467.64 836.19 1468.73 833.76 1470.67 831.46 1470.95 829.12 1473.46 828.59 1473.7 826.49 1472.49 823.75 1472.77 821.52 1472.57 819.14 1471.8 816.8 1469.58 814.54 1470.35 812.43 1470.75 809.53 1473.5 807.55 1475.64 807.06 1475.84 804.84 1475.64 802.54 1475.88 800.36 1477.3 798.05 1479.44 796.44 1481.74 795.35 1482.99 793.13 1483.44 790.62 1484.29 788.2 1484.37 785.97 1485.25 783.83 1487.23 781.57 1488.2 778.46 1489.41 776.28 1490.59 773.86 1490.18 771.55 1489.37 769.29 1488.4 766.71 1490.55 764.6 1491.76 762.26 1493.74 759.88 1493.21 757.53 1491.03 755.84 1488.81 754.59 1488.37 752.45 1488.57 750.02 1491.07 749.94"/></g></g></g></svg>