<svg xmlns="http://www.w3.org/2000/svg" viewBox="0 0 283.33 283.33"><defs><style>.cls-1{fill:#768290;}.cls-2{fill:none;stroke:#f23a3e;stroke-miterlimit:10;stroke-width:17px;}.cls-3{fill:#f23a3e;}</style></defs><title>Asset 3</title><g id="Layer_2" data-name="Layer 2"><g id="Objects"><path class="cls-1" d="M237.54,183.46c-.05-.64-3.29-1.17-7.42-1.23v-.93a1.48,1.48,0,1,0-1.52,0v.93c-4.13.06-7.37.59-7.42,1.23h0V239.9h16.38V183.46Z"/><polygon class="cls-1" points="67.27 129.27 57.46 129.27 54.41 178 70.31 178 67.27 129.27"/><polygon class="cls-1" points="120.44 43.44 114.14 43.44 111.89 156.11 122.8 162.1 120.44 43.44"/><rect class="cls-1" x="104.54" y="175.46" width="3.24" height="3.32"/><rect class="cls-1" x="104.54" y="179.33" width="3.24" height="12.47"/><path class="cls-1" d="M108.05,171.94a3.49,3.49,0,0,0-3.45,3h6.9A3.49,3.49,0,0,0,108.05,171.94Z"/><rect class="cls-1" x="108.32" y="175.46" width="3.24" height="3.32"/><rect class="cls-1" x="108.32" y="179.33" width="3.24" height="12.47"/><polygon class="cls-1" points="162.02 122.24 157.13 122.24 157.13 158.7 162.02 161.39 162.02 122.24"/><rect class="cls-1" x="145.06" y="175.46" width="3.24" height="3.32"/><rect class="cls-1" x="145.06" y="179.33" width="3.24" height="12.47"/><path class="cls-1" d="M148.56,171.94a3.5,3.5,0,0,0-3.45,3H152A3.49,3.49,0,0,0,148.56,171.94Z"/><rect class="cls-1" x="148.84" y="175.46" width="3.24" height="3.32"/><rect class="cls-1" x="148.84" y="179.33" width="3.24" height="12.47"/><path class="cls-1" d="M196.78,156.1h.9v2.62l4.86,2.67V103.11h-4.86V104h-.9v-.85h-.36V158l.36.2Zm0-51.81h.9v7.07h-.9Zm0,7.4h.9v7.07h-.9Zm0,7.4h.9v7.07h-.9Zm0,7.4h.9v7.07h-.9Zm0,7.4h.9V141h-.9Zm0,7.4h.9v7.07h-.9Zm0,7.4h.9v7.07h-.9Z"/><polygon class="cls-1" points="182.15 122.24 177.26 122.24 177.26 160.47 182.15 157.77 182.15 122.24"/><path class="cls-1" d="M206.89,162.94h-3.08L189,154.81l-14.7,8.13h-3.06v1.69h0v28.28h-4.89v-30H163.3l-14.79-8.13-14.7,8.13h-3.06v1.69h0v28.28h-4.89v-30h-3.08L108,154.81l-14.7,8.13H90.24v1.69h0v28.28H78.47v47H218.66v-47H206.89Zm-22.57,11.19h.21a4.73,4.73,0,0,1,9.11,0h.2v18.79h-9.51Zm-40.51,0h.2a4.73,4.73,0,0,1,9.11,0h.2v18.79h-9.51Zm-40.52,0h.21a4.73,4.73,0,0,1,9.11,0h.2v18.79h-9.51ZM95.6,232.67H86.66v-7.46H95.6Zm0-12.53H86.66v-7.46H95.6Zm0-12.53H86.66v-7.46H95.6ZM110,232.67H101v-7.46H110Zm0-12.53H101v-7.46H110Zm0-12.53H101v-7.46H110Zm14.36,25.07h-8.95v-7.46h8.95Zm0-12.53h-8.95v-7.46h8.95Zm0-12.53h-8.95v-7.46h8.95Zm14.36,25.07h-8.95v-7.46h8.95Zm0-12.53h-8.95v-7.46h8.95Zm0-12.53h-8.95v-7.46h8.95ZM153,232.67h-8.95v-7.46H153Zm0-12.53h-8.95v-7.46H153Zm0-12.53h-8.95v-7.46H153Zm14.36,25.07h-8.95v-7.46h8.95Zm0-12.53h-8.95v-7.46h8.95Zm0-12.53h-8.95v-7.46h8.95Zm14.36,25.07h-8.95v-7.46h8.95Zm0-12.53h-8.95v-7.46h8.95Zm0-12.53h-8.95v-7.46h8.95Zm14.36,25.07h-8.95v-7.46h8.95Zm0-12.53h-8.95v-7.46h8.95Zm0-12.53h-8.95v-7.46h8.95Zm14.36,25.07h-8.95v-7.46h8.95Zm0-12.53h-8.95v-7.46h8.95Zm0-12.53h-8.95v-7.46h8.95Z"/><rect class="cls-1" x="185.57" y="175.46" width="3.24" height="3.32"/><rect class="cls-1" x="185.57" y="179.33" width="3.24" height="12.47"/><path class="cls-1" d="M189.08,171.94a3.49,3.49,0,0,0-3.45,3h6.9A3.49,3.49,0,0,0,189.08,171.94Z"/><rect class="cls-1" x="189.35" y="175.46" width="3.24" height="3.32"/><rect class="cls-1" x="189.35" y="179.33" width="3.24" height="12.47"/><path class="cls-1" d="M45.79,239.9H75.62V178.75H45.79ZM62.34,183.3h3v5.52h-3Zm0,9.21h3V198h-3Zm0,9.2h3v5.52h-3Zm0,9.21h3v5.52h-3Zm0,9.2h3v5.52h-3Zm0,9.21h3v5.52h-3Zm-6-46h3v5.52h-3Zm0,9.21h3V198h-3Zm0,9.2h3v5.52h-3Zm0,9.21h3v5.52h-3Zm0,9.2h3v5.52h-3Zm0,9.21h3v5.52h-3Zm-6-46h3v5.52h-3Zm0,9.21h3V198h-3Zm0,9.2h3v5.52h-3Zm0,9.21h3v5.52h-3Zm0,9.2h3v5.52h-3Zm0,9.21h3v5.52h-3Z"/><circle class="cls-2" cx="141.67" cy="141.67" r="133.17"/><rect class="cls-3" x="126.96" y="10.1" width="21" height="273.81" transform="translate(-63.69 140.25) rotate(-45)"/></g></g></svg>