<svg xmlns="http://www.w3.org/2000/svg" viewBox="0 0 30.37 30.37"><defs><style>.cls-1{fill:#fff;}</style></defs><title>Asset 2</title><g id="Layer_2" data-name="Layer 2"><g id="Layer_1-2" data-name="Layer 1"><path class="cls-1" d="M17.3,9.26a3.07,3.07,0,0,0-2.07,3.09l0,.53-.53-.06a8.62,8.62,0,0,1-5-2.49L9,9.62l-.18.51a3.1,3.1,0,0,0,.66,3.17c.42.45.33.51-.4.25a1.26,1.26,0,0,0-.5-.12,3.85,3.85,0,0,0,.38,1.44,3.43,3.43,0,0,0,1.45,1.37l.52.25H10.3c-.59,0-.62,0-.55.24a3.21,3.21,0,0,0,2,1.76l.66.22-.57.34A6,6,0,0,1,9,19.86a3.12,3.12,0,0,0-.87.09,8.1,8.1,0,0,0,2,.94,9,9,0,0,0,7-.79,9.33,9.33,0,0,0,3.53-4.16,11.06,11.06,0,0,0,.72-3.22c0-.49,0-.56.63-1.15a7,7,0,0,0,.74-.83c.11-.2.1-.2-.45,0-.9.32-1,.28-.58-.2a3.13,3.13,0,0,0,.72-1.15s-.16,0-.34.12a5.86,5.86,0,0,1-.93.36l-.57.18-.52-.35a4.31,4.31,0,0,0-.9-.47A3.62,3.62,0,0,0,17.3,9.26ZM15.19,30.37A15.19,15.19,0,1,1,30.37,15.19,15.19,15.19,0,0,1,15.19,30.37Z"/></g></g></svg>