<?xml version="1.0" encoding="utf-8"?>
<!-- Generator: Adobe Illustrator 20.1.0, SVG Export Plug-In . SVG Version: 6.00 Build 0)  -->
<svg version="1.1" id="Layer_1" xmlns="http://www.w3.org/2000/svg" xmlns:xlink="http://www.w3.org/1999/xlink" x="0px" y="0px"
	 viewBox="0 0 32 32" style="enable-background:new 0 0 32 32;" xml:space="preserve">
<style type="text/css">
	.st0{fill:#FFFFFF;}
</style>
<path class="st0" d="M28,0H4C1.7,0,0,1.7,0,4v24c0,2.3,1.7,4,4,4h24c2.3,0,4-1.7,4-4V4C32,1.7,30.3,0,28,0z M16,9.7
	c3.5,0,6.4,2.8,6.4,6.2c0,3.4-2.9,6.2-6.4,6.2c-3.5,0-6.4-2.8-6.4-6.2C9.6,12.5,12.5,9.7,16,9.7z M28,27c0,0.7-0.3,1-1,1H5
	c-0.7,0-1-0.3-1-1V13l2.5,0.5c-0.3,0.9-0.4,1.8-0.4,2.7c0,5.3,4.5,9.6,9.9,9.6c5.5,0,9.9-4.3,9.9-9.6c0-1-0.1-1.9-0.4-2.7L28,13V27z
	 M28,9c0,0.6-0.4,1-1,1h-4c-0.6,0-1-0.4-1-1V5c0-0.6,0.4-1,1-1h4c0.6,0,1,0.4,1,1V9z"/>
</svg>
