<?xml version="1.0" encoding="utf-8"?>
<!-- Generator: Adobe Illustrator 21.1.0, SVG Export Plug-In . SVG Version: 6.00 Build 0)  -->
<svg version="1.1" id="Layer_1" xmlns="http://www.w3.org/2000/svg" xmlns:xlink="http://www.w3.org/1999/xlink" x="0px" y="0px"
	 viewBox="0 0 1920 999.2" style="enable-background:new 0 0 1920 999.2;" xml:space="preserve">
<style type="text/css">
	.st0{opacity:0.65;}
	.st1{clip-path:url(#SVGID_2_);}
	.st2{opacity:0.5;}
	.st3{fill:#218FFF;}
	.st4{fill:#FF3939;}
	.st5{fill:#003366;}
	.st6{fill:url(#SVGID_3_);}
</style>
<title>Asset 1</title>
<g id="Layer_2">
	<g id="Layer_1-2">
		<g id="Layer_2-2">
			<g id="Layer_1-2-2">
				<g class="st0">
					<g>
						<defs>
							<polyline id="SVGID_1_" points="0,999.2 0,0 1920,0 1920,999.2 							"/>
						</defs>
						<clipPath id="SVGID_2_">
							<use xlink:href="#SVGID_1_"  style="overflow:visible;"/>
						</clipPath>
						<g class="st1">
							<g class="st2">
								
									<rect x="1066.6" y="415" transform="matrix(0.9384 -0.3455 0.3455 0.9384 -81.2288 396.3336)" class="st3" width="9.4" height="22.1"/>
								
									<rect x="1372.7" y="432.9" transform="matrix(0.9384 -0.3455 0.3455 0.9384 -68.5677 503.1743)" class="st3" width="9.4" height="22.1"/>
								
									<rect x="986.5" y="375.3" transform="matrix(0.1995 -0.9799 0.9799 0.1995 426.1271 1281.6167)" class="st4" width="22.1" height="9.4"/>
								
									<rect x="1405.9" y="350.1" transform="matrix(0.834 -0.5518 0.5518 0.834 34.8806 838.3307)" class="st4" width="9.4" height="22.1"/>
								
									<rect x="1123.9" y="390.7" transform="matrix(0.3971 -0.9178 0.9178 0.3971 321.3658 1279.9937)" class="st5" width="22.1" height="9.4"/>
								<polygon class="st3" points="1120.3,479.2 1115,473.9 1122.2,472 1129.4,470.1 1127.5,477.3 1125.6,484.5 								"/>
								<polygon class="st5" points="1012.4,470.7 1007.1,465.4 1014.3,463.5 1021.5,461.5 1019.6,468.8 1017.7,476 								"/>
								<polygon class="st4" points="1077.5,355.6 1070.3,353.7 1075.5,348.4 1080.8,343.1 1082.8,350.3 1084.7,357.5 								"/>
								<polygon class="st4" points="1384.6,507.1 1377.4,505.2 1382.7,499.9 1387.9,494.6 1389.9,501.8 1391.8,509 								"/>
								<circle class="st5" cx="970.4" cy="440.9" r="2.9"/>
								<circle class="st5" cx="1374.5" cy="331" r="2.9"/>
								<circle class="st3" cx="1024.5" cy="339.6" r="2.9"/>
								<circle class="st4" cx="1087.7" cy="498.9" r="2.9"/>
								
									<rect x="1175.1" y="443.8" transform="matrix(0.9384 -0.3455 0.3455 0.9384 -84.4966 435.5809)" class="st3" width="9.4" height="22.1"/>
								
									<rect x="1306.3" y="453.9" transform="matrix(0.9384 -0.3455 0.3455 0.9384 -79.9003 481.5388)" class="st3" width="9.4" height="22.1"/>
								
									<rect x="1226.2" y="418.3" transform="matrix(0.1995 -0.9799 0.9799 0.1995 575.918 1550.9637)" class="st4" width="22.1" height="9.4"/>
								
									<rect x="1323.6" y="356.5" transform="matrix(0.1023 -0.9948 0.9948 0.1023 838.8511 1651.9244)" class="st5" width="22.1" height="9.4"/>
								<polygon class="st3" points="1171.7,359.2 1176.9,364.5 1169.7,366.4 1162.5,368.4 1164.4,361.2 1166.4,353.9 								"/>
								<polygon class="st5" points="1220.7,489.8 1226,495.1 1218.7,497 1211.5,498.9 1213.5,491.7 1215.4,484.5 								"/>
								<polygon class="st4" points="1274.7,381.3 1281.9,383.2 1276.6,388.5 1271.4,393.8 1269.4,386.6 1267.5,379.3 								"/>
								<circle class="st5" cx="1227.5" cy="352.2" r="2.9"/>
								<circle class="st3" cx="1325.9" cy="409.7" r="2.9"/>
								<circle class="st4" cx="1267.5" cy="494.7" r="2.9"/>
								<circle class="st4" cx="1433" cy="457.9" r="2.9"/>
								
									<rect x="1550.7" y="415" transform="matrix(0.9384 -0.3455 0.3455 0.9384 -51.4377 563.5738)" class="st3" width="9.4" height="22.1"/>
								
									<rect x="1850.5" y="439" transform="matrix(0.2869 -0.958 0.958 0.2869 902.4819 2099.7581)" class="st3" width="22.1" height="9.4"/>
								
									<rect x="1470.5" y="375.3" transform="matrix(0.1995 -0.9799 0.9799 0.1995 813.6013 1755.98)" class="st4" width="22.1" height="9.4"/>
								
									<rect x="1883.6" y="356.5" transform="matrix(0.1995 -0.9799 0.9799 0.1995 1162.6652 2145.6841)" class="st4" width="22.1" height="9.4"/>
								
									<rect x="1608.1" y="390.6" transform="matrix(0.1023 -0.9948 0.9948 0.1023 1060.3761 1965.5027)" class="st5" width="22.1" height="9.4"/>
								<polygon class="st3" points="1604.3,479.2 1599.1,473.9 1606.3,472 1613.5,470.1 1611.6,477.3 1609.6,484.5 								"/>
								<polygon class="st5" points="1496.4,470.7 1491.2,465.4 1498.4,463.5 1505.6,461.5 1503.7,468.8 1501.7,476 								"/>
								<polygon class="st4" points="1561.6,355.6 1554.3,353.7 1559.6,348.4 1564.9,343.1 1566.8,350.3 1568.8,357.5 								"/>
								<polygon class="st4" points="1868.7,507.1 1861.5,505.2 1866.8,499.9 1872,494.6 1874,501.8 1875.9,509 								"/>
								<circle class="st5" cx="1454.5" cy="440.9" r="2.9"/>
								<circle class="st5" cx="1858.6" cy="331" r="2.9"/>
								<circle class="st3" cx="1508.6" cy="339.6" r="2.9"/>
								<circle class="st4" cx="1571.7" cy="498.9" r="2.9"/>
								
									<rect x="1659.2" y="443.8" transform="matrix(0.9384 -0.3455 0.3455 0.9384 -54.6779 602.8071)" class="st3" width="9.4" height="22.1"/>
								
									<rect x="1790.4" y="453.8" transform="matrix(0.9384 -0.3455 0.3455 0.9384 -50.0857 648.7621)" class="st3" width="9.4" height="22.1"/>
								
									<rect x="1710.3" y="418.3" transform="matrix(0.1995 -0.9799 0.9799 0.1995 963.417 2025.2849)" class="st4" width="22.1" height="9.4"/>
								
									<rect x="1814.1" y="350" transform="matrix(0.9567 -0.2912 0.2912 0.9567 -26.3266 545.2771)" class="st5" width="9.4" height="22.1"/>
								<polygon class="st3" points="1655.7,359.2 1661,364.5 1653.8,366.4 1646.6,368.4 1648.5,361.2 1650.5,353.9 								"/>
								<polygon class="st5" points="1704.8,489.8 1710.1,495.1 1702.8,497 1695.6,498.9 1697.5,491.7 1699.5,484.5 								"/>
								<polygon class="st4" points="1758.8,381.3 1766,383.2 1760.7,388.5 1755.4,393.8 1753.5,386.6 1751.5,379.3 								"/>
								<circle class="st5" cx="1711.6" cy="352.2" r="2.9"/>
								<circle class="st3" cx="1810" cy="409.7" r="2.9"/>
								<circle class="st4" cx="1751.5" cy="494.7" r="2.9"/>
								<circle class="st4" cx="1917.1" cy="457.9" r="2.9"/>
								
									<rect x="1066.6" y="602.9" transform="matrix(0.9384 -0.3455 0.3455 0.9384 -146.1517 407.897)" class="st3" width="9.4" height="22.1"/>
								
									<rect x="1372.7" y="620.8" transform="matrix(0.9384 -0.3455 0.3455 0.9384 -133.4906 514.7377)" class="st3" width="9.4" height="22.1"/>
								
									<rect x="986.5" y="563.2" transform="matrix(0.1995 -0.9799 0.9799 0.1995 241.9934 1432.0189)" class="st4" width="22.1" height="9.4"/>
								
									<rect x="1399.5" y="544.4" transform="matrix(0.1995 -0.9799 0.9799 0.1995 591.0581 1821.7195)" class="st4" width="22.1" height="9.4"/>
								
									<rect x="1124" y="578.5" transform="matrix(0.1023 -0.9948 0.9948 0.1023 438.8669 1652.6586)" class="st5" width="22.1" height="9.4"/>
								<polygon class="st3" points="1120.3,667.1 1115,661.8 1122.2,659.9 1129.4,658 1127.5,665.2 1125.6,672.4 								"/>
								<polygon class="st5" points="1012.4,658.6 1007.1,653.3 1014.3,651.4 1021.5,649.4 1019.6,656.7 1017.7,663.9 								"/>
								<polygon class="st4" points="1077.5,543.5 1070.3,541.6 1075.5,536.3 1080.8,531 1082.8,538.2 1084.7,545.5 								"/>
								<polygon class="st4" points="1384.6,695 1377.4,693.1 1382.7,687.8 1387.9,682.5 1389.9,689.7 1391.8,696.9 								"/>
								<circle class="st5" cx="970.4" cy="628.8" r="2.9"/>
								<circle class="st5" cx="1374.5" cy="518.9" r="2.9"/>
								<circle class="st3" cx="1024.5" cy="527.5" r="2.9"/>
								<circle class="st4" cx="1087.7" cy="686.8" r="2.9"/>
								
									<rect x="1175.1" y="631.7" transform="matrix(0.9384 -0.3455 0.3455 0.9384 -149.4075 447.1533)" class="st3" width="9.4" height="22.1"/>
								
									<rect x="1306.3" y="641.8" transform="matrix(0.9384 -0.3455 0.3455 0.9384 -144.8147 493.1118)" class="st3" width="9.4" height="22.1"/>
								
									<rect x="1226.2" y="606.2" transform="matrix(0.1995 -0.9799 0.9799 0.1995 391.7803 1701.3853)" class="st4" width="22.1" height="9.4"/>
								
									<rect x="1323.6" y="544.4" transform="matrix(0.1023 -0.9948 0.9948 0.1023 651.9169 1820.5776)" class="st5" width="22.1" height="9.4"/>
								<polygon class="st3" points="1171.7,547.1 1176.9,552.4 1169.7,554.3 1162.5,556.3 1164.4,549.1 1166.4,541.8 								"/>
								<polygon class="st5" points="1220.7,677.7 1226,683 1218.7,684.9 1211.5,686.8 1213.5,679.6 1215.4,672.4 								"/>
								<polygon class="st4" points="1274.7,569.2 1281.9,571.1 1276.6,576.4 1271.4,581.7 1269.4,574.5 1267.5,567.3 								"/>
								<circle class="st5" cx="1227.5" cy="540.1" r="2.9"/>
								<circle class="st3" cx="1325.9" cy="597.6" r="2.9"/>
								<circle class="st4" cx="1267.5" cy="682.6" r="2.9"/>
								<circle class="st4" cx="1433" cy="645.8" r="2.9"/>
								
									<rect x="1550.7" y="603" transform="matrix(0.9384 -0.3455 0.3455 0.9384 -116.3572 575.1366)" class="st3" width="9.4" height="22.1"/>
								
									<rect x="1856.8" y="620.9" transform="matrix(0.9384 -0.3455 0.3455 0.9384 -103.6961 681.9774)" class="st3" width="9.4" height="22.1"/>
								
									<rect x="1470.5" y="563.2" transform="matrix(0.1995 -0.9799 0.9799 0.1995 629.4564 1906.3882)" class="st4" width="22.1" height="9.4"/>
								
									<rect x="1883.6" y="544.4" transform="matrix(0.1995 -0.9799 0.9799 0.1995 978.5208 2296.0889)" class="st4" width="22.1" height="9.4"/>
								
									<rect x="1608.1" y="578.5" transform="matrix(0.1023 -0.9948 0.9948 0.1023 873.4707 2134.188)" class="st5" width="22.1" height="9.4"/>
								<polygon class="st3" points="1604.3,667.1 1599.1,661.8 1606.3,659.9 1613.5,658 1611.6,665.2 1609.6,672.4 								"/>
								<polygon class="st5" points="1496.4,658.6 1491.2,653.3 1498.4,651.4 1505.6,649.4 1503.7,656.7 1501.7,663.9 								"/>
								<polygon class="st4" points="1561.6,543.5 1554.3,541.6 1559.6,536.3 1564.9,531 1566.8,538.2 1568.8,545.5 								"/>
								<polygon class="st4" points="1868.7,695 1861.5,693.1 1866.8,687.8 1872,682.5 1874,689.7 1875.9,696.9 								"/>
								<circle class="st5" cx="1454.5" cy="628.8" r="2.9"/>
								<circle class="st5" cx="1858.6" cy="518.9" r="2.9"/>
								<circle class="st3" cx="1508.6" cy="527.5" r="2.9"/>
								<circle class="st4" cx="1571.7" cy="686.8" r="2.9"/>
								
									<rect x="1659.2" y="631.7" transform="matrix(0.9384 -0.3455 0.3455 0.9384 -119.5922 614.3801)" class="st3" width="9.4" height="22.1"/>
								
									<rect x="1790.4" y="641.7" transform="matrix(0.9384 -0.3455 0.3455 0.9384 -114.9948 660.3376)" class="st3" width="9.4" height="22.1"/>
								
									<rect x="1710.3" y="606.2" transform="matrix(0.1995 -0.9799 0.9799 0.1995 779.2903 2175.7202)" class="st4" width="22.1" height="9.4"/>
								
									<rect x="1807.7" y="544.4" transform="matrix(0.1023 -0.9948 0.9948 0.1023 1086.4847 2302.157)" class="st5" width="22.1" height="9.4"/>
								<polygon class="st3" points="1655.7,547.1 1661,552.4 1653.8,554.3 1646.6,556.3 1648.5,549.1 1650.5,541.8 								"/>
								<polygon class="st5" points="1704.8,677.7 1710.1,683 1702.8,684.9 1695.6,686.8 1697.5,679.6 1699.5,672.4 								"/>
								<polygon class="st4" points="1758.8,569.2 1766,571.1 1760.7,576.4 1755.4,581.7 1753.5,574.5 1751.5,567.3 								"/>
								<circle class="st5" cx="1711.6" cy="540.1" r="2.9"/>
								<circle class="st3" cx="1810" cy="597.6" r="2.9"/>
								<circle class="st4" cx="1751.5" cy="682.6" r="2.9"/>
								<circle class="st4" cx="1917.1" cy="645.8" r="2.9"/>
							</g>
							<g class="st2">
								
									<rect x="116.8" y="462.4" transform="matrix(0.9384 -0.3455 0.3455 0.9384 -156.0747 71.1225)" class="st3" width="9.4" height="22.1"/>
								
									<rect x="422.9" y="480.3" transform="matrix(0.9384 -0.3455 0.3455 0.9384 -143.407 177.9631)" class="st3" width="9.4" height="22.1"/>
								
									<rect x="36.7" y="422.7" transform="matrix(0.1995 -0.9799 0.9799 0.1995 -380.5852 388.8985)" class="st4" width="22.1" height="9.4"/>
								
									<rect x="456.1" y="397.6" transform="matrix(0.834 -0.5518 0.5518 0.834 -148.965 322.107)" class="st4" width="9.4" height="22.1"/>
								
									<rect x="174.2" y="438" transform="matrix(0.3971 -0.9178 0.9178 0.3971 -294.66 436.8951)" class="st5" width="22.1" height="9.4"/>
								<polygon class="st3" points="170.5,526.7 165.2,521.4 172.4,519.4 179.6,517.5 177.7,524.7 175.8,531.9 								"/>
								<polygon class="st5" points="62.6,518.1 57.3,512.8 64.5,510.9 71.7,509 69.8,516.2 67.9,523.4 								"/>
								<polygon class="st4" points="127.7,403.1 120.5,401.2 125.7,395.8 131,390.5 133,397.8 134.9,405 								"/>
								<polygon class="st4" points="434.9,554.5 427.6,552.6 432.9,547.3 438.2,542 440.1,549.2 442.1,556.5 								"/>
								<circle class="st5" cx="20.6" cy="488.3" r="2.9"/>
								<circle class="st5" cx="424.7" cy="378.4" r="2.9"/>
								<circle class="st3" cx="74.7" cy="387" r="2.9"/>
								<circle class="st4" cx="137.9" cy="546.3" r="2.9"/>
								
									<rect x="225.4" y="491.3" transform="matrix(0.9384 -0.3455 0.3455 0.9384 -159.3787 110.4037)" class="st3" width="9.4" height="22.1"/>
								
									<rect x="356.6" y="501.4" transform="matrix(0.9384 -0.3455 0.3455 0.9384 -154.7896 156.3539)" class="st3" width="9.4" height="22.1"/>
								
									<rect x="276.4" y="465.7" transform="matrix(0.1995 -0.9799 0.9799 0.1995 -230.8742 658.2666)" class="st4" width="22.1" height="9.4"/>
								
									<rect x="373.8" y="403.9" transform="matrix(0.1023 -0.9948 0.9948 0.1023 -60.9342 749.6617)" class="st5" width="22.1" height="9.4"/>
								<polygon class="st3" points="221.9,406.7 227.2,411.9 219.9,413.9 212.7,415.8 214.7,408.6 216.6,401.4 								"/>
								<polygon class="st5" points="270.9,537.2 276.2,542.5 269,544.4 261.7,546.4 263.7,539.2 265.6,531.9 								"/>
								<polygon class="st4" points="324.9,428.7 332.1,430.6 326.9,435.9 321.6,441.2 319.6,434 317.7,426.8 								"/>
								<circle class="st5" cx="277.7" cy="399.7" r="2.9"/>
								<circle class="st3" cx="376.1" cy="457.2" r="2.9"/>
								<circle class="st4" cx="317.7" cy="542.1" r="2.9"/>
								<circle class="st4" cx="483.2" cy="505.3" r="2.9"/>
								
									<rect x="600.9" y="462.4" transform="matrix(0.9384 -0.3455 0.3455 0.9384 -126.283 238.3662)" class="st3" width="9.4" height="22.1"/>
								
									<rect x="900.7" y="486.5" transform="matrix(0.2869 -0.958 0.958 0.2869 179.6389 1223.755)" class="st3" width="22.1" height="9.4"/>
								
									<rect x="520.8" y="422.7" transform="matrix(0.1995 -0.9799 0.9799 0.1995 6.8781 863.2478)" class="st4" width="22.1" height="9.4"/>
								
									<rect x="933.8" y="403.9" transform="matrix(0.1995 -0.9799 0.9799 0.1995 355.933 1252.9563)" class="st4" width="22.1" height="9.4"/>
								
									<rect x="658.3" y="438" transform="matrix(0.1023 -0.9948 0.9948 0.1023 160.5141 1063.2869)" class="st5" width="22.1" height="9.4"/>
								<polygon class="st3" points="654.6,526.7 649.3,521.4 656.5,519.4 663.7,517.5 661.8,524.7 659.8,531.9 								"/>
								<polygon class="st5" points="546.7,518.1 541.4,512.8 548.6,510.9 555.8,509 553.9,516.2 552,523.4 								"/>
								<polygon class="st4" points="611.8,403.1 604.6,401.2 609.8,395.8 615.1,390.5 617,397.8 619,405 								"/>
								<polygon class="st4" points="918.9,554.5 911.7,552.6 917,547.3 922.2,542 924.2,549.2 926.2,556.5 								"/>
								<circle class="st5" cx="504.7" cy="488.3" r="2.9"/>
								<circle class="st5" cx="908.8" cy="378.4" r="2.9"/>
								<circle class="st3" cx="558.8" cy="387" r="2.9"/>
								<circle class="st4" cx="622" cy="546.3" r="2.9"/>
								
									<rect x="709.4" y="491.3" transform="matrix(0.9384 -0.3455 0.3455 0.9384 -129.56 277.6299)" class="st3" width="9.4" height="22.1"/>
								
									<rect x="840.6" y="501.4" transform="matrix(0.9384 -0.3455 0.3455 0.9384 -124.9726 323.5837)" class="st3" width="9.4" height="22.1"/>
								
									<rect x="760.5" y="465.7" transform="matrix(0.1995 -0.9799 0.9799 0.1995 156.643 1132.615)" class="st4" width="22.1" height="9.4"/>
								
									<rect x="864.3" y="397.5" transform="matrix(0.9567 -0.2912 0.2912 0.9567 -81.3103 270.753)" class="st5" width="9.4" height="22.1"/>
								<polygon class="st3" points="706,406.7 711.2,411.9 704,413.9 696.8,415.8 698.7,408.6 700.7,401.4 								"/>
								<polygon class="st5" points="755,537.2 760.3,542.5 753,544.4 745.8,546.4 747.8,539.2 749.7,531.9 								"/>
								<polygon class="st4" points="809,428.7 816.2,430.6 810.9,435.9 805.7,441.2 803.7,434 801.8,426.8 								"/>
								<circle class="st5" cx="761.8" cy="399.7" r="2.9"/>
								<circle class="st3" cx="860.2" cy="457.2" r="2.9"/>
								<circle class="st4" cx="801.8" cy="542.1" r="2.9"/>
								<circle class="st4" cx="967.3" cy="505.3" r="2.9"/>
								
									<rect x="116.8" y="650.3" transform="matrix(0.9384 -0.3455 0.3455 0.9384 -220.9857 82.6882)" class="st3" width="9.4" height="22.1"/>
								
									<rect x="422.9" y="668.2" transform="matrix(0.9384 -0.3455 0.3455 0.9384 -208.3216 189.5272)" class="st3" width="9.4" height="22.1"/>
								
									<rect x="36.7" y="610.6" transform="matrix(0.1995 -0.9799 0.9799 0.1995 -564.705 539.2899)" class="st4" width="22.1" height="9.4"/>
								
									<rect x="449.7" y="591.8" transform="matrix(0.1995 -0.9799 0.9799 0.1995 -215.6634 929.0058)" class="st4" width="22.1" height="9.4"/>
								
									<rect x="174.2" y="625.9" transform="matrix(0.1023 -0.9948 0.9948 0.1023 -460.9974 750.4647)" class="st5" width="22.1" height="9.4"/>
								<polygon class="st3" points="170.5,714.6 165.2,709.3 172.4,707.3 179.6,705.4 177.7,712.6 175.8,719.8 								"/>
								<polygon class="st5" points="62.6,706 57.3,700.7 64.5,698.8 71.7,696.9 69.8,704.1 67.9,711.3 								"/>
								<polygon class="st4" points="127.7,591 120.5,589.1 125.7,583.8 131,578.5 133,585.7 134.9,592.9 								"/>
								<polygon class="st4" points="434.9,742.5 427.6,740.5 432.9,735.2 438.2,729.9 440.1,737.2 442.1,744.4 								"/>
								<circle class="st5" cx="20.6" cy="676.2" r="2.9"/>
								<circle class="st5" cx="424.7" cy="566.3" r="2.9"/>
								<circle class="st3" cx="74.7" cy="574.9" r="2.9"/>
								<circle class="st4" cx="137.9" cy="734.2" r="2.9"/>
								
									<rect x="225.4" y="679.2" transform="matrix(0.9384 -0.3455 0.3455 0.9384 -224.2896 121.9761)" class="st3" width="9.4" height="22.1"/>
								
									<rect x="356.6" y="689.3" transform="matrix(0.9384 -0.3455 0.3455 0.9384 -219.6992 167.9282)" class="st3" width="9.4" height="22.1"/>
								
									<rect x="276.4" y="653.6" transform="matrix(0.1995 -0.9799 0.9799 0.1995 -414.9866 808.6713)" class="st4" width="22.1" height="9.4"/>
								
									<rect x="373.8" y="591.8" transform="matrix(0.1023 -0.9948 0.9948 0.1023 -247.8822 918.3436)" class="st5" width="22.1" height="9.4"/>
								<polygon class="st3" points="221.9,594.6 227.2,599.8 219.9,601.8 212.7,603.7 214.7,596.5 216.6,589.3 								"/>
								<polygon class="st5" points="270.9,725.1 276.2,730.4 269,732.3 261.7,734.3 263.7,727.1 265.6,719.8 								"/>
								<polygon class="st4" points="324.9,616.6 332.1,618.5 326.9,623.8 321.6,629.1 319.6,621.9 317.7,614.7 								"/>
								<circle class="st5" cx="277.7" cy="587.6" r="2.9"/>
								<circle class="st3" cx="376.1" cy="645.1" r="2.9"/>
								<circle class="st4" cx="317.7" cy="730" r="2.9"/>
								<circle class="st4" cx="483.2" cy="693.2" r="2.9"/>
								
									<rect x="600.9" y="650.3" transform="matrix(0.9384 -0.3455 0.3455 0.9384 -191.1964 249.9254)" class="st3" width="9.4" height="22.1"/>
								
									<rect x="907" y="668.2" transform="matrix(0.9384 -0.3455 0.3455 0.9384 -178.5334 356.7715)" class="st3" width="9.4" height="22.1"/>
								
									<rect x="520.8" y="610.6" transform="matrix(0.1995 -0.9799 0.9799 0.1995 -177.2535 1013.6486)" class="st4" width="22.1" height="9.4"/>
								
									<rect x="933.8" y="591.8" transform="matrix(0.1995 -0.9799 0.9799 0.1995 171.8111 1403.3491)" class="st4" width="22.1" height="9.4"/>
								
									<rect x="658.3" y="625.9" transform="matrix(0.1023 -0.9948 0.9948 0.1023 -26.4134 1231.9918)" class="st5" width="22.1" height="9.4"/>
								<polygon class="st3" points="654.6,714.6 649.3,709.3 656.5,707.3 663.7,705.4 661.8,712.6 659.8,719.8 								"/>
								<polygon class="st5" points="546.7,706 541.4,700.7 548.6,698.8 555.8,696.9 553.9,704.1 552,711.3 								"/>
								<polygon class="st4" points="611.8,591 604.6,589.1 609.8,583.8 615.1,578.5 617,585.7 619,592.9 								"/>
								<polygon class="st4" points="918.9,742.5 911.7,740.5 917,735.2 922.2,729.9 924.2,737.2 926.2,744.4 								"/>
								<circle class="st5" cx="504.7" cy="676.2" r="2.9"/>
								<circle class="st5" cx="908.8" cy="566.3" r="2.9"/>
								<circle class="st3" cx="558.8" cy="574.9" r="2.9"/>
								<circle class="st4" cx="622" cy="734.2" r="2.9"/>
								
									<rect x="709.4" y="679.2" transform="matrix(0.9384 -0.3455 0.3455 0.9384 -194.478 289.2012)" class="st3" width="9.4" height="22.1"/>
								
									<rect x="840.7" y="689.3" transform="matrix(0.9384 -0.3455 0.3455 0.9384 -189.8835 335.1561)" class="st3" width="9.4" height="22.1"/>
								
									<rect x="761" y="653.9" transform="matrix(0.2 -0.9798 0.9798 0.2 -27.6384 1283.3002)" class="st4" width="22.1" height="9.4"/>
								
									<rect x="857.9" y="591.8" transform="matrix(0.1023 -0.9948 0.9948 0.1023 186.6678 1399.9011)" class="st5" width="22.1" height="9.4"/>
								<polygon class="st3" points="706,594.6 711.2,599.8 704,601.8 696.8,603.7 698.7,596.5 700.7,589.3 								"/>
								<polygon class="st5" points="755,725.1 760.3,730.4 753,732.3 745.8,734.3 747.8,727.1 749.7,719.8 								"/>
								<polygon class="st4" points="809,616.6 816.2,618.5 810.9,623.8 805.7,629.1 803.7,621.9 801.8,614.7 								"/>
								<circle class="st5" cx="761.8" cy="587.6" r="2.9"/>
								<circle class="st3" cx="860.2" cy="645.1" r="2.9"/>
								<circle class="st4" cx="801.8" cy="730" r="2.9"/>
								<circle class="st4" cx="967.3" cy="693.2" r="2.9"/>
							</g>
							<g class="st2">
								
									<rect x="116.8" y="85" transform="matrix(0.9384 -0.3455 0.3455 0.9384 -25.6985 47.9027)" class="st3" width="9.4" height="22.1"/>
								
									<rect x="422.9" y="102.9" transform="matrix(0.9384 -0.3455 0.3455 0.9384 -13.0356 154.7421)" class="st3" width="9.4" height="22.1"/>
								
									<rect x="36.7" y="45.3" transform="matrix(0.1995 -0.9799 0.9799 0.1995 -10.7956 86.8394)" class="st4" width="22.1" height="9.4"/>
								
									<rect x="456.1" y="20.2" transform="matrix(0.834 -0.5518 0.5518 0.834 59.2699 259.4582)" class="st4" width="9.4" height="22.1"/>
								
									<rect x="174.2" y="60.7" transform="matrix(0.3971 -0.9178 0.9178 0.3971 51.6764 209.4315)" class="st5" width="22.1" height="9.4"/>
								<polygon class="st3" points="170.5,149.3 165.2,144 172.4,142.1 179.6,140.1 177.7,147.3 175.8,154.6 								"/>
								<polygon class="st5" points="62.6,140.8 57.3,135.5 64.5,133.5 71.7,131.6 69.8,138.8 67.9,146 								"/>
								<polygon class="st4" points="127.7,25.7 120.5,23.8 125.7,18.5 131,13.2 133,20.4 134.9,27.6 								"/>
								<polygon class="st4" points="434.9,177.2 427.6,175.3 432.9,170 438.2,164.7 440.1,171.9 442.1,179.1 								"/>
								<circle class="st5" cx="20.6" cy="111" r="2.9"/>
								<circle class="st5" cx="424.7" cy="1" r="2.9"/>
								<circle class="st3" cx="74.7" cy="9.6" r="2.9"/>
								<circle class="st4" cx="137.9" cy="168.9" r="2.9"/>
								
									<rect x="225.3" y="113.9" transform="matrix(0.9384 -0.3455 0.3455 0.9384 -29.0183 87.16)" class="st3" width="9.4" height="22.1"/>
								
									<rect x="356.5" y="124" transform="matrix(0.9384 -0.3455 0.3455 0.9384 -24.4244 133.1115)" class="st3" width="9.4" height="22.1"/>
								
									<rect x="276.4" y="88.4" transform="matrix(0.1995 -0.9799 0.9799 0.1995 138.8966 356.1837)" class="st4" width="22.1" height="9.4"/>
								
									<rect x="373.8" y="26.5" transform="matrix(0.1023 -0.9948 0.9948 0.1023 314.4582 410.9007)" class="st5" width="22.1" height="9.4"/>
								<polygon class="st3" points="221.9,29.3 227.2,34.6 219.9,36.5 212.7,38.4 214.7,31.2 216.6,24 								"/>
								<polygon class="st5" points="270.9,159.9 276.2,165.1 269,167.1 261.7,169 263.7,161.8 265.6,154.6 								"/>
								<polygon class="st4" points="324.9,51.3 332.1,53.2 326.9,58.5 321.6,63.8 319.6,56.6 317.7,49.4 								"/>
								<circle class="st5" cx="277.7" cy="22.3" r="2.9"/>
								<circle class="st3" cx="376.1" cy="79.8" r="2.9"/>
								<circle class="st4" cx="317.7" cy="164.7" r="2.9"/>
								<circle class="st4" cx="483.2" cy="128" r="2.9"/>
								
									<rect x="600.9" y="85" transform="matrix(0.9384 -0.3455 0.3455 0.9384 4.0925 215.1363)" class="st3" width="9.4" height="22.1"/>
								
									<rect x="900.7" y="109.1" transform="matrix(0.2869 -0.958 0.958 0.2869 541.1346 954.6055)" class="st3" width="22.1" height="9.4"/>
								
									<rect x="520.8" y="45.3" transform="matrix(0.1995 -0.9799 0.9799 0.1995 376.6677 561.1887)" class="st4" width="22.1" height="9.4"/>
								
									<rect x="933.8" y="26.5" transform="matrix(0.1995 -0.9799 0.9799 0.1995 725.7338 950.8914)" class="st4" width="22.1" height="9.4"/>
								
									<rect x="658.3" y="60.6" transform="matrix(0.1023 -0.9948 0.9948 0.1023 535.8976 724.514)" class="st5" width="22.1" height="9.4"/>
								<polygon class="st3" points="654.6,149.3 649.3,144 656.5,142.1 663.7,140.1 661.8,147.3 659.8,154.6 								"/>
								<polygon class="st5" points="546.7,140.8 541.4,135.5 548.6,133.5 555.8,131.6 553.9,138.8 552,146 								"/>
								<polygon class="st4" points="611.8,25.7 604.6,23.8 609.8,18.5 615.1,13.2 617,20.4 619,27.6 								"/>
								<polygon class="st4" points="918.9,177.2 911.7,175.3 917,170 922.2,164.7 924.2,171.9 926.2,179.1 								"/>
								<circle class="st5" cx="504.7" cy="111" r="2.9"/>
								<circle class="st5" cx="908.8" cy="1" r="2.9"/>
								<circle class="st3" cx="558.8" cy="9.6" r="2.9"/>
								<circle class="st4" cx="622" cy="168.9" r="2.9"/>
								
									<rect x="709.4" y="113.9" transform="matrix(0.9384 -0.3455 0.3455 0.9384 0.795 254.3814)" class="st3" width="9.4" height="22.1"/>
								
									<rect x="840.6" y="124" transform="matrix(0.9384 -0.3455 0.3455 0.9384 5.3909 300.3382)" class="st3" width="9.4" height="22.1"/>
								
									<rect x="760.5" y="88.4" transform="matrix(0.1995 -0.9799 0.9799 0.1995 526.4138 830.5322)" class="st4" width="22.1" height="9.4"/>
								
									<rect x="864.2" y="20.1" transform="matrix(0.9567 -0.2912 0.2912 0.9567 28.5773 254.3936)" class="st5" width="9.4" height="22.1"/>
								<polygon class="st3" points="706,29.3 711.2,34.6 704,36.5 696.8,38.4 698.7,31.2 700.7,24 								"/>
								<polygon class="st5" points="755,159.9 760.3,165.1 753,167.1 745.8,169 747.8,161.8 749.7,154.6 								"/>
								<polygon class="st4" points="809,51.3 816.2,53.2 810.9,58.5 805.7,63.8 803.7,56.6 801.8,49.4 								"/>
								<circle class="st5" cx="761.8" cy="22.3" r="2.9"/>
								<circle class="st3" cx="860.2" cy="79.8" r="2.9"/>
								<circle class="st4" cx="801.8" cy="164.7" r="2.9"/>
								<circle class="st4" cx="967.3" cy="128" r="2.9"/>
								
									<rect x="116.8" y="272.9" transform="matrix(0.9384 -0.3455 0.3455 0.9384 -90.6149 59.4638)" class="st3" width="9.4" height="22.1"/>
								
									<rect x="422.9" y="290.8" transform="matrix(0.9384 -0.3455 0.3455 0.9384 -77.9539 166.3045)" class="st3" width="9.4" height="22.1"/>
								
									<rect x="36.7" y="233.2" transform="matrix(0.1995 -0.9799 0.9799 0.1995 -194.9272 237.2402)" class="st4" width="22.1" height="9.4"/>
								
									<rect x="449.8" y="214.4" transform="matrix(0.1995 -0.9799 0.9799 0.1995 154.1263 626.9467)" class="st4" width="22.1" height="9.4"/>
								
									<rect x="174.2" y="248.6" transform="matrix(0.1023 -0.9948 0.9948 0.1023 -85.6128 411.6728)" class="st5" width="22.1" height="9.4"/>
								<polygon class="st3" points="170.5,337.2 165.2,331.9 172.4,330 179.6,328 177.7,335.3 175.8,342.5 								"/>
								<polygon class="st5" points="62.6,328.7 57.3,323.4 64.5,321.4 71.7,319.5 69.8,326.7 67.9,333.9 								"/>
								<polygon class="st4" points="127.7,213.6 120.5,211.7 125.7,206.4 131,201.1 133,208.3 134.9,215.5 								"/>
								<polygon class="st4" points="434.9,365.1 427.6,363.2 432.9,357.9 438.2,352.6 440.1,359.8 442.1,367 								"/>
								<circle class="st5" cx="20.6" cy="298.9" r="2.9"/>
								<circle class="st5" cx="424.7" cy="188.9" r="2.9"/>
								<circle class="st3" cx="74.7" cy="197.5" r="2.9"/>
								<circle class="st4" cx="137.9" cy="356.8" r="2.9"/>
								
									<rect x="225.3" y="301.8" transform="matrix(0.9384 -0.3455 0.3455 0.9384 -93.9305 98.7372)" class="st3" width="9.4" height="22.1"/>
								
									<rect x="356.5" y="311.9" transform="matrix(0.9384 -0.3455 0.3455 0.9384 -89.3353 144.6839)" class="st3" width="9.4" height="22.1"/>
								
									<rect x="276.4" y="276.3" transform="matrix(0.1995 -0.9799 0.9799 0.1995 -45.2157 506.5884)" class="st4" width="22.1" height="9.4"/>
								
									<rect x="373.8" y="214.4" transform="matrix(0.1023 -0.9948 0.9948 0.1023 127.5208 579.5946)" class="st5" width="22.1" height="9.4"/>
								<polygon class="st3" points="221.9,217.2 227.2,222.5 219.9,224.4 212.7,226.3 214.7,219.1 216.6,211.9 								"/>
								<polygon class="st5" points="270.9,347.8 276.2,353 269,355 261.7,356.9 263.7,349.7 265.6,342.5 								"/>
								<polygon class="st4" points="324.9,239.2 332.1,241.2 326.9,246.4 321.6,251.7 319.6,244.5 317.7,237.3 								"/>
								<circle class="st5" cx="277.7" cy="210.2" r="2.9"/>
								<circle class="st3" cx="376.1" cy="267.7" r="2.9"/>
								<circle class="st4" cx="317.7" cy="352.6" r="2.9"/>
								<circle class="st4" cx="483.2" cy="315.9" r="2.9"/>
								
									<rect x="600.9" y="272.9" transform="matrix(0.9384 -0.3455 0.3455 0.9384 -60.8239 226.704)" class="st3" width="9.4" height="22.1"/>
								
									<rect x="907" y="290.8" transform="matrix(0.9384 -0.3455 0.3455 0.9384 -48.1609 333.5434)" class="st3" width="9.4" height="22.1"/>
								
									<rect x="520.8" y="233.2" transform="matrix(0.1995 -0.9799 0.9799 0.1995 192.5361 711.5895)" class="st4" width="22.1" height="9.4"/>
								
									<rect x="933.8" y="214.4" transform="matrix(0.1995 -0.9799 0.9799 0.1995 541.6101 1101.302)" class="st4" width="22.1" height="9.4"/>
								
									<rect x="658.3" y="248.6" transform="matrix(0.1023 -0.9948 0.9948 0.1023 348.9712 893.2)" class="st5" width="22.1" height="9.4"/>
								<polygon class="st3" points="654.6,337.2 649.3,331.9 656.5,330 663.7,328 661.8,335.3 659.8,342.5 								"/>
								<polygon class="st5" points="546.7,328.7 541.4,323.4 548.6,321.4 555.8,319.5 553.9,326.7 552,333.9 								"/>
								<polygon class="st4" points="611.8,213.6 604.6,211.7 609.8,206.4 615.1,201.1 617,208.3 619,215.5 								"/>
								<polygon class="st4" points="918.9,365.1 911.7,363.2 917,357.9 922.2,352.6 924.2,359.8 926.2,367 								"/>
								<circle class="st5" cx="504.7" cy="298.9" r="2.9"/>
								<circle class="st5" cx="908.8" cy="188.9" r="2.9"/>
								<circle class="st3" cx="558.8" cy="197.5" r="2.9"/>
								<circle class="st4" cx="622" cy="356.8" r="2.9"/>
								
									<rect x="709.4" y="301.8" transform="matrix(0.9384 -0.3455 0.3455 0.9384 -64.1206 265.9592)" class="st3" width="9.4" height="22.1"/>
								
									<rect x="840.6" y="311.9" transform="matrix(0.9384 -0.3455 0.3455 0.9384 -59.5183 311.9136)" class="st3" width="9.4" height="22.1"/>
								
									<rect x="760.5" y="276.3" transform="matrix(0.1995 -0.9799 0.9799 0.1995 342.2982 980.9525)" class="st4" width="22.1" height="9.4"/>
								
									<rect x="857.9" y="214.4" transform="matrix(0.1023 -0.9948 0.9948 0.1023 562.0817 1061.1425)" class="st5" width="22.1" height="9.4"/>
								<polygon class="st3" points="706,217.2 711.2,222.5 704,224.4 696.8,226.3 698.7,219.1 700.7,211.9 								"/>
								<polygon class="st5" points="755,347.8 760.3,353 753,355 745.8,356.9 747.8,349.7 749.7,342.5 								"/>
								<polygon class="st4" points="809,239.2 816.2,241.2 810.9,246.4 805.7,251.7 803.7,244.5 801.8,237.3 								"/>
								<circle class="st5" cx="761.8" cy="210.2" r="2.9"/>
								<circle class="st3" cx="860.2" cy="267.7" r="2.9"/>
								<circle class="st4" cx="801.8" cy="352.6" r="2.9"/>
								<circle class="st4" cx="967.3" cy="315.9" r="2.9"/>
							</g>
							<g class="st2">
								
									<rect x="1066.7" y="37.6" transform="matrix(0.9384 -0.3455 0.3455 0.9384 49.139 373.1109)" class="st3" width="9.4" height="22.1"/>
								
									<rect x="1372.7" y="55.5" transform="matrix(0.9384 -0.3455 0.3455 0.9384 61.8031 479.9499)" class="st3" width="9.4" height="22.1"/>
								
									<rect x="986.5" y="-2.1" transform="matrix(0.1995 -0.9799 0.9799 0.1995 795.9048 979.5671)" class="st4" width="22.1" height="9.4"/>
								
									<rect x="1405.9" y="-27.2" transform="matrix(0.834 -0.5518 0.5518 0.834 243.1199 775.6856)" class="st4" width="9.4" height="22.1"/>
								
									<rect x="1124" y="13.3" transform="matrix(0.3971 -0.9178 0.9178 0.3971 667.7186 1052.5072)" class="st5" width="22.1" height="9.4"/>
								<polygon class="st3" points="1120.3,101.8 1115,96.6 1122.2,94.6 1129.4,92.7 1127.5,99.9 1125.6,107.1 								"/>
								<polygon class="st5" points="1012.4,93.3 1007.1,88 1014.3,86.1 1021.5,84.2 1019.6,91.4 1017.7,98.6 								"/>
								<polygon class="st4" points="1077.5,-21.7 1070.3,-23.7 1075.5,-29 1080.8,-34.2 1082.8,-27 1084.7,-19.8 								"/>
								<polygon class="st4" points="1384.6,129.8 1377.4,127.8 1382.7,122.5 1387.9,117.2 1389.9,124.4 1391.8,131.7 								"/>
								<circle class="st5" cx="970.4" cy="63.5" r="2.9"/>
								<circle class="st5" cx="1374.5" cy="-46.4" r="2.9"/>
								<circle class="st3" cx="1024.5" cy="-37.8" r="2.9"/>
								<circle class="st4" cx="1087.7" cy="121.5" r="2.9"/>
								
									<rect x="1175.1" y="66.4" transform="matrix(0.9384 -0.3455 0.3455 0.9384 45.8644 412.3406)" class="st3" width="9.4" height="22.1"/>
								
									<rect x="1306.3" y="76.5" transform="matrix(0.9384 -0.3455 0.3455 0.9384 50.4583 458.2921)" class="st3" width="9.4" height="22.1"/>
								
									<rect x="1226.2" y="40.9" transform="matrix(0.1995 -0.9799 0.9799 0.1995 945.6887 1248.8809)" class="st4" width="22.1" height="9.4"/>
								
									<rect x="1323.6" y="-20.9" transform="matrix(0.1023 -0.9948 0.9948 0.1023 1214.2462 1313.1448)" class="st5" width="22.1" height="9.4"/>
								<polygon class="st3" points="1171.7,-18.2 1176.9,-12.9 1169.7,-10.9 1162.5,-9 1164.4,-16.2 1166.4,-23.4 								"/>
								<polygon class="st5" points="1220.7,112.4 1226,117.7 1218.7,119.6 1211.5,121.6 1213.5,114.4 1215.4,107.1 								"/>
								<polygon class="st4" points="1274.7,3.9 1281.9,5.8 1276.6,11.1 1271.4,16.4 1269.4,9.2 1267.5,2 								"/>
								<circle class="st5" cx="1227.5" cy="-25.1" r="2.9"/>
								<circle class="st3" cx="1325.9" cy="32.3" r="2.9"/>
								<circle class="st4" cx="1267.5" cy="117.3" r="2.9"/>
								<circle class="st4" cx="1433" cy="80.5" r="2.9"/>
								
									<rect x="1550.7" y="37.7" transform="matrix(0.9384 -0.3455 0.3455 0.9384 78.9331 540.3494)" class="st3" width="9.4" height="22.1"/>
								
									<rect x="1850.5" y="61.6" transform="matrix(0.2869 -0.958 0.958 0.2869 1263.9745 1830.6102)" class="st3" width="22.1" height="9.4"/>
								
									<rect x="1470.6" y="-2.1" transform="matrix(0.1995 -0.9799 0.9799 0.1995 1183.3981 1453.9344)" class="st4" width="22.1" height="9.4"/>
								
									<rect x="1883.6" y="-20.9" transform="matrix(0.1995 -0.9799 0.9799 0.1995 1532.4547 1843.625)" class="st4" width="22.1" height="9.4"/>
								
									<rect x="1608.1" y="13.2" transform="matrix(0.1023 -0.9948 0.9948 0.1023 1435.7625 1626.7109)" class="st5" width="22.1" height="9.4"/>
								<polygon class="st3" points="1604.3,101.8 1599.1,96.6 1606.3,94.6 1613.5,92.7 1611.6,99.9 1609.6,107.1 								"/>
								<polygon class="st5" points="1496.4,93.3 1491.2,88 1498.4,86.1 1505.6,84.2 1503.7,91.4 1501.7,98.6 								"/>
								<polygon class="st4" points="1561.6,-21.7 1554.3,-23.7 1559.6,-29 1564.9,-34.2 1566.8,-27 1568.8,-19.8 								"/>
								<polygon class="st4" points="1868.7,129.8 1861.5,127.8 1866.8,122.5 1872,117.2 1874,124.4 1875.9,131.7 								"/>
								<circle class="st5" cx="1454.5" cy="63.5" r="2.9"/>
								<circle class="st5" cx="1858.6" cy="-46.4" r="2.9"/>
								<circle class="st3" cx="1508.6" cy="-37.8" r="2.9"/>
								<circle class="st4" cx="1571.7" cy="121.5" r="2.9"/>
								
									<rect x="1659.1" y="66.4" transform="matrix(0.9384 -0.3455 0.3455 0.9384 75.6843 579.5663)" class="st3" width="9.4" height="22.1"/>
								
									<rect x="1790.4" y="76.5" transform="matrix(0.9384 -0.3455 0.3455 0.9384 80.2753 625.5219)" class="st3" width="9.4" height="22.1"/>
								
									<rect x="1710.3" y="40.9" transform="matrix(0.1995 -0.9799 0.9799 0.1995 1333.1781 1723.2098)" class="st4" width="22.1" height="9.4"/>
								
									<rect x="1814" y="-27.3" transform="matrix(0.9567 -0.2912 0.2912 0.9567 83.5594 528.9207)" class="st5" width="9.4" height="22.1"/>
								<polygon class="st3" points="1655.7,-18.2 1661,-12.9 1653.8,-10.9 1646.6,-9 1648.5,-16.2 1650.5,-23.4 								"/>
								<polygon class="st5" points="1704.8,112.4 1710.1,117.7 1702.8,119.6 1695.6,121.6 1697.5,114.4 1699.5,107.1 								"/>
								<polygon class="st4" points="1758.8,3.9 1766,5.8 1760.7,11.1 1755.4,16.4 1753.5,9.2 1751.5,2 								"/>
								<circle class="st5" cx="1711.6" cy="-25.1" r="2.9"/>
								<circle class="st3" cx="1810" cy="32.3" r="2.9"/>
								<circle class="st4" cx="1751.5" cy="117.3" r="2.9"/>
								<circle class="st4" cx="1917.1" cy="80.5" r="2.9"/>
								
									<rect x="1066.6" y="225.5" transform="matrix(0.9384 -0.3455 0.3455 0.9384 -15.7757 384.675)" class="st3" width="9.4" height="22.1"/>
								
									<rect x="1372.7" y="243.4" transform="matrix(0.9384 -0.3455 0.3455 0.9384 -3.111 491.5174)" class="st3" width="9.4" height="22.1"/>
								
									<rect x="986.5" y="185.8" transform="matrix(0.1995 -0.9799 0.9799 0.1995 611.7831 1129.9598)" class="st4" width="22.1" height="9.4"/>
								
									<rect x="1399.5" y="167" transform="matrix(0.1995 -0.9799 0.9799 0.1995 960.8358 1519.6698)" class="st4" width="22.1" height="9.4"/>
								
									<rect x="1124" y="201.1" transform="matrix(0.1023 -0.9948 0.9948 0.1023 814.2513 1313.8668)" class="st5" width="22.1" height="9.4"/>
								<polygon class="st3" points="1120.3,289.8 1115,284.5 1122.2,282.5 1129.4,280.6 1127.5,287.8 1125.6,295 								"/>
								<polygon class="st5" points="1012.4,281.2 1007.1,275.9 1014.3,274 1021.5,272.1 1019.6,279.3 1017.7,286.5 								"/>
								<polygon class="st4" points="1077.5,166.2 1070.3,164.2 1075.5,158.9 1080.8,153.6 1082.8,160.9 1084.7,168.1 								"/>
								<polygon class="st4" points="1384.6,317.7 1377.4,315.7 1382.7,310.4 1387.9,305.1 1389.9,312.3 1391.8,319.6 								"/>
								<circle class="st5" cx="970.4" cy="251.4" r="2.9"/>
								<circle class="st5" cx="1374.5" cy="141.5" r="2.9"/>
								<circle class="st3" cx="1024.5" cy="150.1" r="2.9"/>
								<circle class="st4" cx="1087.7" cy="309.4" r="2.9"/>
								
									<rect x="1175.1" y="254.3" transform="matrix(0.9384 -0.3455 0.3455 0.9384 -19.0471 423.9095)" class="st3" width="9.4" height="22.1"/>
								
									<rect x="1306.3" y="264.4" transform="matrix(0.9384 -0.3455 0.3455 0.9384 -14.4514 469.8641)" class="st3" width="9.4" height="22.1"/>
								
									<rect x="1226.2" y="228.8" transform="matrix(0.1995 -0.9799 0.9799 0.1995 761.559 1399.3121)" class="st4" width="22.1" height="9.4"/>
								
									<rect x="1323.6" y="167" transform="matrix(0.1023 -0.9948 0.9948 0.1023 1027.339 1481.8297)" class="st5" width="22.1" height="9.4"/>
								<polygon class="st3" points="1171.7,169.8 1176.9,175 1169.7,177 1162.5,178.9 1164.4,171.7 1166.4,164.5 								"/>
								<polygon class="st5" points="1220.7,300.3 1226,305.6 1218.7,307.5 1211.5,309.5 1213.5,302.3 1215.4,295 								"/>
								<polygon class="st4" points="1274.7,191.8 1281.9,193.7 1276.6,199 1271.4,204.3 1269.4,197.1 1267.5,189.9 								"/>
								<circle class="st5" cx="1227.5" cy="162.8" r="2.9"/>
								<circle class="st3" cx="1325.9" cy="220.3" r="2.9"/>
								<circle class="st4" cx="1267.5" cy="305.2" r="2.9"/>
								<circle class="st4" cx="1433" cy="268.4" r="2.9"/>
								
									<rect x="1550.7" y="225.6" transform="matrix(0.9384 -0.3455 0.3455 0.9384 14.0166 551.9104)" class="st3" width="9.4" height="22.1"/>
								
									<rect x="1856.8" y="243.5" transform="matrix(0.9384 -0.3455 0.3455 0.9384 26.6783 658.7546)" class="st3" width="9.4" height="22.1"/>
								
									<rect x="1470.5" y="185.8" transform="matrix(0.1995 -0.9799 0.9799 0.1995 999.2557 1604.321)" class="st4" width="22.1" height="9.4"/>
								
									<rect x="1883.6" y="167" transform="matrix(0.1995 -0.9799 0.9799 0.1995 1348.3179 1994.043)" class="st4" width="22.1" height="9.4"/>
								
									<rect x="1608.1" y="201.1" transform="matrix(0.1023 -0.9948 0.9948 0.1023 1248.8552 1795.3961)" class="st5" width="22.1" height="9.4"/>
								<polygon class="st3" points="1604.3,289.8 1599.1,284.5 1606.3,282.5 1613.5,280.6 1611.6,287.8 1609.6,295 								"/>
								<polygon class="st5" points="1496.4,281.2 1491.2,275.9 1498.4,274 1505.6,272.1 1503.7,279.3 1501.7,286.5 								"/>
								<polygon class="st4" points="1561.6,166.2 1554.3,164.2 1559.6,158.9 1564.9,153.6 1566.8,160.9 1568.8,168.1 								"/>
								<polygon class="st4" points="1868.7,317.7 1861.5,315.7 1866.8,310.4 1872,305.1 1874,312.3 1875.9,319.6 								"/>
								<circle class="st5" cx="1454.5" cy="251.4" r="2.9"/>
								<circle class="st5" cx="1858.6" cy="141.5" r="2.9"/>
								<circle class="st3" cx="1508.6" cy="150.1" r="2.9"/>
								<circle class="st4" cx="1571.7" cy="309.4" r="2.9"/>
								
									<rect x="1659.2" y="254.3" transform="matrix(0.9384 -0.3455 0.3455 0.9384 10.7699 591.1393)" class="st3" width="9.4" height="22.1"/>
								
									<rect x="1790.4" y="264.4" transform="matrix(0.9384 -0.3455 0.3455 0.9384 15.3608 637.0926)" class="st3" width="9.4" height="22.1"/>
								
									<rect x="1710.3" y="228.8" transform="matrix(0.1995 -0.9799 0.9799 0.1995 1149.0516 1873.6254)" class="st4" width="22.1" height="9.4"/>
								
									<rect x="1807.7" y="167" transform="matrix(0.1023 -0.9948 0.9948 0.1023 1461.8986 1963.3983)" class="st5" width="22.1" height="9.4"/>
								<polygon class="st3" points="1655.7,169.8 1661,175 1653.8,177 1646.6,178.9 1648.5,171.7 1650.5,164.5 								"/>
								<polygon class="st5" points="1704.8,300.3 1710.1,305.6 1702.8,307.5 1695.6,309.5 1697.5,302.3 1699.5,295 								"/>
								<polygon class="st4" points="1758.8,191.8 1766,193.7 1760.7,199 1755.4,204.3 1753.5,197.1 1751.5,189.9 								"/>
								<circle class="st5" cx="1711.6" cy="162.8" r="2.9"/>
								<circle class="st3" cx="1810" cy="220.3" r="2.9"/>
								<circle class="st4" cx="1751.5" cy="305.2" r="2.9"/>
								<circle class="st4" cx="1917.1" cy="268.4" r="2.9"/>
							</g>
						</g>
					</g>
				</g>
				
					<linearGradient id="SVGID_3_" gradientUnits="userSpaceOnUse" x1="960" y1="1100.29" x2="960" y2="104" gradientTransform="matrix(1 0 0 1 0 -104)">
					<stop  offset="0.31" style="stop-color:#FFFFFF"/>
					<stop  offset="0.37" style="stop-color:#FFFFFF;stop-opacity:0.97"/>
					<stop  offset="0.46" style="stop-color:#FFFFFF;stop-opacity:0.89"/>
					<stop  offset="0.57" style="stop-color:#FFFFFF;stop-opacity:0.75"/>
					<stop  offset="0.7" style="stop-color:#FFFFFF;stop-opacity:0.56"/>
					<stop  offset="0.83" style="stop-color:#FFFFFF;stop-opacity:0.32"/>
					<stop  offset="0.98" style="stop-color:#FFFFFF;stop-opacity:4.000000e-02"/>
					<stop  offset="1" style="stop-color:#FFFFFF;stop-opacity:0"/>
				</linearGradient>
				<rect class="st6" width="1920" height="996.3"/>
			</g>
		</g>
	</g>
</g>
</svg>
