<svg xmlns="http://www.w3.org/2000/svg" viewBox="0 0 1143.81 719.9"><defs><style>.cls-1,.cls-2{fill:#ccc;stroke:#fff;stroke-width:.5px}.cls-2{fill:#218fff}</style></defs><title>Asset 2</title><g id="Layer_2" data-name="Layer 2"><g id="Layer_1-2" data-name="Layer 1"><path id="US-AL" class="cls-1" d="M818.24 445l1 3.41 1 3.41 1 3.41 1 3.41 1 3.41 1 3.41 1 3.41 1 3.41 1 3.41 1 3.41 1 3.41 1 3.41 1 3.41 1 3.41 1 3.41 1 3.41.76 1.51.76 2.51 4.19 7.2 1.34 3.08-.12 1.35.54 1.07 1.21.79-.06 1.1-1.32 1.4-.79 1.61-.38 2.72-.84 4.81.32 2.84 1.81 3.71.49 1.67v7.68l1.18 4.8 1.8 3-7.61.92-7.63.89-7.63.86-7.65.84-7.65.81-7.65.78-7.65.75-7.65.73-.15 2 .33 1.87 1 1.71 3.76 3.09.39.8-.36 2.68.28 1.86-.27 1-.76.92-.14 1-.54.32-2.34 3.09-9.09 1.76.44-.69 1.92-.31 2.63-1.15-.69-1.47-1.19-1.58-1-.1-.73-.92-.25-3.08-.78-1.75-1.47-1.71-.47.41-.81 3.26-.54 4.24-.33 1.38-2.71.33-2.43-.09-1.18.17-.79-5.64-.68-5.15-.68-5.15-.68-5.13-.68-5.13-.68-5.13-.68-5.13-.68-5.13.15-5.12.15-5.11.15-5.11.15-5.11.14-5.11.14-5.11.14-5.11.14-5.11.14-5.1.12-5.1.12-5.1.12-5.1.12-5.1.11-5.1.11-5.1.11-5.1v-2.41l-2.09-1.6-.42-.32-.31-.31h.28l3.61-.27 3.61-.28 3.61-.28 3.61-.3 3.61-.3 3.61-.31 3.61-.31 3.61-.32 3.61-.32 3.61-.33 3.61-.33 3.61-.34 3.6-.34 3.6-.36 3.6-.36zm-43.55 135.64l-2.06.78-3.13.21-.65-.15 1.22-.5 3.64-.84z"/><path id="US-AR" class="cls-1" d="M724.68 426.05l-.06.5.53 1.06v.62l-.31.41-.75.27-.54.31-.09.47v.22l.07.52.14.46-.32.64-2.45 1.67-1 2 .53 2.36-.74 2.47-2.06 2.59-.75 2.79.53 3-.95 2.51-2.44 2-.79 1.21v.09l.06.85.3.66-.78 1.32-2.08 1.43-1.08 1.34-.09 1.24-.48.63-.92.33-.46 1.87-.2 4.33-1 2.52-1.83.73-.95 1-.06 1.33-1 1.6-2 1.85-.6 1.7.8 1.51-.1.64-.62.55-2.24.86-.37.39-.21.42.5.78.33 1.18-.22 2-.5.87-.49.84-1.85 1.51-.47 1.13.89.73v.85l-.91 1 .33 1 .26.65.91.57.41 1.67-.52 2.2.21 1.77 1.15 1.42.27.62-.8 4.92.1.68-4.53.26-4.16.21-4.15.21-4.16.2-4.15.18-4.16.18-4.16.17-4.15.17-4.16.15-4.16.16-4.15.14-4.16.14-4.16.12-4.15.11-4.16.11-4.16.1-.11-3.72-.12-3.73-.11-3.72-.11-3.73-1.21-.6-2.13-.27-1.07.23-1.31-.15-.85.63-.58.12-.47-.12-.3-.54-1-.37-1.22-1.32v-47.6l-.57-3.8-.57-3.8L618 436l-.55-3.8-.57-3.8-.55-3.8-.55-3.8-.55-3.8 6.14-.1 6.16-.12 6.16-.14 6.16-.16 6.16-.18 6.16-.2 6.14-.21 6.16-.23 6.14-.26 6.16-.27 6.14-.3 6.16-.31 6.14-.33 6.14-.34 6.14-.37 6.14-.38 1.12 2.07 1 1.33.23 1-.12 1-1.49 2.31L713 422l-.74 1.16-1 1.12-1.55 3 3.64-.28 3.64-.3 3.64-.31z"/><path id="US-AZ" class="cls-1" d="M299.3 383l-1.39 9.6-1.39 9.6-1.39 9.6-1.39 9.62-1.39 9.62-1.35 9.64-1.39 9.62-1.39 9.63-1.39 9.63-1.4 9.63-1.43 9.63-1.39 9.65-1.4 9.64-1.39 9.65-1.4 9.66-1.4 9.69-5.32-.76-8.27-1.21-8.27-1.26-8.26-1.28-8.26-1.31-8.3-1.29-10.34-5.94-10.32-5.95-10.28-6-10.21-6L179 500l-10.11-6.14-10.06-6.18-10-6.24 1.42-1.29 2.29-3.74.14-.23 3.21.38 1.71-.71 1.27-1.67.58-1.86-.1-2-1.06-1.71-2-1.4-.73-2.89.57-4.41.89-2.25 1.21-.11 1.32-.82 1.42-1.55 1.17-1.77.94-2 .65-2.63.34-3.26 2.84-3.55 2.49-2 4.32-2.24 1-.73.16-.73v-.09l-.55-1.18-2.89-2.76-1.1-1.79.15-1.4-.16-1.4-2.4-6.23-.55-3.27.48-2.24v-.17l2.4-9.44-.58-3.57.1-1.92.85-2.2.18-1.45-.33-1.35.32-2.28.5-2.79-.62-2v-.84l1-1.8 1.22-.78 1.8-.34 2 .16 2.12.65 1.44 1.19.79 1.72.91 1 1.06.26 1.65-1 1.79-2.39.44-.1 2.36-11.55 2.13-10.51 6.72 1.35 6.72 1.32 6.72 1.29 6.73 1.28 6.73 1.26 6.75 1.23 6.73 1.21 6.75 1.18 6.76 1.16 6.76 1.13 6.76 1.12 6.76 1.08 6.72.98 6.77 1 6.77 1z"/><path id="US-CA" class="cls-2" d="M99.68 202.26l-1.34 5-1.34 5-1.34 5-1.34 5-1.34 5-1.34 5-1.34 5-1.34 4.95-1.34 5-1.34 4.95-1.34 4.95-1.34 4.95-1.34 4.95-1.34 4.95-1.34 4.95-1.34 4.95 3.67 5.61 3.69 5.61 3.72 5.61L93 304l3.78 5.59 3.8 5.59 3.83 5.58 3.85 5.58 3 4.62 3 4.62 3 4.62 3 4.6 3 4.6 3.05 4.6 3.07 4.59 3.08 4.59 4.26 6.55 4.28 6.54 4.32 6.53 4.35 6.53 4.38 6.51 4.42 6.5 4.46 6.5 4.8 6.93-.48 2.24.55 3.27 2.4 6.23.16 1.4-.15 1.4 1.1 1.79 2.91 2.77.54 1.17v.09l-.16.74-1 .73-4.31 2.24-2.49 2-2.8 3.59-.34 3.27-.64 2.63-.94 2-1.17 1.77-1.42 1.55-1.32.82-1.21.11-.89 2.25-.57 4.41.73 2.91 2 1.4 1.06 1.71.1 2-.58 1.85-1.27 1.69-1.71.71-3.21-.38-.14.23-2.66-.26-6.62-.8-6.64-.82-6.62-.85-6.62-.86-6.62-.89-6.6-.88-6.62-.94-6.62-.95v-.18l.54-3-.8-1.28-1.5.32.3-4 .76-1.71.26-1.79-.23-4.6-2.08-6-5.61-8.22-3.11-3.07-2.19-3.45-1.66-1.13-2.23-.78-1 1.07L76 429.8l1.16-2.94-1.48-4.86-1.93-1-5.23-1-6.29-4.11-1.68-1.89v-2.66l-2.65-3-3.67-3.23-2.49-.14-3-1.15-4-2.7-2.5-.89-5.1-.91-1.77-.82-1.19-2.39-1.59-1.47 1-2.24.36-2.19.74-1.58.18-3.85 1.58-3.18-.22-1.37-.74-1.23-2.87-2.29-.11-1.88 1.21-2.24-.41-1.81-2.24-2.22-1.54-4-2.62-2.72-.42-3.42-1.39-2.44-.18-1.86-2.54-7.19-3.18-6 .09-2.88.9-3.72 2.43-1.72 1.53-1.69.43-1.83.11-1.4-.87-2.76-5.58-3.13-3.24-7.23 1-4.43-.57-5 .84-2.89L17 299l1.64-.26 1.21.63-.5 1.21-.28 2.42 1 2.13 1.22 1.16.82 2 .84.79 1 .42-.23-1.21-.38-.84-.06-2.38-.52-3.16-1.08-2v-3l-.47-.85-.11-1.16 1.85-.79 2.28-.27 2.77.57 7.58 2.59 1.85-.23 1.28.63 1 .2-1.87-1.34-1.24-.1-1.33-.55-2.77-.61-1-.64-1-1.23-.78-.32-3 .78-1.07-.52-2.18-2.45-1.1-.58-2.15.38-1.45 4-.33 3.2h-1.22l-.9-1.62-1.79-1.34-1.3-1.66-1.69-2.82-1-1.15-1.92 1.33.2-.81 1.31-1.82.85-3.47 1.26 3.36-.06-2.12-1-2.6-1-1.11-.38-4.25-2.76-3.34-1.64-4.52-3.76-7.82L3 256.42v-7.36l2.07-3.55.74-2.75.3-4.41-.33-2.55-2.56-7.52-3-5.49.36-3.31.71-3.23 1.83-2.49 1.75-2.67.84-.59.12.39-.37.58.54.38.64-1.22.58-.55-.62-.3.2-.39.64-.69 2.56-3.41 1.42-4.9 3.31-5.5.57-2 .46-4.52-.07-2.82-1-2.31 1.54-2.4.75-2.52-.18-.53 5.31 1.7 5.13 1.63 5.15 1.61 5.15 1.6 5.16 1.58 5.16 1.56L53 189l5.17 1.54 5.17 1.51 5.17 1.5 5.18 1.49 5.18 1.48 5.22 1.48 5.2 1.44 5.2 1.43zm-54 210.08l4.12 2.56h2.6l.26.78-.44.49-5.74-.43-1.48-1.17.11-1-.31-1.1zm-9.74-1.08l-1.21-.26-1.73-.77.8-.44 1.12-.17.22.42zm5 4.38h-1.65l-1.08-.68-1.18-3 4.06.75 1.42 1.56.15.37zm34 24l.64 2.24-1.58-.66-1.72-.32-.28-1.19-.14-1.61-.25-.47-1.13-.43v-.91L71 436l3.23 2.57zm-25.51-1.79l-1-.21-1.31-.6-.32-1.61 1.15.2 1 .47.53 1.34zm21.72 16.65l-1.37-.09-1.32-.91-.6-2.89-.86-2.37.89-.38.63 2.22 2.06 3.64z"/><path id="US-CO" class="cls-2" d="M458 317.24l-.33 5.12-.32 5.12-.33 5.12-.32 5.12-.32 5.12-.32 5.12-.33 5.12-.32 5.12-.32 5.12-.33 5.12-.32 5.11-.32 5.12-.33 5.12-.32 5.12-.32 5.12-.32 5.12-5.42-.37-5.4-.37-5.4-.41-5.42-.41-8.26-.65-8.26-.69-8.27-.73-8.25-.75-8.26-.8-8.25-.82-8.26-.86-8.24-.9-8.25-.92-8.24-1-8.24-1-8.22-1-8.19-1.04-8.22-1.11-8.21-1.13-8.27-1.19 1-6.77 1-6.77 1-6.77 1-6.77 1-6.77 1-6.77 1-6.77 1-6.76 1-6.77 1-6.77 1-6.77 1-6.77 1-6.77 1-6.77 1-6.77 1-6.78 6.45.92 6.45.9 6.45.87 6.46.86 6.46.82 6.46.81 6.46.79 6.48.76 6.48.74 6.48.73 6.48.7 6.48.66 6.49.65 6.49.64 6.48.6 6.49.59 5.16.44 5.17.43 4.83.41 5.16.41 5.16.39 5.17.38 5.16.36 5.17.36-.22 3.41-.23 3.41-.22 3.42-.22 3.41-.23 3.41-.22 3.41-.22 3.41z"/><path id="US-CT" class="cls-1" d="M1073.58 200.9l.39 1.42.55 2 .41 1.44.57 2 .63 2.25.59 2.08.5 1.82.23 1.1.34 1.67-.33.78.16 1.58-1.79.33-2.76 1.17-3.58 1.93h-2.25l-1.91 1.54-7.28 2.19-1.69-.11-1.51 2.34-2.89 1.9-7 6.13-.76 1-1.45-1.42-1.16-1.11 1.38-1.44 1-1.11 1-1 .64-.66-.87-.87-.86-.86-.48-2.56-.47-2.57-.48-2.56-.48-2.56-.48-2.56-.47-2.56-.48-2.56-.48-2.57 1.67-.34 1.69-.36 1.69-.34 1.69-.36 1.67-.36 1.69-.37 1.69-.36 1.67-.36.21.68.82-.31v-.63l2.36-.58 2.38-.59 2.38-.59 2.33-.62 2.36-.59 2.38-.6 2.36-.59 2.36-.6z"/><path id="US-DC" class="cls-1" d="M987.41 309.69l-.63-.6-1.13-.33-.47-.11 1.29-2.19 1.45 1.35 1.56 1.47-1.39 2.59z"/><path id="US-DE" class="cls-1" d="M1015.32 277.56l-.68 1.13-.39 1.87L1013 283l.44 1.34.52.9.32 2.06 1.58 1.72 3 2.73 1.58 4.92 2.47 3 3.53 3.31 2.27.64.44 1.44-.37 2.62-1 1.39 1.55-.59.92.36 1.24 1.83.26 1.28-2.24.54-4.64 1.07-4.64 1.07-2.12.48h-.38l-1.17-4.19-1.16-4.17-1.17-4.19-1.16-4.17-1.16-4.19-1.16-4.19-1.16-4.17-1.16-4.19 1.07-2.5.52-.8.79-.53 2.54-.69z"/><path id="US-FL" class="cls-1" d="M928.92 548.2l1.5 2.29 3.32 9.84 1.72 3.32 3.63 9.15 5 8.63 6.75 10.31 10.38 12.13 1.31 1.76-.78 1.81v1.75l.34 2.56.73 2.44 1.49 2.87 2.66 4.32-1.19-.75-3.83-6.21-1-3.85-.57-5.61-.6.25-.2 1.88.09 2.17-.54.94-1.48-3.08-.18-1.47.69-1.87-.39-.57-1.74-.6-.57-1.32v-1.39l-1-.57-.7.16 1 3.26 1.1 1.92 1.76 4.76 2 2.72 1.31 2.35 15 24.92 3.07 3 1.34 2.29 1.86 4.95 1.38 6.54.41 12.34 1.06 8.29-.3-.21-.32-.84h-.42l-.84 4-1.45 3.76.25 5.4-.52 2.82-2.55 3.24-1.85.25-4.15 2.87h-3.26l-3.57 1.82-2.51.28-1.85-2.22v-1.16l.38-1.22.92-.42 3.77 2.07.44-1.21-1.22-1.19-2-.41-1.55-.57-3.84-5.52-3.61-3.61-1-2.66-5.36-.85-4.09-1.95-3.1-4.12-2.62-7.77-1.75-.64-.78-.52 1.11-3.2 1.27-2.73-1.22.82-.82 1.07-.89 2.39-.85.48-.87-.21-1.6-4.05-.53-5.21 1-2.13-2 .26-2 1.06.58 1.67-.15 1h-1.58l-1.26-.43-1.86-1.55-2.63-3.09-5.81-8.75-1.06-1.21-1.66-1.17.63-.53 1.21-.44 2.19-4.65 1.82-2.89.47-1.87-.25-.74-1.15-.95-1.13 1.16-.59-.2-1.77-2-1.47-.42-.89.62 1.26 1.64 1 .54v2.7l-.25.91-.74.89-1.39-.21-.58.75-.84-.58-1-1-1.16-1.79.74-11.09 1.13-7.15-.91-7.83v-1.18l-.49-2-3.51-4.09-14.11-9.17-11.47-11.66-9-3.76-6.19 1.9-1 1.12-.31 1.34.59 1.4-.5.68-1.71.15-2.25.63-5.57 4.17-2.13.14-1.81 1.12-1.37.84-3.72.81-3.1 1.15-1.43-.25-1.13-1.88-.25-2.06.91 1.49 1.27 1.1.46-.55.06-1.12-1.37-2-3.88-2.46-4.57-3.55h1.27l.22-.9-1.4-1 .38-1.37.74-1.48-1.7.41-1.44 1.13.09 1.19-.2 1h-.85l-1.67-1-8-2.4-6.85-1.12 5-1.37 2.83.34-.44-.95-.74-.55-2.27-.55-2.75.6-1.8-.18-1.71 1-1.85 1.37-1.69.78-6.77 1.54-5.48 1.47.8-1 .89-.71 3.19-1.27.3-2-1-1.8-.81.54-.76 1.56-1.22-.95-1.23.12-.11 2.38-1.43 1.72-.57 1.65-4.53 1.67-.64-.36 1.22-1.63-.18-.82-.94.54.14-1 .76-.92.27-1-.28-1.86.36-2.68-.39-.8-3.76-3.09-1-1.71L784 561l.15-2 7.65-.73 7.65-.75 7.65-.78 7.65-.81 7.65-.84 7.63-.86 7.63-.89 7.61-.92 1.23 2 2.43 4.25.2 1 2.24-.11 3.8-.21 3.8-.22 3.8-.23 3.8-.23 3.8-.25 3.8-.25 3.8-.26 3.8-.26 3.8-.27 3.8-.27 3.8-.28 3.8-.3 3.8-.3 3.8-.31 3.8-.31 3.8-.32.16.9.84 1.32.41 1.59.41.73.82.37 1.21-.06 1.06-1.1.44-2.12-.16-2.27-.85-2.47-.26-2.15.39-1.35.65-.42.5-.78.48-.22 1.35.16 5.16 1zm-76.69 41.26l-2.29 1.28-2.7-.41 1.6-.33 1.21.15 2.79-1.77 1.42-1.26 1.75-.63zm124.24 47.82l.75 1.95-3.08-4.3-4.06-6.87-2.46-5.42 1.27 1.35 1.54 3zM933 665l.21 1.63-1.67-2.52-1.29-2.87 1.34.79zm1.58 2.55l-.78.86-1.87-.26-1.12-.8-.7-1.79 1.86 1.72.63.36zM981.91 697l-4.11 6 .33-1.4 1.48-3.13.41-1.42 1.17-1.06 1-1.71-.21-1.76 1.56-1.54.55-.28zm-5.33 7.73l-.65.25.8-1.35h.3zm-4.37 3.58l-.48.07.17-.43.86-1 .41.25v.41zm-5 3.32l-1 .85-1.28-.28 1.21-.87 3.8-1.35-1.33 1.12zm-7.07 3l-.66.69-.39-.11-.14-.84-1.38-1.66v-.49l2.77 1.4.15.48zm-5.69 2.37l-1.6.54 1.16-1.31.16-1.74 1 1.17.11.79zm-5.27 2.41l-.64.16-.12-.42 1-.7.74-.07.06.59z"/><path id="US-GA" class="cls-1" d="M937.86 510.46l-.8 2.5-2.59 1.91-.87.09-.64.54.58 1 .82.63.09.7-.59 1.06-1.44.5-.65 1.21.43 1 .58.48.06 1-1.53 1.26-.23 1 .89.15.6-.39.5.12-.75 1.77-.75 1.13L931 530l-1.92.81.17.55 1.22.32 1.17 1.21-1.38 2.79h-1.15l-.78-.44-.11 2 .34 1-.07 2.23-.27 2.71-.3 1.15.42 2 .6 1.87-4 .39-5.16-1-1.35-.16-.48.22-.5.78-.65.42-.39 1.35.26 2.15.85 2.47.16 2.27-.44 2.12-1.06 1.1-1.21.06-.82-.37-.41-.73-.41-1.59-.84-1.32-.16-.9-3.8.32-3.8.31-3.8.31-3.8.3-3.8.3-3.8.28-3.8.27-3.8.27-3.8.26-3.8.26-3.8.25-3.8.25-3.8.23-3.8.23-3.8.22-3.8.21-2.24.11-.2-1-2.43-4.25-1.23-2-1.8-3-1.18-4.8v-7.68l-.49-1.67-1.96-3.82-.32-2.84.84-4.81.38-2.72.79-1.61 1.32-1.4.06-1.1-1.21-.79-.54-1.07.12-1.35-1.34-3.08-4.19-7.2-.76-2.51-.76-1.51-1-3.41-1-3.41-1-3.41-1-3.41-1-3.41-1-3.41-1-3.41-1-3.41-1-3.41-1-3.41-1-3.41-1-3.41-1-3.41-1-3.41-1-3.41-1-3.41 7.29-.76 7.29-.79 7.28-.81 7.28-.84 6.76-1 6.75-1 6.75-1 6.75-1h-.14l-.84 2-2.78 3.92-.5 2.77 4.65 2.35 2.88 2 1.87.69h1.81l1.22.63.94 1.82 6.56 8.7 6.11 4.08 2.52 2.07 1.45 2.15 5.2 3.1 1.9 1.81.32 1.54.73 1 1.12.49 1.19 1.24 1.27 2 2.14 1.56 3 1.13 2.6 3.29 2.19 5.43 1.83 3.07 2.22 1 3.52 4.36 1.37 2.72.37 2.52 1.71 1.74zm-8 30.87v6.81l-.84-2.28-.41-2.28.58-1.48z"/><path id="US-IA" class="cls-2" d="M693.2 249.44l1.34 1.8 2.23 1.56 1.31 1.5.39 1.44 1.39 1.49 2.41 1.51 1.43 1.39.46 1.24.06 2-.32 2.71-.71 2-1.12 1.26-.78 1.71-.46 2.15-1.71 2.07-3 2-3.37 1.44-3.77.87-2.17 1.66-.57 2.47.43 2 1.44 1.56.87 1.69.3 1.82-.79 3.09-1.88 4.35-2.2 2.87-2.51 1.38-1.06 1.9.41 2.43-.15 1.39-1 .53-1.91-1.35-.37-1-1.54-1-.26-.64-1.17-.53-1.12-1.93-5.26.27-5.26.27-5.26.25-5.26.23-5.26.22-5.26.21-5.26.2-5.26.17-5.27.16-5.26.15-5.26.14-5.27.12-5.26.1-5.27.09-5.26.07h-5.21l-1.28-2-.69-1.88.43-.89.09-3.07-.27-5.22-.5-2.94-.75-.66-.09-.91.57-1.16-.17-.79-.93-.4-.28-1 .34-1.59-.22-1-.79-.34-.32-.55.14-.73-.43-.48-1-.22-.38-1.79.18-3.37-.37-2.39-.91-1.4-.46-1.32v-1.23l-1-1.95-1.91-2.65-1.23-3.5-.54-4.32-1.35-2.43-.6-.15-.5-2.27-.55-1-.09-.78-1.67-2-.1-.75.22-.95 1.1-1.83 1-3 .25-2 .8-1.53v-.85l-.12-1.11-.44-1-1.31-.73-.16-.3-.12-1.12.55-.7.16-.8-.14-1-.78-1.69-.34-1.72 2.91-.09h26l6.5-.07 6.5-.1 6.5-.11 6.5-.15 6.5-.17 6.5-.18 6.5-.21 6.5-.25 6.49-.26 6.5-.28 6.49-.3 6.6-.36.22 1.7.46 1.22.86.95 1.27.7.28 1.44-.7 2.19-.14 2.68.44 3.16.76 2.83 1.11 2.51 2.31 1.74 3.52 1 2.15 1.71.76 2.41z"/><path id="US-ID" class="cls-1" d="M289.69 173.61l-.7 4.24-.71 4.24-.7 4.22-.7 4.24-.71 4.24-.7 4.22-.7 4.24-.71 4.24-.7 4.22-.7 4.22-.71 4.22-.7 4.22-.7 4.24-.7 4.22-.7 4.21-.71 4.24-3.77-.64-3.77-.64-3.77-.65-3.77-.65-3.77-.68-3.77-.66-3.76-.69-3.77-.69-3.76-.69-3.76-.7-3.76-.71-3.76-.73-3.76-.73-3.76-.73-3.76-.75-3.74-.75-7.45-1.51-7.45-1.54-7.44-1.58-7.42-1.6-7.42-1.64-7.42-1.66-7.4-1.7-7.41-1.72 1.4-6 1.39-6 1.39-6 1.39-6 1.4-6 1.39-6 1.4-6 1.53-6.56v-.14l2.15-3.76.73-1.9-.06-1.19.47-1 1-.86.23-1.13-.49-1.4-1.27-1.16-2-.9-.76-1.69.5-2.5 2.49-3.42 4.46-4.37 2.63-3.23.8-2.06 3.09-4.48 5.36-6.89 2.5-4.64-.33-2.36-1.32-2.5-2.29-2.39-1.46-2.71-.25-1.29-.28-1.59.1-1.92.73-.95v-1.93l-.64-2.92-.11-1.92.27-.59.2-.22 1-4.32 1-4.31 1-4.32 1-4.32 1-4.32 1-4.32 1-4.33 1-4.33 1-4.32 1-4.33 1-4.33 1-4.35 1-4.33 1-4.35 1-4.35 1-4.32 5.75 1.34 7.69 1.68 4.32 1-1.5 6.7-1.5 6.71-1.51 6.71-1.5 6.7 1.35 3.15 1.07 2 .53 2 1 2.2.14.73v2.14l-.69 1.38.43 1.65-.3.71-.65.25-.15.1v.15l.15.3 1.69 1.86 1.55 2.41 2.22 1.92.62 1 2.46 4.69 1.18 2.89 1.46 2.21.46 2.3 1.49 2.24.27 1 .1.23.23.07 1.26-.2.28.18.42.85-.11 1.13.33.55.66.42.8.25h2.68l.55.11.22.28v.59l-.23 1-.53 1.32-1.06 1.22-.14 1.29-1.22 2.84-1 1.85-.44 1.92-1 1 .14 1.39-.69 2 .15.57.73 1.12-.14 2.54-.26.42-1.85.62-.7.53-.39.85.18 2.75-1 1.28-.34 1.22.1.34 1.39 1 1.56 1.85.53.43h.42l.89-.33 1.07-.81 2-.64 2.52-1.72.22-.58.23-.3.27.07.6.42 1.07 1.56 1 .95.16.2v.38l-.31 1.28.43 1.15-.14 1.7.32 1.8.07 2.11 1.22 2.93.58 2 .86 1 .43 1.11.23 1.27v1l-.94 1.61v.75l.39.9 1.45 2.14.32.21 1.7.12.85.48.73 1.06.65 1.54.33 1.47-.15 1.65.59 2-.17 1.61.44.8 1 1.17 1 .78.43.12.36-.18.26-.86.58-.59 1.55-.68 1.31.26 4.8 1.7h.36l.27-.22 1.11-1.29.78-.44h1.07l3 .9 3.57.42 1.76.74 2.77-.07 3 .94.44-.17.15-.27-.18-.59.14-1.08.84-1.17.41-1 .73-.5.9-.2.66.16.55.69.58 1.1.87 2.86.54 1.06.71 1z"/><path id="US-IL" class="cls-1" d="M750.67 245.6l.37 4.26.63 3.51.76 1.51.8 1.1.85.66 1.1 2.22 1.35 3.77 1.16 2.45.82 1 .65 7.29.74 8.18.73 8.18.74 8.18.74 8.18.73 8.16.74 8.18.69 7.72v.12l-.9.92-.54 1.5.32 1.54-.15 1.15-.63.73.48 1.66 1.6 2.59 1.06 2.6.52 2.62-.07 1.92-1 1.82-.78 3.83-.81 1.58-1.13.6-.91 1.48-.73 2.36-.89 1.18h-1l-.74.49-.42.95.15.94.71.94-.12.94-1 .94v.41l.34.22-.09.42-.54.4-.28 1.31.22 2.08-.26 1.07-.69.11v.58l1.35 2.27-.63.55-1 2-.06 2.18.92 2.29-1.64 2.06-4.2 1.82-2.19 1.47-.16 1.13.44 1.67 1 2.2.28 1.55-.48.92-3.15-.33-5.82-1.61-3.78.37-1.76 2.34-.54 1.71.33 1.34-1.67-1.54-1.08-.66-.2.07-.21.21v.52l.07.37.2.41-.07.28h-.23l-1.16-.57-1.55-1.64-1.82-2.89-.52-2.38.76-1.83-.14-1.87-1-1.9-.58-1.88-.14-1.87-2.36-2.65-4.58-3.44-3.32-2.09-2.09-.74-2.49-1.72-2.89-2.68-1.58-2.11-.27-1.5 1-4.12 3-9 .33-1.06.09-.39-.18-.37-.36-.34-1.56-.94-2.92-.7-2.67-.33-2 1.18-2-2-1.88-5.22-4.19-5.38-6.48-5.57-3.77-3.82-1.1-2.07-1-3.13-.95-4.2-.14-3.51 1-4.26 1-.53.15-1.39-.41-2.43 1.06-1.9 2.51-1.38 2.2-2.87 1.88-4.35.79-3.09-.3-1.82-.87-1.69-1.44-1.56-.43-2 .57-2.47 2.17-1.66 3.77-.87 3.37-1.44 3-2 1.71-2.07.46-2.15.78-1.71 1.12-1.26.71-2 .32-2.71-.06-2-.46-1.24-1.43-1.39-2.41-1.51-1.39-1.49-.39-1.44-1.31-1.5-2.23-1.56-1.34-1.8 9.31-.49 9.12-.54 9.11-.58 9.12-.63 9.11-.68 9.11-.71z"/><path id="US-IN" class="cls-2" d="M814.21 260.72l1 8.86 1 8.85 1 8.85 1 8.84 1 8.85 1 8.85 1 8.84 1.08 9-.31.3-.34 1.23.68 1.12.1 1-.49.81.27.53 1 .25.48.8-.07 1.35-2 1.61-3.92 2-.82.55-.71.27h-.36l-.57-.22-.82-.53-1.32-.12-2.07.44-.69 1.37.69 2.3-.5 1.9L809 350l-1.15 1.82-.58 2.14-1.13 1.39-1.71.64-1.21 2.07-.71 3.5-1 2.23-1.21.95h-1.79l-2.38-1-1.43-1.11-.49-1.26-.75-.85-.65-.34h-.41v.2l.2.34-.17.41-1.37.28-.54.59.28.91-.23.69-.76.48-.33.92.1 1.4-.44 1.33-1 1.27-1.63-.23-2.3-1.71-2.17-.22-2.07 1.26-1.47 1.56-.9 1.87-1 .54-1.48-1.07-3.69-1.53-1.87-.23-1.28.58-.95-.11-.36-.49-.27-.18-.23.27.12 1.64-.22 1.06-.57.48-.48-.3-.43-1.08-.79-.28-1.16.49-1.22-.06-1.12-.57-.37.11-.27.33.2 1.27-.14 1-.49.7-.78.22-1.06-.25-.41.36-1.35-2.27v-.58l.69-.11.26-1.07-.22-2.08.34-1.32.62-.46.09-.42-.34-.22v-.41l1-.94.12-.94-.71-.94-.15-.94.42-.95.74-.49h1l.89-1.18.73-2.36.91-1.48 1.13-.6.81-1.58.78-3.83 1-1.82.07-1.92-.52-2.62-1.06-2.6-1.6-2.59-.48-1.66.63-.73.15-1.15-.32-1.54.54-1.5.9-.92v-.12l-.69-7.72-.74-8.18-.73-8.16-.74-8.18-.74-8.18-.73-8.18-.74-8.18-.65-7.29.15.18.84.62.65.34h.46l.31.58 1.19.26h2.12l1.91-.43 1.7-.8 4.05-2.92 5-.5 6.18-.65 6.19-.66 6.18-.69 6.18-.71 6.17-.73 6.18-.75z"/><path id="US-KS" class="cls-1" d="M615 403.31l-5.07.07h-45.61l-5.07-.06-5.07-.06-5.07-.09-5.06-.1L539 403l-5.07-.12-5.07-.14-5.07-.15-5.07-.16-5.07-.17-5.06-.18-5.07-.21-5.07-.21-5.06-.22-5.07-.25-5.06-.25-5.07-.27-5.06-.27-5.07-.3-5.06-.3-5.06-.32-5.06-.33.32-5.12.32-5.12.32-5.12.33-5.12.32-5.12.32-5.11.33-5.12.32-5.12.32-5.12.33-5.12.32-5.12.32-5.12.32-5.12.33-5.12.32-5.12.33-5.12 4.4.3 4.41.27 4.4.27 4.41.26 4.41.25 4.41.23 4.41.22 4.41.22 4.4.21 4.41.2 4.41.18 4.42.17 4.41.16 4.41.16 4.41.15 4.41.14 4.41.12 4.41.11 4.41.1 4.42.1 4.41.09 4.41.07 4.42.06h39.08l4.89 3.5h1.28l1.5-.57 1.15.79.8 2.18-.1 1.11-1 .06-1.23 1.32-1.47 2.6.39 2.41 2.27 2.24 1.51 2.25.78 2.29 1.5 1.76 3.34 1.86v1l.06 3.57.06 3.57.06 3.56.06 3.57.06 3.56.06 3.57.06 3.56.06 3.57.06 3.57.07 3.56.06 3.57.06 3.56.06 3.57.06 3.57.06 3.56z"/><path id="US-KY" class="cls-2" d="M871.71 342.76l.6.68.84 4v.81l-.48 1.75.17.86.82 1.27 2.75 2.81.41 1.18 1.08 1.06 1 1.66 3 3.45 4.28 2.57 3.1.37-7.11 7.77-3.38 3-3.29 2.45-.25.37-.49 2.23-1.9 2.18-1.07 2.17-3 2.12-2 2.59-5.5 3-3.15 1.22-2 1.59-.16.09-.16.09-.16.09-.16.09-.16.09-.16.09-.16.09-.16.09-7.63.75-7.63.73-7.63.69-7.63.66-7.63.64-7.65.6-7.65.58-7.65.54-7.29.9-7.29.86-7.3.84-7.3.81-.73-.79h-5.06l1.12 2.72.23 2.44h-.06l-3.45.3-3.8.32-3.8.32-3.8.31-3.8.3-3.8.3-3.8.28-4.37.32 1-2.47 1-.71.44-.16 1.1.28.54.11 1.11-.94.84-2.54.39-2.65v-2.76l-.86-2.14-.33-1.33.54-1.71 1.76-2.34 3.78-.37 5.81 1.6 3.15.33.48-.92-.28-1.56-1-2.2-.44-1.66.17-1.13 2.18-1.47 4.2-1.82 1.64-2.06-.92-2.29.06-2.17 1-2.06.63-.54.41-.36 1 .25.78-.23.49-.7.14-1L760 371l.27-.33.38-.11 1.12.57 1.22.06 1.16-.5.79.3.42 1.08.49.3.57-.49.22-1.06-.12-1.63.23-.27.26.2.37.48.95.11 1.28-.58 1.87.22 3.69 1.53 1.61 1.21 1-.54.89-1.88 1.48-1.56 2.06-1.26 2.17.23 2.29 1.71 1.64.22 1-1.27.44-1.33-.1-1.39.33-.94.76-.47.23-.69-.3-.91.54-.59 1.37-.28.17-.41-.2-.34v-.18h.41l.65.34.76.85.48 1.26 1.43 1.11 2.38 1h1.79l1.21-.95 1-2.23.71-3.5 1.21-2.07 1.71-.64 1.13-1.39.57-2.15L809 350l1.72-1.48.52-1.88-.7-2.3.69-1.37 2.08-.44 1.32.12.82.53.57.22h.36l.71-.27.82-.55 3.92-2 2-1.61.07-1.35-.48-.8-1-.23-.27-.53.49-.81-.1-1-.68-1.12.34-1.23.3-.3 1.07-1 1.23-.26 1.1.81 1.43.06 1.75-.69 1.71.11 1.66.91 1.7 1.86 1.72 2.79 2.66 1.5 3.58.2 2.71.82 1.83 1.47 1.39.36 1.44-1.12 1.59-.69 1.72.32 2.4 1.11 3.23-.78 4-2.65 2.55-.27 1.08 2.13 2.18 2.07 3.27 2zM728.53 412l-1.54.16-.09-.32v-.76l.1-.34.31-.09h.36l.55.68z"/><path id="US-LA" class="cls-1" d="M740.14 585l-1.56.85-9-2.23-2.33-2.13-2-.36-2.39-.12-2.38 3-1.71 3.9 3.2 1.88 2.7.82 4.3-1.12 2.28-2 2-.07.91-.44.79-1 1.72.64.11.75-1.12 1.15-1.44 1-.84 1.12 1.86 2 2.75.53 1-.38.46-2.45 1.54-1.66 2.27.17-.25 1 .38.9 1.15 1.49v2.25l.25.53-2.35 1.17-1.79.47-1.35 1.4.81.7-1.43.76-1-.2-.48.28-.1.8-.71.79 1.27 2.15 2.39 1.29 1.74 1.71 6.66 1.92 1.56-.18 1.74 2.3 1.31.74 1.23.33v1.67l-2 1.38-.47 1.49-.48.86-1-1-1-.68-2.13 2.45-1.07.57.37-2.5-.94-.9-1.57-2.28-2-1.39-1.38-.41-1.11-.89-1.29-.3-1.07.17-1.86-.43-.21-1.31-.58-.95-1.5-1-7-1.74v.91l.52.65 1 .39 1.23.8.16 2.61-.43 1.15-.11 1.59-.34 1.64-.75 1.32-1.81 1-.87-.66-1.55-3.37-1.95-1h-3l-2 .9-2 3.47-1.75.65-6.22-1.39-7.12-2.27.14-.89 1.08-.34 2.12.25-.16-.9-2.3-2.83-.47-1.31.2-1.64-.7.07-1.22 1.43-4.49-.94-1.21-1.29-2.78-3.77h-3.67l-1.76-2.28-2.94 1.12-1.47 1.16-1.26 1.75.55.86 1.39 1.34-.58.7-4.24 1.17-10-.73-2.94-.94-4-2.07-5.41-1.57-2.6-.21-2.52.43-7.39.38-1.7.52-1.44.8-1-.82-.47-1.49.85-.26.94-.91.82-1.77.07-1.06-.62-.68 1.54-2.79.37-1-.37-4.69-.75-1.69.06-1 .69-2.59-.17-2.35 1.24-2.86.92-1.5 1-3.05.2-2L643 569l-.36-1.56.73-1.16-.54-1.59-.21-2.11-.95-.79-1.67-3.05v-1.37l-1.79-2.87-.06-1-1.67-1.5-.34-1-.23-4-.47-1.17-1.44-2.23-3.32-3.29-.07-3.48-.07-3.48-.07-3.48-.07-3.48-.07-3.48-.07-3.48-.07-3.48-.07-3.48 4.16-.1 4.16-.11 4.16-.11 4.16-.12 4.16-.14 4.16-.14 4.16-.15 4.16-.16 4.16-.16 4.16-.17 4.16-.18 4.16-.18 4.16-.2 4.16-.21 4.15-.21 4.53-.26.21 1.34 1.16.74.14 1.44-.87 2.14.09 1.45 1.06.76v.87l-1.07 1-.11 1 .84 1 .42 1.22v1.4L700 526l1.67 1.08 1.13 1.33.14.75.11.7-.18 1-1.24 1.58-1 1.15-.59.43-.3.76v1.61l-1.39 2.14-2.92 2.55-1.86 3.14-.81 3.73-.92 2.39-1 1.06-.46 1.95.14 2.86-.63 1.61-1.39.37-.22 1.65 1 2.93-.28 1.26-.94 1v.76l5.68-.26 5.7-.3L705 565l5.7-.32 5.7-.34 5.7-.36 5.7-.37 5.7-.38-.5 3.17-1.38 4.4v1.12l.53 1.37v.79l.7 1.12 1.45 1.07 1.33 1.67L737 581l.38 1.43 1 2 .49.34.66.18zm7.34 2.47l.18 1.28-1.22-.55-1.75.07.74-.49.5-.47.23-.48 2.08-1.76-.53 1.22zm10.11 6.88l-.6.94.33-4.26-1.21-3.47 1.11 1.48.47 1.82zm-1.28 2.75l-1.19 1.55v-.55l.85-1.53.64-.62zm-69.76 10.22l-.87.44-4.11-2.22-.3-1 1.93-1h1.21l2 1.13.71.31.34.48-.15.78z"/><path id="US-MA" class="cls-2" d="M1086.68 172.62l-.06 1.49.95 1.19.76 1.29 1.28 1.12.79-.09.75-.48.62-.11.55.47v.75l-.9.44-1.42 1.72-1.42.91-.36 1.7-.68 2-1.51 3.3 1.21.54 3.77-.07 1.83.5 3.78 4.3-.39.65v1l2.47.66 1.7 3.37 2.08.71h2.81l2.84-2 2.19-2.25-.46-1.18-2.47-2.34-.79-1.21-1.48-.5-.25.86-1.07-.71-.25-.5.66-.47.89-.15 1.15.2 3.47 2.33 1.9 3.83.91 2.51v1h-.8l-1.38.59-6.43 3.31-1.18 1.61-3.11 2.27-.39-.57-.12-1.38-1-2.62-.71.07-4.16 5.92-2 .86-1.4 1.77-.59-.6-1.23-3.2.32-3.07-.57.21-.81 1.29-1-1-.9-.43-.89-.42-.25-1-.38-1.5-.9-.06-.6-1.81-.39-1.17-1.48.43-1.21.36-1.95.57-2 .59-1.48.43-.1-.28-2.36.6-2.36.6-2.36.59-2.36.64-2.36.59-2.38.59-2.36.58-2.38.58v.64l-.82.31-.21-.69-1.69.36-1.69.36-1.69.36-1.69.36-1.69.36-1.69.36-1.69.36-1.69.34-.69-.52.06-2.39.06-2.39.06-2.39.06-2.39.06-2.39v-7.17l1.95-.42 1.95-.42 1.95-.42 1.95-.43 1.95-.43 1.95-.43 1.95-.43 1.95-.43 2.81-.64 2.81-.65 2.81-.65 2.79-.66 2.79-.66 2.79-.66 2.79-.68 2.79-.68 1.5-1.19 1.43-2.63 1.1-.79 1.64-1.79.91-.54zm17.13 37.88l-5.1 2.86-1.11-.58 1.26-.78 1.16-2.46 1.07-.55 2.12.6zm11.4-.16l-1.4.87-3.82.06 2.67-1.67.39-.43v-1.32l-.14-.62 1.87 2.28z"/><path id="US-MD" class="cls-1" d="M1008.4 281.76l1.16 4.19 1.16 4.19 1.16 4.19 1.16 4.19 1.16 4.19 1.16 4.19 1.16 4.19 1.17 4.17h.39l2.12-.48 4.64-1.07 4.64-1.08 2.24-.54.16.79V314l-.38.58-.26-1.18-.44-.33-.44.64-.23.66.38 2.33-.12 1.24-1.29.66-.69 3.34-.91 2-.22 1.18-1.91.73-3.08 1.15-.55 1.39-1.72-.16-2.43.6.09-1.74.38-1.6-1.59-1.15h-.8l-.91-.41.64-1.4.16-1.37-.62-1.48.12-1.24-.59.32-.74 1.45-.53.63-.63-1-.38.34-.12.81-.55.55-1.6-.71-2.25-.73-1.56-1.76-1-1.42v-3l1.27-.8 1.9.06 2.35-.53-.47-.55-.81.28-3-1.74-1.1-1.21-1.45-.07-.33 1.47-.62.5.22-3.09 1.08-.37 1.47-1.17-.85-1.58-1.21-.5-1.67 1.33-.23-1.18v-1.59l1.42-.31 1.34.22.52-2.67-.2-1.11-1.39 2-1.15-3.34 1-3.68 1.32-1.8 2-.42 2-.7-1.44-.31h-1.4l.71-1.53.8-.42.58-1.33-2 .62-.25-2.2-.89.65-1.12.47-.26 1 .43 1.49-.12 1.07-.74 1-1.4 1-.39-1-.62-.37.32 2.35-.23.87-1.6-1.92-.25.52.17.6v1.13l-.85.76.36 1.35-.21.82-3.37-.5v.42l2.31 2.18 1.48.59.47 1.35-.85 1.4-1.75-.66-.25.12 1.21 1.53.85 1.38-.26 1.37.42 1.53.18 1.43-.06 1.29 2 5.47 1.23 1.33 1.21 1.27.78 1.27-.9.41-1.75-.8-1.5-.58-2.17-2.41-.49-1-.57-.79.62 1.95 1 2.11 6 3.9 1.33 1.71 1 1.34.14 1.48-1.5-.74-1.39-1.06-3.25-.82-3.9-.12-2.82-3 .31 1.42-.21 1.31-1.59-1.19-1.07-1.08-.57-1.32-1.56.43-1.42 1.55h-1.67l-.68-2.29.17-1.33 1.19-3.3 1.39-1.85.34-2.08-.89-2.93.69 2.17 1.39-2.59-1.39-1.52-1.45-1.35-1.28 2.18-1.56-.38-2.79-1.77-4.09-.81-.7-.69-.13-.92.25-1.33-1.4-1-3-.6-1.4-.74-.3-.16-.45-1.17-.52-.7-.68-.21-.22-.5.22-.8-.54-.7-1.31-.6-.54-.65.22-.71-.64-.18-1.49.36-1.6-.31-1.71-1-1.77.14-2.74 1.86-1.63.64-.6.85-.15 1.31-.62.75-1.65.33h-2.27l-1.48-.5-.31-.27v-.68l-.31-.25h-.42l-.31.44-.17 1.22-2.67 3.76-1.69-.33-.59.14-3.73 5.27-1.26 1-2.31 2.5-.58-3.45-.58-3.46-.58-3.46-.58-3.46 4.8-.89 4.79-.9 4.79-.91 4.79-.92 4.79-.94 4.79-.95 4.78-1 4.78-1 4.78-1 4.78-1 4.78-1 4.76-1 4.76-1 4.76-1 4.76-1.06zm21.94 42.18l-.54.21.34-1.06.82-4.9.47-1.74-.07 3.32-.74 3.21z"/><path id="US-ME" class="cls-2" d="M1085 46.22l.26.53 1.12.74 1.39.31h1l1.06-.33 2.47-2.22 3.11-1.91 1.61-1.38.1-.86.76-.53 1.43-.2 3.09 1.1 3.82 1.91 3 1.5 1.32 3.85 1.37 4.09 1.44 4.31 1 3.08 1.42 4.22 1.13 3.35 1.48 4.37.79 2.34.54.58.1 1 .06.49.14.36.28.42.18.65-.11.68.06.73.31 1.12.54.58.66.22.46-.15.71.21 1 .47 1.34.25 1.26-.17.78-.42 1.12.07.66.87.11 1-.37.55-.49.53.12.74.54.64.64.5.85 1 .12 1-.16 1 .09.92.6.62 1.29.66.92.75 1.13.21.35-.57.21-.62.27-.49h2.61l.16.84 1 1.17 1.26 2.45-.23 1.38.64 1.51 1.87-.12.58.33.27.54-2.5 5.23-3.41.49-1.4 1.63-1.74.9-.23 2-.89.7-1.42.33-1.35-.12-.84.54-.25 3.62h-1.13v1.29l-.38.68-.66.69-1.15-1.21-.87-1.22-.75-.09-1-.07-.89.3-.53.38-.47 1.11-.84 1.1-1-.37-.95-.81v1.8l-.26 2 .75 2v1.29l-.85-.09-1.07-.81-2.35-.18-1.65.59v-1.22l1.08-2.08-.58-.16-.7.47-.41-.12.1-1.63-.44-1.61-.53.78-.37 2-1.74 2 .79 2.23-.62 5.24.5 2-.82 2-1.28 1.86-2.36.3-1.37 1.7-.47 1.61-.7.43-.91-1.6-.44-.44.12 2.72-.6.34-.78-1.72-.66-1.1-.58 1.28.22 2.89h-.68l-.49-.95-.53-.17.18 1.19.7 1.56-.06 1-.75-.28-.85-.6-.84.89-.86.52-.23-.8-.11-1-1.7 1.08-1.7 2.45-1 3 .73.23.91.59-1.9 4.73-2.09 4.36-.73 6.33-.75.94-.52 1.27-2.25-2-.87-1.91-2.41-1.86-1.15-1.43-.74-1.75-.46-2-1-2.89-1-2.89-1-2.89-1-2.89-1-2.89-1-2.89-1-2.89-1-2.89-1-2.89-1-2.89-1-2.89-1-2.89-1-2.89-1-2.89-1-2.89-.87-2.59.34-.53.92-1.07.78-.1.95.95.74.6.55-.39.22-1.21-.43-1.47.43-1.23.81-.41.8-.2.25-.62-.25-.7-.62-1.07-.3-1.42 1.27-3 1.93-2.36.6-1.07-.25-1.76.87-2.15.39-1.21-.09-.92-.66-1-.24-2.17-.25-2.6-.21-2.84.55-2.78 1.29-3.24-.48-3.61-.52-3.82 1.43-4.28 1.6-4.86.91-2.77 1.61-5 1.13-3.58.62-1.67.58-1.95h3.75l.47 2.43zm40.21 73.08l-.94.86-1.27.16.46 1.38v.54l-1.55-.3-.63-.31-.53-1.85.63-2.11.68-1 1.31.11 1.5 1.66zm-7.09 6.16l-.55.74-.81.07-.43-1.29.1-.5.21-.28.5.25z"/><path id="US-MI" class="cls-2" d="M716 98.35l-.06.47.69.09-.1.23-.7.47-2 1-1.38.38-.74-.25-.11-.57.5-.87v-.42h-.58l.11-.33.81-.71 6.93-4.74 3-1.77 1.61-.62.28.21-1.66 1.71-.23.66.1.42-.52.87-5.19 3.42zM731.29 117l-.27.92.11.53L729 121l-.7 1.56-.68.3-.64-1-.06-.81.52-.66.48-.92v-1.22l-.25-.42-.6 1.15.41.2.14.17-.1.41-2.67-.36-.86-.79v-1.19l.75-1.59 2.88-3.48 1.31-1 3.82-1.76 2.14-.52 2.18-.2 1.63.32 1.07.84-.87.7-4.26.91-.1.18.86.43.18.34-.68 1zm75 11.6l.63.28.47.57 1.21 1.56.64 1.08.52 1.66.28.54.1 1-.58.76-.11.55.47.48 2.27-.15 1.1.39.47.54-.17.69.23.68.65.66 1.95.87.52.47v.58l-.49.43-.92.3-7-.15-2.06.09-.25.42-.18.09-.34-.06h-.59l-.33-.21-.33-.66-.66-.37-1-.07-.75.63-.7 2.19.2.37v1.35l.3.33v.31l-.23.28h-.57L800 147l-3.63-2.75-2.65-1.27-3.18-.79-2.47-.28-1.77.23-1.37 1-1 1.71-1.67 1.11-2.39.49-1.27.57-.14.65-.87.11-1.6-.43h-1.61l-1.61.44-1.13.75-1.06 2.08-.15 1-.84.92-2.25 1.46-.07.49-1.13 1.61-.32.86.09.8h-.44l-1-.81-.16-1.21.65-1.6.64-.81h.63l.32-.71v-1.4l-.3-.68-1.19.41-.58.63-.8.2-1-.22-.79.85-.57 1.91-.78 1.29-1 .68-.76-.55-.54-1.79-.15-1.44.25-1.77-.25-.32-.38.59-.52 1.51-.57 3.24-.47 1.08-.71.5-1 2-1.33 3.55-1.55 3.46-1.79 3.37-1.1 1.82-.39.28-.14.59v1.34l-1-.28-.89-1-.58-1.06-.15-1.13.87-2.92.06-.47-.15-.25-.65-.26-1.35.63-1.4.22-.47-.15-.22-.47v-.75l.21-.92.7-1.74-.14-1.58.31-.94-.53-1.64v-.8l-.68-.82-1.7-1-3.85-1.21.22-1.75-.21-.73-1-1-4-1-2.7-.36-2.62.2-1.91-.32h-2.12l-1.42-.66-1.4-.66-1.4-.68-1.4-.68-2.44-.48-2.44-.49-2.44-.49-2.44-.49-2.44-.49-2.43-.5-2.43-.5-2.43-.5-.6-1.12-.6-1.12-.6-1.12-.6-1.12-1.12-.42-.59-.22-.47-.58-1 .32-.44-1 .09-.22 1.24-.34 3.61-1.59 2.93-1.95 2.38-2.23 3.05-1.48 3.72-.73 2.63-.92 1.54-1.12 2-2.11 1.17-.66 1.51-.3 1.1-.84.66-1.39 1.34-1.63 2-1.86 1.17-.79.33.3.16.59v.89l.59.66 1.19.44.58.68v.9l.37.74.78.57.31 1.35-.16 2.14.07 1.37.31.6.28.33.38-.37.46-.79.15-.49.09-.48 3-2.4.6-.16 1.08.46 4.83.34 1.93.38 2.09 1 .71.41 2.79 3.72 1.24 1.44.73.36.44.57.46 1.35.42.38h3.58l1.59-.41.92-.66 1.12.26 1.33 1.17 1.22.25 1.11-.69 1.1-.09 1.08.49.52.39h.31l1.82-2.18 2.25-2 3-2.23 1.79-1 .54.15 2.92-1 2.68-.36h3.61l3.25-.82 2.89-1.61 2.6-1 2.31-.43.92.25-.47.92-.12 1.5.21 2.08v1.33l-.28.59v.53l.33.47h2.31l1.28.53 1.38-.14 1.47-.8 1.21.09 1 1h1.22l1.06-.92.73-.82.66-.41zm4.78 3.35l.09.59-.6-.06-.54-.33-.47-.62-.7-1.59-.9-1.08.94-1.48.64-.25.75.21.2.76-.36 1.32.2 1.28zm.65 3.15l-.25.18-1.1-.95-.28-.63.07-.57.37-.07.66.42.41.54.16.65zm12.6 4.78l.27.59-.33 1-1.28.64-2.72.32-1.81-.11-.9-.53-.22-.31v-.73l.38-.1.63.31.84-.28 1-.87.53-.62v-.37l-.46-.64.26-.33 1.48.06.6.38 1.18 1.42zm-19.42 7.94l2.5.07.21-.25.79.64.18.59-.23.55-.39.33-.55.12-.95-.41-1.63-1.19zm-3.9 1.25l1.44.33 2.66 1.38 2.46.69h2.24l1.69.38 1.13.78.86.92.6 1.07 1.15.49 1.69-.07 1.37.31 1.06.69 5.58 1.39 2.36.8 1.37.91.44.65v.7l.22.71 1.11 1.31.36.07.31.66.26 1.24.38.8.52.36-.25.21-1.74-.49-.9.34-.3 1 .06.9.41.79 2.45 2.22.87 2.22.49 2.76-.11 1.12.11 2.41.34 3.71.14 1.27-.53 1.33-1.65 2-.07-.33h-.47l-.46.33-.48 1.61-.21 2.84-.5 1.6-.81.36-.46.47-.1.58-.86.5-1.63.42-1 1-.52 2.49.18 1.13-.2 1.47.18 1.21.58.95 1.48.82 2.36.7h1.35l.86-.54.73-1.79.84-.78 1.1-.43.32-.81 1.4-3.55-.1-.74-.71-.18.07-.22.85-.26.7-.55.54-.85 1-.73 2.62-1.24 1.33-1.19.91-.3 1.43.33 2 .95 1.66 1.55 1.38 2.15 2.2 5.77 3 9.41 1.9 5.23.76 1.06.38.53-.28 7.76-.68 3.29-1.74 2.11-1.74 2-2.06 3.3-2.52 1.85-1.16 1.08-.22.59-.36-.12-.52 1.7-.36 2.3v1.75l.37.9-.49.68-.87 1.27-.14.43.16.65-.17.36-.5.06-.33.37-.76 1.31-1.18 3.31-.18.6-.18.2-6.73 1.18-6.75 1.16-6.75 1.13-6.75 1.11-.21-1.59-6.17.75-6.18.73-6.18.71-6.18.69-6.18.66-6.18.65-5 .52 1.23-.9 2-2 1-1.7.95-2.2.85-2.7 1.88-4.1.86-2.45.75-3.07.47-3.18.2-3.3-.11-3.39-.41-3.47-.92-3.45-1.43-3.41-.76-1.75-.27-.46-2.48-4.32-2.82-6v-.54l1.59-4v-.5l-.53-3-.58-1.48-1.22-1.95v-.52l1.77-2.83 1-2.12.86-2.54.42-2.89v-3.26l-.25-2.14-.47-1v-.84l.36-.63 2.09-1 .59-1.35-.09-2.25.32-1.16.74-.06.63-.53.52-1 .8-.36 1.07.28 1.28-1.54 1.48-3.39 1.21-1.93.94-.49.22.27-.5 1-.07 1.06.37 1.11-.07 1.12-.28 1.55.33.43L787 176l.1 1.21.59.86.53-.38.48-1.64.1-.85-.28-.07v-.68l.32-1.28.34-.63h.37l.18.65v1.28l-.7 3.1-.1.94.27.23 1-2 .71-3.1.54-2.38V170l-.62-3.19-.1-1.32.2-.95 1-1.16 1.74-1.37 1.77-.82 1.81-.3 1.23-.47.65-.63-.31-.41-1.27-.17-1-.6-.78-1-.37-1.24v-1.45l.6-1.49 1.18-1.54.3-1.06-.58-.59.54-.3h1.66l1.12-.32.58-.63zm-14.52 7l-.64.21-.54-.26-.06-1.29.41-2.31.54-1.11.94.31-.15.3.46 2.38-.2 1.1zm-6.65 14.64l-.18.42h-.54l-.47-.33-.55-1.16.11-.28 1.07.06.42.47z"/><path id="US-MN" class="cls-1" d="M633.05 83.56l2.2-.41h1.9l1.91.09 1 .18 3 1.12 2 .94 2.83 1.75 1.56.76.81 1.9 1 2.45h1.23l.86-1.49 2.34-.36 3.13.89 2.84 2.77 4 2.4 2.46 1.17 2.44-.12 3-1.44 3.15-2.65 2.34-.55 1.42.16.91 1.88 1 .68 2.54-.37h5.34l4.2-.8 1 1 1 1.69 1.76.43 2.3-.71 3.71.12-.49.32h-.54l-.68.47-.82.95-1.95 1.4-3.08 1.87-3.58 1.75-7.3 3.19-4.49 3.1-2 1.82-7.61 9-4.67 4.79-7.65 6.75-.71.85v.75h-.34l-1.24 1.6-.52 1-1.28.33.16 4 .16 4 .16 4 .16 4-.62.43-.76 1-1.1.27-5.06 3.47-.81 1-.86 2.22-1.61 2.52-.38 1.33.14 1.76 2.66 1.33 1 1.33.53 1.65v1.45l-1.22 2.88-.2 1.15.26 3.46-.63 1.11.64 2.78.07 1-.31 3.09-.26.91.58 1.58.06.17 2.56 2.13 2.14 1.15 1.9.32 1.5.89 1.12 1.45 1.48.92 1.82.39 1.9 1.17 3 2.93 1.53 2.54 2.55 1.75 4.09 1.8 2.71 1.61 1.32 1.43 1 3.77 1.08 8.06-6.59.34-6.49.31-6.5.28-6.5.26-6.5.23-6.5.21-6.5.18-6.5.17-6.5.15-6.5.12-6.5.1-6.5.07h-26v-49.41l-1.47-2.06-3.21-1.69-.8-1-1.48-2.49-.58-1.07-.1-.82.73-.91 2.94-2.63.94-1.22.47-1.19.69-2.75-.26-2.12.21-3.29-.58-2.47-.12-1.23-.36-1.53-2.14-4-.49-3.25-.53-1.6-.14-4.11.07-1.16.46-2.23-.9-1.51-.12-1.24-.33-9.81-.27-1.4.12-4.56-1.59-4.81-.76-1.64-.37-2v-.95l-1.29-3.29-.84-3.62.12-3.13.03-2.41.12-1.83-.21-2.77.3-1.56V82.4l-1.69-8.7h2.24l7.82.07h27.85V63.22l3.94.52 1.18.84.38.39-.1 1.28.37 3.88.76 3.23 1.71 3.87.16 1.51.57.95 1 .87 3.82 1 6.64 1.12 3.78 1.35.92 1.6 1.79.6 2.63-.38 1.83-.73zm0 0H633h.09z"/><path id="US-MO" class="cls-1" d="M680.09 308.7l-1 4.26.14 3.51.95 4.2 1 3.13 1.1 2.07 3.77 3.82 6.48 5.57 4.19 5.38 1.88 5.22 2 2 2-1.18 2.67.33 2.92.7 1.56.94.36.34.18.37-.09.39-.33 1.06-3 9-1 4.12.27 1.5 1.58 2.11 2.89 2.68 2.49 1.72 2.09.74 3.32 2.09 4.58 3.44 2.36 2.65.14 1.87.58 1.88 1 1.9.14 1.87-.76 1.83.52 2.38 1.82 2.89 1.49 1.72 1.16.57h.23l.07-.28-.2-.41-.07-.37v-.52l.21-.21.2-.07 1.08.66 1.67 1.54.86 2.14.06 2.76-.39 2.65-.85 2.54-1.11.94-.53-.11-1.15-.36-.44.16-1 .71-1 2.49v.06l-.42.27-.32-.23v-.12l-.26-.69-.55-.68h-.36l-.31.09-.1.34v.76l.09.32.5 2-.22 1.49-1 .65-.11.82.69.9v.42l-.22.37-.74.16-.55.25-.41.78 1 1.38v1.74l-1.1 2.12-.11.8-4.06.33-3.64.31-3.64.3-3.64.28 1.55-3 1-1.12.75-1.13 1.42-1.12 1.49-2.31.12-1-.23-1-1-1.33-1.12-2.07-6.14.38-6.14.37-6.14.34-6.14.33-6.16.31-6.14.3-6.16.27-6.14.26-6.16.23-6.14.21-6.16.2-6.16.18-6.16.16-6.16.14-6.16.12-6.14.1-.06-3.42V403.4l-.06-3.57-.06-3.56-.06-3.57-.24-3.7-.06-3.56-.06-3.57-.07-3.56-.06-3.57-.06-3.57-.06-3.56-.06-3.57-.06-3.56-.06-3.57-.06-3.56-.06-3.57-.06-3.57v-1l-3.34-1.86-1.5-1.76-.78-2.29-1.51-2.3-2.27-2.24-.39-2.41 1.47-2.6 1.23-1.32 1-.06.1-1.11-.8-2.18-1.15-.79-1.5.57h-1.28l-4.89-3.5-.33-.25-1.53-2.33-.6-2.78-1.22-1.81-1.81-.84-1.15-1.83-.49-2.84-1.16-2.86-.53-.85h5.21l5.26-.07 5.27-.09 5.26-.1 5.27-.12 5.26-.14 5.26-.15 5.27-.16 5.26-.17 5.26-.2 5.26-.21 5.26-.22 5.26-.23 5.26-.25 5.26-.27 5.26-.27 1.12 1.93 1.17.53.26.64 1.54 1 .37 1z"/><path id="US-MS" class="cls-1" d="M761 450.78l2.14 1.63v2.39l-.11 5.1-.11 5.1-.11 5.1-.12 5.1-.12 5.1-.12 5.1-.12 5.1-.14 5.1-.14 5.11-.14 5.11-.14 5.11-.14 5.11-.15 5.11-.15 5.11-.15 5.11-.15 5.12.68 5.13.68 5.13.68 5.13.68 5.13.68 5.13.68 5.15.68 5.15.79 5.64-6.94 1-3.16-1.17-1.29-.17-.76.1-3.43 1.55-4 1.29-1-.25h-1.37l-2.7 3.58-1.8 1-.59-.18-.66-.18-.49-.34-1-2-.38-1.43-1.29-3.07-1.33-1.67-1.45-1.07-.7-1.12v-.79l-.53-1.37v-1.12l1.38-4.4.48-3.21-5.7.38-5.7.37-5.7.36-5.7.34-5.7.32-5.7.31-5.7.3-5.68.26v-.76l.94-1 .28-1.26-1-2.93.22-1.65 1.39-.37.63-1.61-.14-2.86.46-1.95 1-1.06.92-2.39.81-3.73 1.9-3.13 2.92-2.55 1.39-2.14v-1.61l.3-.76.59-.43 1-1.15 1.24-1.58.18-1-.11-.7-.14-.75-1.16-1.33-1.67-1.08-1.13-1.77v-1.4l-.42-1.22-.84-1 .11-1 1.07-1v-.87l-1.06-.76-.09-1.45.87-2.14-.14-1.44-1.16-.74-.21-1.34-.1-.68.8-4.92-.27-.62-1.15-1.42-.21-1.77.52-2.2-.39-1.67-.92-.57-.26-.65-.32-1 .91-1v-.85l-.89-.73.48-1.13 1.85-1.53.49-.84.52-.87.22-2-.33-1.18-.5-.78.2-.42.37-.39 2.24-.86.62-.55.1-.64-.8-1.53.6-1.69 2-1.86 1-1.6v-1.33l.95-1 1.83-.71 1-2.52.2-4.33.44-1.87.94-.33.47-.63.09-1.24 1.08-1.34 2.08-1.44.78-1.32-.3-.66-.06-.85 5.74-.36 6-.39 6-.41 6-.43 6-.44 6-.47 6-.48zm2.12 131.86l-.27.33-2.17-.41-1.33-.43-.27-.52 3.64.68z"/><path id="US-MT" class="cls-1" d="M430.67 151.51l-.53 6.39-.54 6.38-.53 6.39-.53 6.38v.34h-.62l-4.26-.38-4.27-.39-4.26-.41-4.26-.42-4.26-.42-4.26-.43-4.26-.46-4.26-.44-4.26-.47-4.25-.48-4.26-.48-4.26-.5-4.25-.5-4.25-.52-4.26-.53-4.25-.53-4.25-.55-4.24-.55-4.25-.57-4.25-.58-4.24-.59-4.25-.6-4.24-.6-4.24-.62-4.24-.64-4.24-.64-4.24-.64-4.24-.66-4.22-.66-4.24-.69-4.22-.69L292 160l-.57 3.41-.58 3.41-.58 3.41-.57 3.41-1.16-.94-.71-1-.54-1.06-.87-2.86-.58-1.1-.55-.69-.66-.16-.9.2-.73.5-.41 1-.84 1.17-.14 1.08.18.59-.15.27-.44.17-3-.94-2.77.07-1.76-.74-3.57-.42-3-.9H266l-.78.44-1.11 1.29-.27.22h-.36l-4.8-1.7-1.31-.26-1.55.68-.58.59-.26.86-.36.18-.43-.12-1-.78-1-1.17-.44-.8.17-1.61-.59-2 .15-1.65-.33-1.47-.65-1.54-.73-1.06-.85-.48-1.7-.12-.32-.21-1.45-2.14-.39-.9v-.75l.94-1.61v-1l-.23-1.27-.43-1.11-.86-1-.58-2-1.22-2.93-.07-2.11-.32-1.8.14-1.7-.43-1.15.31-1.28v-.38l-.16-.2-1-.95-1.07-1.56-.6-.42-.27-.07-.23.3-.22.58-2.52 1.72-2 .64-1.07.81-.89.33h-.42l-.53-.43-1.55-1.79-1.39-1-.1-.34.34-1.22 1-1.28-.18-2.75.39-.85.7-.53 1.85-.62.26-.42.14-2.54-.73-1.12-.15-.57.69-2-.14-1.39 1-1 .44-1.92 1-1.85 1.22-2.84.14-1.29 1.06-1.22.53-1.32.23-1v-.62l-.22-.28-.55-.11h-2.68l-.8-.25-.66-.42-.33-.55.11-1.13-.42-.85-.28-.18-1.26.2-.23-.07-.1-.23-.27-1-1.49-2.24-.46-2.3-1.43-2.23-1.18-2.89-2.46-4.69-.62-1-2.22-1.92-1.55-2.41-1.75-1.76-.15-.3v-.15l.15-.1.65-.25.3-.71-.43-1.65.69-1.38v-2.14l-.14-.73-1-2.2-.53-2-1.07-2-1.35-3.15 1.5-6.7 1.51-6.71 1.5-6.71 1.5-6.7 3.3.74 7.63 1.67 7.63 1.64 7.65 1.61 7.66 1.56 1.72.36 5.93 1.18 7.67 1.49 7.67 1.47 7.68 1.43 7.68 1.38 7.69 1.35 7.73 1.31 7.71 1.28 7.71 1.24 5.82.92 1.9.28 7.72 1.18 7.73 1.13 7.74 1.1 7.67 1.07 7.74 1 7.76 1 7.76 1 7.76.91 7.76.89 7.77.84 7.77.81 7.78.78 7.77.73 5.81.53-.43 5.27-.44 5.28-.44 5.28-.44 5.28-.44 5.28-.44 5.27-.43 5.27-.44 5.27-.44 5.26-.44 5.26-.43 5.26-.44 5.26-.43 5.26-.44 5.24-.43 5.26z"/><path id="US-NC" class="cls-2" d="M1023.63 367.28l-.1 2.2.58 1.12 1.43 1 2 2.79 1.95 3.92-1.74-1.37-1.65-.57-2.41-.17-2.28-.75.53 1.69.22 1.9-1.67-.22-1.19-.38 1.37 1.77-2.17-.15-1.33.42-.5 1.95-.95 1.32-1.67.73-3-1-1.26-1.76-.81-2.09.41 2.6 1 2.57.27 2.07 2.59-.17 2.27-.84 3.18-.6 2-.84 1.1-.92 3.1-.1.76 2.4.2 2.51.41 2.63.82-.2.79-1-.55-4.75 2.33-2.33.94-.09 1.21 1.29.64 1.45.78 2 .09 3.31-3.36 4.65-2.24 4.1-1.39 1-2.31.1-2.71-.31-1.28.1-.87.49-.8-.94-.79-1.85-1.12-.43-.73.23-.06 2.15-2.23 1.08-3.37-.16-3.72-1 1.83 1.54 9 1.66 1.07.44 1.08.75-.84 1.74-.55 1.86.16 1.33-.15.9-2.86 2.94h-1.9l-5.47-3 2.83 3 2 1.12 3.56.06 6.08-2.67 2.39 1-1.16 2.88-1.32 2.13-2.19.68-1.87.9-.32 1.33-1.39.38-2.18.54-3.37.84-1.93.11-2.09 3-.91.54-1.48-.17-1-1.87-.82-.85.75 3.73.46.95.65.65-2.65 2.66-2.4 3.07-.91.9-.94 1.51-1.72 4.15-.07 2.78-.3 3.15-.38-1.32-.3-2.28-1.13-2.45.57 4.8-.52 2.39-8.84 1.59-3.34 1.8-3.87-2.63-3.62-2.5-3.61-2.5-3.61-2.51-3.6-2.51-3.58-2.52-3.58-2.53-3.57-2.54-3.16.46-3.16.46-3.16.46-3.16.44-3.16.44-3.16.44-3.16.43-3.16.43-.48-2.11-.33-1.49-2.4-2.24-1.4-1.32-2.27 1.71-.23-.62-.1-1.16-.28-.36-.73-.16-3.55.43-3.55.42-3.55.41-3.55.41-3.55.39-3.55.39-3.55.39-3.55.38-.85-.12-1.45 1.13-4 2-1.88 1.5h-.76l-3.37 1.68-3.4 1.66-.41.06-6.75 1-6.75 1-6.75 1-6.76 1 .1-5.9.41-1.4.6-.38 2.31-.32 1.39-.86.84-3.66 2.57-3.13 1.23-.87 1.91-.8 4.6-1.31 4.64-3.29 3.26-3 2.77-1.11.76-1.06.47-1.29.17-1.7.26-.38 1.66-.12 1-1.6 1.11-1 1.15-.64.74-.12.34.38.38 1.18.32.36h.52l.66-.38.82-.92 2.06-2.79 1.47-1.18 2.39-.91 2 1 1-.6 2.36-5.45 1.11-1.1.89-.5 1.61-.33-.2-1.37.23-2.14-.15-1.42.66-2.23.44.36 7.89-1.19 7.89-1.23L924 386l7.88-1.29 7.88-1.32 7.88-1.35 7.87-1.39 7.87-1.42 7.86-1.45 7.86-1.48 7.84-1.51 7.84-1.54 7.83-1.58 7.83-1.6 7.82-1.64zm1.66-.36l.68-.16 4.09 8.1 6.44 8.36.9 1.49-1.33-1.18-4.62-5.45-2.78-4.06zm9.69 17.31l-.21.62-2.12-2.62 1.7.62.44.73zm5.76 16l-2.77 1.4-.31-.17 3-2.29-.17-5.61-.42-2.5-1.5-4.25-.2-.91.87 1.28 1.42 4 .53 3.13.06 4.72zm-4.91 2.51l-3.56 2.81h-.48l2.31-2zm-12.66 18.18l-.48.43 1.29-3.78 3.07-5.12.94-.89-2.51 4.36zm-1-.12l-.48.17-.94-.11-1.32-.31-.36-.36 1.18-.1z"/><path id="US-ND" class="cls-1" d="M574 158.28h-13.44l-4.49-.07-4.48-.07-4.48-.1-4.48-.1-4.49-.11-4.48-.14-4.48-.14-4.48-.15-4.48-.16-4.48-.17-4.48-.17-4.48-.2-4.48-.21-4.48-.22-4.48-.22-4.47-.25-4.48-.25-4.48-.27-4.47-.27-4.48-.28-4.47-.3L462 154l-4.47-.33-4.47-.32-4.48-.34-4.47-.36-4.47-.37-4.47-.38-4.47-.38.44-5.24.43-5.26.44-5.24.43-5.26.44-5.26.43-5.26.44-5.26.44-5.26.44-5.27.43-5.27.44-5.27.44-5.28.44-5.28.44-5.28.44-5.28.43-5.27 2 .17 7.79.66 7.78.63 7.79.59 7.79.54 7.79.52 7.81.48 7.79.44 7.81.41 7.79.37 7.81.33 7.82.3 7.81.26 7.81.23 7.81.18 7.82.15 5.57.09 1.69 8.7v2.44l-.3 1.58.21 2.76-.14 1.85.26 2.36-.12 3.13.84 3.62 1.29 3.29v.94l.37 2 .76 1.64 1.6 4.83-.12 4.56.27 1.4.33 9.81.12 1.24.9 1.51-.46 2.23-.06 1.16.14 4.11.53 1.61.49 3.25 2.14 4 .34 1.53.12 1.23.58 2.46-.21 3.29z"/><path id="US-NE" class="cls-2" d="M575 252.66l.6.15 1.35 2.43.54 4.32 1.23 3.5 1.91 2.65 1 1.95v1.23l.46 1.32.91 1.4.37 2.39-.18 3.37.38 1.79 1 .22.43.48-.14.73.32.55.79.34.22 1-.34 1.59.28 1 .91.41.17.79-.57 1.16.09.91.75.66.5 2.94.27 5.22-.09 3.07-.43.89.69 1.88 1.28 2 .53.85 1.16 2.86.49 2.84 1.15 1.83 1.81.84L596 316l.63 2.79 1.53 2.33.33.25h-39.11l-4.42-.06-4.41-.07-4.41-.09-4.42-.1-4.41-.1-4.41-.11-4.41-.12-4.41-.14-4.41-.15-4.41-.16-4.41-.16-4.42-.17-4.41-.18-4.41-.2-4.4-.21-4.41-.22-4.41-.22-4.41-.23-4.41-.25-4.41-.26-4.4-.27-4.41-.27-4.4-.3.22-3.41.22-3.41.22-3.41.23-3.41.22-3.41.22-3.42.23-3.41.22-3.41-5.17-.36-5.16-.36-5.17-.38-5.16-.39L434 288l-5.16-.43-5.17-.43-5.16-.44.59-6.83.59-6.82.58-6.83.59-6.82.58-6.83.59-6.83.59-6.83.58-6.83 7 .6 6.94.57 6.94.55 7 .52 7 .5 7 .47 7 .44 7 .42 7 .39 7 .36 7 .33 7 .32 7 .28 7 .26 7 .22 8 .25 5.91 4.24 3.57 1.35 1.72-1.17 3.71-.62 5.69-.07 3.57.62 1.49 1.32 2.91 1.49 4.33 1.65 2.6 1.77.85 1.9 1.51 1.22z"/><path id="US-NH" class="cls-1" d="M1086.64 167.12l.1 3.67-.06 1.83-2.31.53-.91.53-1.64 1.8-1.11.79-1.42 2.63-1.5 1.19-2.79.68-2.81.68-2.79.66-2.81.66-2.79.65-2.81.66-2.79.64-2.81.65-.58-.86-1.54-1.4-.44-.64-.15-.81v-2.28l.27-.79.12-1.35-.63-5.12-.15-3-1-5.34v-1.64l.22-1.07.14-2.67.9-2.4.26-2.72.55-2.46-.17-1.32.1-3-.73-5 .36-.92 2.38-1.37.66-.73 2.15-2.76.63-1.07.31-1v-1.47l.2-.46-.15-.78-1.7-2.94-.36-1.16 1.08-4.19-1-2 .16-.6.43-5.64 1.06-2.86 2.57.14 1.24-.42.7-1.1.87 2.6 1 2.89 1 2.91 1 2.89 1 2.89 1 2.89 1 2.89 1 2.89 1 2.91 1 2.89 1 2.88 1 2.89 1 2.89 1 2.89 1 2.88 1 2.89.46 2 .75 1.75 1.15 1.43 2.43 1.86.87 1.9z"/><path id="US-NJ" class="cls-2" d="M1038.57 238.87l.17 2.15-.95 4.69-.6 1.18-.78 1.11-.65.55-.53.84-.54 1.26-.25 2.3.94 1.81 4.06-.25.9-.85.87 1.24.78 1.83.22 2.14-.14 2.27.15 2.73.57 4.09.25 3.74-.36-1.07-.68-4.46-.53.62-.2 1.12.18 5.92-.92 3.4-1 2.45h-1.66l.75 1.56-.22 1 .06 1.88-.65 1.42-.91.1-1.07 1.12-.36.75.25 1.21-.6 1.26-1.77 6.22-2.3 2.25-.7-.09.1-2.76-.14-2.73-1.9-.75-1.7-.23-1.76.49-2.44-1.58-2.88-.9-4.46-3.2-.15-1.13-.52-1.85.39-3.19.55-2.3 1.17-1.39 3.84-2 .64-1.87.28-1.51.82-1.15 1.95-2.2 3.09-2.84-6.51-5.53-1.27-.11-2.06-3-1.7-.55-.49-.42-.65-2.49-.2-1.47v-.9l1.11-1 .39-1.61-.16-.75-1.51-2.11-.17-.73 1.51-1.83 1.75-3.32.71-3.36.37-1 .54-.8 1.38-1.23 2.28.74 2.28.74 2.28.74 2.29.74 2.29.73 2.29.73 2.29.73zm4.06 36l-1.43 4.62-.25-.76 1.79-5.74z"/><path id="US-NM" class="cls-2" d="M430.14 411.27l-.92-.06-.63 7.67-.63 7.68-.63 7.67-.63 7.67-.63 7.68-.64 7.68-.63 7.68-.63 7.68-.64 7.68-.63 7.69-.63 7.69-.64 7.69-.63 7.69-.64 7.71-.63 7.71-.64 7.71-5.26-.41-5.26-.43-5.26-.44-5.24-.44-5.26-.47-5.26-.48-5.24-.49-5.24-.5-5.26-.52-5.24-.53-5.24-.54-5.24-.55-5.24-.58-5.23-.58-5.24-.59-5.23-.62H335l1.8 5.23 2.66 1.74-.17-.07-5.13-.63-5.13-.64-5.13-.66-5.12-.66-5.13-.68-5.12-.7-5.13-.7-5.11-.71-.43 3.07-.43 3.07-.43 3.08-.43 3.07-8.3-1.12-8.27-1.16-3-.43 1.4-9.69 1.4-9.66 1.39-9.65 1.4-9.64 1.39-9.65 1.39-9.64 1.4-9.63 1.39-9.63 1.39-9.63 1.39-9.62 1.39-9.62 1.39-9.62 1.39-9.62 1.39-9.6 1.39-9.6 1.39-9.6 8.21 1.17 8.21 1.13 8.22 1.11 8.22 1.06 8.22 1 8.24 1 8.24 1 8.25.92 8.24.9 8.26.86 8.25.82 8.26.8 8.25.75 8.27.73 8.26.69 8.26.65-.26 3.41-.26 3.41-.26 3.41z"/><path id="US-NV" class="cls-1" d="M191.3 364.27l-2.13 10.51-2.36 11.55-.44.1-1.79 2.39-1.65 1-1.06-.26-.91-1-.79-1.72-1.44-1.19-2.12-.65-2-.16-1.8.34-1.22.78-1 1.8v.84l.62 2-.5 2.79-.32 2.28.33 1.35-.18 1.45-.85 2.2-.1 1.92.58 3.57-2.4 9.44v.17l-4.8-6.93-4.46-6.5-4.42-6.5-4.38-6.51-4.35-6.53-4.33-6.53-4.28-6.54-4.25-6.54-3.09-4.59-3-4.6-3.05-4.6-3-4.6-3-4.6-3-4.6-3-4.62-3-4.62-3.85-5.58-3.82-5.58-3.8-5.59-3.8-5.61-3.74-5.6-3.73-5.6-3.69-5.61-3.67-5.63 1.34-4.95 1.33-4.95 1.34-5 1.34-4.95 1.33-4.95 1.34-5 1.34-4.95 1.33-5 1.34-4.81 1.34-5 1.34-5 1.34-4.95 1.34-5 1.33-5 1.34-5 1.34-5 7.37 2 7.37 1.95 7.37 1.91 7.39 1.88 7.4 1.86 7.41 1.82 7.41 1.8 7.41 1.76 7.41 1.72 7.4 1.7 7.42 1.66 7.42 1.64 7.42 1.6 7.44 1.58 7.45 1.54 7.45 1.51-.85 4.2-.84 4.2-.85 4.19-.84 4.2-.84 4.2-.85 4.19-.84 4.2-.85 4.19-.84 4.2-.84 4.19-.85 4.2-.84 4.19-.84 4.19-.85 4.2-.84 4.19-.84 4.19-.85 4.2-.84 4.19-.84 4.19-.77 4.32-.84 4.2-.84 4.19-.85 4.19-.84 4.19-.84 4.19-.85 4.2-.84 4.19-.84 4.19-.84 4.19-.85 4.2-.84 4.19z"/><path id="US-NY" class="cls-1" d="M933.65 116.28zm106.19 72.53v7.17l-.06 2.39-.06 2.39-.06 2.39-.06 2.39-.06 2.39.69.52.48 2.56.48 2.56.48 2.56.48 2.56.48 2.56.48 2.56.48 2.56.48 2.56.86.87.86.87-.63.66-1 1-1 1.11-1.37 1.44 1.16 1.12 1.45 1.42-.65.9-1.59 2.87-1.15 1.61-1.1.7-.48 1.22-.64.87.21-2.51.36-2.17-.25-4-1-3-1.18-1-1.11-.62 1.8 2.77 1.08 3.67v.11l-2.23-.73-2.29-.73-2.29-.73-2.29-.73-2.29-.74-2.28-.74-2.28-.74-2.28-.74-.66-.9-.91-.6-3.9-.49-1.13-.68-1.11-1-.92-1.34-.66-1.49-.31-1.24-.06-1.44-1-.73-.22-.86-.66-.46-2.57-.49-1-1.29-1.86-1-2.75.63-2.75.63-2.75.62-2.75.62-2.75.62-2.76.62-2.76.6-2.76.6-2.76.59-2.76.59-2.76.59-2.76.59-2.76.58-2.76.58-2.91.59-2.76.57-2.76.57-2.76.55-2.77.55-2.76.55-2.77.54-2.77.54-2.77.54-2.77.53-2.77.53-2.77.53-2.77.52-2.8.48-2.77.52-2.77.5-2.77.5-2.77.5-.65-3.63-.65-3.63v-.15l1.06-.87 3.39-3.15 1.59-2.13 1.75-1.85 1.9-1.58 1.39-1.82.9-2.08 1.11-1.63 1.33-1.18.62-1.1-.07-1-.53-1.29-1-1.56-.34-1.32.28-1.05v-.68l-.33-.28-3.3-.37-.74-4.67-.06-.12.15-.09 6.77-3.42 4.42-1.59 5.52-1.28 6.82-.32 2.76.39 1.87.85 1.95-.07 2-1 2.91-.8 3.8-.6 2.07-.15.33.31.23-.16.14-.64.87-.86 2.61-1.58.42.12.47-.62.52-1.35 1.16-1.63 1.77-1.88 1.72-1.16 1.67-.43 1-.6.43-.78v-.62l-.33-.44v-.87l-.14-.21-.31-.42-.68-2.31-.57-1-.63-.71-.7-.39V173l.86-.9.06.65.31.14.41-.39.76-1.65v-.55l.62-.71.36-1h-.63l-1.37.57-.38-.18.49-1.29-.28-.62-.3-.22h-.49l-1.39 1.35-.47.2-.18-.5-1.08-1 1.76-2.56 6.54-7.5.59-1.06.11-.85-.36-.64-.26-.12.07-.2 5.8-9.1 3.45-4.4 3-2.71 2.44-1.53 1.82-.3 1-.37.87-.21 4.42-1.07 7.89-1.95 7.89-2 4.65-1.18.59 1.74.14 2.19.91 2.19.76 4.86 2.13 3.37.34 2.52.74 2.62v.7l-.55 1.76-.17 1.64.06 1.59.27 1 1.91 4.12.64 1.87.27 1.12.18 3.76.21 1 .28.23.26-.06.53-1.32.32-.26.54.16 1.58 1.39.71 3 .52 2.2.58 2.45.86 3.68.63 2.7.58 2.45.44 1.88.09 1.44zm-65.3-27.46l-.55.36-.22-.28v-.32l.42-.48.84-.18v.32zm-1.19 8.35l-.27.15-.1-.58.21-.44.53-.28v.3zm-46.91 36.76l-.43 1h-.6l-.49-.22-.26-.55v-.75l.46-.42h1.47l.1.28zm140.33 25.36l-1 2.09 1.34-.17 1-.8.78-1.29 2.07-2 1.92-1.16.62-.3 1.24.7 1.75-1.31 1.9-1-7.55 6.75-1.66 1-2.22 2-2.18 1.56-1.66.8-7.86 5.53-.68.25-.82-.12-6.76 3.51-2.91.94-2.55 1.26 1.65-1.86-.09-.52-.58-.28-1 .38-.74 1.67-1.63.9-.73-1.44.3-1.33.5-1.32 1.28-2.19 2.19-1.72 1-1.28 1.08.63-.1-1.19.49-.82.64-.54 1.74-.44.89-.42.58-.55.68-.25h2l1.82-.63 1.32-1.1 1.49-.64 4.08-1.23 4-1.59 1.39-1.37 2.73-3.52 1.77-1.26L1068 230zM1036 252.74l-.94.34.34-2.78 1.49-1.6.7.09.25.89-.06.84-.9 1.48z"/><path id="US-OH" class="cls-1" d="M906 276.34l-2.23 1.59-.26 1.17 1 1.26.7 1.72.42 2.19-.55 5-1.54 7.93-.64 4.92.28 1.93-1.44 2.82-3.15 3.73-2.28 2.29-1.38.89-1.26.15-1.11-.59-1 .69-1 2-1 1.11-1.06.22-.73 1.29-.41 2.36-.52 1.4-.62.46.14 1.13.87 1.85.06.7-.32.07-.31-.06-.66.54-.65 1.21-.3.07-.25-.15-.46-1.38-.82-.9-1.17-.42-1.31 1.54-1.43 3.48-.53 2.2.55 1.39.48 2.07-.34.94-1 .48-.64 1.26-.28 2-1.28 1.47-2.28.86-2.59-.53h-.18l-3.27-2-2.18-2.08-1.1-2.12-2.55.26-4 2.65-3.21.78-2.4-1.11-1.74-.32-1.59.69-1.48 1.13-1.39-.36-1.85-1.47-2.71-.82-3.58-.18-2.66-1.5-1.72-2.79-1.7-1.86-1.66-.91-1.71-.11-1.75.69-1.43-.06-1.1-.81-1.24.27-1.06 1-1.08-9-1-8.84-1-8.85-1-8.85-1-8.84-1-8.85-1-8.85-1-8.86 6.75-1.11 6.75-1.13 6.75-1.16 6.73-1.19.18-.18v.09l.34.44h1.88l1.33.38 1.1.71 3.77 1.16 1.23.87 1.16.41h1.08l.68-.43.28-.81.5-.12.7.57 2.09.42.1.21-5.34 2-1.07.74 1.44.2 1.38-.3 1.33-.8 1.61-.2 1.47.06.41-.3.17-.15 2.65 1.27.94.1.91-.32.87-.76 2-1.12 3.13-1.48 3.1-.89 3.05-.28 1.87-.58 1.59-1.29 3.32-4 4-3.4 6.71-4.53 6.6-3.79.38 2.27.49 2.83.49 2.83.48 2.83.49 2.82.48 2.83.49 2.83.48 2.83.32 2.9.48 2.83.49 2.83.48 2.82z"/><path id="US-OK" class="cls-2" d="M615.25 417l.55 3.8.55 3.8.55 3.8.57 3.8.53 3.8.57 3.8.57 3.8.57 3.8v47.71l-5.2-1.32-1.31-.86-2.39-1-2.15-2-4.24-2.51-1.6-.6-.5.07-.86 1.27-2.23 1h-1.22l-2.22-.36-.42-.32-.32-.76-.89-.52-.65.41-3.2 1.07-.48.75h-1.81L586 489l-4.53 1.67L580 492l-1.63.46-.85 1.27-.49-.18-1.7-1.58-1.75-.48-2.38-1.58-.07-1.38-.26-.17-.43-.16-.53.12-1 1.17-.6.3h-.6l-2.3-.81-1-1.42-.48-.44-.53-.09-1 .41-.58 1.55-.44.41-1 .26v.78l-.89 2.13-.47.42-.6-.09-.62-.53-.46-.76-.18-.65.37-1.7-.2-.57-.46-.18-1.15.79h-1l-1.28.78-.8.23-.73-.21-1.16-1.32-2-.86-.76-1.54-.36-.44-.43-.12h-.44l-.74.48-2.4 2-1.08.62-.94.11-.87-.22-.55-.52-.07-2-.5-.63-2.15-1.32-.43-1.22-.17-1.67-2.63.2-3.24-.25-1.5 1.43-.76.26-.91-.32-2.56-2.07-2.78.32-1.56-.27-3.83-1.6-3-.23-1.26-.31-.65-.36-.22-2.28-1.13-2-.38-.54-2-1.42-.33-.06-.23.3-.52 1.49h-.62l-2.35-.52-2.19.36-1.18-.79L497 469l-1.63-1-1.32-.34.14-3.27.15-3.29.14-3.27.14-3.27.15-3.27.14-3.27.14-3.27.15-3.27.14-3.27.14-3.27.15-3.27.14-3.27.15-3.27.14-3.26.14-3.27.15-3.27-4.14-.18-4.14-.2-4.14-.21-4.14-.21-4.14-.22-4.14-.23-4.14-.23-4.14-.25-4.12-.26-4.14-.26-4.14-.27-4.12-.28-4.14-.3-4.12-.3-4.14-.31-4.12-.31.26-3.41.26-3.41.26-3.41.26-3.41 5.42.41 5.4.41 5.4.37 5.42.37 5.06.33 5.06.32 5.06.3 5.07.3 5.06.27 5.07.27 5.06.25 5.07.25 5.06.22 5.07.21 5.07.21 5.06.18 5.07.17 5.07.16 5.07.15 5.07.14 5.08.04 5.07.11 5.06.1 5.07.09 5.07.06 5.07.06h45.64l5.07-.07v10.25z"/><path id="US-OR" class="cls-2" d="M70.15 74.84l2-.1 1.28.94 1.48 1.75.71 4.17v6.56l-.23 2.13 1 1.65 1.64.55 6.38 2.88 1 .22 1.27.12 4.44-1.19 4.3.43 4.79 1.56L103 98l.76 1.45 2.55.86 6.51.38 7 .94h3.92l4.68-.9 10.08-.06 4.76.94 2.63-.36.69-.36.32.07 4.95 1.27 4.95 1.26 4.95 1.23 5 1.22 5 1.21 5 1.19 5 1.18 4.63 1.1.25 1.29 1.42 2.76 2.33 2.62 1.32 2.5.33 2.36-2.5 4.64-5.36 6.89-3.17 4.53-.8 2.06-2.63 3.23-4.46 4.37-2.49 3.42-.5 2.5.76 1.69 2 .9 1.27 1.16.49 1.4-.23 1.13-1 .86-.47 1 .06 1.19-.73 1.9-2.15 3.76v.14l-1.53 6.56-1.4 6-1.39 6-1.4 6-1.39 6-1.39 6-1.39 6-1.4 6-7.41-1.76-7.41-1.8-7.41-1.82-7.4-1.86-7.39-1.88-7.37-1.91-7.37-1.95-7.37-2-5.2-1.42-5.2-1.43-5.21-1.65-5.2-1.47-5.18-1.53-5.18-1.49-5.17-1.51-5.17-1.51L53 189l-5.16-1.55-5.16-1.56-5.16-1.58-5.15-1.6-5.15-1.61-5.13-1.63-5.32-1.7-1.44-4 .47-5.07.44-2.07 2-5.21v-2.49l-.64-4.32 1.85-3 1.48-1.7 4.85-7.91.73-.54.85.3 2-1-.58-.55-1.27.36 2-3.1 2-2.59 1-.84 3.4-9.42 2.92-7.09 1.74-2.09.46-2.59 1.47-3.24.8-3.48 7.26-15.7.36-2.06 1.47-2.45L54 78.76 56.73 71l-.2-1.16.09-1.16h.53l.58 1.44 4.36 1.37 3.11-.18.9.66.73 1.8 1.39.75z"/><path id="US-PA" class="cls-1" d="M1020.34 233l-1.37 1.23-.55.8-.37 1-.71 3.36-1.75 3.32-1.53 1.83.17.73 1.51 2.11.16.75-.39 1.61-1.11 1v.9l.21 1.48.64 2.49.5.42 1.69.55 2.06 3 1.27.11 6.51 5.53-3.09 2.84-1.95 2.2-.82 1.15-1.48 2.84-2.86 1.5-1.43 1.27-.32.52-2-.32-2.54.69-.79.53-.52.8-1.07 2.5-4.76 1.07-4.76 1.06-4.75 1-4.78 1-4.76 1-4.76 1L975 289l-4.78 1-4.79 1-4.78 1-4.79.95-4.78.94-4.79.92-4.79.91-4.8.9-4.79.89-2.71.5-2.71.49-2.71.48-2.71.49-2.71.48-2.71.48-2.72.47-2.71.47-.54-3.11-.54-3.13-.53-3.11-.54-3.11-.54-3.11-.53-3.13-.54-3.11-.52-3.1-.52-2.86-.48-2.82-.49-2.83L904 265l-.49-2.83-.48-2.83-.49-2.83-.48-2.83-.49-2.82-.47-2.86-.49-2.83-.49-2.83-.38-2.27 3.5-2 1.5-1.22 1.53-1.21.73-.64.9-.65 5.65-4.62v.15l.65 3.63.65 3.63 2.77-.5 2.78-.5 2.77-.5 2.77-.52 2.77-.52 2.77-.52 2.77-.53 2.77-.53 2.77-.54 2.76-.54 2.77-.54 2.77-.54 2.76-.55 2.76-.55 2.77-.55 2.76-.57L962 228l2.77-.58 2.76-.58 2.76-.58 2.76-.58 2.76-.59 2.75-.59 2.76-.6 2.76-.6 2.75-.6 2.76-.6 2.75-.62 2.76-.63 2.75-.62 2.75-.63 2.75-.63 1.87 1 1 1.29 2.57.49.66.46.21.85 1 .73.06 1.45.31 1.23.66 1.49.92 1.34 1.11 1 1.13.68 3.9.49.91.6z"/><path id="US-RI" class="cls-1" d="M1087 205.88l-.55.87-1.07-.8-.7-1-.74-.48-.68-.07 1.21 2.3-.74 2.18 1 4.84-1 2.41-4.56 2.61-1.49.27-.16-1.58.33-.78-.34-1.67-.22-1.1-.52-1.82-.58-2.08-.63-2.25-.55-2-.41-1.44-.55-2-.39-1.42 1.48-.43 2-.59 1.95-.57 1.21-.36 1.48-.43.39 1.17.6 1.81.9.06.38 1.5.25 1 .89.42.9.43zm1.44 5.7l-.78 1-1.13.18.28-1.13-.18-1.49.1-1.72.17-.57.52-.6zm-2.41.86l-.42.64-.55-1.22v-1.58l.38-.14.41.73z"/><path id="US-SC" class="cls-2" d="M981.43 451l-.28.16-5.15 5.13-1.44 2.11-3.63 7.74-.44 4.6-1.35-1.65v-1.42l-.18-1.13-.79 2.65 1.83 3.3-.81 1.54-2.81 3.11-1.72.74-1.92 1.12-.18 2.6-2.33 2.78-1.4 1.31-3-.1 1.29 2-.78 1.86-1.63 1.61-2.17 1.24-1.34.12-1.06.65-.7 1.21-2 1.38-2.35-.17-2.61.11-1.32.84 2.56.57 1.53 1.21.06 2-.5.86-1.34 1.26h-.7l-.55-.84-.81-1.81-.64.52v.9l-.54.42-2.66-2.65.49 2.28 1 1.64.89.78.81.41.33.79L940 507l-.68.58-1.29.54-.55 1.37.41 1-5-1.4-1.71-1.72-.37-2.52-1.37-2.72-3.52-4.36-2.22-1-1.83-3.05-2.19-5.43-2.6-3.29-3-1.13-2.14-1.56-1.27-2-1.29-1.31-1.12-.48-.73-1-.32-1.54-1.9-1.81-5.2-3.11-1.45-2.15-2.51-2.07-6.11-4.08-6.56-8.7-.94-1.82-1.22-.63h-1.82l-1.86-.69-2.88-2-4.65-2.35.49-2.77 2.79-3.92.82-2h.15l.41-.07 3.4-1.66 3.39-1.66h.76l1.88-1.49 4-2 1.45-1.13.85.14 3.56-.38 3.55-.39 3.55-.39 3.56-.39 3.55-.41 3.55-.42 3.56-.42 3.55-.42.73.16.28.36.09 1.16.23.6 2.27-1.71 1.4 1.32 2.41 2.24.33 1.49.48 2.11 3.16-.43 3.16-.43 3.16-.44 3.18-.44 3.16-.44 3.16-.46 3.16-.46 3.16-.46 3.57 2.52 3.57 2.52 3.59 2.52 3.6 2.51 3.6 2.5 3.61 2.5 3.62 2.5z"/><path id="US-SD" class="cls-1" d="M574 158.28l-.68 2.73-.47 1.19-.94 1.22-2.91 2.64-.73.91.1.82.58 1.07 1.48 2.47.8 1 3.23 1.67 1.47 2.06v49.41l-2.91.09.34 1.72.78 1.69.14 1-.16.8-.55.7.12 1.12.16.3 1.31.73.44 1 .12 1.11v.85l-.8 1.53-.25 2-1 3-1.1 1.83-.22.95.1.75 1.67 2 .09.78.55 1 .5 2.27-1.56-.38-1.51-1.22-.85-1.9-2.6-1.77-4.33-1.65-2.91-1.49-1.49-1.32-3.57-.62-5.69.07-3.71.62-2.04 1.15-3.57-1.35-5.91-4.24-8-.25-7-.22-7-.26-7-.28-7-.32-7-.33-7-.36-7-.39-7-.42-7-.44-7-.47-7-.5-7-.52-6.94-.55-6.94-.57-7-.6.59-6.85.58-6.83.59-6.85.58-6.85.59-6.85.59-6.85.59-6.86.58-6.86h.62V177l.53-6.38.53-6.39.54-6.38.53-6.39 4.47.38 4.47.38 4.47.37 4.47.36 4.48.34 4.47.32 5.09.39 4.48.31 4.47.3 4.48.28 4.47.27 4.48.27 4.48.25 4.47.25 4.48.22 4.48.22 4.48.21 4.48.2 4.48.17 4.48.17 4.48.16 4.48.15 4.48.14 4.48.14 4.49.11 4.48.1 4.48.1 4.48.07 4.49.07h8.96z"/><path id="US-TN" class="cls-2" d="M856.06 395.94l5-.66 10.61-1.44 7.52-1.07 6.17-.89 3.64-.54 4.58-.68.94-.73 2.3-.26 3.11-.37-.66 2.23.15 1.42-.23 2.15.2 1.37-1.61.32-.87.5-1.12 1.1-2.36 5.45-1 .6-2-1-2.39.91-1.47 1.18-2.06 2.78-.82.92-.66.38h-.53l-.32-.36-.38-1.18-.36-.38-.74.12-1.15.64-1.1 1-1.06 1.61-1.66.12-.27.38-.16 1.69-.48 1.31-.76 1-2.77 1.12-3.27 3-4.65 3.36-4.59 1.31-1.91.8-1.23.86-2.64 3.24-.85 3.66-1.38.86-2.31.32-.6.38-.41 1.4-.09 5.9-7.28.84-7.29.81-7.28.79-7.29.76-3.6.36-3.61.37-3.6.36-3.61.34-3.6.34-3.61.33-3.61.33-3.6.32-3.61.32-3.61.31-3.61.31-3.6.3-3.61.3-3.61.28-3.61.28-3.61.27h-.28l.31.32.42.32-6.09.5-6 .48-6 .47-6 .44-6 .43-6 .42-6 .39-5.74.36v-.09l.79-1.21 2.44-2 .95-2.51-.53-3 .75-2.79 2.06-2.59.74-2.47-.53-2.36 1-2 2.45-1.67.32-.64-.14-.46-.07-.52v-.22l.09-.47.54-.31.75-.27.31-.41v-.62l-.53-1.06.06-.5.11-.8 1.1-2.12v-1.74l-1-1.38.41-.78.55-.25.74-.16.22-.37v-.42l-.69-.9.11-.82 1-.65.22-1.49-.5-2 1.54-.16v.12l.32.23.42-.27v-.06l4.38-.32 3.8-.3 3.8-.28 3.8-.31 3.8-.31 3.8-.31 3.8-.32 3.45-.3h.06l-.22-2.44-1.12-2.72h5.06l.73.79 7.29-.81 7.3-.84 7.29-.87 7.29-.9 7.65-.54 7.63-.58 7.65-.6 7.63-.64 7.63-.66 7.65-.69 7.62-.73 7.63-.75.17-.09.16-.09.16-.07.17-.09.16-.09.16-.09.16-.09z"/><path id="US-TX" class="cls-1" d="M619.52 495.12l1.22 1.32 1 .37.28.53.47.14.58-.12.86-.63 1.29.15 1.07-.23 2.13.27 1.19.6.11 3.72.11 3.73.11 3.73.11 3.73.07 3.48.07 3.48.07 3.48.07 3.48.07 3.48.07 3.48.07 3.48.07 3.48 3.32 3.29 1.45 2.28.47 1.17.23 4 .34 1 1.67 1.48.06 1 1.79 2.87v1.37l1.71 3.07.95.79.21 2.11.54 1.59-.73 1.16.38 1.55-.42 1.48-.2 2-1 3.05-.92 1.5-1.24 2.86.17 2.35-.69 2.59-.06 1 .75 1.69.37 4.69-.37 1-1.54 2.79h-1.15l-2.41 4.62 1.5 2.52-.07.92-5 .64-11.44 5.3-4.44 2.84.22-.94 5.37-3.68-1.92-.52-3.07.95-1.11-.33 1.27-3-.46-2.62h-2.18l-1.37 2.11-1-.07-1.28-.89-1 .3.78 4.74 1.4 1.93 1.18 2.47-3.13 3.11-2.91 2.57-.3 2.46-2.93 3.23-2.77 1.83-6.53 4.3-1.87.92-3 2-4.09 1.49-3.93 2.35-1.33.36 2.51-2 3-2-2.55.27-3.93-.92-2.4-.06v.71l-1.83 1-1.88-1.5-.81-1-.38-.87-.8-.21-.78.39 2.78 6.13 1.21.27 1.33.62-1.67 1.42-1.8 1.07-2.82.7-2.36-2.25-.54 2.79-.33 2.79-.81.71-1.29 1-.69-.78-.32-1.08-.82 1-1.21.71-2 .12-1.49.37v1.16l.33 1.17 2.65-.89-1 3-2.46 2.93-2 .66-3-.48-.75.28-.68.6 3.46 4.69-2.38 7-1.5 2.51-1 .31h-1.1l-3.9-2.33-2.11-1.79 1.8 4.78 5.13 1.48.23 1.8v1.54l-1 1.79-1 2.38.68 1.67.75 4.14.66 1.91.68 5.76.79 2.51 4.62 9.26 1.6.1.25 1-.17 1.91-3.44.5-1.45.82-.3.74-.22.39h-.44l-1.63-.55-3.68-2.67-5.38-1.72-7.09-.78-4.83-1.43-2.55-2.06-2.71-1.4-2.82-.46-2.31-1.15-1.81-1.85-2.68-1.23-3.56-.62-2.28-1.42-1.5-3.27-1.26-5.52-1.69-3.48-3.36-4.37-.31-.57v-.7l.53-2.45-.31-1.79-1.06-1.49-.2-1.54.66-1.59.11-1.93-.43-2.28-2.14-2.52-3.82-2.77-3.19-4-2.54-5.13-2.56-3.6-2.6-2.06-1.72-2.45-.85-2.83-.21-1.63.42-.43-1.5-3.18-3.4-5.92-1.9-4.3-.41-2.67-2.17-3.27-3.92-3.88-2.11-2.5-.46-1.67-6.12-5.16-1.67-3.1-1.39-1h-1.66l-.84-.34v-.68l-.54-.06-1.07.55-3.4-.09-5.73-.74-4.09-1.1-2.46-1.44h-1.8l-1.13 1.54-2.25.89-3.37.22-3.09 2.78-2.82 5.34-1.27 3.51.17 1.6-.73 1.1-1.63.6-1.81 1.49-1.82 2.36-2 1.06-2.17-.26-3.85-2.25-5.53-4.25-4.37-2.72-3.24-1.17-2.77-2-2.3-2.82-2.18-1.93-2.06-1.06-2.22-3.09-2.39-5.13-1.06-3.89.38-4-2.86-9-1.56-3.84-1.28-1.86-2.63-2.33-4-2.81-5.09-5.34-6.29-7.89-4.51-4.84-2.75-1.79-2.24-2.86-1.72-3.93-1.81-2.57-.21-.14-2.66-1.72-1.8-5.24h.15l5.23.6 5.24.6 5.24.58 5.24.57 5.24.55 5.24.54 5.24.53 5.24.52 5.24.5 5.24.49 5.26.48 5.26.47 5.26.46 5.26.44 5.26.43 5.26.41.64-7.71.63-7.71.64-7.71.63-7.69.64-7.69.63-7.69.63-7.69.63-7.68.63-7.68.63-7.68.63-7.68.63-7.68.63-7.67.63-7.67.63-7.67.63-7.67h.92l4.12.32 4.12.31 4.12.3 4.14.28 4.14.28 4.14.27 4.14.26 4.14.26 4.14.25 4.14.23 4.14.23 4.14.22 4.14.21 4.1.3 4.14.2 4.14.18-.14 3.27-.14 3.27-.14 3.27-.14 3.27-.14 3.27-.14 3.27-.14 3.27-.15 3.27-.14 3.27-.14 3.27-.14 3.27-.14 3.27-.14 3.27-.14 3.27-.14 3.27-.14 3.27 1.32.34 1.63 1 4 3.67 1.18.8 2.19-.36 2.34.52h.63l.52-1.48.23-.3.33.06 2 1.42.38.54 1.13 2 .22 2.28.65.36 1.24.31 3 .23 3.83 1.6 1.56.27 2.78-.32 2.56 2.06.91.32.76-.26 1.51-1.43 3.24.25 2.63-.2.17 1.67.43 1.21 2.15 1.33.5.63.06 2 .55.53.89.22.92-.11 1.1-.62 2.4-2 .73-.48h.44l.43.11.36.44.76 1.54 2 .86L552 490l.73.21.8-.23 1.28-.78h1l1.15-.79.46.18.18.57-.36 1.7.18.65.46.76.62.53.6.09.47-.42.89-2.13v-.78l1-.26.44-.41.58-1.54 1-.42.53.09.48.44 1 1.42 2.31.81h.6l.6-.3 1-1.16.54-.14.43.16.25.17.07 1.38 2.38 1.58 1.75.48 1.7 1.59.49.18.84-1.28 1.64-.44 1.56-1.31 4.53-1.67 1.8.53h1.81l.47-.74 3.21-1.07.65-.41.89.52.32.76.42.32 2.2.37h1.22l2.23-1 .86-1.27.5-.07 1.6.6 4.24 2.51 2.15 2 2.39 1 1.31.87zm-11.45 124.32l-1.22.28 5.26-4.32 1.1-1.43h1.42l-2.33 2.41zm-42.19 27.62l-.91.11 1.13-1.49 1.82-.74 4-2.86 1.63-.18.85-1 .37-.15-.25 1.22-3.21 1.71zm-6.23 6.94l-.54.06 1.22-2.27.23-.91 2-2.86 1-.42.42 1.23-2 2zM551 670.59l-.8 1.59.25-2.39 2.09-5.39 4.19-7.07 1.74-1.17-4.81 7.76zm4.14 31.91l-.37 1.29-2-6.09-3.17-13.7v-7.81l.57-2.67.7 11 3.55 14.06z"/><path id="US-UT" class="cls-2" d="M278.4 241.26l-.55 3.37-.57 3.37-.57 3.39-.57 3.37-.55 3.37-.57 3.39-.57 3.37-.57 3.37 5.12.85 5.13.84 5.13.82 5.13.81 5.13.79 5.13.78 5.13.76 5.15.75-1 6.78-1 6.77L312 295l-1 6.77-1 6.77-1 6.77-1 6.77-1 6.77-1 6.76-1 6.77-1 6.77-1 6.77-1 6.77-1 6.77-1 6.77-1 6.77-6.78-1-6.77-1-6.45-1-6.77-1.07-6.76-1.08-6.76-1.12-6.76-1.13-6.76-1.16-6.75-1.18-6.76-1.26-6.75-1.23-6.73-1.26-6.73-1.28-6.72-1.29-6.75-1.31-6.72-1.35.85-4.19.84-4.19.85-4.2.84-4.19.84-4.19.84-4.19.85-4.2.84-4.19.84-4.19.85-4.19.84-4.19.84-4.2.85-4.19.84-4.19.84-4.19.85-4.2.84-4.19.84-4.19.85-4.2.84-4.19.84-4.19.85-4.2.84-4.19.84-4.2.85-4.19.84-4.2.85-4.19.84-4.2.84-4.2.85-4.19.84-4.2.85-4.2 3.74.75 3.76.75 3.76.73 3.76.73 3.76.73 3.76.71 3.76.7 3.76.69 3.77.69 3.76.69 3.77.66 3.77.68 3.77.65 3.77.65 3.77.64z"/><path id="US-VA" class="cls-2" d="M970.33 300.46l1.4.74 3 .6 1.4 1-.25 1.33.11.89.7.69 4.09.81 2.79 1.77 1.56.38.47.11 1.13.33.62.6.32 3.1-.65 1.71-1.23 1.48-1.58 2.47-.1 2 .11 3.68 1.11 1 .94.14 2.4-1.34 1.4.07 3.87 3.64 5.89.5 2.24.62 2.13 1.87 2.76.74 2.33 1.44.32 1.21-.34 1.59.16 2-.55 1.4-1.93.57-1.26-.06-7.86-5.47-.9-.47-3.13-3.08-3.16-1.33-.85.22 4.69 2.72 2.14 2.14 3.58 2.87 2.35 1 2 2 1.63.78 4.14.7-1.08 1.39 2.31.47.68 1.66.25 2-3.1-.14.22 1.47.44.8-1.15 1-2-.57-5.81-4.24.18.69.55.73 3.45 2.79 2.87 1.5 2.25.47 2 1.34.79.9.71 1.48-.95 1.32-1.22.87-1.54-.76-1.21-.9-2.45-1.44-1.07-2-1.53.44-7.07-1.29-5.28.79.62.43.74.22 4.3-.22 1.91.89 3.66.36 2.07-.14 1.54 3.18 3.28 1.71.73 1.64 1.93-.22 3-2.41 2.28.11 3.21-.21 1 1.19 1.11 2.45 1.75 2.65 1.35 2.68-.68.16-1.67.36-5.37 1.16-7.82 1.64-7.83 1.6-7.83 1.58-7.84 1.54-7.84 1.51-7.86 1.48-7.86 1.45-7.87 1.42-7.94 1.4-7.88 1.35-7.88 1.32L924 386l-7.89 1.26-7.89 1.23-7.89 1.19-.44-.36-3.11.37-2.3.27-.94.71-4.58.69-3.66.54-6.17.9-7.52 1.06-10.61 1.43-5 .65 2-1.59 3.15-1.22 5.5-3 2-2.59 3-2.12 1.07-2.17 1.9-2.18.49-2.23.25-.37 3.29-2.45 3.39-2.94 7.14-7.82.3.84-.15 1 .86 1 .84 1.64 1 .94 1.13.68 1.79.49 2.19 1 1.61.12.52-.12 1.51-1.55 1.32-.91 1.27-1.63 3 1.47 1.06-.17 2.47-1.26 2.41-.63.57-.36.78-.94-.25-1.59.14-.44.37-.26.48-.12 1.19.39 1.08-.17 4.26-2.61.37.07.73.74 1.82-1.43 1-1.21.26-1.6.73-1.65-.32-.63-.79-.74.49-2.14.89-2.19 3.56-6.8.82-3.89 1.51-2.7.3-2 1.12-2.09.31-4 .48-.87.86-.28 1 .31.78.58.63 1.06 2.49.57 2-.23 1.22-1 .54-1.48.59-2.68.74-1.66.31-2 .43-1.42.89-1 2.6-.44 1.11-1.39.78-1.49.54-.54.74-.07 1.93-2.52 2.22-4.94.12-2.87.41-2.12-.09-2.08.38-1.22 3.13 1.65 1.81 1 4.11 2.15 2.73 1.43.48-2.38zm59.47 23.69l.54-.21-1.32 4.58-.86.65zm-8.08 4.2l.55-1.39 3.08-1.15 1.91-.73-2.26 11.58.64 1.88-.8.84-1.32.84-1.18 1.49-.68 1.49-.12 3.63-.85 4.25-1.43-1.37-.58-1.32-.33-3.71.53-6.3 1.21-4.12 1.16-2.08z"/><path id="US-VT" class="cls-1" d="M1055.38 185.39l-1.93.43-1.95.43-1.95.44-1.95.42-1.95.43-1.93.43-1.95.42-1.95.42-.94-1.49-.09-1.44-.44-1.87-.58-2.46-.63-2.7-.86-3.67-.57-2.46-.52-2.2-.71-3-1.56-1.39-.54-.16-.32.26-.54 1.32-.26.06-.28-.23-.21-1-.18-3.76-.27-1.12-.64-1.87-1.91-4.12-.27-1-.06-1.59.17-1.64.55-1.76v-.7l-.75-2.62-.33-2.51-2.13-3.37-.76-4.86-.9-2.19-.14-2.19-.59-1.74 3.21-.84 7.87-2 7.87-2.09 7.84-2.12 7.84-2.15-.16.6 1 2-1.08 4.19.36 1.16 1.82 2.93.15.78-.2.46v1.47l-.31 1-.63 1.07-2.15 2.76-.66.73-2.38 1.37-.36.92.73 5-.1 3 .17 1.32-.55 2.46-.26 2.72-.9 2.4-.14 2.67-.22 1.07v1.64l1 5.34.15 3 .63 5.12-.12 1.35-.27.79v2.28l.15.81.44.64 1.54 1.4z"/><path id="US-WA" class="cls-2" d="M186.29 110.66l-4.64-1.1-5-1.18-5-1.19-5-1.21-5-1.22-4.95-1.23-4.95-1.26-4.81-1.27-.32-.07-.69.36-2.62.36-4.76-.94-10.1.06-4.68.9h-3.92l-7-.94-6.51-.37-2.55-.86L103 98l-2.77-1.5-4.8-1.5-4.3-.43-4.44 1.19-1.27-.12-1-.22L78 92.51 76.42 92l-1-1.65.23-2.12v-6.57l-.71-4.16-1.48-1.76-1.29-.94-2 .1-.46-.53-.86-.37-1.53-2-.69-1.66-3.42-1-.43-1.07-4.05-.27-.89-1.24-2.24-.1 1.29-2.3.9-3.13 1.07-3-.2 2.36.54 2.75 1.45-2.46 1.48-3.2L61.3 56l-1.76-1.6.26-3.34L65.51 50l-2.4-1.38-.64-1.51-1.21-.54-.38.89-.79 1.07.07-1.74.48-1.92.52-3.37-.32-5.81 1-7.09-.42-3.79-1.83-4.1-.15-2.09.85-4.9 1.54-3.42.28-2.67 1.32.59 3 3.13 4 3 1 1.56 1.91 1.53 11.67 5.08.82.12 1.81-.32.64.31L89.41 25l.82.49 1.18.26 1-.09 1.85-.81v.53l-.38 1.16v1.82l.42 2.49v1.47L91 35.39h-.44l.31-1.39-.21-.33-6.06 5.15-2.38 2.59-.57 1.33-.2.81.55.45 1.42.1 2.34-.66.17-.25L84 43l-.89-.23.55-1.39.42-.62L85.87 39l1.64-.89 2.18-.81 1.35-.8 1.19-1.42 2.55-1.35.53-.43.39-1.64.22-.27.87.5-.44 2.88-.59 1.23-2.14 1-.37.47-.32 2.14-.32.12-.61-.49-.23.07.96 2.69v1.9l-.39 1.56L91 48.3l-.62.34-.75-.42-.79-1.22-.33.22-1.54 2-.22-.22.3-2.89-.22-.3-2 .74-1 1-1.15 1.74-1 .66 2 .82 2 .17 1.21 1.35.49.18 1.54-.47.59-.48 2-2.54.71-.34.84.23.94-.18 1.66-1.22.23-.62.62-3.67.73-2v-.7l-.33-.81.19-.67.73-.94.31-.95-.1-1 .44-.91 1.74-1.74.48-.85 2-1.66-.1-.94-.7-1.32-.37-1.08-.22-1.59-.34-.62-.22.17v2.49l-.2.11-1.4-1.76-.17-.9.1-1.12.39-.74 1.18-.49h1.22l.1-.69-.78-2.56-.65-1.26-.58-.69-.96-.27-.25-.52v-.54l.41-.6h.58l1.43.71.95-.22.18-.87-.1-.54.95-3 .17-2.65-.17-.5-.31-.14-.43.23-1-.2-.33-1L101 6V1.91l1.8.54 7.49 2.24 7.5 2.22 7.51 2.17 7.51 2.14 7.52 2.11 7.53 2.07 7.55 2 7.56 2 7.56 2 7.47 1.93 7.58 1.9 7.57 1.86 7.6 1.82 1.86.44-1 4.33-1 4.35-1 4.35-1 4.33-1 4.33-1 4.33-1 4.33-1 4.33-1 4.33-1 4.33-1 4.32-1 4.32-1 4.32-1 4.32-1 4.32-1 4.31-.2.22-.27.59.11 1.92.64 2.92v1.93l-.73.95-.1 1.92zM95.72.35l.65.2-.37.33-.21-.14zm2.75 10.16l.06.65-.87.34-.53-.06-.53-1.14-.32-.21-.15 1.48-.25.44-1.38-1.35-.1-.78.68-.58 1.26-.42h.38zM93 13.85l.2 1-1.74-1.15-.65-.7-.09-.57.21-1.69.3-.48.9.07 1 2.47zm2.83 2.88l-.36.17-.84-.64-.38-.76v-.8l.79-1.31.58-.22.27.17-.26 1.28.43 1.58zM98 25.36l-.17 3.76.81-1.34 1.7 3.22-.34 1.26-.42.33H99l-.36-.5-.17-1-.41-.63-1.06-.64-.31-1.17v-.74l.53-2-.11-.69-.58-.32-.46-.64-.49-1.64v-.41l.76-1 1.55-1.56 1-.66.42.23.38.73.34 1.22-.34.69-3.08.6-.18.31 1.17.79.37.49zM94.89 40.7l-.25.48-.81-.91-.16-.66.42-1.24.49-.75.23-.11.48.53.1.26zm.27 5.85l-.26.58-.84.26-.32-.22.18-.71-.16-.16-1 .63.57-1.67.9-1.67.33.06.14 1.31zm-9.8 2.56l-.33.47-.25-.1-.25-1.23.16-.76.65-.39.17 1.75z"/><path id="US-WI" class="cls-1" d="M690.12 125.15l-.59.47-.25-.2.1-.86.28-.52.47-.17.25.18v.55zm-5.16 3l-.27.21-.75-.42-.12-.38.17-.39.33.07.5.54zm6.25 8.89l-.09.22.44 1 1-.32.47.58.59.22 1.12.42.6 1.12.6 1.12.6 1.12.6 1.12 2.43.5 2.43.5 2.43.5 2.44.49 2.44.49 2.44.49 2.44.49 2.44.48 1.4.68 1.4.68 1.4.66 1.42.66h2.12l1.91.32 2.62-.2 2.7.36 4 1 1 1 .21.73-.22 1.75 3.85 1.21 1.7 1 .68.82v.8l.53 1.64-.31.94.14 1.58-.7 1.74-.21.92v.75l.22.47.47.15 1.4-.22 1.35-.63.65.26.15.25-.06.47-.87 2.92.15 1.13.58 1.06.89 1 1 .28v.71l-.25 1.42-1 1.19-2.75 1.64-.37 1v.78l-1.56 3.36-.73 2-.42 2.09.3 1.27 1 .44.78-.27.52-1 .85-.92 1.18-.86.81-1.19 1-2.81 1.27-1.67.74-.16h.21l1.4-.84 1.21.12.81 1 .8.65.22.66L754 184l-.52 1.66-.82 1.77L752 190l-.49 3.44.06 2.56.63 1.67-.3 1.58-1.23 1.48-.92 1.91-.62 2.33-.3 1.93v1.55l.22 1.15.65 1.5v.79l-1.17 3.55-.38 1.71v1.32l-.25 1.32-.9 2.73-.1 1.48v1.34l.46 2.18-.07.75.11.55.32.36.06.69-.2 1 .18.78.57.52.43 1 .3 1.55.5 1.28.73 1 .25 1.51-.22 2 .14 3.77.11 1.26-2.59.21-9.11.71-9.11.68-9.12.63-9.12.58-9.12.54-9.31.49-.15-.2-.76-2.43-2.14-1.7-3.52-1-2.31-1.75-1.11-2.5-.78-2.83-.43-3.16.14-2.68.7-2.19-.28-1.44-1.27-.7-.86-.95-.46-1.22-.23-1.7-1.06-7.93-1-3.77-1.32-1.43-2.71-1.61-4.09-1.8-2.55-1.75-1.53-2.54-3-2.93-1.9-1.17-1.82-.39-1.48-.92-1.12-1.45-1.5-.89-1.9-.32-2.14-1.15-2.51-2.17-.06-.17-.58-1.58.26-.91.31-3.09-.07-1-.64-2.78.63-1.11-.26-3.46.2-1.15 1.22-2.88v-1.45l-.53-1.65-1-1.33-2.66-1.33-.14-1.76.38-1.33 1.61-2.52.86-2.22.81-1 5.06-3.47 1.1-.27.76-1 .62-.43-.16-4-.16-4-.16-4-.16-4 1.28-.33.52-1 1.24-1.6h.34l.68.68 1.67 1 1.27.07 1.61-.28 6.3-2.07 2.63-1.37 2.54-2.2.27-.07 1.12.32.36.16 3.3-2.56 1.11-.37h.89l1.15.87.28.55-.31 1.12-.9 1.67-.41 1.39.09 1.1-.36 1.22-1 1.67.42.42 2.84-1.33.39-.48v-.27l-.2-.32.32-.16 2.38 1.45 1.58.79 1.31.34zm-3.21-8.81l-.62.2-1.38-.16v-.41l1.38-.64.62-.2.16.22zm-2.88 3.94l-1.06.44h-.46l.15-.53.53-.65 2.43-1.7h.44l.16.36-1.18.84-.43.43v.42zm76.88 33.5l-.55.33h-1.07l-.44-.58.39-1.63.26.27.92-.07.33.12.14.38zm-2.2 3.31l-.32.38-.63-.17-.18.54.26 1.26-.14.6h-.54v.23l.52.52.11.6-.31.7-.32.34h-.34l-.46.81-.57 1.64-.16.94.26.23-.11.54-1.56 2.56-.66.3-.79-.26-.6-.65-.42-1-.17-.81.07-.59 1.38-2.27.57-1.45.25-1.59.63-1.06 1-.53.76-1 .5-1.56.69-.73.87.11.43.53z"/><path id="US-WV" class="cls-1" d="M932 297.41l.58 3.46.58 3.45.58 3.46.58 3.46 2.3-2.5 1.26-1 3.73-5.27.59-.14 1.69.33 2.66-3.76.17-1.22.31-.44h.42l.31.26v.68l.31.26 1.48.5h2.26l1.65-.33.62-.75.14-1.29.6-.85 1.63-.64 2.75-1.85 1.77-.14 1.71 1 1.6.31 1.5-.36.64.18-.22.71.54.65 1.32.6.54.69-.23.8.23.5.68.21.52.71.38 1.19.3.16-.7 3.5-.48 2.36-2.73-1.43-4.12-2.17-1.8-.95-3.13-1.66-.38 1.22.09 2.08-.41 2.12-.12 2.87-2.22 4.94-1.93 2.52-.73.09-.54.54-.78 1.49-1.11 1.38-2.61.44-.87 1-.44 1.42-.3 2-.74 1.66-.6 2.68-.54 1.48-1.22 1-2 .25-2.49-.57-.63-1.06-.78-.58-1-.32-.86.3-.48.86-.3 4-1.12 2.09-.28 2-1.5 2.67-.81 3.89-3.56 6.8-.9 2.19-.49 2.14.79.74.33.63-.74 1.65-.25 1.6-1 1.21-1.81 1.43-.73-.74-.46-.2-4.25 2.62-1.08.16-1.21-.39-.47.12-.38.26-.14.44.25 1.59-.79.95-.57.36-2.41.63-2.47 1.26-1.06.17-3-1.47-1.27 1.63-1.32.91-1.51 1.55-.52.14-1.6-.12-2.19-1-1.79-.49-1.13-.68-1-.95-.84-1.63-.86-1 .16-1-.31-.84-3.1-.38-4.28-2.56-3-3.46-1-1.66-1.07-1.06-.41-1.19-2.76-2.79-.81-1.27-.17-.86.49-1.75v-.82l-.84-4-.6-.68 2.59.53 2.28-.86 1.28-1.47.28-2 .64-1.26 1-.48.34-.94-.48-2.07-.55-1.39.53-2.2 1.43-3.48 1.31-1.54 1.17.42.82.9.46 1.38.25.15.3-.07.65-1.21.66-.54.31.06.32-.07-.06-.7-.87-1.85-.14-1.13.62-.46.52-1.4.41-2.36.73-1.29 1.06-.22 1-1.11 1-2 1-.69 1.11.59 1.26-.15 1.38-.89 2.28-2.29 3.15-3.73 1.44-2.82-.28-1.93.64-4.92 1.54-7.93.55-5-.42-2.19-.7-1.72-1-1.26.26-1.17 2.23-1.59.52 3.1.54 3.11.53 3.13.54 3.11.54 3.11.53 3.11.54 3.13.54 3.11 2.71-.47 2.72-.47 2.71-.48 2.71-.48 2.71-.49 2.71-.48 2.71-.49z"/><path id="US-WY" class="cls-2" d="M423.18 232.1l-.58 6.83-.59 6.83-.59 6.83-.58 6.83-.59 6.82-.58 6.83-.59 6.82-.59 6.83-6.49-.59-6.48-.6-6.49-.64-6.49-.65-6.48-.66-6.48-.7-6.48-.73-6.48-.74-6.48-.76-6.46-.79-6.46-.81-6.46-.82-6.46-.86-6.45-.87-6.45-.9-6.45-.92-5.15-.75-5.13-.76-5.13-.78-5.13-.79-5.13-.81-5.13-.82-5.13-.84-5.12-.85.57-3.37.57-3.37.57-3.39.55-3.37.57-3.37.57-3.39.57-3.37.55-3.37.71-4.24.7-4.21.7-4.22.7-4.24.7-4.22.71-4.22.7-4.22.7-4.22.71-4.24.7-4.24.7-4.22.71-4.24.7-4.24.7-4.22.71-4.24.7-4.24.57-3.41.58-3.41.58-3.41.6-3.38 4.22.7 4.22.69 4.24.69 4.22.66 4.24.66 4.24.64 4.24.64 4.24.64 4.24.62 4.24.6 4.25.6 4.24.59 4.25.58 4.25.57 4.24.55 4.25.55 4.25.53 4.26.53 4.25.52 4.25.5 4.26.5 4.26.48 4.25.48 4.26.47 4.26.44 4.26.46 4.26.43 4.26.42 4.26.42 4.26.41 4.27.39 4.26.38-.58 6.86-.59 6.86-.59 6.85-.59 6.85-.58 6.85-.59 6.85-.58 6.83z"/></g></g></svg>