<svg xmlns="http://www.w3.org/2000/svg" xmlns:xlink="http://www.w3.org/1999/xlink" viewBox="0 0 1920 996.47"><defs><style>.cls-1{fill:none;}.cls-2{clip-path:url(#clip-path);}.cls-3{opacity:0.65;}.cls-4{opacity:0.5;}.cls-5{fill:#218fff;}.cls-6{fill:#ff3939;}.cls-7{fill:#036;}.cls-8{fill:url(#linear-gradient);}</style><clipPath id="clip-path"><rect class="cls-1" x="18" y="0.18" width="1902" height="450"/></clipPath><linearGradient id="linear-gradient" x1="960" y1="996.47" x2="960" y2="0.18" gradientUnits="userSpaceOnUse"><stop offset="0" stop-color="#fff"/><stop offset="0.03" stop-color="#fff"/><stop offset="0.5" stop-color="#fff"/><stop offset="0.54" stop-color="#fff" stop-opacity="0.97"/><stop offset="0.61" stop-color="#fff" stop-opacity="0.89"/><stop offset="0.69" stop-color="#fff" stop-opacity="0.75"/><stop offset="0.78" stop-color="#fff" stop-opacity="0.56"/><stop offset="0.88" stop-color="#fff" stop-opacity="0.32"/><stop offset="0.99" stop-color="#fff" stop-opacity="0.04"/><stop offset="1" stop-color="#fff" stop-opacity="0"/></linearGradient></defs><title>confetti</title><g id="Layer_2" data-name="Layer 2"><g id="Layer_1-2" data-name="Layer 1"><g class="cls-2"><g class="cls-3"><g class="cls-4"><rect class="cls-5" x="1066.63" y="424.1" width="9.41" height="22.1" transform="translate(-84.37 396.99) rotate(-20.21)"/><rect class="cls-6" x="992.83" y="378.09" width="9.41" height="22.1" transform="matrix(0.98, 0.2, -0.2, 0.98, 97.69, -191.19)"/><rect class="cls-6" x="1405.89" y="359.28" width="9.41" height="22.1" transform="translate(29.86 839.88) rotate(-33.49)"/><rect class="cls-7" x="1130.34" y="393.43" width="9.41" height="22.1" transform="translate(253.93 -417.45) rotate(23.4)"/><polygon class="cls-6" points="1077.48 364.8 1070.26 362.89 1075.53 357.59 1080.8 352.29 1082.75 359.5 1084.71 366.72 1077.48 364.8"/><circle class="cls-7" cx="1374.46" cy="340.16" r="2.94"/><circle class="cls-5" cx="1024.46" cy="348.74" r="2.94"/><rect class="cls-6" x="1232.53" y="421.14" width="9.41" height="22.1" transform="translate(2363.38 1102.53) rotate(-168.49)"/><rect class="cls-7" x="1329.96" y="359.28" width="9.41" height="22.1" transform="translate(2624.44 875.25) rotate(-174.13)"/><polygon class="cls-5" points="1171.66 368.39 1176.95 373.68 1169.73 375.61 1162.51 377.55 1164.44 370.33 1166.38 363.11 1171.66 368.39"/><polygon class="cls-6" points="1274.68 390.44 1281.91 392.35 1276.64 397.65 1271.37 402.95 1269.41 395.74 1267.46 388.53 1274.68 390.44"/><circle class="cls-7" cx="1227.48" cy="361.41" r="2.94"/><circle class="cls-5" cx="1325.91" cy="418.89" r="2.94"/><rect class="cls-5" x="1550.71" y="424.1" width="9.41" height="22.1" transform="translate(-54.55 564.26) rotate(-20.21)"/><rect class="cls-6" x="1476.92" y="378.09" width="9.41" height="22.1" transform="matrix(0.98, 0.2, -0.2, 0.98, 107.42, -287.77)"/><rect class="cls-6" x="1889.98" y="359.28" width="9.41" height="22.1" transform="translate(111.97 -370.56) rotate(11.51)"/><rect class="cls-7" x="1614.43" y="393.43" width="9.41" height="22.1" transform="translate(49.88 -163.52) rotate(5.87)"/><polygon class="cls-6" points="1561.57 364.8 1554.34 362.89 1559.61 357.59 1564.88 352.29 1566.84 359.5 1568.79 366.72 1561.57 364.8"/><circle class="cls-7" cx="1858.55" cy="340.16" r="2.94"/><circle class="cls-5" cx="1508.55" cy="348.74" r="2.94"/><rect class="cls-6" x="1716.62" y="421.14" width="9.41" height="22.1" transform="translate(3321.82 1199.11) rotate(-168.49)"/><rect class="cls-7" x="1814.04" y="359.28" width="9.41" height="22.1" transform="translate(3666.51 194.92) rotate(163.07)"/><polygon class="cls-5" points="1655.74 368.39 1661.03 373.68 1653.81 375.61 1646.59 377.55 1648.53 370.33 1650.46 363.11 1655.74 368.39"/><polygon class="cls-6" points="1758.77 390.44 1765.99 392.35 1760.72 397.65 1755.45 402.95 1753.5 395.74 1751.54 388.53 1758.77 390.44"/><circle class="cls-7" cx="1711.56" cy="361.41" r="2.94"/><circle class="cls-5" cx="1810" cy="418.89" r="2.94"/></g><g class="cls-4"><rect class="cls-6" x="43.05" y="425.52" width="9.41" height="22.1" transform="translate(88.06 -0.75) rotate(11.51)"/><rect class="cls-6" x="456.11" y="406.71" width="9.41" height="22.1" transform="translate(-154.02 323.65) rotate(-33.49)"/><polygon class="cls-6" points="127.7 412.24 120.47 410.32 125.74 405.02 131.01 399.72 132.97 406.94 134.92 414.15 127.7 412.24"/><circle class="cls-7" cx="424.68" cy="387.59" r="2.94"/><circle class="cls-5" cx="74.68" cy="396.17" r="2.94"/><rect class="cls-7" x="380.17" y="406.71" width="9.41" height="22.1" transform="translate(725.01 872.71) rotate(-174.13)"/><polygon class="cls-5" points="221.88 415.83 227.16 421.11 219.94 423.05 212.72 424.98 214.66 417.76 216.59 410.54 221.88 415.83"/><polygon class="cls-6" points="324.9 437.87 332.13 439.79 326.86 445.09 321.59 450.39 319.63 443.18 317.68 435.96 324.9 437.87"/><circle class="cls-7" cx="277.7" cy="408.85" r="2.94"/><rect class="cls-6" x="527.13" y="425.52" width="9.41" height="22.1" transform="translate(97.79 -97.33) rotate(11.51)"/><rect class="cls-6" x="940.19" y="406.71" width="9.41" height="22.1" transform="translate(102.34 -180.12) rotate(11.51)"/><polygon class="cls-6" points="611.78 412.24 604.56 410.32 609.83 405.02 615.1 399.72 617.05 406.94 619.01 414.15 611.78 412.24"/><circle class="cls-7" cx="908.76" cy="387.59" r="2.94"/><circle class="cls-5" cx="558.76" cy="396.17" r="2.94"/><rect class="cls-7" x="864.26" y="406.71" width="9.41" height="22.1" transform="translate(1821.93 564.34) rotate(163.07)"/><polygon class="cls-5" points="705.96 415.83 711.25 421.11 704.03 423.05 696.81 424.98 698.74 417.76 700.67 410.54 705.96 415.83"/><polygon class="cls-6" points="808.98 437.87 816.21 439.79 810.94 445.09 805.67 450.39 803.72 443.18 801.76 435.96 808.98 437.87"/><circle class="cls-7" cx="761.78" cy="408.85" r="2.94"/></g><g class="cls-4"><rect class="cls-5" x="116.84" y="94.16" width="9.41" height="22.1" transform="translate(-28.87 48.48) rotate(-20.21)"/><rect class="cls-5" x="422.91" y="112.03" width="9.41" height="22.1" transform="translate(-16.19 155.34) rotate(-20.21)"/><rect class="cls-6" x="43.05" y="48.15" width="9.41" height="22.1" transform="translate(12.77 -8.34) rotate(11.51)"/><rect class="cls-6" x="456.11" y="29.34" width="9.41" height="22.1" transform="translate(54.22 260.99) rotate(-33.49)"/><rect class="cls-7" x="180.56" y="63.49" width="9.41" height="22.1" transform="translate(44.83 -67.44) rotate(23.4)"/><polygon class="cls-5" points="170.48 158.46 165.19 153.18 172.41 151.24 179.63 149.31 177.7 156.53 175.76 163.75 170.48 158.46"/><polygon class="cls-7" points="62.58 149.92 57.3 144.64 64.52 142.7 71.74 140.77 69.8 147.99 67.87 155.21 62.58 149.92"/><polygon class="cls-6" points="127.7 34.87 120.47 32.95 125.74 27.65 131.01 22.35 132.97 29.57 134.92 36.78 127.7 34.87"/><polygon class="cls-6" points="434.85 186.36 427.62 184.44 432.89 179.14 438.16 173.84 440.11 181.06 442.07 188.27 434.85 186.36"/><circle class="cls-7" cx="20.64" cy="120.14" r="2.94"/><circle class="cls-7" cx="424.68" cy="10.22" r="2.94"/><circle class="cls-5" cx="74.68" cy="18.8" r="2.94"/><circle class="cls-6" cx="137.87" cy="178.11" r="2.94"/><rect class="cls-5" x="225.3" y="123.14" width="9.41" height="22.1" transform="translate(492.22 180.64) rotate(159.79)"/><rect class="cls-5" x="356.54" y="133.24" width="9.41" height="22.1" transform="translate(750.09 154.87) rotate(159.79)"/><rect class="cls-6" x="282.75" y="91.2" width="9.41" height="22.1" transform="translate(548.73 259.8) rotate(-168.49)"/><rect class="cls-7" x="380.17" y="29.34" width="9.41" height="22.1" transform="translate(763.61 119.95) rotate(-174.13)"/><polygon class="cls-5" points="221.88 38.46 227.16 43.74 219.94 45.68 212.72 47.61 214.66 40.39 216.59 33.17 221.88 38.46"/><polygon class="cls-7" points="270.89 169.03 276.18 174.31 268.96 176.25 261.74 178.18 263.67 170.97 265.61 163.75 270.89 169.03"/><polygon class="cls-6" points="324.9 60.51 332.13 62.42 326.86 67.72 321.59 73.02 319.63 65.81 317.68 58.59 324.9 60.51"/><circle class="cls-7" cx="277.7" cy="31.48" r="2.94"/><circle class="cls-5" cx="376.13" cy="88.96" r="2.94"/><circle class="cls-6" cx="317.67" cy="173.91" r="2.94"/><circle class="cls-6" cx="483.19" cy="137.13" r="2.94"/><rect class="cls-5" x="600.92" y="94.16" width="9.41" height="22.1" transform="translate(0.95 215.75) rotate(-20.21)"/><rect class="cls-5" x="907" y="112.03" width="9.41" height="22.1" transform="translate(73.65 -256.42) rotate(16.67)"/><rect class="cls-6" x="527.13" y="48.15" width="9.41" height="22.1" transform="translate(22.5 -104.92) rotate(11.51)"/><rect class="cls-6" x="940.19" y="29.34" width="9.41" height="22.1" transform="translate(27.05 -187.7) rotate(11.51)"/><rect class="cls-7" x="664.64" y="63.49" width="9.41" height="22.1" transform="translate(11.14 -68.09) rotate(5.87)"/><polygon class="cls-5" points="654.56 158.46 649.28 153.18 656.5 151.24 663.72 149.31 661.78 156.53 659.85 163.75 654.56 158.46"/><polygon class="cls-7" points="546.67 149.92 541.38 144.64 548.6 142.7 555.82 140.77 553.89 147.99 551.95 155.21 546.67 149.92"/><polygon class="cls-6" points="611.78 34.87 604.56 32.95 609.83 27.65 615.1 22.35 617.05 29.57 619.01 36.78 611.78 34.87"/><polygon class="cls-6" points="918.93 186.36 911.7 184.44 916.97 179.14 922.24 173.84 924.2 181.06 926.15 188.27 918.93 186.36"/><circle class="cls-7" cx="504.72" cy="120.14" r="2.94"/><circle class="cls-7" cx="908.76" cy="10.22" r="2.94"/><circle class="cls-5" cx="558.76" cy="18.8" r="2.94"/><circle class="cls-6" cx="621.95" cy="178.11" r="2.94"/><rect class="cls-5" x="709.39" y="123.14" width="9.41" height="22.1" transform="translate(1430.58 13.37) rotate(159.79)"/><rect class="cls-5" x="840.62" y="133.24" width="9.41" height="22.1" transform="translate(1688.44 -12.4) rotate(159.79)"/><rect class="cls-6" x="766.83" y="91.2" width="9.41" height="22.1" transform="translate(1507.17 356.38) rotate(-168.49)"/><rect class="cls-7" x="864.26" y="29.34" width="9.41" height="22.1" transform="translate(1712.03 -174.04) rotate(163.07)"/><polygon class="cls-5" points="705.96 38.46 711.25 43.74 704.03 45.68 696.81 47.61 698.74 40.39 700.67 33.17 705.96 38.46"/><polygon class="cls-7" points="754.98 169.03 760.26 174.31 753.04 176.25 745.82 178.18 747.76 170.97 749.69 163.75 754.98 169.03"/><polygon class="cls-6" points="808.98 60.51 816.21 62.42 810.94 67.72 805.67 73.02 803.72 65.81 801.76 58.59 808.98 60.51"/><circle class="cls-7" cx="761.78" cy="31.48" r="2.94"/><circle class="cls-5" cx="860.21" cy="88.96" r="2.94"/><circle class="cls-6" cx="801.76" cy="173.91" r="2.94"/><circle class="cls-6" cx="967.27" cy="137.13" r="2.94"/><rect class="cls-5" x="116.84" y="282.07" width="9.41" height="22.1" transform="translate(-93.8 60.05) rotate(-20.21)"/><rect class="cls-5" x="422.91" y="299.94" width="9.41" height="22.1" transform="translate(-81.12 166.91) rotate(-20.21)"/><rect class="cls-6" x="43.05" y="236.06" width="9.41" height="22.1" transform="translate(50.26 -4.56) rotate(11.51)"/><rect class="cls-6" x="456.11" y="217.25" width="9.41" height="22.1" transform="translate(54.81 -87.35) rotate(11.51)"/><rect class="cls-7" x="180.56" y="251.4" width="9.41" height="22.1" transform="translate(27.82 -17.58) rotate(5.87)"/><polygon class="cls-5" points="170.48 346.37 165.19 341.08 172.41 339.15 179.63 337.21 177.7 344.43 175.76 351.65 170.48 346.37"/><polygon class="cls-7" points="62.58 337.83 57.3 332.54 64.52 330.61 71.74 328.68 69.8 335.89 67.87 343.11 62.58 337.83"/><polygon class="cls-6" points="127.7 222.77 120.47 220.86 125.74 215.56 131.01 210.26 132.97 217.47 134.92 224.69 127.7 222.77"/><polygon class="cls-6" points="434.85 374.26 427.62 372.35 432.89 367.05 438.16 361.75 440.11 368.96 442.07 376.18 434.85 374.26"/><circle class="cls-7" cx="20.64" cy="308.04" r="2.94"/><circle class="cls-7" cx="424.68" cy="198.13" r="2.94"/><circle class="cls-5" cx="74.68" cy="206.71" r="2.94"/><circle class="cls-6" cx="137.87" cy="366.02" r="2.94"/><rect class="cls-5" x="225.3" y="311.05" width="9.41" height="22.1" transform="translate(557.15 544.88) rotate(159.79)"/><rect class="cls-5" x="356.54" y="321.15" width="9.41" height="22.1" transform="translate(815.02 519.11) rotate(159.79)"/><rect class="cls-6" x="282.75" y="279.11" width="9.41" height="22.1" transform="translate(511.24 631.84) rotate(-168.49)"/><rect class="cls-7" x="380.17" y="217.25" width="9.41" height="22.1" transform="translate(744.39 494.77) rotate(-174.13)"/><polygon class="cls-5" points="221.88 226.36 227.16 231.65 219.94 233.58 212.72 235.52 214.66 228.3 216.59 221.08 221.88 226.36"/><polygon class="cls-7" points="270.89 356.94 276.18 362.22 268.96 364.16 261.74 366.09 263.67 358.87 265.61 351.65 270.89 356.94"/><polygon class="cls-6" points="324.9 248.41 332.13 250.32 326.86 255.63 321.59 260.93 319.63 253.71 317.68 246.5 324.9 248.41"/><circle class="cls-7" cx="277.7" cy="219.39" r="2.94"/><circle class="cls-5" cx="376.13" cy="276.87" r="2.94"/><circle class="cls-6" cx="317.67" cy="361.81" r="2.94"/><circle class="cls-6" cx="483.19" cy="325.04" r="2.94"/><rect class="cls-5" x="600.92" y="282.07" width="9.41" height="22.1" transform="translate(-63.98 227.32) rotate(-20.21)"/><rect class="cls-5" x="907" y="299.94" width="9.41" height="22.1" transform="translate(-51.3 334.18) rotate(-20.21)"/><rect class="cls-6" x="527.13" y="236.06" width="9.41" height="22.1" transform="translate(59.99 -101.14) rotate(11.51)"/><rect class="cls-6" x="940.19" y="217.25" width="9.41" height="22.1" transform="translate(64.54 -183.93) rotate(11.51)"/><rect class="cls-7" x="664.64" y="251.4" width="9.41" height="22.1" transform="translate(30.36 -67.1) rotate(5.87)"/><polygon class="cls-5" points="654.56 346.37 649.28 341.08 656.5 339.15 663.72 337.21 661.78 344.43 659.85 351.65 654.56 346.37"/><polygon class="cls-7" points="546.67 337.83 541.38 332.54 548.6 330.61 555.82 328.68 553.89 335.89 551.95 343.11 546.67 337.83"/><polygon class="cls-6" points="611.78 222.77 604.56 220.86 609.83 215.56 615.1 210.26 617.05 217.47 619.01 224.69 611.78 222.77"/><polygon class="cls-6" points="918.93 374.26 911.7 372.35 916.97 367.05 922.24 361.75 924.2 368.96 926.15 376.18 918.93 374.26"/><circle class="cls-7" cx="504.72" cy="308.04" r="2.94"/><circle class="cls-7" cx="908.76" cy="198.13" r="2.94"/><circle class="cls-5" cx="558.76" cy="206.71" r="2.94"/><circle class="cls-6" cx="621.95" cy="366.02" r="2.94"/><rect class="cls-5" x="709.39" y="311.05" width="9.41" height="22.1" transform="translate(1495.5 377.61) rotate(159.79)"/><rect class="cls-5" x="840.62" y="321.15" width="9.41" height="22.1" transform="translate(1753.37 351.84) rotate(159.79)"/><rect class="cls-6" x="766.83" y="279.11" width="9.41" height="22.1" transform="translate(1469.68 728.42) rotate(-168.49)"/><rect class="cls-7" x="864.26" y="217.25" width="9.41" height="22.1" transform="translate(1710.02 544.3) rotate(-174.13)"/><polygon class="cls-5" points="705.96 226.36 711.25 231.65 704.03 233.58 696.81 235.52 698.74 228.3 700.67 221.08 705.96 226.36"/><polygon class="cls-7" points="754.98 356.94 760.26 362.22 753.04 364.16 745.82 366.09 747.76 358.87 749.69 351.65 754.98 356.94"/><polygon class="cls-6" points="808.98 248.41 816.21 250.32 810.94 255.63 805.67 260.93 803.72 253.71 801.76 246.5 808.98 248.41"/><circle class="cls-7" cx="761.78" cy="219.39" r="2.94"/><circle class="cls-5" cx="860.21" cy="276.87" r="2.94"/><circle class="cls-6" cx="801.76" cy="361.81" r="2.94"/><circle class="cls-6" cx="967.27" cy="325.04" r="2.94"/></g><g class="cls-4"><rect class="cls-5" x="1066.63" y="46.73" width="9.41" height="22.1" transform="translate(46.02 373.75) rotate(-20.21)"/><rect class="cls-5" x="1372.7" y="64.59" width="9.41" height="22.1" transform="translate(58.7 480.61) rotate(-20.21)"/><rect class="cls-6" x="992.83" y="0.72" width="9.41" height="22.1" transform="translate(22.4 -198.78) rotate(11.51)"/><rect class="cls-7" x="1130.34" y="16.06" width="9.41" height="22.1" transform="matrix(0.92, 0.4, -0.4, 0.92, 104.08, -448.48)"/><polygon class="cls-5" points="1120.26 111.03 1114.98 105.74 1122.2 103.81 1129.42 101.87 1127.48 109.09 1125.55 116.31 1120.26 111.03"/><polygon class="cls-7" points="1012.37 102.49 1007.08 97.2 1014.3 95.27 1021.52 93.33 1019.59 100.55 1017.65 107.77 1012.37 102.49"/><polygon class="cls-6" points="1384.63 138.92 1377.4 137.01 1382.67 131.71 1387.94 126.41 1389.9 133.62 1391.85 140.84 1384.63 138.92"/><circle class="cls-7" cx="970.42" cy="72.7" r="2.94"/><circle class="cls-6" cx="1087.65" cy="130.68" r="2.94"/><rect class="cls-5" x="1175.09" y="75.71" width="9.41" height="22.1" transform="translate(2316.9 -239.5) rotate(159.79)"/><rect class="cls-5" x="1306.32" y="85.81" width="9.41" height="22.1" transform="translate(2574.77 -265.26) rotate(159.79)"/><rect class="cls-6" x="1232.53" y="43.77" width="9.41" height="22.1" transform="translate(2438.67 355.38) rotate(-168.49)"/><polygon class="cls-7" points="1220.68 121.6 1225.96 126.88 1218.74 128.82 1211.52 130.75 1213.46 123.53 1215.39 116.31 1220.68 121.6"/><polygon class="cls-6" points="1274.68 13.07 1281.91 14.98 1276.64 20.29 1271.37 25.59 1269.41 18.37 1267.46 11.16 1274.68 13.07"/><circle class="cls-5" cx="1325.91" cy="41.52" r="2.94"/><circle class="cls-6" cx="1267.46" cy="126.47" r="2.94"/><circle class="cls-6" cx="1432.97" cy="89.7" r="2.94"/><rect class="cls-5" x="1550.71" y="46.73" width="9.41" height="22.1" transform="translate(75.84 541.02) rotate(-20.21)"/><rect class="cls-5" x="1856.78" y="64.59" width="9.41" height="22.1" transform="translate(99.98 -530.93) rotate(16.67)"/><rect class="cls-6" x="1476.92" y="0.72" width="9.41" height="22.1" transform="translate(32.13 -295.36) rotate(11.51)"/><rect class="cls-7" x="1614.43" y="16.06" width="9.41" height="22.1" transform="translate(11.27 -165.5) rotate(5.87)"/><polygon class="cls-5" points="1604.35 111.03 1599.06 105.74 1606.28 103.81 1613.5 101.87 1611.57 109.09 1609.63 116.31 1604.35 111.03"/><polygon class="cls-7" points="1496.45 102.49 1491.17 97.2 1498.39 95.27 1505.61 93.33 1503.67 100.55 1501.74 107.77 1496.45 102.49"/><polygon class="cls-6" points="1868.71 138.92 1861.49 137.01 1866.76 131.71 1872.03 126.41 1873.98 133.62 1875.94 140.84 1868.71 138.92"/><circle class="cls-7" cx="1454.5" cy="72.7" r="2.94"/><circle class="cls-6" cx="1571.73" cy="130.68" r="2.94"/><rect class="cls-5" x="1659.17" y="75.71" width="9.41" height="22.1" transform="translate(3255.25 -406.77) rotate(159.79)"/><rect class="cls-5" x="1790.4" y="85.81" width="9.41" height="22.1" transform="translate(3513.12 -432.53) rotate(159.79)"/><rect class="cls-6" x="1716.62" y="43.77" width="9.41" height="22.1" transform="translate(3397.1 451.96) rotate(-168.49)"/><polygon class="cls-7" points="1704.76 121.6 1710.05 126.88 1702.83 128.82 1695.61 130.75 1697.54 123.53 1699.48 116.31 1704.76 121.6"/><polygon class="cls-6" points="1758.77 13.07 1765.99 14.98 1760.72 20.29 1755.45 25.59 1753.5 18.37 1751.54 11.16 1758.77 13.07"/><circle class="cls-5" cx="1810" cy="41.52" r="2.94"/><circle class="cls-6" cx="1751.54" cy="126.47" r="2.94"/><circle class="cls-6" cx="1917.06" cy="89.7" r="2.94"/><rect class="cls-5" x="1066.63" y="234.63" width="9.41" height="22.1" transform="translate(-18.9 385.32) rotate(-20.21)"/><rect class="cls-5" x="1372.7" y="252.5" width="9.41" height="22.1" transform="translate(-6.22 492.18) rotate(-20.21)"/><rect class="cls-6" x="992.83" y="188.62" width="9.41" height="22.1" transform="matrix(0.98, 0.2, -0.2, 0.98, 59.89, -195)"/><rect class="cls-6" x="1405.89" y="169.81" width="9.41" height="22.1" transform="translate(64.44 -277.79) rotate(11.51)"/><rect class="cls-7" x="1130.34" y="203.97" width="9.41" height="22.1" transform="translate(27.95 -114.99) rotate(5.87)"/><polygon class="cls-5" points="1120.26 298.93 1114.98 293.65 1122.2 291.71 1129.42 289.78 1127.48 297 1125.55 304.22 1120.26 298.93"/><polygon class="cls-7" points="1012.37 290.39 1007.08 285.11 1014.3 283.18 1021.52 281.24 1019.59 288.46 1017.65 295.68 1012.37 290.39"/><polygon class="cls-6" points="1077.48 175.34 1070.26 173.43 1075.53 168.13 1080.8 162.83 1082.75 170.04 1084.71 177.25 1077.48 175.34"/><polygon class="cls-6" points="1384.63 326.83 1377.4 324.92 1382.67 319.62 1387.94 314.31 1389.9 321.53 1391.85 328.74 1384.63 326.83"/><circle class="cls-7" cx="970.42" cy="260.61" r="2.94"/><circle class="cls-7" cx="1374.46" cy="150.69" r="2.94"/><circle class="cls-5" cx="1024.46" cy="159.28" r="2.94"/><circle class="cls-6" cx="1087.65" cy="318.59" r="2.94"/><rect class="cls-5" x="1175.09" y="263.61" width="9.41" height="22.1" transform="translate(2381.83 124.74) rotate(159.79)"/><rect class="cls-5" x="1306.32" y="273.72" width="9.41" height="22.1" transform="translate(2639.7 98.98) rotate(159.79)"/><rect class="cls-6" x="1232.53" y="231.68" width="9.41" height="22.1" transform="translate(2401.18 727.41) rotate(-168.49)"/><rect class="cls-7" x="1329.96" y="169.81" width="9.41" height="22.1" transform="translate(2643.83 497.32) rotate(-174.13)"/><polygon class="cls-5" points="1171.66 178.93 1176.95 184.21 1169.73 186.15 1162.51 188.08 1164.44 180.86 1166.38 173.64 1171.66 178.93"/><polygon class="cls-7" points="1220.68 309.5 1225.96 314.79 1218.74 316.72 1211.52 318.66 1213.46 311.44 1215.39 304.22 1220.68 309.5"/><polygon class="cls-6" points="1274.68 200.98 1281.91 202.89 1276.64 208.19 1271.37 213.49 1269.41 206.28 1267.46 199.06 1274.68 200.98"/><circle class="cls-7" cx="1227.48" cy="171.95" r="2.94"/><circle class="cls-5" cx="1325.91" cy="229.43" r="2.94"/><circle class="cls-6" cx="1267.46" cy="314.38" r="2.94"/><circle class="cls-6" cx="1432.97" cy="277.61" r="2.94"/><rect class="cls-5" x="1550.71" y="234.63" width="9.41" height="22.1" transform="translate(10.91 552.59) rotate(-20.21)"/><rect class="cls-5" x="1856.78" y="252.5" width="9.41" height="22.1" transform="translate(23.59 659.45) rotate(-20.21)"/><rect class="cls-6" x="1476.92" y="188.62" width="9.41" height="22.1" transform="matrix(0.98, 0.2, -0.2, 0.98, 69.62, -291.58)"/><rect class="cls-6" x="1889.98" y="169.81" width="9.41" height="22.1" transform="translate(74.17 -374.37) rotate(11.51)"/><rect class="cls-7" x="1614.43" y="203.97" width="9.41" height="22.1" transform="translate(30.49 -164.52) rotate(5.87)"/><polygon class="cls-5" points="1604.35 298.93 1599.06 293.65 1606.28 291.71 1613.5 289.78 1611.57 297 1609.63 304.22 1604.35 298.93"/><polygon class="cls-7" points="1496.45 290.39 1491.17 285.11 1498.39 283.18 1505.61 281.24 1503.67 288.46 1501.74 295.68 1496.45 290.39"/><polygon class="cls-6" points="1561.57 175.34 1554.34 173.43 1559.61 168.13 1564.88 162.83 1566.84 170.04 1568.79 177.25 1561.57 175.34"/><polygon class="cls-6" points="1868.71 326.83 1861.49 324.92 1866.76 319.62 1872.03 314.31 1873.98 321.53 1875.94 328.74 1868.71 326.83"/><circle class="cls-7" cx="1454.5" cy="260.61" r="2.94"/><circle class="cls-7" cx="1858.55" cy="150.69" r="2.94"/><circle class="cls-5" cx="1508.55" cy="159.28" r="2.94"/><circle class="cls-6" cx="1571.73" cy="318.59" r="2.94"/><rect class="cls-5" x="1659.17" y="263.61" width="9.41" height="22.1" transform="translate(3320.18 -42.53) rotate(159.79)"/><rect class="cls-5" x="1790.4" y="273.72" width="9.41" height="22.1" transform="translate(3578.05 -68.29) rotate(159.79)"/><rect class="cls-6" x="1716.62" y="231.68" width="9.41" height="22.1" transform="translate(3359.62 823.99) rotate(-168.49)"/><rect class="cls-7" x="1814.04" y="169.81" width="9.41" height="22.1" transform="translate(3609.46 546.85) rotate(-174.13)"/><polygon class="cls-5" points="1655.74 178.93 1661.03 184.21 1653.81 186.15 1646.59 188.08 1648.53 180.86 1650.46 173.64 1655.74 178.93"/><polygon class="cls-7" points="1704.76 309.5 1710.05 314.79 1702.83 316.72 1695.61 318.66 1697.54 311.44 1699.48 304.22 1704.76 309.5"/><polygon class="cls-6" points="1758.77 200.98 1765.99 202.89 1760.72 208.19 1755.45 213.49 1753.5 206.28 1751.54 199.06 1758.77 200.98"/><circle class="cls-7" cx="1711.56" cy="171.95" r="2.94"/><circle class="cls-5" cx="1810" cy="229.43" r="2.94"/><circle class="cls-6" cx="1751.54" cy="314.38" r="2.94"/><circle class="cls-6" cx="1917.06" cy="277.61" r="2.94"/></g></g><rect class="cls-8" y="0.18" width="1920" height="996.29"/></g></g></g></svg>