<?xml version="1.0" encoding="utf-8"?>
<!-- Generator: Adobe Illustrator 19.0.1, SVG Export Plug-In . SVG Version: 6.00 Build 0)  -->
<svg version="1.1" id="Layer_1" xmlns="http://www.w3.org/2000/svg" xmlns:xlink="http://www.w3.org/1999/xlink" x="0px" y="0px"
	 viewBox="0 0 500 250" enable-background="new 0 0 500 250" xml:space="preserve">
<g>
	<g>
		<path fill="none" d="M119.3,160.5c0.7,0,1.5,0.9,2.2,0.2C122.1,159.7,119.4,159.6,119.3,160.5z"/>
		<path fill="none" d="M114.3,160.6c1.1,0.3,2.9,0.9,3.2-0.3C116.7,160,114.7,159.5,114.3,160.6z"/>
		<path fill="none" d="M187.7,159.2c-1.4,0-2.5-0.5-3.7,0.7c-2.5-2.2-6.3,0.8-9-0.7c-1.6,0.4-3.2,1.2-4.7,1.3
			c-1.7,0.1-3.3-1.1-4.9-1.2c-0.2,0-0.3,0-0.5,0v1.7c0.7,0,1.4-0.1,2.1-0.1c7.4-0.3,14.2-0.2,21.1-0.1c1.3,0,2.6,0,3.9,0v-1.8
			C190.5,159.3,189,159.2,187.7,159.2z"/>
		<path fill="none" d="M115.5,167.3c-9.3,0.4-19.4,0.3-29.3,0.3v20c0,6.2,1.5,11.7,4.6,16.7c3.1,4.9,8.4,7.4,16,7.4
			c7.6,0,12.9-2.6,16.1-7.7c3.2-5.2,4.8-11.4,4.8-18.7v-17.7c-0.9-0.1-1.8-0.1-2.7-0.2C121.7,167.1,118.1,168.5,115.5,167.3z"/>
		<path fill="none" d="M384.4,158.3c2-0.1,3.9-0.6,5.8-0.5l-0.6-1.7c-3.2,0-6.6-0.6-9.8,0.2c-1.5-0.5-3.9-0.7-6-0.5v1.9
			C377.3,157.4,380.9,158.5,384.4,158.3z"/>
		<path fill="none" d="M376.1,159.7c-0.6,0.1-1.2,0.3-1.8,0.6c-0.2-0.1-0.4-0.1-0.7-0.2v1.1c6.1,0,12,0.1,17.8,0.2L391,160
			C385.7,159.7,380.7,159.4,376.1,159.7z"/>
		<path fill="none" d="M127.2,160.4c0-0.2,0-0.4-0.1-0.7c-0.6,0-1,0.2-0.8,1C126.7,160.7,127,160.6,127.2,160.4z"/>
		<path fill="none" d="M313.8,154.8c-1.3,0-3.5,0-6.1,0v6.9c9.1-0.1,18.9-0.3,28.8-0.3v-1.5c-5,0-9.9-0.1-14.5-0.5c3.3-2.1,8,0,12-1
			c0.8,0.6,1.6,0.6,2.5,0.5v-3.5C328.7,155.4,321,155.4,313.8,154.8z"/>
		<path fill="none" d="M123.4,45.7c-2.9-5.3-8.3-7.9-16.3-7.9c-4.4,0-7.9,1-10.6,2.9c-2.7,1.9-4.9,4.4-6.4,7.2
			c-1.5,2.9-2.5,6.1-3.1,9.6c-0.6,3.6-0.9,6.8-0.9,9.8v21.5c8.7-1.1,18,1,26.2-0.3c3.4,0.7,8.4-0.5,12.1,0.5c0.5,0,0.5-0.6,1.1-0.6
			c0.7,0.1,1.5,0.1,2.2,0.2V63.6C127.7,57,126.3,51,123.4,45.7z"/>
		<path fill="none" d="M112.3,160.5c0.4,0.1,0.7,0.5,1.3,0.3C113.6,160,112.3,159.7,112.3,160.5z"/>
		<path fill="none" d="M241.3,162.2c2.5,1.6,6.6,0.1,9.5,0.2C248,161.8,244.9,162.2,241.3,162.2z"/>
		<path fill="none" d="M238.9,164.2c0.2,0.2,0.5,0.3,0.9,0.2C239.8,163.4,239.1,163.8,238.9,164.2z"/>
		<path fill="none" d="M245.5,164.3c1.2-0.3,2.2,0.5,3-0.1c0.1-0.3,0.2-0.4,0-0.7C247.7,163.6,246.1,163.2,245.5,164.3z"/>
		<path fill="none" d="M267.3,162.4c-0.1,0.9,0.8,0.5,1.1,0.9c-0.2,0.5-1.2,0.1-1.8,0.3c-0.3-2-3.7-0.9-5.6-1.3
			c-0.8,0.3,0.3,0.6-0.1,1.1c-2.1,0.2-3.3,0.3-5.2,0c0.4-1.1,1.3-0.4,2.3-0.6c-1.2-1.1-4.5-0.5-5.9-0.4c0.6,1,2.6-0.1,3.3,0.8
			c-1.4,0.9-4.1,0.1-6,0.7c1.3,1.2,3.4,0.5,5,0.7c-3.3,0.7-7.9,0.7-11.4,0.3c0-0.7,0.8-0.3,1-0.7c-1-0.5-2-0.6-3.2-0.3
			c-0.9,0.2,0.3,1-0.1,1.1c-3.6,0.3-7.7,0.4-11.6,0.2v22.4c0,6.2,1.5,11.7,4.6,16.7c3.1,4.9,8.4,7.4,16,7.4c7.6,0,12.9-2.6,16.1-7.7
			c3.2-5.2,4.8-11.4,4.8-18.7v-23C269.5,162.2,268.4,162.3,267.3,162.4z M262.9,163.6c0.5-0.8,2-0.3,2.7-0.3
			C264.7,163.9,263.8,163.7,262.9,163.6z"/>
		<path fill="none" d="M166.2,157.1c0.2-1.1-0.9-0.6-0.9-0.1C165.5,157.1,165.8,157.2,166.2,157.1z"/>
		<path fill="none" d="M242.1,154.8c-0.1,1.1,0.3,1.5,0.5,2.2c0.8,0.1,1.4-0.1,1.8-0.5c-0.2-0.8-0.1-1.3-0.3-1.8
			C243.7,154.3,242.5,154.4,242.1,154.8z"/>
		<path fill="none" d="M245.2,154.8c0.6,1,2.5-0.6,2.8,1.4c2.5-2.2,4.5-0.1,6.8,0.6c0.6-0.6-1.2-0.5-0.4-1.3c1-0.1,1.4,0.6,1.8,1.3
			c2.8,1.2,6,0.3,9.2,1c-11.3,0.6-23.8,0.5-36.3,0.5v1.9c0.3,0,0.7,0,1,0c8.6-0.1,17.7,0,26.8,0.3c1.4,0,2.8-0.4,4.1-0.2
			c0.7,0.2,1.4,1.1,2.2,1.3c2.5,0.5,5-0.4,7.3-0.1c0,0,0.1,0,0.1,0v-2.7c-1.1,0-2.1-0.1-3.1-0.3c0.8-0.3,2.2-0.7,3.1-0.2v-3.9
			C262.2,154.1,253.6,153.8,245.2,154.8z"/>
		<path fill="none" d="M239.8,155.6c-0.1,0.5-0.2,1.1,0.4,1.1C240.6,156.2,240.2,155.7,239.8,155.6z"/>
		<path fill="none" d="M235.8,164.1c0.3,1.1,2.2,0.5,2.7-0.1C237.8,163.7,236.4,163.7,235.8,164.1z"/>
		<path fill="none" d="M250.8,152.3c-0.5-1.6-1.9-0.6-2.7-0.5c-6.1,0.3-12.8-0.4-19,0.6v0.3C236.8,153,243.8,153.1,250.8,152.3z"/>
		<path fill="none" d="M235.2,155.8c0.6,1.1,3,1.4,3.4,0c-0.6-0.7-1.5-0.5-2.4-1.2c-2.3,0.1-4.7,0.2-7.1,0.2v2.6
			C229.9,156,233.9,157,235.2,155.8z"/>
		<path fill="none" d="M410.3,49c-4.5-6.1-11.9-9.1-22.2-9.1h-14.4v49c14.1-0.2,28-1.6,41.7,0.1c0.1,0,0.2,0,0.3,0
			c0.9-4.2,1.3-9,1.3-14.4C417,63.6,414.7,55.1,410.3,49z"/>
		<path fill="none" d="M229.4,164.4c0.4,0.3,1.9,0.3,2.3-0.1C231.1,163.9,229.9,163.7,229.4,164.4z"/>
		<path fill="none" d="M430.4,164.3c1,0.1,1.9,0.6,2.9-0.1c3.2,1.3,7,0.6,10.3,1.2c-1.4-3-6.6-1.5-10.1-1.8c-0.5,0-0.9-0.6-1.4-0.7
			c-1.1-0.2-2.3-0.3-3.5-0.4l0.7,1.8C429.7,164.2,430.1,164.3,430.4,164.3z"/>
		<path fill="none" d="M463.4,155.3c0.3,0,0.6,0,0.9,0C464.6,154.7,463.1,154.7,463.4,155.3z"/>
		<path fill="none" d="M183.7,155.7c-0.8,0-2.3-0.7-2.6,0.6c1.9,1.4,4.5,0.1,6.8,0.2c1.2,0,2.6,0.1,4.1,0.1v-1.3
			C189.2,155.4,186.4,155.5,183.7,155.7z"/>
		<path fill="none" d="M435.2,161c0.7,0.1,1.3,0.8,1.9,0.9c0.6,0.1,1.8-0.1,2.5-0.1c1.4,0,2.6-0.4,3.7,0.6c2.9-0.8,6.8,0.1,9.5-0.1
			c-7.4-2.7-16.6-1.2-25.2-2.2l0.3,0.8C430.4,160.7,433.2,160.6,435.2,161z"/>
		<path fill="#53A2F2" d="M404.8,166.6c0.3,0.3,1.7,0.5,1.8-0.2C405.9,166.6,405.1,165.6,404.8,166.6z"/>
		<path fill="#53A2F2" d="M414.2,154.3c-1.2-1.1-3-1.3-4.8-1c0.2,0.7,1.3,0.5,1.8,0.9c-5.9,1.3-11.4-1.5-17.2-0.3
			c10.3,1.4,21.4,2.6,32.7,3.4l-0.5-1.2c-4.8-0.2-9.7-0.4-14.7-1.4C412,153.9,413.3,154,414.2,154.3z"/>
		<path fill="#53A2F2" d="M393,158.6c2.2-0.6,3.4,0.6,5.7,0.7c0.8,0.4,0.3-0.8,0.9-0.6c2.3,0.9,5,0,7.7,0.4c3.1,0.4,5.8,1.2,8.4,2.1
			c-3.9,0.7-9.9,0.3-13.9-1.6c-0.7-0.1-0.5,0.9-1.3,0.6c-3.2,0-6.4-0.1-9.5-0.3l0.6,1.5c0.9,0,1.9,0,2.8,0c12.2,0.2,24.3,2,34.9,2.6
			l-0.7-1.8c-4.1-0.3-8.3-0.2-11.9-1.1c1.8-0.4,3.6,0.5,4.5-1.2c1.1,0,1.6,0.7,2.5,0.9c1.1,0,2.6-0.2,4.3-0.2l-0.3-0.8
			c-0.4,0-0.8-0.1-1.2-0.2c-7.7-1.1-15.5-2.8-22.7-2.3c-0.4-0.3-0.6-0.9-1.2-0.9c-1.1,0.5-2.2-0.3-3.1,0.4c-2.5-1-5.6-1.3-8.4-1
			c-0.5,0-1,0.1-1.5,0.1l0.6,1.7C391.1,157.9,392,158.1,393,158.6z"/>
		<path fill="#53A2F2" d="M403.2,152.9c0.3,0.6,2.4,0.8,2.7,0.1C405.4,152.7,403.6,151.9,403.2,152.9z"/>
		<path fill="#53A2F2" d="M391.8,153.8c0.4,0.1,0.8,0.3,1.4,0.2C393.4,153.3,391.8,153.5,391.8,153.8z"/>
		<path fill="#53A2F2" d="M361.5,159.5c-7.9,0.1-16.6,0.4-24.9,0.4v1.5c12.3-0.1,24.8-0.1,37.1,0v-1.1
			C370.4,159.4,365.3,160.3,361.5,159.5z"/>
		<path fill="#53A2F2" d="M423.5,154.7c-0.4-0.2-1.7-0.6-1.8,0.2C422.3,155.2,423,155.1,423.5,154.7z"/>
		<path fill="#53A2F2" d="M368.1,167.8c-0.3-0.4,0.1-0.4,0-1.1c-0.7-0.2-1.6-0.1-2.1-0.4c-0.1-0.8,0.7-0.4,0.7-0.9
			c-0.6-1.1-2.1-0.1-3-0.2c-0.7,0.2,0.7,0.9,0,1.1c-1.1,0.3-1.1-0.8-1.6-1.3c-1.2-0.3-0.1,1.1-0.9,1.1c-0.7,0.3-0.5-0.5-0.5-1.1
			c-7.7,0-14.8-0.3-21.9,0.1c-0.1,1.2,1.5,0.2,1.3,1.6c-1.2-0.3-1.7,0.2-2.5,0c-0.6-0.7,0.7-1,0.2-1.6c-0.3,0-0.7,0-1,0v79.3h37.1
			v-76.6C371.7,167.6,369.9,167.5,368.1,167.8z"/>
		<path fill="#53A2F2" d="M421.4,169.5c-2.6,0.5-7.2,0-10-0.6c-0.7,0-1,0.7-2,0.4c-0.7,0-0.5-1.1-1-1.3c-1.6,0.5-3.2,0.1-4.8,0.4
			c-1.5,0.2-1.9,0.5-3.4-0.1c-1.3-0.4-2.9-0.2-4.5-0.3c-0.6,0-1.3-0.2-1.9-0.3l28.3,76.6h37.8L432,171.4c-2.3-0.4-4.7-0.8-6.9-1.1
			C423.8,170.1,422.4,170.6,421.4,169.5z"/>
		<path fill="#53A2F2" d="M367.6,88.9c2,0,4,0,6,0v-49h14.4c10.3,0,17.7,3,22.2,9.1c4.5,6.1,6.7,14.6,6.7,25.6
			c0,5.5-0.5,10.3-1.3,14.4c0.4,0,0.8-0.2,1.2-0.2c9.3,0.2,18.8-0.5,27.9,0.1c1.4,0.1,2.7,0.2,4,0.5c1.2,0.2,2.5,0.2,3.9,0.2
			c0.5-4.7,0.8-9.7,0.8-15c0-24.5-5.5-42.2-16.5-53.1c-11-10.9-26.2-16.3-45.7-16.3h-54.6v83.5c8.3,0.2,16.6,0.4,24.8,0.5
			C363.5,89.2,365.5,88.8,367.6,88.9z"/>
		<path fill="#53A2F2" d="M340,158.2c3.6-0.1,7.2,0.9,9.3-0.5c1.8,1.1,4.6,0.2,7.2,0.6c1.8,0.3,4.7,0.5,6.3-0.2
			c3.1,0.5,6.7,0.1,10-0.4c0.3,0,0.6-0.1,0.9-0.1v-1.9c-1,0.1-2,0.2-2.7,0.4c-11.2-1.3-23-1.1-34.4-0.9v3.5
			C337.6,158.6,338.7,158.3,340,158.2z"/>
		<path fill="#53A2F2" d="M54.5,90c4.5-0.3,9.1-1.4,13.7-0.5c5.4-1.4,12.2-0.9,17.5-0.5c0.2,0,0.3,0,0.5-0.1V67.4
			c0-3,0.3-6.2,0.9-9.8c0.6-3.5,1.6-6.8,3.1-9.6c1.5-2.9,3.6-5.3,6.4-7.2c2.7-1.9,6.3-2.9,10.6-2.9c8,0,13.5,2.6,16.3,7.9
			c2.9,5.3,4.3,11.2,4.3,17.9v25.2c5.7,0.3,11.7-0.8,17.3-0.3c0.8,0.1,1.5,0.6,2.3,0.7c2.5,0.1,5.2-0.8,7.9-0.8c3,0,6.4,0.4,9.7,0.8
			V66.3c0-9.8-1-18.7-2.9-26.5c-1.9-7.8-5.1-14.4-9.6-19.9c-4.5-5.5-10.4-9.7-17.8-12.5c-7.4-2.9-16.6-4.3-27.6-4.3
			c-10.3,0-19.1,1.5-26.5,4.6c-7.4,3.1-13.4,7.4-18,13.1c-4.6,5.6-7.9,12.3-10.1,20.1c-2.2,7.8-3.3,16.4-3.3,25.8v23.1
			C50.9,89.8,52.7,90.2,54.5,90z"/>
		<path fill="#53A2F2" d="M132.4,160.5c0.5,0.4,1.3,0.4,2.2,0.2C134.5,159.6,132.7,159.8,132.4,160.5z"/>
		<path fill="#53A2F2" d="M131.3,160.6c0-0.2,0-0.4-0.1-0.7C129.8,159.1,130,161.8,131.3,160.6z"/>
		<path fill="#53A2F2" d="M160.9,166.3c-2.4,0-4.7,0.3-6.5,1c-1.8-1.3-4.3,0.4-6.1,0.1c-0.5-0.9-2.4-1.8-3.5-0.8
			c-1.6,1.5-6.4,0.1-9,1.3c-0.6,0.1-0.9-0.4-1.3-0.5c-2.2,0.5-4.4,0.4-6.7,0.2v17.7c0,7.3-1.6,13.6-4.8,18.7
			c-3.2,5.2-8.6,7.7-16.1,7.7c-7.6,0-12.9-2.5-16-7.4c-3.1-4.9-4.6-10.5-4.6-16.7v-20c-10.7-0.1-21.3-0.1-30.8,0.4
			c-1,0-0.5,1.4-1.6,1.3c-0.6,0.4-0.2-0.9-0.6-0.8c-1.2,0.1-2.6,0-4,0v18.5c0,19.2,4.6,34,13.7,44.1c9.1,10.2,23.7,15.3,43.8,15.3
			c20.1,0,34.8-5.3,44.2-16c9.4-10.6,14-26.4,14-47.2v-16.9C163.7,166.2,162.3,166.3,160.9,166.3z"/>
		<path fill="#53A2F2" d="M162.3,160.1c-1.3,0-3.6-0.7-5.6-0.4c-1.3,0.2-2.4,0.8-3.7,0.8c-1,0-2.2-0.7-3,0.3c0.7,1.1,3.5,0.4,4.7,0
			c2.4,1,6.5,0.7,10.1,0.4v-1.7C164,159.6,163.2,160.1,162.3,160.1z"/>
		<path fill="#53A2F2" d="M139.4,160.8c3,0.5,6.7,0.2,10.1,0.2c-1.6-1.5-5.1-0.2-6.9-1.4C141.9,160.8,140.2,159.7,139.4,160.8z"/>
		<path fill="#53A2F2" d="M305.3,152.6c-1.2,0.1-3.7-1.2-4.3,0.3C302.4,152.4,304.3,153.6,305.3,152.6z"/>
		<path fill="#53A2F2" d="M204.4,156.9c1.2,0,2.5-0.4,3.7-0.5c7.5-0.3,13.9,0.4,20.3-0.1c0.2,0.4,0.1,1.2,0.6,1.1c0,0,0,0,0-0.1
			v-2.6c-11.9,0.3-24.7,0.1-37.1,0.5v1.3c2.2,0,4.3-0.1,5.8-0.3C199.8,156,202.1,157,204.4,156.9z"/>
		<path fill="#53A2F2" d="M195.1,159.2c-0.8,0.1-1.9,0.1-3.1,0.1v1.8c11.8,0.1,24.8-0.7,37.1-0.9v-1.9
			C217.4,158.3,205.8,158.3,195.1,159.2z"/>
		<path fill="#53A2F2" d="M227.3,152.6c0.6,0,1.2,0,1.8,0.1v-0.3C228.5,152.4,227.9,152.5,227.3,152.6z"/>
		<path fill="#53A2F2" d="M287.2,152.7c0.1-1-1.3-0.7-1.4-0.2C286.2,153.1,286.6,152.8,287.2,152.7z"/>
		<path fill="#53A2F2" d="M304.1,161.7c1.2,0,2.4,0,3.6-0.1v-6.9c-7.8-0.1-19-0.4-21.2-0.6c-5.2,0.4-10.5,0.3-15.9,0.2v3.9
			c0.2,0.1,0.4,0.3,0.5,0.5c-0.2,0-0.3,0-0.5,0v2.7c0.8,0.1,0.4-1.2,1.3-1c0.5,0.3,0,0.7,0.6,1.1c0.8,0.3,0.2-1.1,0.9-0.9
			c1.6,1.8,5.6,0.4,7.9,1.3c-0.2,0.7-1.4,0.2-1.6,1c1,1.3,2.9,0,4.3,0.8c-1.6,0.6-3.6,0.1-5,0.2c-0.5-0.5,0.2-0.5,0.3-0.9
			c-1.1-0.6-1.9-0.1-3.2-0.3c0,1.8,1.9-0.3,2.2,1.3c-2.3-0.2-5,0.2-7.3-0.4c1.2-0.7,3.7,0,4.6-0.4c-1.5-0.7-3.2-0.9-5-0.9v23
			c0,7.3-1.6,13.6-4.8,18.7c-3.2,5.2-8.6,7.7-16.1,7.7c-7.6,0-12.9-2.5-16-7.4c-3.1-4.9-4.6-10.5-4.6-16.7v-22.4
			c-1,0-1.9-0.1-2.8-0.1c-0.3-0.9,0.8-0.1,0.7-0.7c-3.1-0.4-7.4-0.2-10.4-0.1c-0.8,0.4,0.5,0.8-0.3,1.1c-3.4,0-6,0.5-9.8-0.1
			c-0.7,0.3-0.2-1.2-0.8-1.1c-1.7,0.5-3.8,0-5.5,0.1c-0.2,1.3,1.4,0,1.3,1c-1.3,0-2.9,0.2-3.5-0.9c0,1-2,1.5-3,0.9
			c-0.2-0.8,0.8-0.3,1.2-0.5c-0.7-0.9-1.7,0.2-2.7-0.3c0.1,0.6,0.7,0.3,0.9,0.6c-0.8,0.8-1.7,0.1-1.8-0.5c-0.7,0.1,0.2,0.7-0.3,0.9
			c-0.1,0-0.2,0-0.4,0.1v21.2c0,19.2,4.6,34,13.9,44.1c9.2,10.2,23.9,15.3,44,15.3c20.1,0,34.8-5.3,44-16
			c9.2-10.6,13.9-26.4,13.9-47.2v-18.6c-0.4,0.3-1.5,0-1.8-0.1c0.5-0.3,1-0.1,1.8-0.2v-1.4C306.4,162.8,305.1,162.7,304.1,161.7z
			 M220.9,165.9c-0.6,0.1-0.9-0.2-1.3-0.4C219.8,165.1,221.1,165.1,220.9,165.9z M287.2,164.3c0.3-1.1,1.6,0.1,2.5-0.3
			C289,164.6,288.1,163.8,287.2,164.3z M300.3,164.3c0.3-0.7,0.8-0.3,1.4-0.3C301.5,164.6,300.6,164.7,300.3,164.3z M296.3,163.3
			c0,1.1,2-0.4,1.8,1c-1,0.2-1.5-0.2-2.3-0.2c-0.3-0.4,0.2-0.6-0.2-1.1c-1.1-0.4-2.2-0.2-3-0.4c3.6-0.6,7.6,0.1,10.2-0.9
			C302.2,164.3,298.4,162.8,296.3,163.3z"/>
		<path fill="#53A2F2" d="M214.6,164.4c-2.1,0-4.4-0.5-5.9,0.4C210.9,164.7,213,165.7,214.6,164.4z"/>
		<path fill="#53A2F2" d="M226.8,152.7c-0.1-1-2-0.3-3.2-0.3C224,153.7,226.2,152.5,226.8,152.7z"/>
		<path fill="#53A2F2" d="M194.4,88.1c11.1,0.3,23.2,0.6,34.6,0.6V5.5H192v82.5C192.8,88,193.7,88,194.4,88.1z"/>
		<path fill="#53A2F2" d="M279.4,87.9c9.2,0.6,18.7,0.7,28.3,0.7V5.5h-37.1v82.2C273.6,87.7,276.5,87.7,279.4,87.9z"/>
		<path fill="#F23D3D" d="M327.2,166.2c0.4,0.3,1,0.7,1.2,0C328.3,165.8,327.3,165.4,327.2,166.2z"/>
		<path fill="#F23D3D" d="M307.9,164.1c-0.1,0-0.1,0-0.2,0v0.4C307.9,164.4,307.9,164.3,307.9,164.1z"/>
		<path fill="#F23D3D" d="M47.9,89.8c-5,0.2-9.8,0.6-14.5,0.7c-7.5,0.1-15.7-1.2-17.5,5.4c1.3,1.7,0.7,4.6,0.8,6.5
			c-1.5,2.8-3.6,8.7-2.1,10.9c0.2,0.9-0.1,1.4,0,2.1c0,1.8-2.3,4.9-0.8,6.3c0.8,5.5-3.4,14.7-3.2,21.2c0.9,1.2-1.3,2.7-0.8,4.8
			c0.5,0.7-0.8,1.3-0.4,2.1c0.6,2-1.5,4.7-0.7,6.5c0.3,0.8-0.9,1.1-0.5,1.7c0.4,0.7-0.7,2.1,0.2,2.2c-0.2,0.3,0,0.9,0,1.5
			c0.5,1-0.2,0.8,0.1,2c-0.3,0.5-0.7,0.1-1.9,1.6c1.5,3.4-2.2,4.3-0.1,4.5c5,0.5,35.1-2.2,39.1-0.4c0.9-0.7,2.1-0.9,3.4-0.9V89.8
			C48.7,89.8,48.3,89.7,47.9,89.8z"/>
		<path fill="#F23D3D" d="M373.7,88.9V110h15.1c9.6,0,16.7-2.8,21.3-8.4c2.6-3.1,4.4-7.3,5.5-12.5c-0.1,0-0.2,0-0.3,0
			C401.6,87.3,387.8,88.7,373.7,88.9z"/>
		<path fill="#F23D3D" d="M309,164.6c1.5,0.3,3.4,0.1,5.2,0.1C313.5,163.6,310.4,164.5,309,164.6z"/>
		<path fill="#F23D3D" d="M374.3,160.4c0.6-0.4,1.2-0.6,1.8-0.6c4.5-0.4,9.6,0,14.8,0.2l-0.8-2.2c-1.9-0.1-3.8,0.4-5.8,0.5
			c-3.5,0.2-7.1-0.9-10.7-0.6v2.5C373.9,160.2,374.1,160.3,374.3,160.4z"/>
		<path fill="#F23D3D" d="M379.7,156.3c3.2-0.8,6.6-0.2,9.8-0.2l-4-10.7c-6.5,0-11.9,0-11.9,0v10.5
			C375.8,155.7,378.2,155.8,379.7,156.3z"/>
		<path fill="#F23D3D" d="M334.1,158.3c-4,1-8.6-1.1-12,1c4.5,0.4,9.4,0.5,14.5,0.5v-1C335.7,158.9,334.9,158.9,334.1,158.3z"/>
		<path fill="#F23D3D" d="M313.8,154.8c7.2,0.6,14.9,0.6,22.8,0.5V88.7c-6.3-0.1-12.6-0.2-18.8-0.2c-3.3,0-6.7,0.1-10,0.1v66.2
			C310.3,154.8,312.5,154.8,313.8,154.8z"/>
		<path fill="#F23D3D" d="M373.7,161.3v6.3c4.2,0.2,8.6,0.9,12.2,0.4c1.6-0.2,3.2-1.3,4.3,0c1-0.8,2.3-0.6,3.6-0.4l-2.3-6.2
			C385.7,161.4,379.7,161.3,373.7,161.3z"/>
		<path fill="#F23D3D" d="M165.3,159.4c1.6,0.1,3.3,1.2,4.9,1.2c1.6-0.1,3.1-0.9,4.7-1.3c2.7,1.5,6.5-1.5,9,0.7
			c1.2-1.2,2.3-0.7,3.7-0.7c1.2,0,2.8,0,4.2,0v-2.7c-1.4,0-2.8,0-4.1-0.1c-2.4-0.1-5,1.3-6.8-0.2c0.4-1.3,1.8-0.6,2.6-0.6
			c2.7-0.2,5.5-0.3,8.2-0.4V88.1c-1.2,0-2.4,0.1-3.4,0.2c-6.3,0.9-12.9,0.5-18.5,0.9c-0.7-0.2-0.5,0.7-1.2,0.6
			c-1.2-0.2-2.6-0.4-4-0.6v70.3C165,159.4,165.2,159.4,165.3,159.4z M166.2,157.1c-0.4,0.1-0.7,0-0.9-0.1
			C165.4,156.5,166.4,156,166.2,157.1z"/>
		<path fill="#F23D3D" d="M248.1,151.8c0.8,0,2.2-1.1,2.7,0.5c-7,0.8-14,0.6-21.7,0.4v2.2c2.4-0.1,4.8-0.1,7.1-0.2
			c0.9,0.7,1.8,0.5,2.4,1.2c-0.5,1.3-2.8,1.1-3.4,0c-1.3,1.1-5.3,0.2-6.1,1.6v0.8c12.5,0,25,0.1,36.3-0.5c-3.1-0.7-6.4,0.3-9.2-1
			c-0.4-0.7-0.8-1.4-1.8-1.3c-0.8,0.9,1,0.8,0.4,1.3c-2.4-0.7-4.3-2.7-6.8-0.6c-0.2-2.1-2.2-0.4-2.8-1.4c8.4-1,17-0.7,25.4-0.5V87.7
			c-6.1,0.1-12.2,0.5-18,0.5c-3.6,0-7.4-0.8-10.8-0.2c-0.9,0.2-1.5,0.8-2.3,0.8c-1.5,0.1-3.1-0.6-4.6-0.7c-1.5-0.1-2.9,0.5-4.4,0.5
			c-0.4,0-0.9,0-1.4,0v63.7C235.3,151.4,242,152.1,248.1,151.8z M240.3,156.7c-0.6,0-0.5-0.6-0.4-1.1
			C240.2,155.7,240.6,156.2,240.3,156.7z M242.6,157c-0.2-0.7-0.6-1.1-0.5-2.2c0.3-0.4,1.6-0.4,2-0.1c0.2,0.5,0,1,0.3,1.8
			C244,156.9,243.4,157.1,242.6,157z"/>
		<path fill="#F23D3D" d="M188,161c-6.9-0.2-13.8-0.3-21.1,0.1c-0.7,0-1.4,0.1-2.1,0.1v5.1c1.5,0.1,2.7,0.4,3.7,1.2
			c-0.1-0.7,0-1.4,0.8-1.6c2.6,0.1,5.4,0.8,7.7,0.7c0.3,0,0.7-0.4,1-0.3c0.5,0.2,0.8,0.9,1.3,1c0.8,0.1,1.4-0.3,2.1-0.2
			c0.4-0.2,0-1.1,0.6-0.9c3.2-0.2,6.6,0.3,9.8-0.4v-4.7C190.6,161,189.3,161,188,161z"/>
		<path fill="#F23D3D" d="M267.5,158.4c0.9,0.2,1.9,0.4,3.1,0.3v-0.5C269.8,157.7,268.3,158.1,267.5,158.4z"/>
		<path fill="#F23D3D" d="M124.4,89.2c-3.6-1-8.6,0.1-12.1-0.5c-8.2,1.3-17.5-0.8-26.2,0.3v78.7c10,0.1,20,0.1,29.3-0.3
			c2.6,1.2,6.2-0.2,9.5,0c0.9,0.1,1.9,0.1,2.7,0.2V88.8c-0.8,0-1.5-0.1-2.2-0.2C125,88.6,125,89.2,124.4,89.2z M112.3,160.5
			c0.1-0.9,1.3-0.6,1.3,0.3C112.9,161,112.7,160.7,112.3,160.5z M114.3,160.6c0.5-1,2.5-0.5,3.2-0.3
			C117.1,161.5,115.4,160.8,114.3,160.6z M121.5,160.7c-0.7,0.7-1.5-0.2-2.2-0.2C119.4,159.6,122.1,159.7,121.5,160.7z M127.1,159.7
			c0,0.2,0,0.4,0.1,0.7c-0.2,0.2-0.5,0.3-0.9,0.3C126.1,159.9,126.5,159.7,127.1,159.7z"/>
		<path fill="#F23D3D" d="M307.7,161.7v1c1.2-0.1,2.4-0.3,3.6-0.2c2.1,0,4.3,0.2,6.1,1c-0.1,0.9-1.2,0.4-1.6,0.9
			c6.5,0.8,14.3,0.2,20.8,0.5v-3.6C326.6,161.4,316.9,161.5,307.7,161.7z"/>
		<path fill="#F23D3D" d="M494.4,94.2c-0.7-0.3-0.9-2.3-1.6-2.5c-2.6-0.3-5.2-1.3-8-1.1c-0.5,0-1,0.3-1.5,0.3
			c-3.8-0.1-6.9-0.5-10.7-0.6c-0.6,0-1.1,0.3-1.7,0.3c-1.8,0.1-5.1-0.1-7.3-0.3c-1.8-0.2-3.6-0.4-5.3-0.6c-1.9-0.2-3.9-0.1-5.7-0.1
			c-1,8.7-2.8,16.5-5.6,23.3c-4.2,10.4-15,20.6-22.5,24.6c-1.4,0.7-2.9,1.5-4.6,2.2l6.3,16.4c2.3,0.1,4.6,0.2,6.8,0.5
			c6.9,0.7,14.8,1.6,23.1,1.9c0.5,0.2-0.1-1,0.4-0.8c1.9,2.2,5.5,0.5,8.4,1.6c0.5-0.4-0.3-1.1,0.4-1.3c2.3-0.1,5.1,0.6,6.8-0.1
			c-0.8-2.2-4.9-0.4-6-2.6c2.1-0.2,3.7-0.8,5.3-1.7c-1.9-0.6-4-1.1-6.1-1.6c3.4-0.5,9.1,0.2,13,0.2c0.6-0.5-0.9-1,0.1-1.3
			c1.7-0.6,3.7,0.6,5.1-0.4c-0.7-2-3.2-1.8-4.6-2.6c2.6-0.3,5.8,0.2,6.4-2.6c0.3-1.3-0.8-1-0.6-2.2c2-1.3,3.4-11.6,4.9-13.7
			c0-0.7-0.4-1-0.3-1.7c1.1-1.5,1.7-3.7,1.8-6.4c2.3-1.5,1.3-5.4,2.1-9.1c0.1-0.4,0.5-0.8,0.6-1.2
			C494.8,107.1,494.6,96.8,494.4,94.2z M464.3,155.4c-0.3,0-0.6,0-0.9,0C463.1,154.7,464.6,154.7,464.3,155.4z"/>
		<path fill="#F23D3D" d="M263.2,161.5c-0.8-0.2-1.4-1.1-2.2-1.3c-1.3-0.3-2.7,0.2-4.1,0.2c-9.1-0.3-18.3-0.4-26.8-0.3
			c-0.3,0-0.7,0-1,0v5.1c3.9,0.1,8,0.1,11.6-0.2c0.4-0.1-0.7-0.9,0.1-1.1c1.2-0.3,2.2-0.2,3.2,0.3c-0.2,0.4-1.1,0.1-1,0.7
			c3.5,0.4,8.1,0.4,11.4-0.3c-1.7-0.2-3.8,0.5-5-0.7c2-0.6,4.6,0.1,6-0.7c-0.6-0.9-2.7,0.2-3.3-0.8c1.5-0.1,4.8-0.7,5.9,0.4
			c-1,0.1-1.9-0.5-2.3,0.6c1.9,0.3,3.1,0.2,5.2,0c0.5-0.5-0.7-0.8,0.1-1.1c1.9,0.4,5.3-0.6,5.6,1.3c0.5-0.2,1.5,0.2,1.8-0.3
			c-0.3-0.4-1.2,0.1-1.1-0.9c1.1-0.2,2.2-0.3,3.3-0.3v-0.7c0,0-0.1,0-0.1,0C268.2,161.1,265.7,162,263.2,161.5z M229.4,164.4
			c0.5-0.7,1.7-0.6,2.3-0.1C231.3,164.8,229.8,164.7,229.4,164.4z M235.8,164.1c0.6-0.5,2-0.4,2.7-0.1
			C238,164.6,236.1,165.2,235.8,164.1z M238.9,164.2c0.2-0.4,0.9-0.8,0.9,0.2C239.3,164.4,239.1,164.4,238.9,164.2z M248.5,164.2
			c-0.8,0.6-1.9-0.2-3,0.1c0.6-1,2.2-0.7,3-0.8C248.7,163.8,248.5,163.8,248.5,164.2z M241.3,162.2c3.7,0,6.7-0.4,9.5,0.2
			C247.8,162.4,243.7,163.8,241.3,162.2z"/>
		<path fill="#F23D3D" d="M262.9,163.6c0.8,0.1,1.8,0.3,2.7-0.3C264.9,163.3,263.5,162.8,262.9,163.6z"/>
		<path fill="#F23D3D" d="M452.9,162.2c-2.7,0.2-6.6-0.7-9.5,0.1c-1.1-1-2.4-0.6-3.7-0.6c-0.7,0-1.9,0.3-2.5,0.1
			c-0.7-0.1-1.3-0.8-1.9-0.9c-2-0.3-4.7-0.3-7.2-0.1l0.6,1.6c1.2,0.1,2.4,0.2,3.5,0.4c0.5,0.1,0.9,0.6,1.4,0.7
			c3.5,0.4,8.7-1.2,10.1,1.8c-3.4-0.6-7.1,0.1-10.3-1.2c-1,0.8-1.9,0.2-2.9,0.1c-0.4,0-0.8-0.1-1.2-0.1l2.7,7.2
			c2.3,0.4,4.6,0.7,6.6,0.7c7.7,0.1,16.6,3,23-0.3c-0.5-0.6-2.4,0.3-2.3-0.9c1.3-1.3,4.7,0.4,6.1-0.6c-1-0.8-3.7,0.1-4.4-1.5
			c1.6,0,2.8-1.1,4.1-0.9c-1.6-1.7-5.8-0.5-7.6-2c0.8-1.7,3-0.4,4.5-0.9c-0.6-2.6-4.5-1.7-6.5-2.8c0.6-1.5,1.4-0.2,2.5-0.1
			c1.4-0.9,3.9-0.3,5.8-0.6c-0.8-1.8-3.1-1.3-4.6-1.5c-2-0.3-4.9-0.8-7-0.9c-8.4-0.5-17-1-25.6-1.7l1,2.7
			C436.2,161,445.5,159.5,452.9,162.2z"/>
		<g>
			<path fill="#9B267A" d="M373.7,160.2v-2.5c-0.3,0-0.6,0-0.9,0.1c-3.3,0.5-6.9,0.9-10,0.4c-1.5,0.7-4.5,0.5-6.3,0.2
				c-2.5-0.4-5.4,0.5-7.2-0.6c-2.1,1.4-5.7,0.4-9.3,0.5c-1.2,0-2.4,0.4-3.4,0.6v1c8.3,0,17-0.3,24.9-0.4
				C365.3,160.3,370.4,159.4,373.7,160.2z"/>
			<path fill="#9B267A" d="M336.6,161.3v3.6c0.3,0,0.7,0,1,0c0.5,0.6-0.8,0.9-0.2,1.6c0.8,0.2,1.3-0.3,2.5,0
				c0.3-1.4-1.4-0.3-1.3-1.6c7.2-0.4,14.3-0.1,21.9-0.1c0,0.6-0.2,1.4,0.5,1.1c0.8,0-0.3-1.4,0.9-1.1c0.5,0.5,0.5,1.6,1.6,1.3
				c0.7-0.2-0.7-0.9,0-1.1c1,0.2,2.5-0.8,3,0.2c-0.1,0.5-0.8,0.1-0.7,0.9c0.6,0.3,1.4,0.3,2.1,0.4c0.1,0.7-0.3,0.7,0,1.1
				c1.8-0.2,3.7-0.2,5.6-0.1v-6.3C361.4,161.2,348.8,161.2,336.6,161.3z"/>
			<path fill="#9B267A" d="M424.5,137.5c7.5-4,18.3-14.1,22.5-24.6c2.8-6.8,4.6-14.5,5.6-23.3c-1.4,0-2.7,0.1-3.9-0.2
				c-1.3-0.2-2.6-0.4-4-0.5c-9-0.6-18.5,0.2-27.9-0.1c-0.5,0-0.8,0.1-1.2,0.2c-1.1,5.2-3,9.4-5.5,12.5c-4.6,5.6-11.7,8.4-21.3,8.4
				h-15.1V88.9c-2,0-4,0-6,0c-2.1,0-4.1,0.3-6.2,0.3c-8.2-0.1-16.5-0.3-24.8-0.5v66.6c11.4-0.1,23.2-0.4,34.4,0.9
				c0.7-0.2,1.7-0.4,2.7-0.4v-10.5c0,0,5.4,0,11.9,0l4,10.7c0.5,0,1,0,1.5-0.1c2.8-0.2,5.9,0,8.4,1c0.8-0.7,1.9,0.1,3.1-0.4
				c0.7,0,0.8,0.6,1.2,0.9c7.2-0.5,15,1.2,22.7,2.3c0.4,0.1,0.8,0.1,1.2,0.2l-1-2.7c-11.3-0.9-22.5-2-32.7-3.4
				c5.8-1.2,11.4,1.6,17.2,0.3c-0.5-0.5-1.6-0.2-1.8-0.9c1.9-0.3,3.7-0.1,4.8,1c-0.8-0.3-2.2-0.4-2.7,0.4c5,1.1,9.9,1.2,14.7,1.4
				l-6.3-16.4C421.6,138.9,423.1,138.2,424.5,137.5z M391.8,153.8c0.1-0.3,1.6-0.5,1.4,0.2C392.6,154.1,392.2,154,391.8,153.8z
				 M403.2,152.9c0.4-1,2.2-0.2,2.7,0.1C405.7,153.7,403.5,153.5,403.2,152.9z M423.5,154.7c-0.4,0.4-1.2,0.5-1.8,0.2
				C421.8,154.1,423.1,154.6,423.5,154.7z"/>
			<path fill="#9B267A" d="M421.2,160.1c-0.9,1.7-2.7,0.8-4.5,1.2c3.6,0.9,7.8,0.8,11.9,1.1l-0.6-1.6c-1.6,0.1-3.1,0.2-4.3,0.2
				C422.8,160.8,422.4,160.1,421.2,160.1z"/>
			<path fill="#9B267A" d="M400.5,160.2c0.8,0.2,0.6-0.7,1.3-0.6c4,1.9,10,2.3,13.9,1.6c-2.5-0.9-5.3-1.7-8.4-2.1
				c-2.7-0.4-5.4,0.5-7.7-0.4c-0.6-0.2-0.1,1-0.9,0.6c-2.4-0.2-3.5-1.3-5.7-0.7c-0.9-0.5-1.9-0.8-2.8-0.8l0.8,2.2
				C394.1,160.1,397.3,160.3,400.5,160.2z"/>
			<path fill="#9B267A" d="M394.4,161.6c-0.9,0-1.9,0-2.8,0l2.3,6.2c0.6,0.1,1.3,0.2,1.9,0.3c1.5,0.1,3.1-0.2,4.5,0.3
				c1.5,0.5,1.9,0.3,3.4,0.1c1.6-0.3,3.2,0.1,4.8-0.4c0.5,0.2,0.3,1.3,1,1.3c1,0.3,1.2-0.4,2-0.4c2.8,0.6,7.4,1.2,10,0.6
				c1.1,1.1,2.4,0.6,3.7,0.7c2.2,0.3,4.6,0.7,6.9,1.1l-2.7-7.2C418.7,163.5,406.5,161.8,394.4,161.6z M404.8,166.6
				c0.3-1,1.1,0,1.8-0.2C406.6,167.1,405.2,166.9,404.8,166.6z"/>
			<path fill="#9B267A" d="M53.1,168.4c0.5-0.1,0,1.2,0.6,0.8c1.2,0.1,0.6-1.3,1.6-1.3c9.6-0.5,20.2-0.4,30.8-0.4V88.9
				c-0.2,0-0.3,0-0.5,0.1c-5.4-0.3-12.2-0.8-17.5,0.5c-4.6-0.8-9.2,0.2-13.7,0.5c-1.8,0.1-3.6-0.2-5.4-0.3v78.7
				C50.4,168.4,51.8,168.6,53.1,168.4z"/>
			<path fill="#9B267A" d="M154.7,160.7c-1.1,0.3-3.9,1.1-4.7,0c0.9-0.9,2-0.3,3-0.3c1.3,0,2.4-0.6,3.7-0.8c2-0.3,4.3,0.4,5.6,0.4
				c0.8,0,1.7-0.5,2.5-0.7V89.2c-3.2-0.5-6.7-0.8-9.7-0.8c-2.6,0-5.4,0.9-7.9,0.8c-0.7,0-1.5-0.6-2.3-0.7
				c-5.6-0.5-11.6,0.6-17.3,0.3v78.6c2.4,0.2,4.6,0.3,6.7-0.2c0.4,0.2,0.7,0.6,1.3,0.5c2.6-1.1,7.5,0.2,9-1.3c1-1,2.9-0.1,3.5,0.8
				c1.8,0.3,4.2-1.4,6.1-0.1c1.8-0.7,4.1-1,6.5-1c1.5,0,2.8,0,3.9,0v-5.1C161.2,161.4,157.1,161.7,154.7,160.7z M131.3,160
				c0,0.2,0,0.4,0.1,0.7C130,161.8,129.8,159.1,131.3,160z M132.4,160.5c0.3-0.7,2.1-0.9,2.2,0.2C133.7,160.9,132.9,161,132.4,160.5
				z M139.4,160.8c0.8-1,2.5,0.1,3.1-1.2c1.8,1.2,5.3-0.1,6.9,1.4C146.1,160.9,142.5,161.3,139.4,160.8z"/>
			<path fill="#9B267A" d="M300.3,164.3c0.3,0.4,1.3,0.2,1.4-0.3C301.1,164,300.5,163.6,300.3,164.3z"/>
			<path fill="#9B267A" d="M229.1,158.3v-0.8c0,0,0,0,0,0.1c-0.5,0.1-0.4-0.7-0.6-1.1c-6.3,0.5-12.8-0.2-20.3,0.1
				c-1.2,0.1-2.6,0.4-3.7,0.5c-2.3,0-4.6-1-6.7-0.7c-1.5,0.2-3.6,0.3-5.8,0.3v2.7c1.2,0,2.3,0,3.1-0.1
				C205.8,158.3,217.4,158.3,229.1,158.3z"/>
			<path fill="#9B267A" d="M304.1,161.7c1,0.9,2.3,1.1,3.6,1v-1C306.5,161.7,305.3,161.7,304.1,161.7z"/>
			<path fill="#9B267A" d="M295.6,163.1c0.4,0.4-0.1,0.7,0.2,1.1c0.9-0.1,1.4,0.3,2.3,0.2c0.2-1.4-1.8,0.1-1.8-1
				c2.1-0.5,5.9,1,6.4-1.5c-2.5,1-6.6,0.3-10.2,0.9C293.4,163,294.5,162.8,295.6,163.1z"/>
			<path fill="#9B267A" d="M287.2,164.3c0.9-0.5,1.7,0.3,2.5-0.3C288.8,164.3,287.6,163.1,287.2,164.3z"/>
			<path fill="#9B267A" d="M229.1,154.9v-2.2c-0.6,0-1.2,0-1.8-0.1c0.6-0.1,1.2-0.2,1.8-0.3V88.7c-11.4,0-23.5-0.2-34.6-0.6
				c-0.8,0-1.6,0-2.5,0v67.3C204.3,154.9,217.2,155.1,229.1,154.9z M226.8,152.7c-0.6-0.1-2.7,1-3.2-0.3
				C224.8,152.3,226.7,151.7,226.8,152.7z"/>
			<path fill="#9B267A" d="M286.5,154.1c2.1,0.2,13.4,0.5,21.2,0.6V88.6c-9.6,0-19.1-0.1-28.3-0.7c-2.9-0.2-5.8-0.2-8.8-0.1v66.6
				C276,154.4,281.4,154.5,286.5,154.1z M305.3,152.6c-1.1,1-2.9-0.3-4.3,0.3C301.6,151.5,304.1,152.8,305.3,152.6z M287.2,152.7
				c-0.7,0.1-1,0.4-1.4-0.2C285.9,152,287.3,151.7,287.2,152.7z"/>
			<path fill="#9B267A" d="M275.6,163c-0.9,0.4-3.5-0.3-4.6,0.4c2.3,0.6,5.1,0.2,7.3,0.4c-0.3-1.6-2.2,0.5-2.2-1.3
				c1.3,0.2,2.1-0.3,3.2,0.3c-0.1,0.4-0.8,0.4-0.3,0.9c1.4-0.1,3.4,0.5,5-0.2c-1.4-0.8-3.3,0.5-4.3-0.8c0.2-0.7,1.4-0.2,1.6-1
				c-2.3-0.9-6.3,0.5-7.9-1.3c-0.7-0.1-0.1,1.2-0.9,0.9c-0.5-0.4,0-0.8-0.6-1.1c-0.9-0.3-0.5,1.1-1.3,1v0.7
				C272.4,162.1,274.1,162.4,275.6,163z"/>
			<path fill="#9B267A" d="M271.1,158.7c-0.1-0.2-0.3-0.4-0.5-0.5v0.5C270.8,158.7,271,158.7,271.1,158.7z"/>
			<path fill="#9B267A" d="M219.6,165.5c0.4,0.1,0.7,0.4,1.3,0.4C221.1,165.1,219.8,165.1,219.6,165.5z"/>
			<path fill="#9B267A" d="M307.7,164.5v-0.4c-0.8,0.1-1.3,0-1.8,0.2C306.2,164.6,307.3,164.8,307.7,164.5z"/>
			<path fill="#9B267A" d="M192.6,164.7c0.1,0.6,1,1.3,1.8,0.5c-0.2-0.3-0.9,0-0.9-0.6c1,0.4,2-0.7,2.7,0.3
				c-0.4,0.2-1.4-0.3-1.2,0.5c1,0.6,2.9,0.1,3-0.9c0.6,1.1,2.1,0.9,3.5,0.9c0-1-1.5,0.2-1.3-1c1.7-0.2,3.9,0.4,5.5-0.1
				c0.6-0.2,0.1,1.3,0.8,1.1c3.8,0.6,6.5,0.1,9.8,0.1c0.8-0.4-0.5-0.8,0.3-1.1c3-0.1,7.3-0.4,10.4,0.1c0.1,0.6-1-0.2-0.7,0.7
				c0.9,0.1,1.9,0.1,2.8,0.1v-5.1c-12.3,0.2-25.3,1-37.1,0.9v4.7c0.1,0,0.2,0,0.4-0.1C192.8,165.4,191.9,164.8,192.6,164.7z
				 M214.6,164.4c-1.6,1.3-3.7,0.3-5.9,0.4C210.2,163.9,212.5,164.5,214.6,164.4z"/>
		</g>
	</g>
	<g>
		<path fill="#FFFFFF" d="M51.8,133.4v9.9c0,0.8-0.7,1.5-1.5,1.5h-6.8c-0.8,0-1.5-0.7-1.5-1.5V107c0-0.8,0.7-1.5,1.5-1.5h15.7
			c9.7,0,16.2,5.3,16.2,13.8c0,5.5-2.8,9.8-7.5,12.2l8.3,10.9c0.7,1,0,2.3-1.2,2.3H67c-0.5,0-0.9-0.2-1.2-0.6l-8-10.8H51.8z
			 M59,124.7c3.8,0,6.8-2.1,6.8-5.3c0-3.2-3-5.2-6.8-5.2h-7.2v10.5H59z"/>
		<path fill="#FFFFFF" d="M95.8,121.2h15.9c0.8,0,1.5,0.7,1.5,1.5v5.4c0,0.8-0.7,1.5-1.5,1.5H95.8v6.8h18.5c0.8,0,1.5,0.7,1.5,1.5
			v5.6c0,0.8-0.7,1.5-1.5,1.5H87.5c-0.8,0-1.5-0.7-1.5-1.5V107c0-0.8,0.7-1.5,1.5-1.5h26.8c0.8,0,1.5,0.7,1.5,1.5v5.6
			c0,0.8-0.7,1.5-1.5,1.5H95.8V121.2z"/>
		<path fill="#FFFFFF" d="M147.8,145.1h-7.9c-0.6,0-1.1-0.3-1.3-0.9l-15.8-36.6c-0.4-1,0.3-2,1.3-2h7.6c0.6,0,1.1,0.4,1.3,0.9
			l10.8,25.7l10.8-25.7c0.2-0.5,0.8-0.9,1.3-0.9h7.6c1,0,1.8,1.1,1.3,2l-15.8,36.6C148.9,144.7,148.4,145.1,147.8,145.1z"/>
		<path fill="#FFFFFF" d="M211.5,125.2c0,11.4-9,20.4-20.8,20.4c-11.8,0-20.8-9-20.8-20.4s9-20.4,20.8-20.4
			C202.6,104.8,211.5,113.8,211.5,125.2z M201.6,125.2c0-6.2-4.6-11.4-10.9-11.4s-10.9,5.2-10.9,11.4c0,6.2,4.6,11.4,10.9,11.4
			S201.6,131.4,201.6,125.2z"/>
		<path fill="#FFFFFF" d="M249.5,144.8h-26.2c-0.8,0-1.5-0.7-1.5-1.5V107c0-0.8,0.7-1.5,1.5-1.5h6.8c0.8,0,1.5,0.7,1.5,1.5v29.2
			h17.9c0.8,0,1.5,0.7,1.5,1.5v5.7C251,144.2,250.3,144.8,249.5,144.8z"/>
		<path fill="#FFFFFF" d="M294.7,126.5c0,12.2-7,19.2-18.3,19.2c-11.2,0-18.2-7-18.2-19.2V107c0-0.8,0.7-1.5,1.5-1.5h6.9
			c0.8,0,1.5,0.7,1.5,1.5v19.7c0,6,3.3,9.9,8.4,9.9c5.1,0,8.5-3.9,8.5-9.9V107c0-0.8,0.7-1.5,1.5-1.5h6.9c0.8,0,1.5,0.7,1.5,1.5
			V126.5z"/>
		<path fill="#FFFFFF" d="M325,114.3v29.1c0,0.8-0.7,1.5-1.5,1.5h-6.8c-0.8,0-1.5-0.7-1.5-1.5v-29.1h-11.1c-0.8,0-1.5-0.7-1.5-1.5
			V107c0-0.8,0.7-1.5,1.5-1.5H336c0.8,0,1.5,0.7,1.5,1.5v5.8c0,0.8-0.7,1.5-1.5,1.5H325z"/>
		<path fill="#FFFFFF" d="M354.4,144.8h-6.8c-0.8,0-1.5-0.7-1.5-1.5V107c0-0.8,0.7-1.5,1.5-1.5h6.8c0.8,0,1.5,0.7,1.5,1.5v36.3
			C355.9,144.2,355.3,144.8,354.4,144.8z"/>
		<path fill="#FFFFFF" d="M407.8,125.2c0,11.4-9,20.4-20.8,20.4c-11.8,0-20.8-9-20.8-20.4s9-20.4,20.8-20.4
			C398.9,104.8,407.8,113.8,407.8,125.2z M397.9,125.2c0-6.2-4.6-11.4-10.9-11.4c-6.4,0-10.9,5.2-10.9,11.4
			c0,6.2,4.6,11.4,10.9,11.4C393.3,136.6,397.9,131.4,397.9,125.2z"/>
		<path fill="#FFFFFF" d="M454.2,144.8h-5.4c-0.4,0-0.8-0.2-1.1-0.5l-18.4-21v20.1c0,0.8-0.7,1.5-1.5,1.5H421
			c-0.8,0-1.5-0.7-1.5-1.5V107c0-0.8,0.7-1.5,1.5-1.5h5.3c0.4,0,0.8,0.2,1.1,0.5l18.5,21.6V107c0-0.8,0.7-1.5,1.5-1.5h6.8
			c0.8,0,1.5,0.7,1.5,1.5v36.3C455.6,144.2,455,144.8,454.2,144.8z"/>
	</g>
</g>
</svg>
