<svg xmlns="http://www.w3.org/2000/svg" xmlns:xlink="http://www.w3.org/1999/xlink" viewBox="0 0 565.65 565.65"><defs><style>.cls-1{fill:none;}.cls-2{isolation:isolate;}.cls-3{clip-path:url(#clip-path);}.cls-4{fill:#fff;}.cls-5{fill:#797979;}.cls-10,.cls-5,.cls-6,.cls-7,.cls-8{mix-blend-mode:multiply;}.cls-6{fill:#9c9c9c;}.cls-7{fill:#d0d0d0;}.cls-15,.cls-9{fill:#218fff;}.cls-10{fill:#7a7a7a;}.cls-11{clip-path:url(#clip-path-2);}.cls-12{clip-path:url(#clip-path-3);}.cls-13{clip-path:url(#clip-path-4);}.cls-14{clip-path:url(#clip-path-5);}.cls-15{opacity:0.8;}</style><clipPath id="clip-path"><rect class="cls-1" width="565.65" height="565.65"/></clipPath><clipPath id="clip-path-2"><rect class="cls-1" y="-565.65" width="565.65" height="565.65"/></clipPath><clipPath id="clip-path-3"><rect class="cls-1" x="565.65" width="565.65" height="565.65"/></clipPath><clipPath id="clip-path-4"><rect class="cls-1" x="-565.65" width="565.65" height="565.65"/></clipPath><clipPath id="clip-path-5"><rect class="cls-1" y="565.65" width="565.65" height="565.65"/></clipPath></defs><title>or-plaid</title><g class="cls-2"><g id="Layer_1" data-name="Layer 1"><g class="cls-3"><rect class="cls-4" x="-270.71" y="-200.02" width="400" height="400" transform="translate(-20.7 -50.01) rotate(-45)"/><rect class="cls-5" x="-84.65" y="-236.08" width="100" height="400" transform="translate(15.36 -35.07) rotate(-45)"/><rect class="cls-6" x="-226.78" y="-306.08" width="100" height="400" transform="translate(-226.76 -306.1) rotate(-135)"/><rect class="cls-7" x="-85.36" y="-164.66" width="100" height="400" transform="translate(-85.34 35.32) rotate(-135)"/><g class="cls-8"><rect class="cls-9" x="-270.71" y="-200.02" width="400" height="400" transform="translate(-20.7 -50.01) rotate(-45)"/></g><rect class="cls-4" x="-270.71" y="365.67" width="400" height="400" transform="translate(-420.7 115.68) rotate(-45)"/><rect class="cls-10" x="-226.78" y="471.73" width="100" height="400" transform="translate(-526.76 71.75) rotate(-45)"/><rect class="cls-5" x="-84.65" y="329.6" width="100" height="400" transform="translate(-384.64 130.62) rotate(-45)"/><rect class="cls-6" x="-226.78" y="259.6" width="100" height="400" transform="translate(-626.76 659.59) rotate(-135)"/><rect class="cls-7" x="-85.36" y="401.02" width="100" height="400" transform="translate(-485.34 1001.01) rotate(-135)"/><g class="cls-8"><rect class="cls-9" x="-270.71" y="365.67" width="400" height="400" transform="translate(-420.7 115.68) rotate(-45)"/></g><rect class="cls-4" x="12.13" y="82.82" width="400" height="400" transform="translate(-137.86 232.84) rotate(-45)"/><rect class="cls-10" x="56.07" y="188.89" width="100" height="400" transform="translate(-243.92 188.9) rotate(-45)"/><rect class="cls-5" x="198.19" y="46.76" width="100" height="400" transform="translate(-101.79 247.77) rotate(-45)"/><rect class="cls-6" x="56.07" y="-23.24" width="100" height="400" transform="translate(56.08 376.75) rotate(-135)"/><rect class="cls-7" x="197.49" y="118.18" width="100" height="400" transform="translate(197.5 718.17) rotate(-135)"/><g class="cls-8"><rect class="cls-9" x="12.13" y="82.82" width="400" height="400" transform="translate(-137.86 232.84) rotate(-45)"/></g><rect class="cls-4" x="294.97" y="-200.02" width="400" height="400" transform="translate(144.99 349.99) rotate(-45)"/><rect class="cls-10" x="338.91" y="-93.95" width="100" height="400" transform="translate(38.92 306.06) rotate(-45)"/><rect class="cls-5" x="481.04" y="-236.08" width="100" height="400" transform="translate(181.05 364.93) rotate(-45)"/><rect class="cls-6" x="338.91" y="-306.08" width="100" height="400" transform="translate(738.92 93.9) rotate(-135)"/><rect class="cls-7" x="480.33" y="-164.66" width="100" height="400" transform="translate(880.34 435.32) rotate(-135)"/><g class="cls-8"><rect class="cls-9" x="294.97" y="-200.02" width="400" height="400" transform="translate(144.99 349.99) rotate(-45)"/></g><rect class="cls-4" x="294.97" y="365.67" width="400" height="400" transform="translate(-255.01 515.68) rotate(-45)"/><rect class="cls-10" x="338.91" y="471.73" width="100" height="400" transform="translate(-361.08 471.75) rotate(-45)"/><rect class="cls-5" x="481.04" y="329.6" width="100" height="400" transform="translate(-218.95 530.62) rotate(-45)"/><rect class="cls-6" x="338.91" y="259.6" width="100" height="400" transform="translate(338.92 1059.59) rotate(-135)"/><rect class="cls-7" x="480.33" y="401.02" width="100" height="400" transform="translate(480.34 1401.01) rotate(-135)"/><g class="cls-8"><rect class="cls-9" x="294.97" y="365.67" width="400" height="400" transform="translate(-255.01 515.68) rotate(-45)"/></g><rect class="cls-4" x="577.82" y="82.82" width="400" height="400" transform="translate(27.83 632.84) rotate(-45)"/><rect class="cls-10" x="621.75" y="188.89" width="100" height="400" transform="translate(-78.24 588.9) rotate(-45)"/><rect class="cls-6" x="621.75" y="-23.24" width="100" height="400" transform="translate(1021.76 776.75) rotate(-135)"/><g class="cls-8"><rect class="cls-9" x="577.82" y="82.82" width="400" height="400" transform="translate(27.83 632.84) rotate(-45)"/></g></g><g class="cls-11"><rect class="cls-4" x="-270.71" y="-199.98" width="400" height="400" transform="translate(-20.72 -49.99) rotate(-45)"/><rect class="cls-10" x="-226.78" y="-93.92" width="100" height="400" transform="translate(-126.79 -93.93) rotate(-45)"/><rect class="cls-5" x="-84.65" y="-236.04" width="100" height="400" transform="translate(15.34 -35.06) rotate(-45)"/><rect class="cls-6" x="-226.78" y="-306.05" width="100" height="400" transform="translate(-226.79 -306.03) rotate(-135)"/><rect class="cls-7" x="-85.36" y="-164.63" width="100" height="400" transform="translate(-85.37 35.39) rotate(-135)"/><g class="cls-8"><rect class="cls-9" x="-270.71" y="-199.98" width="400" height="400" transform="translate(-20.72 -49.99) rotate(-45)"/></g><rect class="cls-4" x="12.13" y="-482.82" width="400" height="400" transform="translate(262.12 67.16) rotate(-45)"/><rect class="cls-10" x="56.07" y="-376.76" width="100" height="400" transform="translate(156.05 23.23) rotate(-45)"/><g class="cls-8"><rect class="cls-9" x="12.13" y="-482.82" width="400" height="400" transform="translate(262.12 67.16) rotate(-45)"/></g><rect class="cls-4" x="-270.71" y="365.7" width="400" height="400" transform="translate(-420.72 115.69) rotate(-45)"/><rect class="cls-10" x="-226.78" y="471.77" width="100" height="400" transform="translate(-526.79 71.76) rotate(-45)"/><rect class="cls-5" x="-84.65" y="329.64" width="100" height="400" transform="translate(-384.66 130.63) rotate(-45)"/><rect class="cls-6" x="-226.78" y="259.64" width="100" height="400" transform="translate(-626.79 659.65) rotate(-135)"/><rect class="cls-7" x="-85.36" y="401.06" width="100" height="400" transform="translate(-485.37 1001.07) rotate(-135)"/><g class="cls-8"><rect class="cls-9" x="-270.71" y="365.7" width="400" height="400" transform="translate(-420.72 115.69) rotate(-45)"/></g><rect class="cls-4" x="12.13" y="82.86" width="400" height="400" transform="translate(-137.88 232.85) rotate(-45)"/><rect class="cls-10" x="56.07" y="188.93" width="100" height="400" transform="translate(-243.95 188.91) rotate(-45)"/><rect class="cls-5" x="198.19" y="46.8" width="100" height="400" transform="translate(-101.82 247.79) rotate(-45)"/><rect class="cls-6" x="56.07" y="-23.21" width="100" height="400" transform="translate(56.05 376.81) rotate(-135)"/><rect class="cls-7" x="197.49" y="118.22" width="100" height="400" transform="translate(197.47 718.23) rotate(-135)"/><g class="cls-8"><rect class="cls-9" x="12.13" y="82.86" width="400" height="400" transform="translate(-137.88 232.85) rotate(-45)"/></g><rect class="cls-4" x="294.97" y="-199.98" width="400" height="400" transform="translate(144.96 350.01) rotate(-45)"/><rect class="cls-10" x="338.91" y="-93.92" width="100" height="400" transform="translate(38.9 306.07) rotate(-45)"/><rect class="cls-5" x="481.04" y="-236.04" width="100" height="400" transform="translate(181.02 364.94) rotate(-45)"/><rect class="cls-6" x="338.91" y="-306.05" width="100" height="400" transform="translate(738.9 93.97) rotate(-135)"/><rect class="cls-7" x="480.33" y="-164.63" width="100" height="400" transform="translate(880.32 435.39) rotate(-135)"/><g class="cls-8"><rect class="cls-9" x="294.97" y="-199.98" width="400" height="400" transform="translate(144.96 350.01) rotate(-45)"/></g><rect class="cls-4" x="577.82" y="-482.82" width="400" height="400" transform="translate(427.8 467.16) rotate(-45)"/><rect class="cls-10" x="621.75" y="-376.76" width="100" height="400" transform="translate(321.74 423.23) rotate(-45)"/><g class="cls-8"><rect class="cls-9" x="577.82" y="-482.82" width="400" height="400" transform="translate(427.8 467.16) rotate(-45)"/></g><rect class="cls-4" x="294.97" y="365.7" width="400" height="400" transform="translate(-255.04 515.69) rotate(-45)"/><rect class="cls-10" x="338.91" y="471.77" width="100" height="400" transform="translate(-361.1 471.76) rotate(-45)"/><rect class="cls-5" x="481.04" y="329.64" width="100" height="400" transform="translate(-218.98 530.63) rotate(-45)"/><rect class="cls-6" x="338.91" y="259.64" width="100" height="400" transform="translate(338.9 1059.65) rotate(-135)"/><rect class="cls-7" x="480.33" y="401.06" width="100" height="400" transform="translate(480.32 1401.07) rotate(-135)"/><g class="cls-8"><rect class="cls-9" x="294.97" y="365.7" width="400" height="400" transform="translate(-255.04 515.69) rotate(-45)"/></g><rect class="cls-4" x="577.82" y="82.86" width="400" height="400" transform="translate(27.8 632.85) rotate(-45)"/><rect class="cls-10" x="621.75" y="188.93" width="100" height="400" transform="translate(-78.26 588.91) rotate(-45)"/><rect class="cls-6" x="621.75" y="-23.21" width="100" height="400" transform="translate(1021.74 776.81) rotate(-135)"/><g class="cls-8"><rect class="cls-9" x="577.82" y="82.86" width="400" height="400" transform="translate(27.8 632.85) rotate(-45)"/></g></g><g class="cls-12"><rect class="cls-4" x="-270.75" y="-200.02" width="400" height="400" transform="translate(-20.71 -50.03) rotate(-45)"/><rect class="cls-5" x="-84.68" y="-236.08" width="100" height="400" transform="translate(15.35 -35.09) rotate(-45)"/><rect class="cls-7" x="-85.39" y="-164.66" width="100" height="400" transform="translate(-85.4 35.3) rotate(-135)"/><g class="cls-8"><rect class="cls-9" x="-270.75" y="-200.02" width="400" height="400" transform="translate(-20.71 -50.03) rotate(-45)"/></g><rect class="cls-4" x="-270.75" y="365.67" width="400" height="400" transform="translate(-420.71 115.65) rotate(-45)"/><rect class="cls-5" x="-84.68" y="329.6" width="100" height="400" transform="translate(-384.65 130.59) rotate(-45)"/><rect class="cls-7" x="-85.39" y="401.02" width="100" height="400" transform="translate(-485.4 1000.98) rotate(-135)"/><g class="cls-8"><rect class="cls-9" x="-270.75" y="365.67" width="400" height="400" transform="translate(-420.71 115.65) rotate(-45)"/></g><rect class="cls-4" x="12.1" y="82.82" width="400" height="400" transform="translate(-137.87 232.81) rotate(-45)"/><rect class="cls-10" x="56.03" y="188.89" width="100" height="400" transform="translate(-243.93 188.88) rotate(-45)"/><rect class="cls-5" x="198.16" y="46.76" width="100" height="400" transform="translate(-101.8 247.75) rotate(-45)"/><rect class="cls-6" x="56.03" y="-23.24" width="100" height="400" transform="translate(56.02 376.72) rotate(-135)"/><rect class="cls-7" x="197.45" y="118.18" width="100" height="400" transform="translate(197.44 718.14) rotate(-135)"/><g class="cls-8"><rect class="cls-9" x="12.1" y="82.82" width="400" height="400" transform="translate(-137.87 232.81) rotate(-45)"/></g><rect class="cls-4" x="294.94" y="-200.02" width="400" height="400" transform="translate(144.98 349.97) rotate(-45)"/><rect class="cls-10" x="338.87" y="-93.95" width="100" height="400" transform="translate(38.91 306.03) rotate(-45)"/><rect class="cls-5" x="481" y="-236.08" width="100" height="400" transform="translate(181.04 364.91) rotate(-45)"/><rect class="cls-6" x="338.87" y="-306.08" width="100" height="400" transform="translate(738.86 93.88) rotate(-135)"/><rect class="cls-7" x="480.29" y="-164.66" width="100" height="400" transform="translate(880.28 435.3) rotate(-135)"/><g class="cls-8"><rect class="cls-9" x="294.94" y="-200.02" width="400" height="400" transform="translate(144.98 349.97) rotate(-45)"/></g><rect class="cls-4" x="294.94" y="365.67" width="400" height="400" transform="translate(-255.02 515.65) rotate(-45)"/><rect class="cls-10" x="338.87" y="471.73" width="100" height="400" transform="translate(-361.09 471.72) rotate(-45)"/><rect class="cls-5" x="481" y="329.6" width="100" height="400" transform="translate(-218.96 530.59) rotate(-45)"/><rect class="cls-6" x="338.87" y="259.6" width="100" height="400" transform="translate(338.86 1059.56) rotate(-135)"/><rect class="cls-7" x="480.29" y="401.02" width="100" height="400" transform="translate(480.28 1400.98) rotate(-135)"/><g class="cls-8"><rect class="cls-9" x="294.94" y="365.67" width="400" height="400" transform="translate(-255.02 515.65) rotate(-45)"/></g><rect class="cls-4" x="577.78" y="82.82" width="400" height="400" transform="translate(27.82 632.81) rotate(-45)"/><rect class="cls-10" x="621.72" y="188.89" width="100" height="400" transform="translate(-78.25 588.88) rotate(-45)"/><rect class="cls-6" x="621.72" y="-23.24" width="100" height="400" transform="translate(1021.7 776.72) rotate(-135)"/><g class="cls-8"><rect class="cls-9" x="577.78" y="82.82" width="400" height="400" transform="translate(27.82 632.81) rotate(-45)"/></g></g><g class="cls-13"><rect class="cls-4" x="-270.67" y="-200.02" width="400" height="400" transform="translate(-20.69 -49.98) rotate(-45)"/><rect class="cls-10" x="-226.74" y="-93.95" width="100" height="400" transform="translate(-126.75 -93.91) rotate(-45)"/><rect class="cls-5" x="-84.61" y="-236.08" width="100" height="400" transform="translate(15.38 -35.04) rotate(-45)"/><rect class="cls-6" x="-226.74" y="-306.08" width="100" height="400" transform="translate(-226.7 -306.07) rotate(-135)"/><rect class="cls-7" x="-85.32" y="-164.66" width="100" height="400" transform="translate(-85.28 35.35) rotate(-135)"/><g class="cls-8"><rect class="cls-9" x="-270.67" y="-200.02" width="400" height="400" transform="translate(-20.69 -49.98) rotate(-45)"/></g><rect class="cls-4" x="-270.67" y="365.67" width="400" height="400" transform="translate(-420.69 115.71) rotate(-45)"/><rect class="cls-10" x="-226.74" y="471.73" width="100" height="400" transform="translate(-526.75 71.77) rotate(-45)"/><rect class="cls-5" x="-84.61" y="329.6" width="100" height="400" transform="translate(-384.62 130.64) rotate(-45)"/><rect class="cls-6" x="-226.74" y="259.6" width="100" height="400" transform="translate(-626.7 659.61) rotate(-135)"/><rect class="cls-7" x="-85.32" y="401.02" width="100" height="400" transform="translate(-485.28 1001.04) rotate(-135)"/><g class="cls-8"><rect class="cls-9" x="-270.67" y="365.67" width="400" height="400" transform="translate(-420.69 115.71) rotate(-45)"/></g><rect class="cls-4" x="12.17" y="82.82" width="400" height="400" transform="translate(-137.84 232.86) rotate(-45)"/><rect class="cls-10" x="56.1" y="188.89" width="100" height="400" transform="translate(-243.91 188.93) rotate(-45)"/><rect class="cls-5" x="198.23" y="46.76" width="100" height="400" transform="translate(-101.78 247.8) rotate(-45)"/><rect class="cls-6" x="56.1" y="-23.24" width="100" height="400" transform="translate(56.14 376.77) rotate(-135)"/><rect class="cls-7" x="197.52" y="118.18" width="100" height="400" transform="translate(197.56 718.19) rotate(-135)"/><g class="cls-8"><rect class="cls-9" x="12.17" y="82.82" width="400" height="400" transform="translate(-137.84 232.86) rotate(-45)"/></g><rect class="cls-4" x="295.01" y="-200.02" width="400" height="400" transform="translate(145 350.02) rotate(-45)"/><rect class="cls-10" x="338.95" y="-93.95" width="100" height="400" transform="translate(38.93 306.09) rotate(-45)"/><rect class="cls-5" x="481.07" y="-236.08" width="100" height="400" transform="translate(181.06 364.96) rotate(-45)"/><rect class="cls-6" x="338.95" y="-306.08" width="100" height="400" transform="translate(738.98 93.93) rotate(-135)"/><rect class="cls-7" x="480.37" y="-164.66" width="100" height="400" transform="translate(880.41 435.35) rotate(-135)"/><g class="cls-8"><rect class="cls-9" x="295.01" y="-200.02" width="400" height="400" transform="translate(145 350.02) rotate(-45)"/></g><rect class="cls-4" x="295.01" y="365.67" width="400" height="400" transform="translate(-255 515.71) rotate(-45)"/><rect class="cls-10" x="338.95" y="471.73" width="100" height="400" transform="translate(-361.07 471.77) rotate(-45)"/><rect class="cls-5" x="481.07" y="329.6" width="100" height="400" transform="translate(-218.94 530.64) rotate(-45)"/><rect class="cls-6" x="338.95" y="259.6" width="100" height="400" transform="translate(338.98 1059.61) rotate(-135)"/><rect class="cls-7" x="480.37" y="401.02" width="100" height="400" transform="translate(480.41 1401.04) rotate(-135)"/><g class="cls-8"><rect class="cls-9" x="295.01" y="365.67" width="400" height="400" transform="translate(-255 515.71) rotate(-45)"/></g><rect class="cls-4" x="577.85" y="82.82" width="400" height="400" transform="translate(27.84 632.86) rotate(-45)"/><rect class="cls-10" x="621.79" y="188.89" width="100" height="400" transform="translate(-78.23 588.93) rotate(-45)"/><rect class="cls-6" x="621.79" y="-23.24" width="100" height="400" transform="translate(1021.83 776.77) rotate(-135)"/><g class="cls-8"><rect class="cls-9" x="577.85" y="82.82" width="400" height="400" transform="translate(27.84 632.86) rotate(-45)"/></g></g><g class="cls-14"><rect class="cls-4" x="-270.71" y="-200.05" width="400" height="400" transform="translate(-20.67 -50.02) rotate(-45)"/><rect class="cls-5" x="-84.65" y="-236.12" width="100" height="400" transform="translate(15.39 -35.08) rotate(-45)"/><rect class="cls-6" x="-226.78" y="-306.12" width="100" height="400" transform="translate(-226.74 -306.16) rotate(-135)"/><rect class="cls-7" x="-85.36" y="-164.7" width="100" height="400" transform="translate(-85.32 35.26) rotate(-135)"/><g class="cls-8"><rect class="cls-9" x="-270.71" y="-200.05" width="400" height="400" transform="translate(-20.67 -50.02) rotate(-45)"/></g><rect class="cls-4" x="-270.71" y="365.63" width="400" height="400" transform="translate(-420.67 115.67) rotate(-45)"/><rect class="cls-5" x="-84.65" y="329.57" width="100" height="400" transform="translate(-384.61 130.61) rotate(-45)"/><rect class="cls-6" x="-226.78" y="259.56" width="100" height="400" transform="translate(-626.74 659.53) rotate(-135)"/><rect class="cls-7" x="-85.36" y="400.99" width="100" height="400" transform="translate(-485.32 1000.95) rotate(-135)"/><g class="cls-8"><rect class="cls-9" x="-270.71" y="365.63" width="400" height="400" transform="translate(-420.67 115.67) rotate(-45)"/></g><rect class="cls-4" x="12.13" y="82.79" width="400" height="400" transform="translate(-137.83 232.83) rotate(-45)"/><rect class="cls-10" x="56.07" y="188.85" width="100" height="400" transform="translate(-243.9 188.89) rotate(-45)"/><rect class="cls-5" x="198.19" y="46.73" width="100" height="400" transform="translate(-101.77 247.76) rotate(-45)"/><rect class="cls-6" x="56.07" y="-23.28" width="100" height="400" transform="translate(56.1 376.68) rotate(-135)"/><rect class="cls-7" x="197.49" y="118.14" width="100" height="400" transform="translate(197.53 718.1) rotate(-135)"/><g class="cls-8"><rect class="cls-9" x="12.13" y="82.79" width="400" height="400" transform="translate(-137.83 232.83) rotate(-45)"/></g><rect class="cls-4" x="294.97" y="-200.05" width="400" height="400" transform="translate(145.01 349.98) rotate(-45)"/><rect class="cls-10" x="338.91" y="-93.99" width="100" height="400" transform="translate(38.95 306.05) rotate(-45)"/><rect class="cls-5" x="481.04" y="-236.12" width="100" height="400" transform="translate(181.08 364.92) rotate(-45)"/><rect class="cls-6" x="338.91" y="-306.12" width="100" height="400" transform="translate(738.95 93.84) rotate(-135)"/><rect class="cls-7" x="480.33" y="-164.7" width="100" height="400" transform="translate(880.37 435.26) rotate(-135)"/><g class="cls-8"><rect class="cls-9" x="294.97" y="-200.05" width="400" height="400" transform="translate(145.01 349.98) rotate(-45)"/></g><rect class="cls-4" x="12.13" y="648.47" width="400" height="400" transform="translate(-537.83 398.51) rotate(-45)"/><rect class="cls-6" x="56.07" y="542.41" width="100" height="400" transform="translate(-343.9 1342.37) rotate(-135)"/><g class="cls-8"><rect class="cls-9" x="12.13" y="648.47" width="400" height="400" transform="translate(-537.83 398.51) rotate(-45)"/></g><rect class="cls-4" x="294.97" y="365.63" width="400" height="400" transform="translate(-254.99 515.67) rotate(-45)"/><rect class="cls-10" x="338.91" y="471.7" width="100" height="400" transform="translate(-361.05 471.74) rotate(-45)"/><rect class="cls-5" x="481.04" y="329.57" width="100" height="400" transform="translate(-218.92 530.61) rotate(-45)"/><rect class="cls-6" x="338.91" y="259.56" width="100" height="400" transform="translate(338.95 1059.53) rotate(-135)"/><rect class="cls-7" x="480.33" y="400.99" width="100" height="400" transform="translate(480.37 1400.95) rotate(-135)"/><g class="cls-8"><rect class="cls-9" x="294.97" y="365.63" width="400" height="400" transform="translate(-254.99 515.67) rotate(-45)"/></g><rect class="cls-4" x="577.82" y="82.79" width="400" height="400" transform="translate(27.86 632.83) rotate(-45)"/><rect class="cls-10" x="621.75" y="188.85" width="100" height="400" transform="translate(-78.21 588.89) rotate(-45)"/><rect class="cls-6" x="621.75" y="-23.28" width="100" height="400" transform="translate(1021.79 776.68) rotate(-135)"/><g class="cls-8"><rect class="cls-9" x="577.82" y="82.79" width="400" height="400" transform="translate(27.86 632.83) rotate(-45)"/></g><rect class="cls-4" x="577.82" y="648.47" width="400" height="400" transform="translate(-372.14 798.51) rotate(-45)"/><rect class="cls-6" x="621.75" y="542.41" width="100" height="400" transform="translate(621.79 1742.37) rotate(-135)"/><g class="cls-8"><rect class="cls-9" x="577.82" y="648.47" width="400" height="400" transform="translate(-372.14 798.51) rotate(-45)"/></g></g><rect class="cls-15" x="-565.65" y="-565.65" width="1696.95" height="1696.95"/></g></g></svg>